<?xml version="1.0" encoding="UTF-8"?>
<svg xmlns="http://www.w3.org/2000/svg" xmlns:xlink="http://www.w3.org/1999/xlink" width="654pt" height="703pt" viewBox="0 0 2725 2928" version="1.1">

<path style="fill:#030303; stroke:#030303;" d="M1345 47.439C1330.57 49.688 1315.26 52.9849 1303 61.3596C1294.94 66.8721 1289.23 75.7336 1282.84 83L1241.84 131C1210.29 166.863 1179.72 203.649 1148.73 240L1049.58 356C992.951 423.019 935.327 489.215 878.427 556L495.728 1004C430.009 1081.07 363.241 1157.31 298.246 1235C257.159 1284.11 215.18 1332.58 173.282 1381C142.299 1416.81 112.377 1453.58 80.9498 1489C61.7417 1510.65 43.1978 1532.97 24.4275 1555L11.6698 1570C9.11557 1573.28 6.79556 1576.66 7.20679 1581C7.9088 1588.41 14.0905 1594.06 18.9992 1599L27.2855 1608C37.0352 1619.05 47.7735 1629.35 57.9606 1640L89.9961 1674L116.09 1702L184.09 1774C227.613 1820.72 272.387 1866.28 315.91 1913L469.91 2076C607.998 2224.24 749.002 2369.76 887.089 2518C936.237 2570.76 986.763 2622.24 1035.91 2675C1092.48 2735.73 1149.6 2796.01 1206.96 2856C1223.42 2873.22 1239.25 2891.05 1256 2908L1268.99 2922C1270.86 2923.89 1272.76 2926.34 1275.29 2927.4C1279.64 2929.22 1286.35 2928 1291 2928L1327 2928L1411 2928L1439 2928C1443.53 2928 1448.41 2928.51 1452.91 2927.87C1456.57 2927.34 1458.66 2924.47 1461.09 2921.96L1474.42 2908C1489.99 2890.09 1507.25 2873.6 1523.17 2856C1541.95 2835.25 1561.84 2815.48 1580.91 2795L1712.09 2655L1815.91 2545L2088.09 2255L2160.91 2178L2348.91 1978L2410.91 1912C2419.59 1902.68 2428.02 1893.03 2437 1884C2446.33 1874.62 2455.08 1864.67 2464.09 1855L2527.09 1788C2568.56 1743.48 2611.35 1700.12 2652.17 1655L2677.91 1628L2702.01 1602C2707.87 1595.99 2718.45 1587.65 2716.71 1578C2716.06 1574.43 2713.48 1571.7 2711.25 1569L2701.25 1557C2688.03 1541.23 2674.74 1525.45 2661.16 1510C2614.37 1456.75 2569.27 1401.94 2523.27 1348C2352.66 1147.92 2183.25 946.769 2012.27 747L1731.73 417C1672.11 347.082 1611.96 277.535 1553.08 207C1528.12 177.094 1502.77 147.458 1477.28 118L1445.13 80C1439.77 73.7664 1434.74 66.6194 1428 61.7886C1422.85 58.1003 1416.93 56.0186 1411 53.9968C1396.14 48.9319 1380.69 47 1365 47C1358.42 47 1351.52 46.4229 1345 47.439z"/>
<path style="fill:#f5f5f5; stroke:#f5f5f5;" d="M1364.09 166.346C1361.57 167.024 1359.61 170.148 1358 172.001L1346 186L1299 241L1116.87 454C1030.79 554.018 945.347 654.591 859.728 755L425.421 1263L223.579 1499L173.13 1558L160.275 1573C158.707 1574.87 156.131 1577.35 156.192 1580C156.238 1582 157.782 1583.56 158.974 1585L165.09 1592L191.961 1620L250.09 1682L294.91 1729C405.193 1847.39 517.807 1963.61 628.089 2082L706.911 2165C839.694 2307.54 975.307 2447.45 1108.09 2590L1205.91 2693L1297.09 2790L1325.83 2820C1335.33 2830.5 1345.01 2840.96 1355 2851C1357.35 2853.37 1362.08 2860.72 1366 2859.65C1368.93 2858.85 1371.13 2855.1 1373.09 2853L1387.29 2838L1398.91 2826L1435.17 2787C1458.85 2760.83 1483.86 2735.82 1507.91 2710C1541.51 2673.92 1574.97 2637.63 1609.04 2602C1656.14 2552.74 1702.64 2502.87 1749.09 2453L1922.09 2269L1994.91 2192C2095.56 2083.95 2197.44 1977.05 2298.09 1869L2439.09 1719C2459.68 1696.9 2480.91 1675.4 2501.17 1653L2526.91 1626L2550.04 1601L2563.28 1587C2564.94 1585.08 2567.74 1582.76 2567.81 1580C2567.91 1575.75 2561.94 1570.98 2559.42 1568L2532.16 1536C2497.2 1496.22 2463.68 1455.14 2429.13 1415L2302.57 1266L2025.27 940L1523.58 350C1483.59 303.06 1443.23 256.369 1403.75 209L1375.59 176C1373.2 173.165 1368.6 165.131 1364.09 166.346z"/>
<path style="fill:#030303; stroke:#030303;" d="M1353 662.424C1336.33 664.615 1319.7 666.108 1305 675.265C1296.45 680.592 1290.24 689.497 1283.72 697L1248.87 737L1156.87 843C1065.82 948.748 973.782 1053.65 882.282 1159L770.282 1288C751.492 1309.63 733.175 1331.77 713.925 1353C696.442 1372.28 679.784 1392.35 662.718 1412L576.424 1511L544.282 1548C539.044 1554.02 532.912 1559.3 534.144 1568C534.962 1573.77 540.111 1578.09 544.001 1582L566 1605C594.837 1633.84 622.166 1664.15 651 1693C663.996 1706 676.337 1719.72 689.039 1733L741.039 1787L811.961 1860C863.446 1913.84 914.959 1967.67 966.985 2021L1001.04 2057L1105.04 2165L1227.96 2292L1278.99 2345C1287.32 2353.54 1294.73 2364.16 1305 2370.53C1315.09 2376.8 1326.53 2379.33 1338 2381.26L1345 2382.87C1351.21 2383.57 1357.76 2383 1364 2383C1370.86 2383 1378.2 2383.74 1385 2382.79L1392 2381.17C1403.94 2378.97 1416.67 2376.15 1427 2369.45C1433.61 2365.16 1438.47 2358.53 1444 2353C1456 2340.99 1467.78 2328.59 1479.17 2316C1490.67 2303.29 1503.12 2291.39 1514.96 2279C1532.39 2260.77 1549.28 2241.94 1567 2224C1609.09 2181.4 1649.66 2137.27 1691.04 2094L1912.96 1862L1962.09 1810L1976.91 1795C1988.48 1782.58 1999.99 1770.01 2012 1758C2038.33 1731.67 2063.31 1703.91 2089.04 1677L2131.04 1633L2149.29 1614L2164.96 1598L2179 1583C2184.65 1577.34 2191.16 1571.78 2189.85 1563C2189.08 1557.8 2184.53 1553.81 2181.27 1550L2158.05 1523C2130.6 1492.07 2104.02 1460.31 2077 1429L1888.28 1210C1849.45 1165.12 1811.33 1119.59 1772.16 1075L1701.72 993L1499.28 758L1450.16 701C1443.42 693.339 1437.33 683.796 1429 677.789C1417.7 669.642 1404.37 667.002 1391 664.679C1378.67 662.537 1365.55 660.775 1353 662.424z"/>
<path style="fill:#ffffff; stroke:#ffffff;" d="M1364.02 780.346C1362.15 780.847 1360.81 782.663 1359.58 784.02L1352.58 792L1325.72 823L1225.84 938C1094.89 1086.82 966.803 1238.18 835.845 1387C797.322 1430.78 759.101 1474.85 721 1519L692.282 1552L685.484 1560C684.41 1561.43 683.085 1563.1 683.167 1565C683.289 1567.81 686.121 1570.06 687.835 1572C693.034 1577.88 698.449 1583.45 704 1589L763.985 1651L798.039 1687L816.961 1706L902.039 1795L981.039 1877L998.911 1895C1041.49 1940.72 1085.78 1984.84 1128.96 2030L1214.04 2119L1232.96 2138C1247.63 2153.34 1261.99 2168.99 1277 2184C1291.01 2198 1304.36 2212.69 1318.04 2227C1326.07 2235.4 1334.59 2243.28 1342.29 2252C1347.21 2257.59 1352.68 2262.78 1358 2268C1360.02 2269.98 1362.76 2273.46 1366 2272.65C1367.98 2272.16 1369.58 2270.33 1371 2268.98L1378 2262C1388.27 2251.6 1398.13 2240.7 1408.09 2230C1442.32 2193.25 1478.47 2158.24 1512.17 2121C1523.67 2108.29 1536.12 2096.39 1547.96 2084L1610.96 2018L1765.04 1856C1806.76 1812.37 1848.95 1769.17 1890.09 1725L1945.96 1667C1965.35 1646.73 1984.16 1625.84 2004 1606L2017.04 1592L2032.71 1576C2035.26 1573.12 2041.48 1568.27 2040.82 1564C2040.29 1560.53 2036.45 1557.51 2034.28 1555L2017.13 1535L1954.16 1462L1870.72 1365L1731.13 1203L1556.28 1000C1521.47 959.766 1487.3 918.943 1452.16 879C1430.08 853.912 1408.46 828.388 1386.73 803L1371.16 785.005C1369.41 783.06 1367.11 779.519 1364.02 780.346z"/>
</svg>
