<?xml version="1.0" encoding="UTF-8"?>
<svg xmlns="http://www.w3.org/2000/svg" xmlns:xlink="http://www.w3.org/1999/xlink" width="358pt" height="856pt" viewBox="0 0 1492 3567" version="1.1">

<path style="fill:#010101; stroke:#010101;" d="M80 1609L552 1609L552 2167L887 2167L887 1609L1363 1609C1362.63 1605.61 1361.16 1603.1 1360.09 1599.91C1357.14 1591.14 1353.64 1582.6 1350.2 1574C1343.94 1558.35 1338.06 1542.48 1331.38 1527C1327.38 1517.71 1322.96 1508.52 1319.52 1499C1303.19 1453.91 1284.42 1409.56 1266.6 1365L1256.4 1340.83C1234.85 1284.32 1211.71 1228.13 1189 1172C1170.66 1126.67 1152.25 1081.26 1134.34 1035.83C1120.12 999.772 1106 963.671 1090.9 928.001L1085.88 914.089L1078 895.572L1071.6 878C1063.56 857.904 1055.35 837.889 1046.9 818C1041.46 805.193 1037.01 791.971 1032 779L994.8 686L878.4 396L773.8 134L757.904 96L751.384 78L739 47L727.8 19C725.427 13.0681 722.686 7.16577 721 1C717.314 3.00635 716.3 6.17383 714.804 10L707.95 27L702.242 41L700.096 48C692.277 66.4917 684.825 85.0159 677.669 103.83L659.2 149L615 260L601.253 295L598.678 302.83C590.472 322.854 581.915 342.796 574.11 363L563.678 390.83C553.433 415.83 542.862 440.781 533.11 466L523.616 490L521.096 498L505.601 535L498.326 554.715L489.004 577L486.096 586L482.204 594L477.598 606.83L470.204 624L455.29 662.715L435.204 712L400.204 800L387.253 833L384.678 840.83C376.472 860.854 367.915 880.796 360.11 901L349.678 928.83L330.204 976L310.4 1026L307.096 1036L297.2 1059L275.4 1114L272.096 1124L256.204 1162L249.326 1180.71C238.844 1206.79 227.986 1232.71 217.986 1259C208.025 1285.19 196.914 1310.93 186.601 1337L173.253 1371L170.678 1378.83C162.472 1398.85 153.915 1418.8 146.11 1439L135.678 1466.83L121 1502L97.1998 1562L93.0957 1574L84 1595C82.1374 1599.66 80.2595 1603.94 80 1609z"/>
<path style="fill:#dddddd; stroke:#dddddd;" d="M550 1609L550 2167L551 2167L551 1772L551 1658L551 1625C551 1619.92 551.981 1613.72 550 1609z"/>
<path style="fill:#5d5d5d; stroke:#5d5d5d;" d="M551 1609L551 2167L552 2167L552 1772L552 1658L552 1625C552 1619.92 552.981 1613.72 551 1609z"/>
<path style="fill:#7f7f7f; stroke:#7f7f7f;" d="M887 1609L887 2167L888 2167L888 1772L888 1658L888 1625C888 1619.92 888.981 1613.72 887 1609z"/>
<path style="fill:#010101; stroke:#010101;" d="M0 2195C1.59187 2200.17 6.54634 2202.02 11 2204.58L37 2219.94L83 2246.86L150 2286.28L248 2343.99L449 2462.01L540 2515.45L574 2535.45C581.213 2539.77 588.372 2544.44 596 2548L596 2549C589.061 2552.24 582.583 2556.49 576 2560.4L549 2576.4L465 2626.14C372.792 2680.24 280.682 2734.57 189 2789.55L64 2863.55L28 2884.8C21.9224 2888.44 14.5584 2891.5 10 2897L222 2897L281 2897L297 2897C300.821 2897 304.466 2897.14 308 2895.47C318.358 2890.56 328.115 2883.66 338 2877.86L403 2839.86L550 2754.14L632 2706.15L718 2655.85L740 2643C743.169 2641.18 747.211 2637.88 751 2637.81C754.947 2637.74 758.774 2641.25 762 2643.14L786 2657.32C814.354 2674.89 843.396 2691.39 872 2708.55L1072 2827.45L1155 2876.86C1165.3 2882.9 1175.28 2890 1186 2895.29C1189.86 2897.2 1193.8 2897 1198 2897L1213 2897L1271 2897L1481 2897L1481 2896L1069 2652.01L947 2579.8L914 2560.28C907.497 2556.51 899.645 2553.01 895 2547C902.785 2544.54 910.06 2539.31 917 2535.06L942 2520.42C975.16 2501.41 1008.22 2482.11 1041 2462.45C1079.72 2439.23 1119.05 2416.99 1158 2394.14C1215.32 2360.51 1272.44 2326.49 1330 2293.28L1444 2226.72L1477 2207.28C1481.99 2204.41 1488.83 2201.94 1492 2197L1280 2197L1221 2197L1205 2197C1201.19 2197 1197.51 2196.83 1194 2198.56C1180.6 2205.16 1167.81 2213.87 1155 2221.55L1097 2255.58C1021.09 2299.63 946.083 2345.27 870 2389L784 2439.58L761 2453.01C758.101 2454.72 754.531 2457.89 751 2457.84C747.262 2457.79 743.129 2454.37 740 2452.58L717 2439.15L628 2387.42L401 2255.72C379.65 2243.4 358.14 2231.23 337 2218.55L312 2204C307.711 2201.54 303.504 2198.45 299 2196.42C295.485 2194.83 291.769 2195 288 2195L272 2195L212 2195L0 2195z"/>
<path style="fill:#ffffff; stroke:#ffffff;" d="M0 2198L0 3567L550 3567L550 2948L888 2948L888 3567L1492 3567L1492 2199C1483.45 2201.71 1475.7 2207.62 1468 2212.14L1428 2235.55L1322 2297.55L1246 2341.86L1041 2461.86L936 2523.28C922.407 2531.13 909.23 2540.36 895 2547C897.65 2552.18 903.201 2554.34 908 2557.32C918.523 2563.84 929.261 2570.12 940 2576.28C977.303 2597.67 1013.73 2620.57 1051 2642C1090.96 2664.97 1130.47 2688.85 1170 2712.55L1334 2809.45L1432 2867.45L1459 2883.45C1466.2 2887.77 1473.24 2892.75 1481 2896L1481 2897L1272 2897L1214 2897L1199 2897C1194.8 2897 1190.86 2897.2 1187 2895.29C1176.28 2890 1166.3 2882.9 1156 2876.86L1073 2827.45L873 2708.55C844.396 2691.39 815.354 2674.89 787 2657.32L763 2643.14C759.434 2641.05 755.365 2637.38 751 2637.44C747.129 2637.49 743.232 2640.57 740 2642.42L717 2655.85L631 2706.15L549 2754.14L402 2839.86L337 2877.86C327.115 2883.66 317.358 2890.56 307 2895.47C303.466 2897.14 299.821 2897 296 2897L280 2897L221 2897L10 2897C15.7541 2892.11 22.537 2888.67 29 2884.8L65 2863.55C106.191 2838.85 147.572 2814.44 189 2790.14C274.538 2739.96 359.945 2689.45 445 2638.45L542 2581.01C559.982 2570.45 578.593 2560.48 596 2549L596 2548C585.36 2540.98 573.931 2535.11 563 2528.55L477 2477.99L249 2343.99C195.997 2312.86 142.711 2282.16 90 2250.55L39 2220.55C26.2364 2212.9 13.4922 2204.3 0 2198z"/>
<path style="fill:#dddddd; stroke:#dddddd;" d="M550 2948L550 3567L551 3567L551 3128L551 3002L551 2966C551 2960.38 552.189 2953.22 550 2948z"/>
<path style="fill:#5d5d5d; stroke:#5d5d5d;" d="M551 2948L551 3567L552 3567L552 3128L552 3002L552 2966C552 2960.38 553.189 2953.22 551 2948z"/>
<path style="fill:#010101; stroke:#010101;" d="M552 2948L552 3567L887 3567L887 2948L552 2948z"/>
<path style="fill:#7f7f7f; stroke:#7f7f7f;" d="M887 2948L887 3567L888 3567L888 3128L888 3002L888 2966C888 2960.38 889.189 2953.22 887 2948z"/>
</svg>
