<?xml version="1.0" encoding="UTF-8"?>
<svg xmlns="http://www.w3.org/2000/svg" xmlns:xlink="http://www.w3.org/1999/xlink" width="308pt" height="509pt" viewBox="0 0 1283 3370" version="1.1">

<path style="fill:#010101; stroke:#010101;" d="M639 1C635.732 5.14844 633.856 10.2075 631.694 15L621.291 39L591.291 107L497.14 320L189.291 1018C144.259 1119.57 98.8051 1221.03 54.5756 1323C43.1404 1349.36 31.9329 1375.95 19.8333 1402L5.71528 1434C3.44032 1439.35 0.589852 1444.11 0 1450L472 1450L472 3370L806 3370L806 1450L1283 1450C1282 1444.41 1279.12 1439.15 1276.77 1434L1267.86 1414L1235.71 1342C1202.91 1268.01 1170.58 1193.81 1137.31 1120C1104.48 1047.19 1072.44 974.062 1040.14 901L882.709 547L824.306 415C781.275 319.548 739.197 223.757 696.86 128C684.762 100.637 671.905 73.5544 660.286 46L648.285 19C645.712 12.9412 643.537 5.85156 639 1z"/>
<path style="fill:#dddddd; stroke:#dddddd;" d="M0 1450L0 1451L470 1451L470 3370L471 3370L471 1450L0 1450z"/>
<path style="fill:#5d5d5d; stroke:#5d5d5d;" d="M471 1450L471 3370L472 3370L472 2005L472 1612L472 1498L472 1466C472 1460.92 472.981 1454.72 471 1450z"/>
<path style="fill:#232323; stroke:#232323;" d="M806 1450L806 3370L807 3370L807 2006L807 1612L807 1498L807 1466C807 1460.92 807.981 1454.72 806 1450z"/>
<path style="fill:#a1a1a1; stroke:#a1a1a1;" d="M807 1450L807 3370L808 3370L808 2005L808 1612L808 1498L808 1466C808 1460.92 808.981 1454.72 807 1450z"/>
<path style="fill:#ffffff; stroke:#ffffff;" d="M808 1450L808 3370L1283 3370L1283 1450L808 1450M0 1451L0 3370L470 3370L470 1451L0 1451z"/>
</svg>
