<?xml version="1.0" encoding="UTF-8"?>
<svg xmlns="http://www.w3.org/2000/svg" xmlns:xlink="http://www.w3.org/1999/xlink" width="643pt" height="809pt" viewBox="0 0 2679 3370" version="1.1">

<path style="fill:#010101; stroke:#010101;" d="M2038 0C2020.65 41.7283 2001.14 82.6633 1982.86 124L1867.86 383L1692.86 777C1659.27 853.036 1625.87 929.182 1591.69 1005L1545.29 1110L1457.14 1308C1441.67 1342.99 1425.58 1377.75 1410.71 1413L1401.83 1433C1399.22 1438.53 1396.08 1443.92 1395 1450L1872 1450L1872 2381L1862 2376.3L1835 2363.26L1788 2340.74C1776.05 2334.92 1764.22 2328.66 1752 2323.43C1726.61 2312.56 1700.65 2302.86 1675 2292.6C1653.39 2283.96 1631.93 2274.5 1610 2266.69C1582.21 2256.79 1553.98 2247.99 1526 2238.67L1443 2210.74L1434 2208.56L1406 2200.84L1370 2190.84L1349 2184.59L1290 2168.57C1275.77 2164.68 1261.64 2159.15 1247 2157L1247 1658C1241.88 1659.17 1237.53 1662.14 1233 1664.72L1210 1678.15L1133 1722.72C1043.23 1773.76 954.559 1826.74 865 1878.15C670.522 1989.78 476.943 2103.01 283 2215.58C224.029 2249.8 165.215 2284.35 106 2318.15L44 2354.15C29.3685 2362.55 13.7351 2370.19 0 2380L0 2381C12.1949 2390.31 26.0432 2397.85 39 2406.05L108 2450.05L287 2564.05L635 2785.95C706.746 2831.39 778.603 2876.71 850 2922.69C904.841 2958.02 959.921 2993 1015 3027.95C1042.32 3045.29 1069.99 3062.19 1097 3080C1123.06 3097.18 1149.51 3113.92 1176 3130.42L1197 3143.81C1201.24 3146.44 1205.03 3149.1 1210 3150L1210 2592C1214.96 2592 1220.06 2591.68 1225 2592.17L1237 2593.96L1257 2594.99L1272 2595.17L1298 2598.71L1307 2599.29L1357 2605.71L1366 2606.13L1374 2607.89L1409 2612.57L1419 2613.46C1445.22 2618.06 1471.15 2624.55 1497 2630.47L1505 2631.68L1531 2638.48L1539 2639.79L1555 2644.96C1568.31 2648.79 1581.88 2652.25 1595 2656.71C1611.3 2662.25 1627.15 2669.07 1643 2675.77C1658.17 2682.19 1673.25 2688.38 1688 2695.75C1698.22 2700.86 1709.2 2705.21 1719 2711.09C1727.61 2716.26 1735.77 2722.52 1744 2728.28C1751.64 2733.63 1759.77 2738.57 1767 2744.46C1775.66 2751.52 1783.71 2759.35 1792 2766.83C1798.27 2772.49 1805.18 2777.7 1810.83 2784C1817.92 2791.91 1823.64 2801.31 1829.72 2810C1833.8 2815.82 1838.96 2821.63 1842.12 2828L1845.44 2837L1852.86 2856C1856.05 2863.91 1860.57 2871.62 1862.47 2880L1864.09 2893L1867.79 2913L1868.3 2923C1869.06 2928.35 1870.54 2933.57 1870.91 2939C1871.73 2950.89 1871 2963.08 1871 2975L1871 3044L1871 3370L2206 3370C2206 3172.34 2205.05 2974.66 2206 2777L2207 2761L2206.91 2744L2206 2733L2206 2537L2206 1450L2679 1450C2677.1 1443.06 2673.76 1436.56 2670.86 1430L2656.31 1397L2613.71 1301C2572.59 1207.67 2532.22 1114 2490.31 1021C2460.37 954.575 2431.58 887.639 2402.14 821L2199.14 361L2139.71 227L2100.69 138L2067.56 63C2058.22 42.1235 2048.28 21.332 2040 0L2038 0z"/>
<path style="fill:#ffffff; stroke:#ffffff;" d="M2040 0C2043.6 13.1526 2050.65 25.5635 2056.14 38L2086.58 107C2123.52 192.234 2161.6 277.01 2199.14 362L2519.71 1089L2628.71 1336L2662.86 1413C2667.97 1424.57 2673.92 1436.02 2678 1448L2679 1448L2679 0L2040 0z"/>
<path style="fill:#a1a1a1; stroke:#a1a1a1;" d="M1870 1450L1870 2380L1871 2380L1871 1720L1871 1530L1871 1475L1871 1460C1871 1456.58 1871.33 1453.17 1870 1450z"/>
<path style="fill:#232323; stroke:#232323;" d="M1871 1450L1871 2137L1871 2315L1871 2361C1871 2366.8 1872.62 2375.22 1869 2380L1869 2381C1869.54 2380.88 1870.91 2381.01 1871.33 2380.28C1872.99 2377.42 1872 2372.22 1872 2369L1872 2331L1872 2169L1872 1647L1872 1505L1872 1466C1872 1461.29 1873.32 1454.03 1871 1450z"/>
<path style="fill:#3b3b3b; stroke:#3b3b3b;" d="M2206 1450L2206 2741L2207 2741L2207 1824L2207 1560L2207 1483L2207 1462C2207 1458.02 2207.55 1453.7 2206 1450z"/>
<path style="fill:#bbbbbb; stroke:#bbbbbb;" d="M2207 1450L2207 3370L2208 3370L2208 2005L2208 1612L2208 1498L2208 1466C2208 1460.92 2208.98 1454.72 2207 1450z"/>
<path style="fill:#ffffff; stroke:#ffffff;" d="M2208 1450L2208 3370L2679 3370L2679 1450L2208 1450M0 2381L0 3370L1871 3370L1871 3044L1871 2974C1871 2962.08 1871.73 2949.89 1870.91 2938C1870.54 2932.57 1869.06 2927.35 1868.3 2922L1867.79 2912L1864.09 2892L1862.47 2879C1860.57 2870.62 1856.05 2862.91 1852.86 2855L1845.44 2836L1842.12 2827C1838.96 2820.63 1833.8 2814.82 1829.72 2809C1823.64 2800.32 1817.94 2790.88 1810.83 2783C1805.17 2776.74 1798.18 2771.64 1792 2765.91C1783.86 2758.37 1775.73 2750.54 1767 2743.67C1759.67 2737.9 1751.62 2732.96 1744 2727.58C1735.86 2721.82 1727.67 2715.43 1719 2710.5L1703 2702.74L1679 2690.92C1652.02 2678.34 1624.21 2666.3 1596 2656.71C1582.88 2652.25 1569.31 2648.79 1556 2644.96L1540 2639.79L1532 2638.48L1506 2631.68L1498 2630.47C1472.15 2624.55 1446.22 2618.06 1420 2613.46L1410 2612.57L1375 2607.89L1367 2606.13L1358 2605.71L1308 2599.29L1299 2598.71L1284 2596.17L1256 2594.91C1241.32 2593.91 1226.75 2593 1212 2593L1212 3152C1204.26 3148.79 1196.99 3143.3 1190 3138.67L1166 3123.34L1096 3078.69C1021.58 3030.78 946.733 2983.48 872 2936.05L275 2555.95C214.942 2517.84 154.799 2479.82 95 2441.31L30 2399.95C20.0173 2393.62 10.3426 2386.74 0 2381z"/>
<path style="fill:#232323; stroke:#232323;" d="M1210 2592L1210 2996L1210 3106L1210 3135C1210 3140.48 1210.74 3146.07 1208 3151C1209.48 3151.99 1209.2 3152 1211 3152L1211 2755L1211 2641L1211 2608C1211 2602.92 1211.98 2596.72 1210 2592z"/>
<path style="fill:#a1a1a1; stroke:#a1a1a1;" d="M1211 2592L1211 3152L1212 3152L1212 2593L1228 2593C1223.03 2590.91 1216.36 2592 1211 2592z"/>
<path style="fill:#3b3b3b; stroke:#3b3b3b;" d="M2206 2769L2206 3370L2207 3370L2207 2944L2207 2821L2207 2786C2207 2780.65 2208.08 2773.97 2206 2769z"/>
</svg>
