<?xml version="1.0" encoding="UTF-8"?>
<svg xmlns="http://www.w3.org/2000/svg" xmlns:xlink="http://www.w3.org/1999/xlink" width="330pt" height="262pt" viewBox="0 0 1375 1093" version="1.1">

<path style="fill:#030303; stroke:#030303;" d="M65 1093L83 1093C85.7442 1093 89.1214 1093.48 91.7145 1092.4C94.2178 1091.35 96.1535 1088.91 97.9753 1087L108.004 1076C121.752 1062.08 135.345 1047.67 148.285 1033L175.91 1004L259.09 915L290.17 882L329.91 840L430.09 733L476.17 684L522.089 635L534.71 622C536.342 620.108 538.847 617.634 539.093 615C539.464 611.039 534.449 607.48 532.004 605C525.011 597.908 517.955 590.518 511.424 583C503.031 573.338 493.884 564.25 485.039 555L445.91 513L420.285 486C400.934 464.059 380.032 443.408 360.09 422L236.09 290L112.09 158L65.0895 108L40 81L227 81L275 81C281.2 81 289.765 79.3953 295 83.3179C302.341 88.8182 308.223 96.5931 314.96 102.816C338.532 124.589 360.654 147.884 383.985 169.907C418.454 202.441 451.858 236.08 485.996 268.96C517.401 299.207 549.166 329.166 580 360L652 430L668.656 446C671.736 448.955 674.916 452.716 679 454.258C682.349 455.523 686.486 455.023 690 454.999C691.986 454.986 694.103 455.096 696 454.397C700.013 452.917 702.915 448.96 706 446.17L721 432C743.941 409.059 766.262 385.202 790 363.089C818.115 336.899 844.661 309.018 872 282.004L884 270.985L957 198.004L982 174C1005.18 150.823 1028.02 127.244 1052 104.911C1059.41 98.0125 1065.9 89.3889 1074 83.3179C1079.24 79.3951 1087.8 81 1094 81L1143 81L1334 81C1328.1 89.4763 1320.24 96.681 1313 104L1291.09 126.985L1214.04 207.996L1065.91 364.039L986.816 447.093C974.952 459.509 962.675 471.599 951.255 484.424C940.026 497.034 927.676 508.699 916.093 520.985C897.486 540.724 879.088 560.71 860.004 580C851.994 588.096 843.973 596.468 836.326 604.907C834.067 607.399 829.069 611.297 829.306 615.015C829.485 617.839 832.201 620.111 834.012 621.999L846.184 635.04C863.071 653.323 880.653 671.02 897.907 688.961L1094.82 895.907L1232.91 1040.96L1268 1078L1277.02 1087.51C1278.59 1089.27 1280.06 1091.44 1282.3 1092.4C1284.87 1093.49 1288.27 1093 1291 1093L1309 1093C1307.22 1089.89 1304.58 1087.65 1302.17 1085L1283.17 1065C1258.17 1037.37 1231.49 1011.27 1206.09 984C1180.05 956.043 1153.45 928.617 1127.04 901L1040.96 810L982.911 749L963.714 729C953.343 717.241 941.876 706.333 931.039 695L882.961 644L862.985 623C860.85 620.805 856.169 617.521 856.631 614C857.127 610.224 862.486 606.515 865 604L886 582C912.643 555.314 937.337 526.674 964 500C981.489 482.504 998.229 464.1 1015.09 446L1047.96 412L1115.04 341C1147.47 307.08 1180.1 273.338 1212.09 239C1224.33 225.859 1237.4 213.472 1249.29 200C1260.59 187.18 1273.26 175.509 1284.91 163C1302.74 143.86 1320.52 124.514 1339 106L1361 83C1362.89 81.0693 1367.28 77.6043 1365.82 74.4189C1364.48 71.4744 1358.82 70.5264 1356 70.1844C1346.25 69.0012 1335.82 70 1326 70L1200 70L1102 70L1074 70C1069.26 70 1063.51 69.1691 1059 70.8935C1055.06 72.3982 1052.16 75.8731 1049.17 78.6998L1035 92L988 139L954 172.015L884.001 241.996L869.999 255.015L826 299L725 399L697.999 425.015C695.228 427.726 691.102 433.83 687 434.369C682.943 434.902 678.506 428.506 676 426L647 398C608.494 359.496 568.506 322.506 530 284C513.67 267.67 496.689 251.919 480 235.961L454 210.039L375 133.961L350 109.015L331 91L319 79.0038C316.016 76.0568 313.02 72.9066 309 71.4244C302.794 69.136 295.486 70 289 70L254 70L132 70L47 70L24 70C19.7674 70.0003 14.9421 69.5277 11.0594 71.5725C5.57606 74.4603 8.86669 78.6966 12.0193 82L31.9606 103L118.039 195C154.064 232.674 189.562 270.861 225.09 309L327.91 418L389.91 484L413.015 509L442.09 540L487.17 588L505.039 607C506.994 609.064 510.729 611.769 510.384 615C509.998 618.61 505.316 622.536 502.961 625L481.015 648C467.67 661.681 454.937 676.016 441.91 690L400.17 734C375.319 761.465 349.335 787.898 324.09 815L162.91 987L122.09 1030L98.9853 1055L80.0008 1075C74.7429 1080.29 68.1659 1086.21 65 1093z"/>
<path style="fill:#010101; stroke:#010101;" d="M40 81C45.4263 88.7335 52.4954 95.1133 58.9105 102L89.9606 135L127.09 175L167.91 218L321.91 382L383.91 448C392.597 457.325 400.995 466.977 410 476C419.341 485.36 428.079 495.327 437.09 505C460.208 529.818 483.52 554.486 506.961 579L531.015 605C533.402 607.448 538.748 611.114 538.408 615C538.083 618.714 533.4 622.525 530.985 625L509.015 648C496 661.342 483.615 675.362 470.91 689L429.17 733C398.784 766.581 366.958 798.863 336.09 832L190.91 987L150.09 1030L126.985 1055C118.697 1063.5 110.208 1072.04 102.424 1081C99.0593 1084.87 95.1781 1088.33 93 1093L283 1093L332 1093C338.115 1093 347.054 1094.69 352.255 1090.89C356.9 1087.5 360.949 1083.05 365 1079L382 1062L432.985 1012.04L567.985 880.04L595 854L656.996 793.015L672.093 778.679C674.53 776.516 676.897 774.078 680 772.894C682.53 771.928 685.337 772 688 772.002C690.32 772.002 692.794 771.9 695 772.742C698.606 774.12 701.332 777.347 704 780.001L716 791.985L727 802.015L777 852L910 984.996L936 1010L990 1064L1007 1081C1010.23 1084.23 1013.34 1087.94 1017 1090.68C1022.41 1094.74 1031.58 1093 1038 1093L1088 1093L1281 1093C1278 1086.03 1271.29 1080.3 1266 1075L1247 1055C1224.59 1032.54 1203.11 1009.04 1181.18 986.093C1125.9 928.24 1070.79 870.203 1015.91 811.985C989.987 784.491 963.049 757.906 937.674 729.907L905.184 696.089L856.96 644.996L835.961 622.996C833.933 620.879 829.531 617.745 829.677 614.439C829.836 610.836 835.786 606.348 838.093 603.96L861.001 580C879.507 561.432 897.182 541.96 915.184 522.911C926.553 510.881 938.605 499.392 949.675 487.089C961.396 474.065 973.881 461.755 985.907 449.015L1065.91 365.015L1162.91 263.015C1179.92 244.989 1196.72 226.718 1214.04 208.985C1240.72 181.672 1266.22 153.185 1293.01 125.996L1318 100C1323.5 94.4402 1330.7 88.1239 1334 81L1143 81L1093 81C1086.8 81 1078.24 79.3953 1073 83.3179C1064.9 89.389 1058.41 98.0125 1051 104.911C1027.02 127.244 1004.18 150.823 981 174L956 198.004L883 270.985L871 282.004C843.661 309.018 817.115 336.899 789 363.089C765.262 385.202 742.94 409.06 720 432L705 446.17C701.915 448.96 699.013 452.917 695 454.397C693.104 455.096 690.985 454.986 689 454.999C686.07 455.018 682.793 455.312 680 454.258C675.921 452.72 672.438 448.968 669.344 446L653 430L581 360L521.985 302.96C476.756 258.779 431.609 214.504 385.907 170.816L322.039 108.671L305 92C302.096 89.0957 299.295 85.7871 296 83.3179C290.765 79.3952 282.2 81 276 81L228 81L40 81z"/>
<path style="fill:#030303; stroke:#030303;" d="M350 1092L350 1093L367 1093C370.079 1093 373.773 1093.52 376.715 1092.44C379.512 1091.41 381.874 1088.9 384.004 1086.91L397 1074L439 1033C466.011 1005.99 493.667 979.648 521 952.985C550.371 924.334 578.983 894.872 609 866.911C621.042 855.693 632.294 843.571 644 832.004L666 811L680 797.005C681.789 795.262 684.169 792.259 687 792.631C689.775 792.995 692.154 796.171 694 798.001L707 810.999L720 823.015L759 862C810.996 913.996 862.694 966.312 915 1018L930 1032L973 1075L984 1086C986.371 1088.35 988.78 1091.21 992 1092.4C994.76 1093.41 998.113 1093 1001 1093L1019 1093C1015.07 1087.42 1009.82 1082.82 1005 1078L982 1055C959.488 1032.49 937.287 1009.6 914 987.911C897.146 972.21 881.288 955.288 865 939L770 844L728 802.015L716 790.996L705 780.001C702.565 777.579 700.119 774.739 697 773.179C692.853 771.106 685.466 771.428 681 772.344C676.586 773.249 673.493 776.513 670.326 779.483L652 797L588 860L565.999 881.015L430.999 1013.01L380 1063C370.362 1072.64 361.069 1084 350 1092z"/>
<path style="fill:#ffffff; stroke:#ffffff;" d="M378 1093L991 1093C984.47 1083.73 975.011 1076.01 967 1068L928 1029.01L916 1018C865.37 967.969 815.33 917.33 765 867L721 823.015L709 811.996L694 797.005C692.125 795.166 689.804 792.252 687 791.921C684.164 791.587 681.838 794.265 680 796.019L667 809L613 862L599 875.015L520 952.985C495.371 977.011 470.337 1000.66 446 1025L399 1071L386 1084C383.087 1086.88 379.932 1089.38 378 1093z"/>
</svg>
