<?xml version="1.0" encoding="UTF-8"?>
<svg xmlns="http://www.w3.org/2000/svg" xmlns:xlink="http://www.w3.org/1999/xlink" width="530pt" height="813pt" viewBox="0 0 2208 3387" version="1.1">

<path style="fill:#010101; stroke:#010101;" d="M0 723L0 725C10.1747 729.812 19.4688 736.972 29 742.95L88 780.576C154.992 822.519 221.268 865.599 288 907.947L879 1284.05L1020 1373.95C1047.32 1391.29 1074.99 1408.19 1102 1426L1172 1470.67L1194 1484.67C1199.29 1488.17 1204.77 1492.54 1211 1494L1211 935C1224.04 935 1237.01 937.021 1250 937.911L1270 938.093L1279 939.816L1290 940.089L1301 941.83L1311 942.174L1341 946.714L1373 950.114L1380 951.741L1389 952.289L1403 954.718L1424 957.465C1438.05 960.015 1452.07 963.419 1466 966.545L1484 969.68L1510 976.483L1518 977.746L1534 982.254L1542 983.724L1565 990.831C1578.06 994.59 1591.17 998.218 1604 1002.7C1618.6 1007.79 1632.65 1014.46 1647 1020.2C1663.05 1026.62 1678.45 1033.96 1694 1041.49C1702.68 1045.69 1711.71 1049.51 1720 1054.45L1734 1064C1745.07 1071.42 1756.51 1078.8 1767 1087.01C1773.63 1092.21 1779.67 1098.16 1786 1103.72C1794.59 1111.25 1804.08 1118.63 1811.82 1127.04C1818.37 1134.17 1823.52 1143.05 1829.02 1151C1833.63 1157.66 1838.89 1164.02 1843.01 1171L1846.32 1179C1850.79 1188.82 1854.13 1198.79 1857.5 1209C1859.18 1214.05 1862.27 1218.9 1863.57 1224C1864.39 1227.22 1863.9 1230.71 1864.29 1234L1866.68 1248L1867.3 1256L1870.8 1276C1871.52 1279.66 1872.64 1283.27 1872.91 1287C1873.76 1298.55 1873 1310.42 1873 1322L1873 1391L1873 1807L1873 3387L2199 3387L2199 1678L2199 1214L2199 1168C2199 1160.15 2198.21 1151.83 2199.13 1144.04C2199.67 1139.44 2202.29 1135.27 2203.89 1131C2205.43 1126.86 2206.45 1122.32 2207.33 1118C2208.53 1112.15 2208 1105.94 2208 1100C2208 1093.06 2208.44 1085.96 2207.95 1079.04L2206.13 1070.96L2204.74 1054C2203.64 1047.35 2201.4 1040.6 2199.88 1034C2198.53 1028.15 2198.02 1021.64 2196.03 1016C2194.09 1010.48 2190.86 1005.23 2188.25 1000L2178.73 980C2174.74 972.157 2168.8 965.148 2163.71 958C2157.34 949.058 2151.5 939.493 2144.54 931C2139.1 924.372 2132.91 918.351 2127.17 912C2118.19 902.069 2109.67 891.337 2099.99 882.089C2091.75 874.228 2082.65 867.131 2074 859.729C2063.03 850.343 2052.36 840.413 2041 831.511C2030.69 823.434 2019.62 816.241 2009 808.576C1994.13 797.841 1979.53 786.209 1964 776.439C1951.08 768.309 1937.28 761.268 1924 753.719C1905.39 743.14 1887.02 731.938 1868 722.109C1847.32 711.419 1826.05 701.642 1805 691.702C1787.94 683.649 1771.25 674.73 1754 667.092C1725.82 654.611 1696.62 644.049 1668 632.6C1649.05 625.021 1630.24 616.675 1611 609.864C1571.97 596.044 1532.29 583.763 1493 570.667C1475.01 564.671 1457.12 558.149 1439 552.565L1416 546.575L1336 524.291C1315.4 518.371 1294.76 512.414 1274 507.098C1265.44 504.906 1256.82 500.884 1248 500L1248 0C1242.72 1.99976 1237.91 5.34814 1233 8.15039L1202 26.1504L1103 83.5757L789 265.576L254 575.576L78 677.576L33 703.579C21.9589 709.908 10.6247 715.992 0 723z"/>
<path style="fill:#ffffff; stroke:#ffffff;" d="M1248 0L1248 500C1256.48 501.46 1264.67 504.965 1273 507.098C1296.12 513.017 1319.02 519.797 1342 526.29L1415 546.575L1438 552.565C1462.15 560.01 1486.02 568.673 1510 576.667C1543.29 587.764 1576.92 598.154 1610 609.864C1629.24 616.674 1648.05 625.021 1667 632.6C1695.3 643.923 1724.03 654.54 1752 666.654C1769.64 674.292 1786.62 683.498 1804 691.702C1825.05 701.642 1846.32 711.419 1867 722.109C1886.02 731.938 1904.39 743.14 1923 753.719C1936.28 761.268 1950.08 768.309 1963 776.439C1980.95 787.734 1997.75 801.248 2015 813.579C2023.32 819.528 2031.95 825.201 2040 831.511C2051.36 840.413 2062.03 850.343 2073 859.729C2081.98 867.418 2091.54 874.761 2099.99 883.039C2109.58 892.441 2118.16 903.04 2127.17 913C2133.19 919.657 2139.77 925.941 2145.33 933C2150.37 939.392 2154.72 946.36 2159.42 953C2165.28 961.279 2171.84 969.31 2177.07 978C2181.05 984.6 2183.8 992.099 2187.25 999C2190.3 1005.11 2194.42 1011.43 2196.37 1018C2198.55 1025.38 2199.58 1033.45 2201.21 1041L2204.74 1055C2205.8 1061.39 2206 1068.51 2206 1075L2208 1075L2208 0L1248 0M0 725L0 3387L1871 3387L1871 1803L1871 1385L1871 1318C1871 1306.74 1871.68 1295.24 1870.91 1284C1870.43 1277.01 1869.91 1269.93 1868.87 1263L1867.17 1254L1864.29 1233C1863.9 1229.71 1864.39 1226.22 1863.57 1223C1862.27 1217.9 1859.18 1213.05 1857.5 1208C1854.13 1197.79 1850.79 1187.82 1846.32 1178L1843.01 1170C1838.89 1163.02 1833.63 1156.66 1829.02 1150C1823.74 1142.37 1818.79 1134.03 1812.68 1127.04C1804.91 1118.16 1794.8 1110.69 1786 1102.83C1779.74 1097.25 1773.67 1091.34 1767 1086.24L1746 1071.58C1737.82 1065.79 1729.61 1059.59 1721 1054.45C1712.71 1049.51 1703.68 1045.69 1695 1041.49C1679.12 1033.81 1663.39 1026.35 1647 1019.8C1632.98 1014.19 1619.26 1007.67 1605 1002.7C1592.17 998.218 1579.06 994.59 1566 990.831L1543 983.724L1535 982.254L1519 977.746L1511 976.483L1485 969.68L1467 966.545C1453.07 963.419 1439.05 960.015 1425 957.465L1404 954.718L1390 952.289L1381 951.741L1374 950.114L1358 948.714L1320 943.701L1312 942.174L1302 941.83L1291 940.089L1280 939.816L1271 938.093L1251 937.911C1238.29 937.04 1225.78 936 1213 936L1213 1495C1208.96 1493.71 1205.59 1491.42 1202 1489.19L1184 1477.68L1124 1439.42C1057.02 1397.49 990.732 1354.4 924 1312.05L522 1056.05C436.59 1001.96 351 948.059 266 893.308L87 779.308L29 742.319L11 730.808C7.40643 728.577 4.04197 726.288 0 725z"/>
<path style="fill:#5d5d5d; stroke:#5d5d5d;" d="M1211 935L1211 1316L1211 1436L1211 1473C1211 1480.28 1211.7 1487.88 1210 1495C1212.79 1492.57 1212 1488.52 1212 1485L1212 1460L1212 1356L1212 936L1224 936C1220.04 934.339 1215.26 935 1211 935z"/>
<path style="fill:#dddddd; stroke:#dddddd;" d="M1212 936L1212 1495L1213 1495L1213 1099L1213 985L1213 952C1213 946.919 1213.98 940.72 1212 936z"/>
<path style="fill:#ffffff; stroke:#ffffff;" d="M2207 1117C2206.46 1121.04 2205.56 1125.13 2204.24 1129C2203.21 1132.03 2201.53 1134.78 2201.13 1138C2199.92 1147.72 2201 1158.21 2201 1168L2201 1226L2201 1404L2201 1889L2201 3387L2208 3387L2208 1773L2208 1308L2208 1174L2208 1135C2208 1129.38 2209.19 1122.22 2207 1117z"/>
<path style="fill:#3b3b3b; stroke:#3b3b3b;" d="M2199 1140L2199 3387L2200 3387L2200 1789L2200 1329L2200 1196L2200 1158C2200 1152.38 2201.19 1145.22 2199 1140z"/>
<path style="fill:#bbbbbb; stroke:#bbbbbb;" d="M2200 1140L2200 3387L2201 3387L2201 1790L2201 1329L2201 1196L2201 1158C2201 1152.38 2202.19 1145.22 2200 1140z"/>
<path style="fill:#a1a1a1; stroke:#a1a1a1;" d="M1870 1274L1871 1288C1872.02 1373.97 1871 1460.02 1871 1546L1871 2067L1871 3387L1872 3387L1872 1871L1872 1445L1872 1325L1872 1292C1872 1286.03 1872.65 1279.51 1870 1274z"/>
<path style="fill:#232323; stroke:#232323;" d="M1872 1283L1872 3387L1873 3387L1873 1892L1873 1460L1873 1336L1873 1300C1873 1294.65 1874.08 1287.97 1872 1283z"/>
</svg>
