<?xml version="1.0" encoding="UTF-8"?>
<svg xmlns="http://www.w3.org/2000/svg" xmlns:xlink="http://www.w3.org/1999/xlink" width="974pt" height="807pt" viewBox="0 0 4058 3362" version="1.1">

<path style="fill:#010101; stroke:#010101;" d="M0 721L0 723C12.8003 729.814 24.8058 738.469 37 746.308L104 789.308C162.55 827.021 221.197 864.631 280 901.947C478.476 1027.9 675.527 1156.1 874 1282.05C950.523 1330.61 1026.81 1379.62 1103 1428.69C1126.96 1444.12 1150.79 1459.78 1175 1474.81L1194 1487.05C1197.9 1489.49 1201.49 1491.96 1206 1493L1206 1084L1206 976L1206 947C1206 943.611 1205.05 938.287 1207.03 935.318C1209.59 931.486 1215.44 933.449 1219 934.255C1224.56 935.513 1230.35 934.876 1236 935.015L1246 935.961C1266.07 936.839 1286 938.927 1306 940.83L1316 941.17L1327 942.83L1354 945.289L1372 948.7L1393 951.438L1421 956.561L1442 959.435L1468 964.745C1481.63 967.139 1495.5 969.552 1509 972.745C1522.87 976.027 1536.33 981.105 1550 985.136C1568.85 990.695 1587.34 996.84 1606 1003L1625 1008.76C1632.11 1011.47 1639.04 1015.06 1646 1018.14L1676 1031.26C1686.91 1036.54 1697.45 1042.62 1708 1048.58L1732 1062.06L1753 1076.66C1761.36 1082.35 1770.23 1087.83 1778 1094.32C1785.03 1100.21 1790.87 1107.32 1797.09 1114C1802.44 1119.75 1808.4 1124.92 1813.38 1131C1820.15 1139.25 1825.25 1148.92 1830.81 1158C1835.07 1164.96 1839.98 1171.7 1843.63 1179C1848.87 1189.48 1852.01 1200.91 1856.33 1211.75L1860.37 1221.75C1861.63 1224.52 1863.31 1226.94 1863.79 1230C1865.14 1238.64 1864 1248.26 1864 1257L1864 1310L1864 1443L1864 2004L2194 2004L2194 1440L2194 1276L2194 1229C2194 1221.75 2192.6 1212.84 2195.35 1206C2198.96 1197.02 2204.1 1188.49 2208.69 1180C2211.89 1174.09 2214.34 1167.66 2217.96 1162C2222.75 1154.52 2229.25 1147.92 2234.8 1141C2240.12 1134.36 2245.25 1127.21 2251.17 1121.09C2256.4 1115.67 2262.41 1110.88 2268 1105.83C2276.27 1098.36 2284.19 1090.35 2293 1083.51C2300.32 1077.84 2308.3 1072.81 2316 1067.67L2335 1054.81C2344.62 1048.92 2354.93 1043.83 2365 1038.75C2372.7 1034.87 2380.1 1030.35 2388 1026.86C2409.4 1017.4 2431.97 1010.41 2454 1002.66C2466.26 998.346 2478.61 994.499 2491 990.62L2499 987.76L2542 976.406L2554 972.749C2577.14 967.178 2600.63 963.097 2624 958.626C2636.97 956.145 2649.92 953.294 2663 951.275L2683 948.819L2691 947.184L2699 946.741L2711 944.285L2749 940.17L2760 939.826L2769 938.174L2778 937.83L2795 936.039L2809 935.911L2827 934.089C2833.62 933.636 2840.37 934 2847 934L2847 1494C2853.12 1491.36 2858.42 1487.29 2864 1483.69L2886 1469.69L2955 1425.69C3026.14 1379.87 3097.55 1334.4 3169 1289.05L3765 908.947L3975 774.947L4023 744.308C4034.57 736.858 4045.99 728.687 4058 722L4058 721C4044.06 714.994 4031.13 705.859 4018 698.284L3938 652.011C3871.6 613.005 3804.71 574.764 3738 536.284C3589.57 450.661 3440.8 365.563 3293 278.861L3096 165.139C3030.57 126.757 2964.88 88.7539 2899 51.1504L2838 15.7192C2828.85 10.5161 2819.71 4.02295 2810 0L2810 498C2803.86 498.54 2797.96 501.034 2792 502.584L2756 512.41L2740 516.425C2724.22 520.743 2708.65 525.791 2693 530.584L2645 544.584C2628.79 549.55 2612.08 553.16 2596 558.515C2571.19 566.776 2546.66 575.98 2522 584.659L2480 598.054L2421 620.678L2347 648.678C2337.71 652.122 2328.13 654.965 2319 658.873C2305.06 664.84 2291.77 672.367 2278 678.691L2232 699.298C2218.32 705.754 2204.32 712.133 2191 719.31C2175.73 727.536 2161.11 737.041 2146 745.576C2125.14 757.362 2104.17 768.704 2084 781.692C2070.86 790.149 2057.81 798.771 2045 807.72L2036 814.131C2034.22 815.346 2032.3 816.856 2030 816.633C2027.74 816.413 2025.78 814.66 2024 813.423L2013 805.709C2000.14 796.543 1987.31 787.101 1974 778.586C1950.59 763.608 1926.28 750.612 1902 737.139C1878.92 724.33 1855.85 710.886 1832 699.552C1795.26 682.091 1757.66 665.891 1720 650.548C1691.66 639.004 1663.55 626.834 1635 615.811C1610.16 606.22 1585.12 597.18 1560 588.341L1541 582.506C1504.53 570.351 1467.81 559.383 1431 548.28L1388 534.59C1360.5 526.644 1332.6 520.044 1305 512.512L1285 506.701L1266 502.525C1258.18 500.569 1251.14 497.644 1243 497L1243 0C1237.37 2.12988 1232.23 5.74292 1227 8.71924L1191 29.5786C1154.54 50.481 1118.24 71.7024 1082 92.9893C984.313 150.373 885.985 206.707 788 263.576L247 577.576L85 671.576L23 707.551L0 721z"/>
<path style="fill:#ffffff; stroke:#ffffff;" d="M1243 0L1243 497C1250.72 497.98 1257.53 500.656 1265 502.525L1284 506.701L1304 512.512C1331.6 520.044 1359.5 526.644 1387 534.59L1430 548.28C1481.2 563.723 1532.58 578.75 1583 596.692C1614.03 607.735 1644.51 620.175 1675 632.597C1725.72 653.263 1776.29 674.201 1826 697.234C1851.62 709.107 1876.32 723.44 1901 737.139C1923.85 749.82 1947.07 761.727 1969 776C1983.59 785.499 1997.82 795.605 2012 805.709L2023 813.424C2025.07 814.872 2027.37 816.971 2030 817.208C2032.28 817.414 2034.2 816.042 2036 814.84L2046 807.72C2058.81 798.771 2071.86 790.15 2085 781.692C2105.17 768.704 2126.14 757.362 2147 745.576C2162.11 737.041 2176.73 727.536 2192 719.31C2205.94 711.795 2220.61 705.006 2235 698.374L2281 677.741C2294.25 671.331 2307.36 663.98 2321 658.453L2348 648.678L2422 620.678C2442.06 613.238 2461.77 604.752 2482 597.695L2523 584.659C2547.97 575.873 2572.78 566.234 2598 558.194L2646 544.584C2677.23 535.017 2708.6 525.585 2740 516.71L2757 512.41L2793 502.584C2798.65 501.113 2804.23 498.864 2810 498L2810 0L1243 0M2812 0C2815.46 4.03394 2820.42 6.23462 2825 8.84961L2846 20.8611L2921 64.2839L3170 208.284C3238.41 247.748 3306.88 287.177 3375 327.139L3579 445.139L3776 558.861C3839.44 596.079 3903.18 632.837 3967 669.421C3984.67 679.553 4002.63 689.427 4020 700.061L4043 713.421C4047.86 716.209 4052.6 719.412 4058 721L4058 0L2812 0M2845 1495L2845 934C2838.7 934 2832.29 933.659 2826 934.089L2808 935.911L2794 936.039L2777 937.83L2768 938.174L2759 939.826L2748 940.17L2710 944.285L2698 946.741L2690 947.184L2682 948.819L2662 951.275C2648.92 953.294 2635.97 956.145 2623 958.626C2599.63 963.097 2576.14 967.178 2553 972.749L2541 976.406L2498 987.76L2490 990.62C2477.61 994.498 2465.26 998.346 2453 1002.66C2430.97 1010.41 2408.4 1017.4 2387 1026.86C2379.1 1030.35 2371.7 1034.87 2364 1038.75C2353.93 1043.83 2343.62 1048.92 2334 1054.81L2315 1067.67C2307.3 1072.81 2299.32 1077.84 2292 1083.51C2283.56 1090.06 2275.83 1097.66 2268 1104.91C2262.17 1110.32 2255.72 1115.27 2250.29 1121.09C2244.76 1127.01 2239.86 1133.68 2234.8 1140C2229.47 1146.65 2223.47 1152.99 2218.62 1160C2214.8 1165.52 2212.35 1172.07 2209.22 1178C2205.22 1185.58 2200.56 1193.02 2197.35 1201C2194.6 1207.84 2196 1216.75 2196 1224L2196 1272L2196 1437L2196 2005L1862 2005L1862 1439L1862 1300L1862 1250C1862 1242.03 1863.18 1233.01 1861.74 1225.17C1860.58 1218.86 1856.84 1212.74 1854.67 1206.71C1851.23 1197.12 1848.21 1187.16 1843.63 1178C1840.15 1171.05 1835.51 1164.6 1831.42 1158C1826.49 1150.04 1822.03 1141.56 1816.51 1134C1811.12 1126.62 1804.33 1120.58 1798.04 1114C1792.03 1107.71 1786.56 1100.96 1780 1095.18C1771.47 1087.68 1761.3 1081.78 1752 1075.28C1722.27 1054.51 1690.35 1036.84 1657 1022.57C1646.64 1018.14 1636.52 1012.76 1626 1008.76L1608 1003.33L1577 992.675L1550 984.845C1536.72 980.777 1523.52 975.944 1510 972.745C1496.5 969.552 1482.63 967.139 1469 964.745L1443 959.435L1422 956.561L1394 951.438L1373 948.7L1355 945.289L1328 942.83L1317 941.17L1308 940.911L1293 939.17L1283 938.83L1258 936.089L1225 934.961L1208 934L1208 1495C1204.43 1493.45 1201.3 1491.03 1198 1488.95L1177 1475.42L1104 1428.69L901 1298.69L583 1095.31C482.516 1030.58 381.922 965.992 281 901.947C214.506 859.75 148.75 816.368 82 774.576L28 739.947C19.0213 734.249 10.0224 726.67 0 723L0 3362L1862 3362L1862 2734L2184 2734L2184 3362L4058 3362L4058 722C4052.89 723.938 4048.58 727.358 4044 730.308L4025 742.333L3974 774.947L3786 894.947C3571.35 1031.16 3357.64 1168.84 3143 1305.05C3073.22 1349.33 3004.04 1394.57 2934 1438.42L2872 1478.05L2857 1487.67C2853.12 1490.25 2849.3 1493.2 2845 1495z"/>
<path style="fill:#bbbbbb; stroke:#bbbbbb;" d="M1207 933L1207 1347L1207 1454L1207 1481C1207 1485.48 1207.8 1490.31 1205 1494L1205 1495C1208.99 1494.14 1208 1490.53 1208 1487L1208 1464L1208 1363L1208 934L1217 934C1213.84 932.673 1210.41 933 1207 933z"/>
<path style="fill:#3b3b3b; stroke:#3b3b3b;" d="M1206 934L1206 1315L1206 1435L1206 1472C1206 1479.28 1206.7 1486.88 1205 1494C1207.79 1491.57 1207 1487.52 1207 1484L1207 1461L1207 1364L1207 1060L1207 972L1207 947C1207 942.74 1207.66 937.958 1206 934z"/>
<path style="fill:#dddddd; stroke:#dddddd;" d="M2845 934L2845 1363L2845 1464L2845 1487C2845 1490.53 2844.01 1494.14 2848 1495L2848 1494C2845.36 1490.51 2846 1486.25 2846 1482L2846 1457L2846 1357L2846 1058L2846 971L2846 947C2846 942.74 2846.66 937.958 2845 934z"/>
<path style="fill:#5d5d5d; stroke:#5d5d5d;" d="M2846 934L2846 1494L2847 1494L2847 1097L2847 983L2847 950C2847 944.92 2847.98 938.72 2846 934z"/>
<path style="fill:#dddddd; stroke:#dddddd;" d="M2195 1205L2195 2005L2196 2005L2196 1437L2196 1274L2196 1227L2196 1214C2196 1210.87 2196.21 1207.89 2195 1205z"/>
<path style="fill:#5d5d5d; stroke:#5d5d5d;" d="M2194 1207L2194 2005L2195 2005L2195 1439L2195 1276L2195 1229L2195 1216C2195 1212.87 2195.21 1209.89 2194 1207z"/>
<path style="fill:#a1a1a1; stroke:#a1a1a1;" d="M1862 1225L1862 2005L1863 2005L1863 1452L1863 1292L1863 1246C1863 1239.58 1864.5 1230.95 1862 1225z"/>
<path style="fill:#232323; stroke:#232323;" d="M1863 1227L1863 2005L2194 2005L2194 2004L1864 2004L1864 1453L1864 1294L1864 1248C1864 1241.58 1865.5 1232.95 1863 1227z"/>
<path style="fill:#010101; stroke:#010101;" d="M1281 2018L1281 2019C1291.66 2026.03 1303.05 2031.89 1314 2038.45L1409 2093.86L1659 2239.86C1710.6 2270.13 1762.09 2300.66 1814 2330.42L1861 2357.85C1868.2 2361.96 1875.2 2367.16 1883 2370L1883 2372C1876.87 2373.94 1871.55 2377.96 1866 2381.15L1834 2399.99L1734 2458.8C1637.03 2516.67 1538.83 2572.48 1442 2630.55C1406.88 2651.61 1371.54 2672.52 1336 2692.85L1306 2710.4C1301.49 2713.1 1295.64 2715.34 1293 2720L1504 2720L1564 2720L1579 2720C1582.78 2720 1586.51 2720.29 1590 2718.61C1602.41 2712.65 1614.2 2704.52 1626 2697.45L1694 2657.45L1797 2597.14L1915 2527.72L2001 2477.15L2024 2463.6C2026.85 2461.89 2030.57 2458.6 2034 2458.41C2037.19 2458.23 2040.39 2461.2 2043 2462.72L2066 2476.4L2149 2526.14C2221.97 2569.04 2294.41 2612.9 2367 2656.45L2437 2698.45C2447.94 2705.01 2458.7 2712.3 2470 2718.21C2473.84 2720.22 2477.78 2720 2482 2720L2496 2720L2554 2720L2764 2720C2761.11 2715.27 2754.71 2712.63 2750 2709.86L2720 2692C2682.08 2669.25 2644.14 2646.52 2606 2624.14L2523 2574.45L2320 2453.55L2227 2398.14L2199 2381.55C2193.47 2378.24 2188.04 2374.29 2182 2372L2182 2370C2186.97 2367.92 2191.34 2364.97 2196 2362.28L2229 2342.86L2324 2286.86C2421.09 2229.91 2518.47 2173.34 2615 2115.45C2652.8 2092.78 2690.82 2070.31 2729 2048.28L2761 2029.42C2766 2026.52 2772.81 2023.96 2776 2019L2563 2019L2504 2019C2495.46 2019 2484.78 2017.19 2477 2021.19C2465.71 2027 2454.99 2034.2 2444 2040.58L2378 2079.14L2231 2164.86L2150 2212.28L2066 2261.42L2044 2274.28C2041.09 2275.94 2037.53 2278.95 2034 2278.69C2030.2 2278.4 2026.22 2275.11 2023 2273.28L1999 2259.28C1968.15 2241.74 1937.53 2223.7 1907 2205.6L1784 2134.14L1687 2077.58L1616 2036.15C1606.42 2030.68 1597.1 2023.88 1587 2019.41C1583.18 2017.72 1579.08 2018 1575 2018L1559 2018L1497 2018L1281 2018z"/>
<path style="fill:#a1a1a1; stroke:#a1a1a1;" d="M1862 2734L1862 3362L1863 3362L1863 2917L1863 2788L1863 2752C1863 2746.38 1864.19 2739.22 1862 2734z"/>
<path style="fill:#232323; stroke:#232323;" d="M1863 2734L1863 3362L1864 3362L1864 2735L2182 2735C2178.57 2733.56 2174.7 2734 2171 2734L2153 2734L2088 2734L1863 2734z"/>
<path style="fill:#5d5d5d; stroke:#5d5d5d;" d="M2182 2734L2182 3362L2183 3362L2183 2917L2183 2788L2183 2752C2183 2746.38 2184.19 2739.22 2182 2734z"/>
<path style="fill:#dddddd; stroke:#dddddd;" d="M2183 2734L2183 3362L2184 3362L2184 2917L2184 2789L2184 2752C2184 2746.38 2185.19 2739.22 2183 2734z"/>
<path style="fill:#010101; stroke:#010101;" d="M1864 2735L1864 3362L2182 3362L2182 2735L1864 2735z"/>
</svg>
