<?xml version="1.0" encoding="UTF-8"?>
<svg xmlns="http://www.w3.org/2000/svg" xmlns:xlink="http://www.w3.org/1999/xlink" width="530pt" height="820pt" viewBox="0 0 2208 3387" version="1.1">

<path style="fill:#010101; stroke:#010101;" d="M0 723L0 725C10.1747 729.812 19.4688 736.972 29 742.95L88 780.576C154.992 822.519 221.268 865.599 288 907.947L879 1284.05L1020 1373.95C1047.32 1391.29 1074.99 1408.19 1102 1426L1172 1470.67L1194 1484.67C1199.29 1488.17 1204.77 1492.54 1211 1494L1211 935C1224.04 935 1237.01 937.021 1250 937.911L1270 938.093L1279 939.816L1290 940.089L1301 941.83L1311 942.174L1341 946.714L1373 950.114L1380 951.741L1389 952.289L1403 954.718L1424 957.465C1438.05 960.015 1452.07 963.419 1466 966.545L1484 969.68L1510 976.483L1518 977.746L1534 982.254L1542 983.724L1565 990.831C1578.06 994.59 1591.17 998.218 1604 1002.7C1618.6 1007.79 1632.65 1014.46 1647 1020.2C1663.05 1026.62 1678.45 1033.96 1694 1041.49C1702.68 1045.69 1711.71 1049.51 1720 1054.45L1734 1064C1745.07 1071.42 1756.51 1078.8 1767 1087.01C1773.63 1092.21 1779.67 1098.16 1786 1103.72C1794.59 1111.25 1804.08 1118.63 1811.82 1127.04C1818.37 1134.17 1823.52 1143.05 1829.02 1151C1833.63 1157.66 1838.89 1164.02 1843.01 1171L1846.32 1179C1850.79 1188.82 1854.13 1198.79 1857.5 1209C1859.18 1214.05 1862.27 1218.9 1863.57 1224C1864.39 1227.22 1863.9 1230.71 1864.29 1234L1866.68 1248L1867.3 1256L1870.8 1276C1871.52 1279.66 1872.64 1283.27 1872.91 1287C1873.76 1298.55 1873 1310.42 1873 1322L1873 1391L1873 1807L1873 3387L2199 3387L2199 1678L2199 1214L2199 1168C2199 1160.15 2198.21 1151.83 2199.13 1144.04C2199.67 1139.44 2202.29 1135.27 2203.89 1131C2205.43 1126.86 2206.45 1122.32 2207.33 1118C2208.53 1112.15 2208 1105.94 2208 1100C2208 1093.06 2208.44 1085.96 2207.95 1079.04L2206.13 1070.96L2204.74 1054C2203.64 1047.35 2201.4 1040.6 2199.88 1034C2198.53 1028.15 2198.02 1021.64 2196.03 1016C2194.09 1010.48 2190.86 1005.23 2188.25 1000L2178.73 980C2174.74 972.157 2168.8 965.148 2163.71 958C2157.34 949.058 2151.5 939.493 2144.54 931C2139.1 924.372 2132.91 918.351 2127.17 912C2118.19 902.069 2109.67 891.337 2099.99 882.089C2091.75 874.228 2082.65 867.131 2074 859.729C2063.03 850.343 2052.36 840.413 2041 831.511C2030.69 823.434 2019.62 816.241 2009 808.576C1994.13 797.841 1979.53 786.209 1964 776.439C1951.08 768.309 1937.28 761.268 1924 753.719C1905.39 743.14 1887.02 731.938 1868 722.109C1847.32 711.419 1826.05 701.642 1805 691.702C1787.94 683.649 1771.25 674.73 1754 667.092C1725.82 654.611 1696.62 644.049 1668 632.6C1649.05 625.021 1630.24 616.675 1611 609.864C1571.97 596.044 1532.29 583.763 1493 570.667C1475.01 564.671 1457.12 558.149 1439 552.565L1416 546.575L1336 524.291C1315.4 518.371 1294.76 512.414 1274 507.098C1265.44 504.906 1256.82 500.884 1248 500L1248 0C1242.72 1.99976 1237.91 5.34814 1233 8.15039L1202 26.1504L1103 83.5757L789 265.576L254 575.576L78 677.576L33 703.579C21.9589 709.908 10.6247 715.992 0 723z"/>
<path style="fill:#ffffff; stroke:#ffffff;" d="M1248 0L1248 500C1256.48 501.46 1264.67 504.965 1273 507.098C1296.12 513.017 1319.02 519.797 1342 526.29L1415 546.575L1438 552.565C1462.15 560.01 1486.02 568.673 1510 576.667C1543.29 587.764 1576.92 598.154 1610 609.864C1629.24 616.674 1648.05 625.021 1667 632.6C1695.3 643.923 1724.03 654.54 1752 666.654C1769.64 674.292 1786.62 683.498 1804 691.702C1825.05 701.642 1846.32 711.419 1867 722.109C1886.02 731.938 1904.39 743.14 1923 753.719C1936.28 761.268 1950.08 768.309 1963 776.439C1980.95 787.734 1997.75 801.248 2015 813.579C2023.32 819.528 2031.95 825.201 2040 831.511C2051.36 840.413 2062.03 850.343 2073 859.729C2081.98 867.418 2091.54 874.761 2099.99 883.039C2109.58 892.441 2118.16 903.04 2127.17 913C2133.19 919.657 2139.77 925.941 2145.33 933C2150.37 939.392 2154.72 946.36 2159.42 953C2165.28 961.279 2171.84 969.31 2177.07 978C2181.05 984.6 2183.8 992.099 2187.25 999C2190.3 1005.11 2194.42 1011.43 2196.37 1018C2198.55 1025.38 2199.58 1033.45 2201.21 1041L2204.74 1055C2205.8 1061.39 2206 1068.51 2206 1075L2208 1075L2208 0L1248 0M0 725L0 3387L1871 3387L1871 1807L1861 1806.04C1842.7 1805.24 1824.31 1806.43 1806 1805.99C1796.63 1805.76 1787.42 1803.78 1778 1804.01L1753 1805.96L1736 1806.04L1707 1807.96L1692 1808.09L1675 1809.91L1654 1810.01L1632 1811.91C1624.67 1812.41 1617.3 1812.18 1610 1813.21L1599 1815.58C1577.2 1818.99 1555.67 1823.3 1534 1827.39L1516 1830.22L1490 1835.54L1481 1836.61C1472.49 1838.76 1464.16 1842.8 1456 1846L1417 1860.77C1407.76 1864.22 1397.83 1866.97 1389 1871.37C1374.2 1878.75 1360.1 1888.31 1346 1896.94C1337.15 1902.36 1327.16 1906.96 1319 1913.39C1309.59 1920.8 1301.47 1930.53 1293 1939C1288.08 1943.92 1282.78 1948.65 1278.33 1954C1273.15 1960.2 1268.84 1967.31 1264.33 1974C1261.26 1978.55 1257.29 1982.94 1255.08 1988C1252.04 1994.96 1250.28 2002.76 1247.97 2010C1246.8 2013.66 1244.79 2017.18 1244.21 2021C1243.67 2024.58 1244 2028.39 1244 2032L1244 2053L1244 2116L1244 2353L1580 2353C1564.77 2375.28 1550.41 2398.2 1535.95 2421L1469.31 2525L1237.31 2887C1198.72 2946.91 1160.13 3006.83 1121.95 3067L1087.31 3121C1081.15 3130.55 1073.03 3140.35 1069 3151C1064.81 3147.76 1062.36 3143.45 1059.58 3139L1050.58 3125L1018.95 3076C984.302 3021.4 949.003 2967.14 913.656 2913C833.614 2790.39 754.594 2667.1 675.308 2544L591.308 2414L569.997 2381C563.917 2371.78 557.373 2362.65 552 2353L895 2353L895 1921L895 1800L895 1766C895 1761.54 893.929 1755.4 895.938 1751.29C897.792 1747.49 901.46 1744.64 903.652 1741C910.133 1730.23 915.703 1718.94 923.518 1709C933.249 1696.62 944.512 1685.59 956 1674.91C961.58 1669.72 967.024 1664.26 973 1659.51C980.689 1653.41 989.018 1648 997 1642.29L1023 1624.28C1031.56 1618.3 1040.08 1611.9 1049 1606.46L1068 1596.14C1079.3 1589.87 1090.43 1583.14 1102 1577.37C1114.28 1571.25 1127.44 1566.65 1140 1561.14C1161.02 1551.92 1182.45 1543.85 1204 1535.95C1212.36 1532.88 1220.49 1529.16 1229 1526.51L1260 1518.41L1297 1508.41L1311 1504.23L1344 1497.54L1366 1492.38L1374 1491.32C1384.29 1489.01 1394.57 1486.02 1405 1484.26C1419.24 1481.85 1433.76 1481.13 1448 1478.81L1455 1477.21L1464 1476.7L1483 1473.26L1504 1470.7L1512 1469.17C1521.24 1468.18 1530.72 1468.55 1540 1467.91L1567 1465.09L1593 1463.91L1603 1462.17L1612 1461.83L1629 1460.09L1652 1459.96L1684 1458.04L1710 1457.96L1719 1457.04L1734 1456.91L1743 1456.01C1762.52 1455.54 1782.49 1455.18 1802 1456.04L1812 1456.99L1847 1457.02L1856.09 1458.87C1861.28 1459.5 1866.78 1459 1872 1459L1872 1335C1872 1317.46 1873.14 1299.49 1871.91 1282C1871.28 1272.95 1868.58 1263.97 1867.3 1255L1866.68 1247L1864.29 1233C1863.9 1229.71 1864.39 1226.22 1863.57 1223C1862.27 1217.9 1859.18 1213.05 1857.5 1208C1854 1197.43 1850.15 1187.29 1845.88 1177L1843.59 1171C1839.65 1163.56 1833.81 1156.91 1829.02 1150C1823.74 1142.37 1818.79 1134.03 1812.68 1127.04L1805 1119.91L1787 1103.72C1780.67 1098.16 1774.63 1092.21 1768 1087.01C1757.51 1078.8 1746.07 1071.42 1735 1064L1721 1054.45C1709.55 1047.63 1696.97 1042.57 1685 1036.74L1667 1027.86L1635 1014.99C1625.03 1010.84 1615.21 1006.26 1605 1002.7C1592.17 998.218 1579.06 994.59 1566 990.831L1543 983.724L1535 982.254L1519 977.746L1511 976.483C1501.95 974.523 1493.1 971.187 1484 969.468L1467 966.545C1453.07 963.419 1439.05 960.015 1425 957.465L1404 954.718L1390 952.289L1381 951.741L1374 950.114L1358 948.714L1320 943.701L1312 942.174L1302 941.83L1291 940.089L1280 939.816L1271 938.093L1251 937.911C1238.29 937.04 1225.78 936 1213 936L1213 1495C1208.96 1493.71 1205.59 1491.42 1202 1489.19L1184 1477.68L1124 1439.42C1057.02 1397.49 990.732 1354.4 924 1312.05L522 1056.05C436.59 1001.96 351 948.059 266 893.308L87 779.308L29 742.319L11 730.808C7.40643 728.577 4.04197 726.288 0 725z"/>
<path style="fill:#5d5d5d; stroke:#5d5d5d;" d="M1211 935L1211 1316L1211 1436L1211 1473C1211 1480.28 1211.7 1487.88 1210 1495C1212.79 1492.57 1212 1488.52 1212 1485L1212 1460L1212 1356L1212 936L1224 936C1220.04 934.339 1215.26 935 1211 935z"/>
<path style="fill:#dddddd; stroke:#dddddd;" d="M1212 936L1212 1495L1213 1495L1213 1099L1213 985L1213 952C1213 946.919 1213.98 940.72 1212 936z"/>
<path style="fill:#ffffff; stroke:#ffffff;" d="M2207 1117C2206.46 1121.04 2205.56 1125.13 2204.24 1129C2203.21 1132.03 2201.53 1134.78 2201.13 1138C2199.92 1147.72 2201 1158.21 2201 1168L2201 1226L2201 1404L2201 1889L2201 3387L2208 3387L2208 1773L2208 1308L2208 1174L2208 1135C2208 1129.38 2209.19 1122.22 2207 1117z"/>
<path style="fill:#3b3b3b; stroke:#3b3b3b;" d="M2199 1140L2199 3387L2200 3387L2200 1789L2200 1329L2200 1196L2200 1158C2200 1152.38 2201.19 1145.22 2199 1140z"/>
<path style="fill:#bbbbbb; stroke:#bbbbbb;" d="M2200 1140L2200 3387L2201 3387L2201 1790L2201 1329L2201 1196L2201 1158C2201 1152.38 2202.19 1145.22 2200 1140z"/>
<path style="fill:#111111; stroke:#111111;" d="M1872 1283C1872 1339.32 1872.67 1395.68 1872 1452L1871 1466C1870.45 1579.33 1871 1692.67 1871 1806L1865 1806L1865 1807L1873 1807L1873 1436L1873 1329L1873 1298C1873 1293.19 1873.88 1287.47 1872 1283z"/>
<path style="fill:#010101; stroke:#010101;" d="M896 2353L552 2353C555.214 2361.48 561.639 2369.46 566.667 2377L591.308 2415L675.308 2545L934.308 2946C965.666 2994.69 997.842 3042.92 1028.58 3092C1037.41 3106.11 1046.48 3120.12 1055.67 3134C1059.48 3139.75 1062.69 3147.77 1069 3151C1074.53 3141.02 1081.13 3131.59 1087.31 3122L1112.31 3083L1187.95 2965C1271.3 2833.65 1355.46 2702.78 1439.69 2572L1530.69 2430L1564.05 2378L1573.67 2363C1575.85 2359.71 1578.34 2356.58 1580 2353L1244 2353L1244 2117L1244 2054L1244 2033C1244 2029.39 1243.67 2025.58 1244.21 2022C1244.79 2018.18 1246.8 2014.66 1247.97 2011C1250.28 2003.76 1252.04 1995.96 1255.08 1989C1257.29 1983.94 1261.26 1979.55 1264.33 1975C1268.84 1968.31 1273.15 1961.2 1278.33 1955C1282.78 1949.65 1288.08 1944.92 1293 1940C1301.79 1931.21 1310.23 1921.09 1320 1913.39C1328.16 1906.96 1338.15 1902.36 1347 1896.94C1361.1 1888.31 1375.2 1878.75 1390 1871.37C1399.16 1866.8 1409.45 1864.06 1419 1860.39L1457 1846C1465.16 1842.8 1473.49 1838.76 1482 1836.61L1491 1835.54L1534 1827.58L1548 1824.45L1564 1822.07L1600 1815.58L1611 1813.21C1618.3 1812.18 1625.67 1812.41 1633 1811.91L1655 1810.01L1676 1809.91L1693 1808.09L1708 1807.96L1737 1806.04L1754 1805.96L1779 1804.01C1787.72 1803.8 1796.31 1805.77 1805 1805.99C1826.97 1806.52 1849.02 1806 1871 1806L1871 1459C1866.41 1459 1861.6 1459.41 1857.04 1458.87L1847.99 1457.02L1813 1456.99L1803 1456.04C1782.83 1455.16 1762.18 1455.52 1742 1456.01L1733 1456.91L1718 1457.04L1709 1457.96L1683 1458.04L1651 1459.96L1628 1460.09L1611 1461.83L1602 1462.17L1592 1463.91L1566 1465.09L1539 1467.91C1529.72 1468.55 1520.24 1468.18 1511 1469.17L1503 1470.7L1482 1473.26L1463 1476.7L1454 1477.21L1447 1478.81C1432.76 1481.13 1418.24 1481.85 1404 1484.26L1391 1487.33L1381 1488.92L1372 1491.53L1336 1498.52L1326 1501.33L1309 1504.48L1274 1514.41L1237 1524.41L1228 1526.51C1219.49 1529.16 1211.36 1532.88 1203 1535.95C1181.09 1543.99 1159.46 1552.42 1138 1561.57C1126.03 1566.68 1113.78 1571.36 1102 1576.89C1090.36 1582.36 1079.19 1589.25 1068 1595.58L1048 1606.46C1038.03 1612.54 1028.68 1619.8 1019 1626.33C1003.18 1636.99 986.953 1647.65 972 1659.51C966.024 1664.26 960.58 1669.72 955 1674.91C943.858 1685.27 932.957 1696 923.518 1708C916.237 1717.26 910.477 1727.75 904.765 1738C902.465 1742.13 898.617 1745.64 896.858 1750C894.868 1754.94 896 1761.77 896 1767L896 1803L896 1927L896 2353z"/>
<path style="fill:#7f7f7f; stroke:#7f7f7f;" d="M895 1750L895 2353L896 2353L896 1926L896 1802L896 1767C896 1761.65 897.085 1754.97 895 1750z"/>
<path style="fill:#a1a1a1; stroke:#a1a1a1;" d="M1871 1807L1871 3387L1872 3387L1872 2264L1872 1940L1872 1847L1872 1821C1872 1816.46 1872.77 1811.22 1871 1807z"/>
<path style="fill:#232323; stroke:#232323;" d="M1872 1807L1872 3387L1873 3387L1873 2264L1873 1940L1873 1847L1873 1821C1873 1816.46 1873.77 1811.22 1872 1807z"/>
</svg>
