<?xml version="1.0" encoding="UTF-8"?>
<svg xmlns="http://www.w3.org/2000/svg" xmlns:xlink="http://www.w3.org/1999/xlink" width="530pt" height="813pt" viewBox="0 0 2208 3387" version="1.1">

<path style="fill:#010101; stroke:#010101;" d="M959 0L959 374L959 467L959 490C958.999 492.866 959.65 497.03 957.397 499.259C955.984 500.656 953.823 500.902 951.999 501.411L940 504.425L920 510.381L896 516.745L876 522.17L796 544.425C767.666 552.178 739.873 561.376 712 570.667L634 596.667C620.677 601.108 607.185 605.219 594 610.053C568.086 619.554 542.627 630.549 517 640.8C496.724 648.911 475.855 656.217 456 665.309C433.111 675.789 410.699 687.34 388 698.222C372.363 705.719 356.337 712.689 341 720.781C321.031 731.315 301.606 742.959 282 754.15C269.415 761.334 256.182 767.867 244 775.698C225.793 787.403 208.608 800.991 191 813.579C182.645 819.551 174.059 825.294 166 831.665C154.675 840.618 143.942 850.452 133 859.87C124.405 867.267 115.226 874.27 107.09 882.17C98.1425 890.856 90.1873 900.748 81.8302 910C75.5123 916.995 68.502 923.597 62.669 931C57.6329 937.392 53.2755 944.36 48.5756 951C42.5042 959.578 35.8368 967.969 30.4529 977C24.9651 986.206 20.6419 996.235 16.2901 1006L11.9514 1015C9.12279 1022.57 8.13094 1031.13 6.34954 1039C4.30915 1048.02 3.29133 1056.91 1.80556 1066L0.104167 1074C-0.567632 1081.23 0 1088.75 0 1096C0 1101.94 -0.459292 1108.09 0.173611 1114C0.797814 1119.83 2.40197 1126.46 4.30015 1132C5.56849 1135.7 7.51913 1139.03 7.89583 1143C8.82973 1152.83 8 1163.12 8 1173L8 1232L8 1721L8 3387L335 3387L335 1819L335 1401L335 1322L335 1296C335 1291.41 334.593 1286.6 335.129 1282.04L336.741 1275.83L337.209 1267L338.792 1260L341.826 1239C342.371 1233.99 342.302 1228.93 343.605 1224C345.898 1215.33 350.549 1207.44 353.509 1199L361.332 1178.83L363.648 1172C368.403 1163.24 375.222 1155.12 381 1147C385.889 1140.13 390.295 1132.23 396.184 1126.17C403.581 1118.56 412.118 1111.93 420 1104.83C426.933 1098.59 433.672 1092.07 441 1086.29C450.517 1078.77 460.952 1072.12 471 1065.33C476.998 1061.28 482.739 1056.8 489 1053.15C493.822 1050.34 498.99 1048.18 504 1045.74L529 1033.45C545.465 1025.68 562.094 1018.76 579 1012C587.285 1008.69 595.529 1004.9 604 1002.09C634.39 992.016 665.857 983.86 697 976.664L731 967.844C741.535 965.384 752.367 963.612 763 961.745L787 956.46C793.336 955.275 799.684 955.6 806 954.7L818 952.428C832.627 950.31 847.303 948.478 862 946.833C886.331 944.111 910.591 940.494 935 938.17C946.595 937.065 958.381 937.706 970 936.911C978.707 936.314 987.246 935 996 935L996 1495C1000.62 1492.82 1004.69 1489.79 1009 1487.05L1031 1473.05L1097 1431.05L1320 1289.05L1911 912.947L2112 784.947L2178 742.947C2187.96 736.627 2197.69 729.738 2208 724L2208 723C2201.31 720.116 2195.3 715.916 2189 712.284L2153 691.449L2083 650.861L1869 526.861L1769 469.139C1626.74 385.686 1483.26 304.314 1341 220.861L1241 163.139L1126 96.2839C1105.34 84.3689 1084.45 72.8137 1064 60.5508L995 20.5757L971 6.57861C967.043 4.30859 963.209 1.74438 959 0z"/>
<path style="fill:#ffffff; stroke:#ffffff;" d="M961 0C964.68 4.29614 970.129 6.62866 975 9.42139L998 22.8496L1074 66.8496C1158.31 114.973 1241.69 164.725 1326 212.85C1391.92 250.476 1457.53 288.734 1523 327.139L1623 384.861C1727.67 446.266 1833.04 506.507 1938 567.424L2120 672.861L2179 707.15C2188.25 712.427 2197.76 719.987 2208 723L2208 0L961 0M995 1495L995 936C979.266 936 963.665 936.838 948 937.911L934 938.17C915.285 939.952 896.653 942.415 878 944.714C857.681 947.218 837.28 949.491 817 952.428L805 954.7L787 956.286C778.935 957.633 770.967 959.809 763 961.545L730 967.844L719 971.126L680 980.664C654.256 987.204 628.238 993.724 603 1002.09C594.529 1004.9 586.285 1008.69 578 1012C561.445 1018.62 545.087 1025.28 529 1032.98C515.379 1039.49 501.041 1045.54 488 1053.15C481.739 1056.8 475.998 1061.28 470 1065.33C459.952 1072.12 449.517 1078.77 440 1086.29C432.672 1092.07 425.933 1098.59 419 1104.83C411.171 1111.88 402.483 1118.43 395.325 1126.17C389.595 1132.37 385.183 1140.13 380.291 1147C374.743 1154.79 368.21 1162.59 363.648 1171C361.028 1175.83 360.121 1181.75 357.969 1186.83L350.124 1207C347.909 1212.34 345.097 1217.36 343.605 1223C342.212 1228.26 342.461 1233.67 341.7 1239L338.792 1259L337.104 1267C336.007 1278.8 337 1291.15 337 1303L337 1394L337 1815L337 3387L2208 3387L2208 724C2204.01 725.513 2200.62 727.944 2197 730.192L2176 743.576L2111 784.947L1910 912.947L1297 1303.05L1096 1431.05L1030 1473.05L1008 1487.05C1003.69 1489.79 999.618 1492.82 995 1495z"/>
<path style="fill:#7f7f7f; stroke:#7f7f7f;" d="M984 935L984 936L995 936L995 1495L996 1495L996 935L984 935z"/>
<path style="fill:#ffffff; stroke:#ffffff;" d="M0 1116L0 3387L7 3387L7 1750L7 1300L7 1179L7 1153C7 1148.11 7.56011 1142.82 6.66049 1138L3.69059 1129C2.49818 1124.64 2.15069 1120.02 0 1116z"/>
<path style="fill:#7f7f7f; stroke:#7f7f7f;" d="M7 1139L7 3387L8 3387L8 1789L8 1328L8 1195L8 1157C8 1151.38 9.18877 1144.22 7 1139z"/>
<path style="fill:#5d5d5d; stroke:#5d5d5d;" d="M335 1278L335 3387L336 3387L336 1888L336 1456L336 1331L336 1295C336 1289.65 337.085 1282.97 335 1278z"/>
<path style="fill:#dddddd; stroke:#dddddd;" d="M336 1278L336 3387L337 3387L337 1888L337 1456L337 1331L337 1295C337 1289.65 338.085 1282.97 336 1278z"/>
</svg>
