<?xml version="1.0" encoding="UTF-8"?>
<svg xmlns="http://www.w3.org/2000/svg" xmlns:xlink="http://www.w3.org/1999/xlink" width="900pt" height="1000pt" viewBox="0 0 2771 3407" version="1.1">

<path style="fill:#010101; stroke:#010101;" d="M1523 1L1523 500C1518.38 500.212 1514.41 501.751 1510 502.999L1490 508.569L1433 524.41L1353 546.664L1326 553.884L1285 567.506C1243.71 581.271 1201.94 594.077 1161 608.861C1135.73 617.988 1110.95 628.821 1086 638.8C1063.38 647.848 1040.22 656.101 1018 666.095C998.076 675.059 978.757 685.381 959 694.702C939.288 704.002 919.177 712.936 900 723.309L860 746.14C842.649 755.824 824.765 765.016 808 775.695C793.183 785.134 779.363 796.178 765 806.279C753.631 814.275 741.943 822.095 731 830.668C719.294 839.84 708.298 850.059 697 859.729C688.037 867.401 678.383 874.696 670.039 883.039C660.538 892.541 651.821 903.011 642.831 913C637.443 918.987 631.526 924.698 626.515 931C620.948 938 616.065 945.65 610.975 953C605.669 960.662 599.747 968.016 594.926 976C590.7 982.999 587.408 990.69 583.753 998C580.986 1003.53 577.537 1009.11 575.598 1015C573.152 1022.43 572.07 1030.38 570.349 1038C569.084 1043.6 567.006 1049.35 566.209 1055L564.792 1072L563.209 1079C562.531 1083.88 563 1089.08 563 1094C563 1099.26 562.541 1104.77 563.129 1110L564.78 1117C565.827 1122.04 566.491 1127.06 568.026 1132C569.364 1136.31 571.628 1140.45 571.946 1145C572.408 1151.61 572 1158.38 572 1165L572 1203L572 1318L572 1993L898 1993L898 1446L898 1340L898 1305C898 1299.06 897.554 1292.92 898.104 1287L901.715 1267C902.827 1258.07 902.896 1248.85 904.464 1240C907.283 1224.08 913.156 1208.91 919.12 1194C921.88 1187.1 923.074 1179.66 926.644 1173C930.979 1164.92 937.28 1157.49 942.576 1150C948.221 1142.02 953.374 1133.14 960.093 1126.01C968.305 1117.3 978.104 1109.84 987 1101.83C992.626 1096.77 998.05 1091.36 1004 1086.67C1011.33 1080.9 1019.39 1075.96 1027 1070.58C1035.18 1064.79 1043.39 1058.59 1052 1053.45C1060.9 1048.15 1070.69 1044.27 1080 1039.74C1096.86 1031.53 1113.57 1023.77 1131 1016.8C1142.99 1012 1154.7 1006.08 1167 1002.09C1178.47 998.372 1190.4 995.781 1202 992.448L1231 983.899L1263 976.31L1284 970.239C1295.89 967.356 1308.08 965.86 1320 963.331C1347.35 957.53 1375.07 952.094 1403 949.911L1419 947.285L1468 941.715C1485.89 939.595 1503.97 937.002 1522 937L1536 936.089L1548 935.576C1551.37 935.134 1556.69 933.903 1558.97 937.318C1560.95 940.287 1560 945.611 1560 949L1560 978L1560 1086L1560 1494C1567.87 1491.12 1575.03 1485.6 1582 1481L1606 1465.67L1675 1421.69L1901 1277.69C1965.09 1236.41 2029.63 1195.8 2094 1154.95L2477 910.947L2681 780.947L2727 751.656C2741.42 742.24 2755.78 732.075 2771 724C2763.95 718.75 2755.55 715.076 2748 710.551L2687 675.139L2518 577.139C2370.07 490.359 2220.93 405.64 2073 318.861L1973 261.139L1766 140.861C1734.79 122.554 1703.03 105.157 1672 86.5508C1639.29 66.9343 1605.9 48.439 1573 29.1389L1541 10.5786C1535.17 7.23462 1529.48 2.90576 1523 1z"/>
<path style="fill:#a1a1a1; stroke:#a1a1a1;" d="M1548 935L1548 936L1558 936L1558 1495L1559 1495L1559 935L1548 935z"/>
<path style="fill:#232323; stroke:#232323;" d="M1559 936L1559 1356L1559 1460L1559 1485C1559 1488.52 1558.21 1492.57 1561 1495C1559.59 1489.1 1560 1483.03 1560 1477L1560 1450L1560 1361L1560 1077L1560 978L1560 950C1560 945.465 1560.77 940.215 1559 936z"/>
<path style="fill:#dddddd; stroke:#dddddd;" d="M570 1139L570 1993L571 1993L571 1387L571 1212L571 1162L571 1148C570.999 1144.87 571.213 1141.89 570 1139z"/>
<path style="fill:#5d5d5d; stroke:#5d5d5d;" d="M571 1140L571 1994L899 1994L899 1993L572 1993L572 1388L572 1213L572 1163L572 1149C571.999 1145.87 572.213 1142.89 571 1140z"/>
<path style="fill:#a1a1a1; stroke:#a1a1a1;" d="M899 1281L899 1993L900 1993L900 1488L900 1342L900 1301C900 1294.85 901.395 1286.71 899 1281z"/>
<path style="fill:#232323; stroke:#232323;" d="M898 1283L898 1993L899 1993L899 1489L899 1344L899 1303C899 1296.85 900.395 1288.71 898 1283z"/>
<path style="fill:#010101; stroke:#010101;" d="M0 2035C1.56565 2040.01 6.71796 2041.83 11 2044.4L38 2060.28L108 2101.14L145 2122.68C167.606 2136.69 191.062 2149.4 214 2162.86C267.301 2194.13 321.003 2224.77 374 2256.55L417 2281.45L530 2347.45L572 2372.01C581.222 2377.43 590.303 2383.47 600 2388L600 2389C592.936 2391.96 586.585 2396.28 580 2400.14L547 2419.55L461 2470.14L172 2640.14C132.641 2663.23 93.1331 2686.08 54 2709.55L22 2728.32C17.8379 2730.9 12.6935 2732.8 10 2737L221 2737L280 2737L295 2737C299.545 2737 303.792 2737.15 308 2735.18C315.615 2731.59 322.794 2726.77 330 2722.45L354 2708.45L419 2670.42L567 2583.86L626 2549.55L715 2497.55L740 2482.72C743.169 2480.91 747.187 2477.6 751 2477.63C754.92 2477.66 758.777 2481.25 762 2483.14L787 2497.94L872 2548.55L1082 2673.45L1151 2714.6L1175 2728.86L1186 2735.32C1189.89 2737.16 1193.79 2737 1198 2737L1213 2737L1272 2737L1481 2737L1481 2736C1352.34 2660.11 1224.09 2583.41 1096 2506.55C1051.07 2479.59 1006.18 2452.53 961 2425.99L924 2403.94C915.593 2398.79 907.058 2392.9 898 2389L898 2388C907.332 2383.64 916.167 2377.75 925 2372.45L959 2352.45L1051 2298.45L1120 2258.14L1332 2133.6C1369.55 2111.34 1407.18 2089.1 1445 2067.28L1477 2048.45C1482.02 2045.44 1488.88 2043.11 1492 2038L1281 2038L1222 2038L1206 2038C1202.27 2038 1198.47 2037.69 1195 2039.27C1190.52 2041.32 1186.29 2044.28 1182 2046.72L1150 2065.55L1084 2104.14C1014.75 2144.76 945.059 2184.66 876 2225.6L787 2277.6L763 2291.68C759.64 2293.77 755.115 2297.55 751 2297.65C747.166 2297.75 743.13 2294.28 740 2292.4L717 2278.86L627 2226.2C557.398 2184.53 486.973 2144.19 417 2103.14L342 2059.14C329.431 2051.77 317.047 2043.39 304 2036.9C299.81 2034.82 295.563 2035 291 2035L276 2035L216 2035L0 2035z"/>
<path style="fill:#dddddd; stroke:#dddddd;" d="M570 2788L570 3407L571 3407L571 2968L571 2842L571 2806C571 2800.38 572.189 2793.22 570 2788z"/>
<path style="fill:#5d5d5d; stroke:#5d5d5d;" d="M571 2788L571 3407L572 3407L572 2968L572 2842L572 2806C572 2800.38 573.189 2793.22 571 2788z"/>
<path style="fill:#232323; stroke:#232323;" d="M572 2788L572 2789L894 2789L894 3407L895 3407L895 2788L572 2788z"/>
<path style="fill:#a1a1a1; stroke:#a1a1a1;" d="M895 2788L895 3407L896 3407L896 2968L896 2842L896 2806C896 2800.38 897.189 2793.22 895 2788z"/>
<path style="fill:#010101; stroke:#010101;" d="M572 2789L572 3407L894 3407L894 2789L572 2789z"/>
</svg>
