<?xml version="1.0" encoding="utf-8"?><svg version="1.1" id="Layer_1" xmlns="http://www.w3.org/2000/svg" xmlns:xlink="http://www.w3.org/1999/xlink" x="0px" y="0px" width="82.029px" height="122.881px" viewBox="0 0 82.029 122.881" enable-background="new 0 0 82.029 122.881" xml:space="preserve"><g><path d="M14.087,94.676V35.126c0-9.634,3.818-18.404,9.971-24.774C30.227,3.965,38.724,0,48.059,0c9.334,0,17.832,3.965,24,10.352 c6.152,6.37,9.971,15.141,9.971,24.774v66.258H61.07V35.126c0-3.743-1.469-7.134-3.832-9.581c-2.346-2.429-5.594-3.937-9.18-3.937 s-6.834,1.508-9.181,3.937c-2.363,2.447-3.83,5.837-3.83,9.581v59.549h14.663l-24.327,28.205L0,94.676H14.087L14.087,94.676z"/></g></svg>