<?xml version="1.0" encoding="UTF-8"?>
<svg xmlns="http://www.w3.org/2000/svg" xmlns:xlink="http://www.w3.org/1999/xlink" width="542pt" height="801pt" viewBox="0 0 2258 3337" version="1.1">

<path style="fill:#010101; stroke:#010101;" d="M364 946L0 946C0.80079 949.534 2.42181 952.65 3.7963 956L11.3989 975L23.2546 1005L28.1181 1019.91L32.7963 1029L52.1281 1079.91L56.7963 1089L65.267 1113C69.1582 1123.56 74.618 1133.53 78.8002 1144L87.7647 1168.96L93.6003 1181L123.683 1258.83L128.6 1269L137.733 1292L140.418 1301L147.796 1317L156.267 1341C159.419 1349.55 163.792 1357.65 167.386 1366.01L176.805 1392L183.796 1407C194.776 1433.35 204.346 1460.31 214.683 1486.83L218.385 1494.01L228.751 1520C232.183 1528.59 234.504 1537.54 238.269 1546L243.6 1557L251.228 1578.99L260.386 1599.01C262.767 1604.55 265.252 1610.26 267.1 1616L269.434 1624L274.382 1634C279.492 1645.85 284.077 1657.99 288.797 1670L300.255 1699L305.118 1713.91L309.796 1723C313.782 1732.57 317.732 1742.26 321.245 1752L324.433 1762L329.528 1774.83L333.796 1783L342.267 1807C346.405 1818.23 352.195 1828.85 356.6 1840L361.201 1854L369.796 1873C380.776 1899.35 390.346 1926.31 400.683 1952.83L405.6 1963L414.733 1986L419.228 1999.99L425.6 2013L433.666 2036L449.996 2074L455.765 2090.96L461.199 2102C471.819 2128.11 481.474 2154.64 491.683 2180.83L494.961 2187.04L501.751 2204C506.514 2215.91 510.067 2228.31 515.269 2240L519.382 2248L524.418 2263C528.078 2272.93 532.625 2282.4 536.965 2292.04C539.036 2296.64 540.307 2301.74 543 2306C545.918 2301.89 547.173 2297.67 548.876 2293C551.41 2286.05 553.997 2278.74 557.05 2272C564.475 2255.62 570.317 2238.82 576.815 2222L585.317 2202.83L597.801 2169L610.32 2139.83L619.208 2115L627.317 2096.83L639.4 2064L652.32 2033.83L660.815 2010L669.317 1990.83L680.204 1961L694.32 1927.83L704.704 1900L711.317 1884.83L724.204 1850L732.317 1831.83L746.704 1794L753.317 1778.83L755.267 1772L764.204 1749L774.317 1725.83L788.704 1688L795.317 1672.83L797.267 1666L806.601 1642L816.317 1619.83L830.704 1582L837.317 1566.83L839.267 1560L848.601 1536L858.317 1513.83L872.679 1476.09L879.317 1460.83L881.267 1454L891.4 1428L896.096 1418L906.805 1390L917.317 1364.83L932.204 1325L942.317 1301.83L965.267 1242L971.096 1229L975.4 1216L984.317 1195.83C993.76 1171.47 1003.05 1147.12 1013.1 1123L1016.6 1112L1026.32 1089.83L1049.27 1030L1055.1 1017L1059 1005L1069.24 981.961L1074.4 967.004C1076.96 959.991 1080.43 953.365 1082 946L727 946L727 676L727 623C727 614.324 725.745 604.541 727.339 596C727.927 592.851 729.474 589.981 730.581 587L735.037 573.83C736.391 569.978 736.595 565.733 738.274 562C741.428 554.986 746.74 548.39 751 542C754.931 536.103 758.514 529.394 763.326 524.17C769.493 517.474 777.135 511.691 784 505.718C793.283 497.642 802.072 488.565 812 481.289C820.561 475.016 830.08 470.04 839 464.308L867 446.797C871.324 444.171 875.418 441.059 880 438.89C887.35 435.412 895.35 433.04 903 430.308L936 418.308L969 406.308L979 402.595C985.28 400.832 991.65 400.651 998 399.536L1041 391.551C1061.27 387.471 1081.65 383.876 1102 380.243C1108.69 379.049 1115.2 376.85 1122 376.17C1129.29 375.441 1136.69 376.411 1144 375.911L1162 374.089L1181 373.961L1206 372.089L1219 371.911L1242 370.039L1258 369.911L1283 368.015C1295.58 367.707 1308.43 367.489 1321 368.039L1345 369.961L1395 371.039L1429 373.911L1440 374.089L1458 375.911L1470 376.17C1490.34 378.105 1510.78 380.367 1531 383.209L1538 384.795L1558 387.324C1573.4 389.89 1588.76 393.198 1604 396.545L1640 403.528L1658 408.487L1666 409.68L1676 412.761L1693 416.427C1701.41 418.907 1709.72 422.379 1718 425.309L1747 435.425L1779 448.6L1813 462.6C1821.99 466.195 1831.52 469.488 1840 474.17C1862.72 486.707 1883.9 502.117 1905 517.141C1924.46 530.999 1943.92 545.069 1958.88 563.999C1960.76 566.371 1962.69 568.542 1965.01 570.486C1967.02 572.17 1969.38 573.545 1970.4 576.093C1971.36 578.493 1971 581.472 1971 584L1971 597L1971 645L1971 811L1971 1381L1971 3337L2258 3337L2258 1103L2258 501L2258 340L2258 300C2258 293.835 2259.23 286.156 2257.69 280.17C2256.75 276.541 2253.58 272.248 2251.64 269.015C2249.25 265.052 2245.48 262.349 2242 259.41C2238.16 256.164 2234.52 252.682 2231.09 249L2218.83 235.3C2212.24 229.058 2204.17 224.132 2197 218.576C2184.26 208.709 2171.55 198.109 2158 189.38C2150.64 184.638 2142.62 180.88 2135 176.576L2093 153.15C2084.09 148.063 2075.29 142.254 2066 137.89L2043 128.139C2020.88 118.439 1998.67 109.267 1976 100.947C1962.98 96.168 1950.22 90.5684 1937 86.3442C1908.69 77.3008 1879.8 69.0449 1851 61.76L1813 53.4097L1783 46.7639C1773.33 44.4907 1763.78 41.9565 1754 40.1697L1704 31.4639L1696 30.625L1680 27.3003L1671 26.3843L1662 24.3247L1653 23.7146L1611 18.7146C1589.68 16.1301 1568.38 13.2046 1547 11.1697L1536 10.9106L1508 8.08936L1494 7.96069L1485 7.03931L1455 5.91064C1436.02 4.61108 1417.01 2.87109 1398 2.03931C1376.71 1.10767 1355.31 2.50684 1334 1.98535L1324 1.03931L1297 0.985352L1287 0.0393066C1279.37 -0.294434 1271.63 -0.0869141 1264 0.00390625L1254 0.910645L1237 1.03931L1228 1.96069L1200 2.03931L1191 2.96069L1172 3.08936L1163 3.98535L1138 4.08936L1098 7.91064C1071.01 9.75806 1043.93 11.6067 1017 14.1697L1002 16.7407L993 17.1736L979 19.7139L935 25.1279L927 26.8711C917.364 27.9536 907.589 28.4404 898 30.2446C875.219 34.5308 852.674 40.1707 830 45.115L821 46.3242C812.345 47.7666 803.489 49.9463 795 52.155C781.567 55.6499 768.338 60.2527 755 64.1489L716 75.0254C696.816 80.9873 678.003 88.1494 659 94.5986L640 100.811C628.453 105.284 617.305 110.866 606 115.909C596.023 120.36 585.769 124.486 576 129.37L552 142.691C526.939 156.279 502.202 170.801 479 187.428C460.673 200.562 443.471 215.574 427 230.911L416.015 241.001C410.201 246.932 405.22 253.622 399.919 260C393.046 268.269 385.877 276.438 379.376 285C375.9 289.577 374.04 295.113 371.073 300C368.884 303.607 365.52 306.832 364.43 311C363.139 315.933 364 321.932 364 327L364 360L364 470L364 946z"/>
<path style="fill:#ffffff; stroke:#ffffff;" d="M1291 0L1291 1C1301.64 1 1312.37 0.574219 1323 1.03931L1336 2C1356.28 2.03247 1376.74 1.15283 1397 2.03931C1416.01 2.87109 1435.02 4.61108 1454 5.91064L1484 7.03931L1493 7.96069L1507 8.08936L1535 10.9106L1546 11.1697C1573.39 13.7766 1600.68 17.5654 1628 20.845L1653 23.8303L1661 24.3247L1696 30.7915C1719.01 34.0999 1742.21 37.8337 1765 42.5132L1783 46.9854L1843 60.5479L1850 61.76C1878.8 69.0449 1907.69 77.3008 1936 86.3442C1949.22 90.5684 1961.98 96.168 1975 100.947C1997.67 109.267 2019.88 118.439 2042 128.139L2065 137.89C2077.08 143.564 2088.27 151.331 2100 157.691L2135 177.139C2142.31 181.198 2149.96 184.847 2157 189.38C2167.44 196.103 2177.14 204.23 2187 211.765L2215 232.888C2221.54 238.022 2226.31 245.023 2232.04 251C2237.26 256.452 2243.65 260.694 2248.79 266.17C2252.4 270.022 2253.22 275.437 2258 278L2258 0L1291 0z"/>
<path style="fill:#5d5d5d; stroke:#5d5d5d;" d="M363 311L363 946L364 946L364 496L364 366L364 329C364 323.381 365.189 316.216 363 311z"/>
<path style="fill:#dddddd; stroke:#dddddd;" d="M362 312L362 945L0 945L0 946L363 946L363 497L363 367L363 330C363 324.381 364.189 317.216 362 312z"/>
<path style="fill:#ffffff; stroke:#ffffff;" d="M728 945L1083 945L1074.4 966.015L1069.24 980.985L1060.2 1001L1055.1 1016C1045.04 1040.14 1035.53 1064.45 1026.32 1088.91L1017.8 1108L1013.48 1121L1007.67 1134L1001.32 1151.91L998.679 1157.17L984.317 1194.91L976.204 1213L971.096 1228C961.047 1252.13 951.534 1276.43 942.317 1300.91L931.814 1325L900.317 1406.91L892.618 1424C888.534 1433.47 884.834 1443.32 881.267 1453L879.317 1459.91L876.683 1465.17L867.2 1489L858.317 1512.91L850.618 1530C846.534 1539.47 842.834 1549.32 839.267 1559L837.317 1565.91L830.704 1581L816.317 1618.91L806.601 1641L797.267 1665L795.317 1671.91L788.704 1687L774.317 1724.91L766.618 1742C762.534 1751.47 758.834 1761.32 755.267 1771L753.317 1777.91L746.704 1793L732.317 1830.91L722.204 1854L711.317 1883.91L704.704 1899L690.317 1936.91L682.204 1955L669.317 1989.91L661.208 2008L652.32 2032.91L638.601 2065L627.317 2095.91L619.208 2114L610.32 2138.91L598.204 2167L585.317 2201.91L577.208 2220L568.32 2244.91L556.619 2272C551.81 2283.27 548.544 2295.07 543 2306L536.965 2291.09C534.039 2284.76 530.792 2278.48 528.228 2272L520.199 2249L511.155 2228.96L505.751 2213L495.385 2187.04L491.683 2179.91L472.796 2130C468.771 2119.67 464.879 2109.17 460.385 2099.04L455.765 2089.99L444.796 2060.01L433.666 2035L425.199 2011L419.228 1999L414.733 1985C411.528 1976.33 408.132 1967.49 404.385 1959.04L400.683 1951.91C390.817 1925.94 381.022 1899.83 370.6 1874L360.805 1852L351.796 1827.01L342.666 1807L334.199 1783L329.128 1772.96L310.199 1723L305.118 1712.96L299.89 1697L275.6 1636L269.434 1623L267.1 1615C265.257 1609.28 262.801 1603.55 260.386 1598.04L251.228 1578L244.384 1558L234.155 1534.96L229.516 1521L219.6 1496L214.683 1485.91C204.571 1459.29 194.9 1432.31 183.796 1406.01L178.765 1395.99L172.2 1377C167.233 1364.53 160.905 1352.59 156.267 1340C153.339 1332.06 151.104 1323.86 147.796 1316.01L140.805 1301L137.733 1291L128.997 1269L123.683 1257.91C113.571 1231.29 103.9 1204.31 92.7963 1178.01L87.7647 1167.99L75.1991 1134L65.6659 1113L57.5995 1090L52.1281 1078.96L36.8002 1038L31.9606 1026.09L27.7608 1017.99C22.1816 1002.23 16.4207 986.554 10.1998 971C7.26525 963.663 4.71538 955.976 1 949L0 949L0 3337L1969 3337L1969 1381L1969 810L1969 644L1969 596L1969 582C1969 579.464 1969.35 576.5 1968.4 574.089C1967.23 571.138 1964.27 569.219 1962.17 566.961L1951.99 555C1936.48 539.095 1919.24 526.207 1901 513.659C1881.28 500.091 1862.01 485.766 1841 474.17C1832.52 469.488 1822.99 466.196 1814 462.6L1780 448.6L1748 435.425L1719 425.309C1710.72 422.379 1702.41 418.907 1694 416.427L1677 412.761L1667 409.68L1659 408.487L1641 403.528L1605 396.545C1589.76 393.198 1574.4 389.89 1559 387.324L1539 384.795L1532 383.209C1511.78 380.367 1491.34 378.105 1471 376.17L1459 375.911L1441 374.089L1430 373.911L1396 371.039L1346 369.961L1322 368.039C1308.77 367.46 1295.24 367.691 1282 368.015L1257 369.911L1241 370.039L1218 371.911L1205 372.089L1180 373.961L1161 374.089L1143 375.911C1135.37 376.433 1127.59 375.303 1120 376.289C1114.23 377.039 1108.67 378.701 1103 379.88L1088 382.245L1061 387.714C1039.95 391.229 1018.94 395.144 998 399.335C991.354 400.665 984.603 400.741 978 402.595L968 406.308L936 417.947L902 430.308C894.351 433.04 886.349 435.412 879 438.89C868.854 443.693 859.59 450.971 850 456.797C836.997 464.696 823.276 472.294 811 481.289C801.435 488.299 792.898 497.012 784 504.845C777.136 510.888 769.612 516.635 763.326 523.285C758.734 528.143 755.364 534.454 751.667 540C747.324 546.513 742.367 553.045 738.764 560C736.687 564.01 736.484 568.673 735.037 572.911C732.451 580.485 729.334 587.964 728.289 596C727.189 604.467 728 613.469 728 622L728 670L728 945z"/>
<path style="fill:#bbbbbb; stroke:#bbbbbb;" d="M1969 573L1969 3337L1970 3337L1970 1372L1970 805L1970 642L1970 595L1970 582C1970 578.869 1970.21 575.891 1969 573z"/>
<path style="fill:#3b3b3b; stroke:#3b3b3b;" d="M1970 574L1970 3337L1971 3337L1971 1373L1971 806L1971 643L1971 596L1971 583C1971 579.87 1971.21 576.891 1970 574z"/>
<path style="fill:#e9e9e9; stroke:#e9e9e9;" d="M728 591C725.488 604.53 727 619.266 727 633L727 709L727 946L988 946L1056 946L1072 946C1075.75 946.002 1078.96 945.696 1082 948L1083 948C1082.27 944.601 1080.23 945.008 1077 945L1063 945L999 945L728 945L728 696L728 622L728.015 601C728.098 597.589 729.156 594.224 728 591z"/>
</svg>
