<?xml version="1.0" encoding="UTF-8"?>
<svg xmlns="http://www.w3.org/2000/svg" xmlns:xlink="http://www.w3.org/1999/xlink" width="780pt" height="832pt" viewBox="0 0 3250 3467" version="1.1">

<path style="fill:#010101; stroke:#010101;" d="M428 1224L0 1224C1.32198 1230.67 4.16928 1236.79 6.67284 1243.08L15.3511 1266L41.2492 1331L47.2963 1344C68.0349 1398.24 90.9599 1451.75 112.399 1506L120.124 1527.91L146.598 1593.17C158.273 1623.9 170.44 1654.59 183.004 1685L190.751 1702L261.6 1879C271.235 1902.95 281.376 1926.8 290.384 1951L292.683 1958.83L299.317 1974.09L324.683 2038.83L328.235 2046.01L365.4 2139L414.751 2262L430.747 2302L433.386 2310L437.382 2318C448.442 2343.65 458.24 2369.96 468.31 2396L494.2 2460C509.252 2497.63 525.244 2535.02 539.384 2573L541.683 2580.83L546.199 2590C555.258 2612.27 564.321 2634.58 572.996 2657L576.418 2668C581.876 2682.8 588.14 2697.35 594 2712L627.4 2793L636.6 2816C638.697 2821.24 641.16 2826.39 642 2832L644 2832C645.503 2824.78 649.114 2818.43 651.968 2811.71L654.63 2803.01L661.245 2789L666.05 2774L675.096 2753L677.666 2745L694.096 2705L696.666 2697L701.331 2686.83L703.63 2679.01L710.231 2664.96L716.203 2647L724.096 2629L726.666 2621L743.096 2581L745.666 2573L750.331 2562.83L752.63 2555.01L759.231 2540.96L765.203 2523L773.096 2505L775.666 2497L792.096 2457L794.267 2450L799.331 2438.83L803.204 2427L808.231 2416.96L813.811 2400L822.096 2381L824.267 2374L829.679 2361.71L839.2 2336L848.331 2314.83L851.801 2304L857.231 2292.96L862.424 2277L871.096 2257L873.267 2250L878.679 2237.71L887.004 2215L897.331 2190.83L902.679 2176.09L906.231 2168.96L909.231 2159L916.208 2141L920.096 2133L922.267 2126L927.679 2113.71L930.129 2106L933.096 2100L939.616 2082L945.968 2067.71L951.679 2052.09L955.231 2044.96L959.695 2031L969.096 2009L971.267 2002L977.026 1988.83L979.129 1982L986.484 1965L989.404 1956L995.331 1942.83L1001.07 1927.17L1004.23 1920.96L1007.23 1911L1014.21 1893L1018.1 1885L1020.27 1878L1025.68 1865.71L1028.13 1858L1035.32 1841.83L1037.62 1834L1043.97 1819.71L1049.68 1804.09L1053.23 1796.96L1063.21 1769L1067.1 1761L1077.13 1734L1084.32 1717.83L1086.62 1710L1093.41 1694.83L1098.68 1680.09L1102.23 1672.96L1111.44 1647L1116.48 1636L1126.13 1610L1133.32 1593.83L1136.4 1584L1142.41 1570.83L1148.07 1555.17L1151.23 1548.96L1160.81 1522L1165.1 1513L1167.27 1506L1172.68 1493.71L1175.13 1486L1182.32 1469.83L1184.24 1463L1191.21 1445L1200.23 1424.96L1210.21 1397L1214.1 1389L1216.27 1382L1221.68 1369.71L1224.13 1362L1231.32 1345.83L1233.24 1339C1235.58 1332.32 1238.31 1325.5 1241.1 1319L1249.23 1300.96L1259.21 1273L1263.1 1265L1265.67 1257L1279 1224L858 1224L858 837L858 745L858 716C858 711.154 857.354 705.758 858.39 701C859.371 696.498 862.71 693.215 864.239 688.961C865.757 684.739 865.68 680.157 867.352 676C871.357 666.04 876.877 657.15 882.399 648C888.31 638.206 894.44 628 901.518 619C912.374 605.194 925.748 593.28 939 581.87C951.256 571.317 963.833 561.674 977 552.291C982.27 548.536 987.414 544.426 993 541.149C1001.36 536.246 1010.41 532.448 1019 527.975C1032.47 520.962 1046.16 514.916 1060 508.694C1069.26 504.533 1078.47 499.942 1088 496.435C1106.36 489.677 1125.19 484.235 1144 478.91L1157 474.735C1167.51 471.967 1178.42 470.614 1189 468.156C1203.57 464.773 1218.24 460.68 1233 458.084L1248 456.536L1258 454.299L1272 452.745L1279 451.09L1299 448.7L1308 446.376L1316 445.7L1324 444.174L1334 443.911L1351 442.089L1361 441.83L1378 440.089L1388 439.83C1398.99 438.785 1409.98 437.521 1421 437.039C1437.63 436.311 1454.35 437.393 1471 436.985L1497 435.015C1516.19 434.545 1535.82 434.2 1555 435.039L1584 436.961C1599.64 437.645 1615.35 436.632 1631 437.015L1641 437.961L1656 438.089L1673 439.174L1683 440.91C1696.31 441.886 1709.71 441.841 1723 443.17L1733 444.83L1744 445.17C1758.38 446.544 1772.73 448.665 1787 450.7L1796 451.3L1804 452.83C1816.67 454.337 1829.4 455.469 1842 457.424C1859.13 460.083 1875.98 464.465 1893 467.69C1903.61 469.7 1914.5 471.196 1925 473.676L1959 482.761C1970.29 485.5 1981.81 487.588 1993 490.781C2008.85 495.306 2024.25 501.601 2040 506.491C2073.62 516.93 2106.75 529.983 2139 544.139C2149.61 548.796 2160.69 552.817 2171 558.11C2200.55 573.278 2227.5 592.248 2254 612.126C2272.99 626.369 2290.22 642.222 2307 659L2319 670.826C2321.07 672.678 2323.7 674.242 2325.4 676.464C2327.28 678.925 2326.99 682.071 2327 685L2327 703L2327 772L2327 1041L2327 2077L2665 2077L2665 773L2665 440L2665 359L2665 338C2665 334.514 2665.59 330.337 2664.4 327C2662.97 322.992 2659.21 319.247 2656.54 316C2648.69 306.487 2639.62 297.822 2631.01 289L2620 277.17C2593.08 252.564 2561.81 232.271 2531 212.95C2520.35 206.272 2509.92 199.102 2499 192.873C2488.65 186.967 2477.6 182.181 2467 176.742C2445.3 165.609 2423.23 155.714 2401 145.694C2391.03 141.201 2381.17 136.281 2371 132.253C2356.55 126.528 2341.67 121.635 2327 116.495C2313.63 111.812 2300.5 106.319 2287 102.029C2263.55 94.5732 2239.67 88.3083 2216 81.5986L2191 74.4407L2180 72.2686L2147 63.6797L2138 62.2539L2122 57.665C2105.82 53.614 2089.37 49.8103 2073 46.5139L2063 45.7139L2048 42.4646L2039 41.6753L1994 34.5647L1971 30.1343C1958.73 28.2827 1946.33 27.2131 1934 25.8333L1918 23.2854L1885 19.8333L1869 17.2854L1860 16.8157L1852 15.1843L1836 13.8333L1826 12.1704L1811 11.9854L1802 11.0894L1791 10.9097L1780 9.09033L1762 8.91064L1735 6.08936L1696 4.96069L1672 3.03931C1653.03 2.20923 1633.97 3.79077 1615 2.96069L1605 2.01465L1571 1.96069L1561 1.01465L1528 0.985352L1518 0.0393066L1499 0.00390625L1487 0.985352L1457 1.01465L1447 1.96069L1416 2.01465L1406 2.96069L1386 3.03931L1377 3.96069L1357 4.01465L1347 4.96069L1314 6.08936L1292 8.91064L1280 9.08936L1239 12.9106C1221.32 14.1211 1203.63 15.1428 1186 17.1289L1179 18.7446L1166 20.8264L1158 21.2092L1140 24.6997C1123.39 27.0737 1106.58 28.5623 1090 31.3242L1073 34.6997L1061 35.5942C1048.58 37.6765 1036.33 41.187 1024 43.7893L1008 46.4492L988 51.3379L966 55.8311L943 60.2393C925.906 64.3801 908.9 69.5476 892 74.4097L842 87.7847C833.589 90.272 825.231 93.7102 817 96.7725L784 108.772L754 119.604C737.489 126.291 721.293 133.936 705 141.14L679 152.605L653 166.691C633.987 176.999 615.263 187.357 597 198.947C585.693 206.122 573.805 212.845 563 220.757C556.748 225.334 550.954 230.631 545 235.586L513 262.718C494.286 279 475.369 295.772 460.745 316C453.03 326.672 446.301 338.049 439 349C435.7 353.95 430.4 359.322 428.564 365C427.746 367.531 428.001 370.378 428 373L428 387L428 434L428 589L428 1224z"/>
<path style="fill:#ffffff; stroke:#ffffff;" d="M1522 0L1522 1C1534.96 1 1548.05 0.472656 1561 1.03931L1571 1.98535L1605 2.03931L1615 2.98535L1670 3.01465L1695 4.96069L1734 6.08936L1761 8.91064L1779 9.09033L1789 10.8264L1808 11.9106L1825 12.1704L1835 13.8333L1852 15.3247L1859 16.8157L1867 17.1697L1883 19.7114L1900 21.1736L1908 22.6997L1917 23.2854L1933 25.8333C1945.33 27.2131 1957.73 28.2827 1970 30.1343L1994 34.7253L2038 41.6753L2047 42.4646L2058 45.0764L2072 46.5139C2088.37 49.8101 2104.82 53.614 2121 57.665L2137 62.2539L2146 63.6797L2180 72.5254L2190 74.4407L2215 81.5986L2260 94.5647L2286 102.029C2299.15 106.209 2312.02 111.452 2325 116.139C2339.97 121.543 2355.21 126.393 2370 132.253C2380.51 136.418 2390.65 141.592 2401 146.139C2423.68 156.101 2445.88 166.619 2468 177.752L2497 192.312C2508.33 198.536 2519.05 206.081 2530 212.95C2553.7 227.812 2577.17 243.306 2599 260.8C2606.05 266.449 2613.42 271.888 2620 278.089L2629.09 288L2647.17 307L2660.46 321.985C2662.21 324.07 2664.63 325.899 2665.97 328.285C2667.81 331.554 2667 336.391 2667 340L2667 366L2667 461L2667 808L2667 2078L2325 2078L2325 1043L2325 772L2325 701L2325 683C2324.99 679.99 2325.24 676.857 2323.4 674.285C2321.69 671.903 2319.09 670.024 2317 667.985L2305 656C2289.24 640.235 2272.84 625.504 2255 612.126C2228.5 592.248 2201.55 573.278 2172 558.11C2161.69 552.817 2150.61 548.796 2140 544.139C2121.54 536.036 2102.88 528.822 2084 521.772L2059 512.015L2029 502.506C2017.37 498.63 2005.78 494.144 1994 490.781C1982.81 487.588 1971.29 485.5 1960 482.761L1926 473.676L1893 467.489L1863 461.629L1843 457.424C1830.4 455.469 1817.67 454.337 1805 452.83L1797 451.3L1788 450.7C1773.73 448.665 1759.38 446.544 1745 445.17L1734 444.83L1724 443.17C1710.71 441.841 1697.31 441.886 1684 440.91L1674 439.174L1657 438.089L1642 437.961L1633 437.039C1617.36 436.355 1601.65 437.368 1586 436.985L1555 435.015C1535.15 434.529 1514.84 434.171 1495 435.039L1470 436.985C1453.35 437.393 1436.63 436.311 1420 437.039C1408.98 437.521 1397.99 438.785 1387 439.83L1377 440.089L1360 441.83L1350 442.089L1333 443.911L1323 444.174L1315 445.7L1307 446.376L1298 448.7L1257 454.299L1246 456.7L1231 458.261L1204 464.49L1170 472.156L1157 474.475L1143 478.91C1123.87 484.325 1104.59 489.719 1086 496.814C1076.49 500.443 1067.32 505.049 1058 509.139C1043.06 515.696 1028.58 522.691 1014 530C1006.68 533.668 999.062 537.006 992 541.149C986.066 544.63 980.6 549.014 975 553C964.339 560.588 953.946 568.216 944 576.729C929.075 589.504 913.727 602.479 901.518 618C894.439 626.999 888.31 637.206 882.399 647C876.877 656.15 871.357 665.04 867.352 675C865.678 679.162 865.73 683.749 864.239 687.985L860.418 696.089C859.217 700.702 860 706.265 860 711L860 739L860 831L860 1224L1279 1224C1275.5 1230.67 1273.49 1237.89 1270.68 1244.83L1265.27 1257L1263.1 1264L1258.44 1274L1252.05 1291L1248.84 1300.96L1241.1 1318C1238.31 1324.5 1235.58 1331.32 1233.24 1338L1231.32 1344.91L1224.13 1361L1221.68 1368.83L1216.27 1381L1214.1 1388L1209.81 1397L1200.23 1423.99L1191.62 1443C1188.01 1451.46 1185.52 1460.35 1182.32 1468.91L1175.13 1485L1172.68 1492.83L1167.27 1505L1165.1 1512L1160.44 1522L1153.67 1540.17L1150.84 1548.96L1147.68 1555.17L1142.41 1569.91L1135.62 1585L1133.32 1592.91L1126.13 1609L1123.68 1616.83L1116.1 1636L1111.81 1645L1102.23 1671.99L1098.68 1679.17L1093.41 1693.91L1087.81 1706L1084.32 1716.91L1077.13 1733L1067.1 1760L1063.21 1768L1053.23 1795.99L1049.68 1803.17L1043.97 1818.83L1038.81 1830L1035.32 1840.91L1028.13 1857L1025.68 1864.83L1020.27 1877L1018.1 1884L1014.21 1892L1007.23 1910L1004.23 1919.99L1000.68 1927.17L994.968 1942.83L989.811 1954L986.096 1965L971.666 2000L969.096 2008L965.208 2016L958.231 2034L955.231 2043.99L951.679 2051.17L945.968 2066.83L940.811 2078L937.096 2089L922.666 2124L920.096 2132L916.208 2140L909.231 2158L906.231 2167.99L898.708 2185L887.004 2214L884.096 2223L881.129 2229L878.679 2236.83L873.267 2249L871.096 2256L863.203 2274L857.231 2291.99L851.004 2305L848.331 2313.91L843.225 2325L837.242 2340L835.096 2347L832.129 2353L829.679 2360.83L824.267 2373L822.096 2380L813.811 2399L808.231 2415.99L803.204 2426.01L798.968 2438.83L788.633 2463L786.096 2471L783.129 2477L780.679 2484.83L775.267 2497L773.096 2504L764.424 2524L758.845 2540.96L752.63 2554.04L749.968 2562.83L734.125 2601L726.267 2621L724.096 2628L715.811 2647L710.231 2663.99L703.63 2678.04L701.331 2685.91L696.666 2696L694.096 2704L677.666 2744L675.096 2752C671.568 2760.34 667.623 2768.41 664.591 2777L661.606 2787L654.63 2802.04L651.968 2810.83C649.071 2817.83 644.938 2824.34 644 2832L642 2832C641.53 2826.65 639.378 2821.95 637.4 2817L629 2796L597.2 2719C590.276 2701.69 582.869 2684.49 576.418 2667L572.996 2656L547 2591L541.683 2579.91L539.384 2572C526.871 2538.39 512.72 2505.3 499.4 2472L468.31 2395C458.24 2368.96 448.442 2342.65 437.382 2317L433.386 2309L430.747 2301L418.751 2271L371.4 2153L335.4 2063L327.842 2044.09L324.683 2037.91L299.317 1973.17L292.683 1957.91L290.384 1950C281.377 1925.81 271.26 1901.94 261.6 1878L190.751 1701L183.004 1684C170.449 1653.61 158.528 1622.9 146.598 1592.29C136.767 1567.06 125.685 1542.29 116.125 1516.96L113.185 1507C103.102 1480.14 91.9917 1453.58 81.1991 1427L76.9043 1418L67.2963 1393L47.2963 1343L41.2492 1330L15.3511 1265L6.67284 1242.25C4.57753 1236.99 1.71788 1231.63 1 1226L0 1226L0 3467L2325 3467L2325 2842L2667 2842L2667 3467L3250 3467L3250 2113C3242.22 2115.29 3234.94 2120.65 3228 2124.8L3193 2145.55L3081 2211.55L2974 2274.45C2916.93 2308.68 2859.4 2342.18 2802 2375.86L2706 2432.45L2673 2451.86C2667.69 2454.97 2662.58 2458.39 2657 2461L2657 2463C2674.94 2472.95 2692.4 2483.99 2710 2494.55L2797 2546.55L3052 2698.55C3093.6 2723.51 3135.16 2748.59 3177 2773.14C3191.72 2781.77 3206.5 2790.33 3221 2799.32C3226.94 2803 3234.08 2806.01 3239 2811L3033 2811L2974 2811L2958 2811C2954.27 2811 2950.5 2811.28 2947 2809.78C2942.8 2807.97 2938.96 2805.13 2935 2802.85L2906 2785.45L2842 2747.45L2632 2622.55L2545 2570.6L2521 2556.28C2517.82 2554.45 2513.77 2551.05 2510 2550.78C2506.75 2550.54 2503.66 2553.19 2501 2554.72L2479 2567.58L2395 2616.72L2314 2664.14L2167 2749.86L2106 2785.6C2092.78 2793.44 2079.67 2801.93 2066 2808.96C2058.34 2812.89 2047.41 2811 2039 2811L1981 2811L1769 2811C1772.68 2806.71 1778.18 2804.29 1783 2801.4L1810 2785.58C1840.1 2768.11 1870.16 2750.5 1900 2732.6C1955.04 2699.59 2010.66 2667.5 2066 2634.99C2115.35 2606 2164.36 2576.35 2214 2547.85L2316 2487.85L2345 2470.72C2349.73 2468.01 2356 2465.67 2359 2461C2353.6 2459.03 2348.94 2455.76 2344 2452.86L2319 2438.28L2231 2386.86C2139.45 2333.16 2047.94 2279.32 1956 2226.28L1821 2147.42L1779 2122.86C1771.8 2118.64 1762.7 2115.17 1757 2109L1970 2109L2030 2109L2046 2109C2049.73 2109 2053.53 2108.69 2057 2110.27L2068 2116.58L2094 2131.72L2179 2181.14L2327 2267.14L2383 2299.45C2412.43 2317.1 2442.83 2333.24 2472 2351.32L2498 2366.28C2501.62 2368.37 2505.58 2371.9 2510 2371.68C2514.42 2371.46 2518.35 2368 2522 2365.86L2546 2351.85C2577.19 2334.01 2608.35 2315.82 2639 2297.06L2703 2259.55C2748.43 2232.31 2794.32 2205.82 2840 2178.99L2923 2130.15L2944 2117.8C2947.61 2115.64 2951.17 2113.02 2955 2111.27C2958.47 2109.69 2962.28 2110 2966 2110L2982 2110L3041 2110L3250 2110L3250 0L1522 0z"/>
<path style="fill:#3b3b3b; stroke:#3b3b3b;" d="M2665 327L2665 2077L2327 2077L2327 676L2326 676L2326 2078L2666 2078L2666 834L2666 475L2666 371L2666 342C2666 337.191 2666.88 331.469 2665 327z"/>
<path style="fill:#bbbbbb; stroke:#bbbbbb;" d="M2666 327L2666 2078L2667 2078L2667 834L2667 475L2667 371L2667 342C2667 337.191 2667.88 331.469 2666 327z"/>
<path style="fill:#5d5d5d; stroke:#5d5d5d;" d="M427 365L427 1224L428 1224L428 614L428 438L428 388L428 374C427.999 370.869 428.213 367.891 427 365z"/>
<path style="fill:#dddddd; stroke:#dddddd;" d="M426 366L426 1224L427 1224L427 615L427 439L427 389L427 375C426.999 371.869 427.213 368.891 426 366z"/>
<path style="fill:#bbbbbb; stroke:#bbbbbb;" d="M2325 676L2325 2078L2326 2078L2326 1082L2326 795L2326 712L2326 689C2326 684.739 2326.66 679.959 2325 676M859 697L859 1224L860 1224L860 851L860 743L860 712C860 707.192 860.875 701.469 859 697z"/>
<path style="fill:#3b3b3b; stroke:#3b3b3b;" d="M858 699L858 1224L859 1224L859 852L859 745L859 714C859 709.192 859.875 703.469 858 699z"/>
<path style="fill:#010101; stroke:#010101;" d="M1757 2109C1759.94 2113.8 1766.22 2116.12 1771 2118.85L1801 2136.28L1910 2200C2015.09 2260.4 2118.84 2323.14 2224 2383.42L2318 2438.28L2343 2452.86C2348.19 2455.91 2353.07 2459.64 2359 2461C2354.37 2465.78 2347.71 2468.51 2342 2471.86L2314 2488.42C2284.83 2505.15 2255.93 2522.45 2227 2539.6C2123.54 2600.94 2019.15 2660.75 1916 2722.6L1810 2784.99L1781 2802C1776.74 2804.56 1771.5 2806.59 1769 2811L1982 2811L2040 2811C2048.41 2811 2059.34 2812.89 2067 2808.96C2080.67 2801.93 2093.78 2793.44 2107 2785.6L2168 2749.86C2242.58 2706.11 2317.04 2662.09 2392 2619L2478 2568.72L2500 2555.85C2502.86 2554.22 2506.54 2551.09 2510 2551.33C2513.71 2551.58 2517.87 2555.03 2521 2556.86L2545 2571.2L2631 2622.55L2841 2747.45L2905 2785.45L2934 2802.85C2937.96 2805.13 2941.8 2807.97 2946 2809.78C2949.5 2811.28 2953.27 2811 2957 2811L2973 2811L3032 2811L3239 2811C3235.82 2806.13 3228.91 2803.5 3224 2800.55L3193 2781.99L3079 2713.99C3027.12 2683.51 2975.6 2652.39 2924 2621.45L2798 2546.55C2765.7 2527.18 2733.56 2507.49 2701 2488.58L2674 2472.55C2668.47 2469.23 2663.04 2465.29 2657 2463L2657 2461C2663.52 2458.94 2669.12 2454.68 2675 2451.28L2707 2432.45L2802 2376.45L2909 2313.55C2974.05 2274.54 3039.57 2236.24 3105 2197.86C3141.33 2176.55 3178.2 2155.87 3214 2133.68L3240 2118.4C3243.84 2116.12 3248.5 2114.39 3250 2110L3040 2110L2981 2110L2965 2110C2961.28 2110 2957.47 2109.69 2954 2111.27C2950.17 2113.02 2946.61 2115.64 2943 2117.8L2922 2130.15L2839 2178.99C2793.32 2205.82 2747.43 2232.31 2702 2259.55L2638 2297.06C2607.68 2315.62 2576.85 2333.63 2546 2351.28L2521 2365.86C2517.71 2367.79 2513.97 2371.16 2510 2371.38C2506.04 2371.6 2502.24 2368.15 2499 2366.28L2473 2351.32C2443.83 2333.24 2413.43 2317.1 2384 2299.45L2328 2267.14L2180 2181.14L2095 2131.72L2069 2116.58L2058 2110.27C2054.53 2108.69 2050.73 2109 2047 2109L2031 2109L1971 2109L1757 2109z"/>
<path style="fill:#bbbbbb; stroke:#bbbbbb;" d="M2325 2842L2325 3467L2326 3467L2326 3024L2326 2896L2326 2860C2326 2854.38 2327.19 2847.22 2325 2842z"/>
<path style="fill:#3b3b3b; stroke:#3b3b3b;" d="M2326 2842L2326 3467L2327 3467L2327 3024L2327 2896L2327 2860C2327 2854.38 2328.19 2847.22 2326 2842z"/>
<path style="fill:#010101; stroke:#010101;" d="M2327 2842L2327 3467L2665 3467L2665 2842L2327 2842z"/>
<path style="fill:#3b3b3b; stroke:#3b3b3b;" d="M2665 2842L2665 3467L2666 3467L2666 3024L2666 2896L2666 2860C2666 2854.38 2667.19 2847.22 2665 2842z"/>
<path style="fill:#bbbbbb; stroke:#bbbbbb;" d="M2666 2842L2666 3467L2667 3467L2667 3024L2667 2896L2667 2860C2667 2854.38 2668.19 2847.22 2666 2842z"/>
</svg>
