<?xml version="1.0" encoding="UTF-8"?>
<svg xmlns="http://www.w3.org/2000/svg" xmlns:xlink="http://www.w3.org/1999/xlink" width="102pt" height="116pt" viewBox="0 0 425 485" version="1.1">

<path style="fill:#030303; stroke:#030303;" d="M0 7C0 9.87161 -0.328914 13.0071 0.274691 15.8302C0.966151 19.0642 3.24842 21.9884 4.57485 25.0008L13.6698 46L26.8465 76L31.8688 89L50.1397 129L57.3904 146.715L61.571 155.001L64.7708 163.576C79.4711 195.5 93.5964 227.744 107.576 260L120.645 291.83L127.694 306L132.771 318.576L139.533 333L141.659 339.83L146.136 348.004C151.435 359.546 156.364 371.295 161.285 383C170.603 405.16 180.426 427.081 190.306 449L200.001 471C201.995 475.655 204.243 479.951 205 485L210 485C208.519 476.668 203.709 468.633 200.167 461L188.135 433L183.883 425L180.691 416L142.709 330L56.1397 132L17.5648 44L2 9L422 9L406.435 44L367.86 132L281.291 330L253.424 393L244.306 414L240.131 425L235.865 433L223.833 461C220.291 468.633 215.481 476.668 214 485L219 485C219.757 479.951 222.005 475.655 223.999 471L233.694 449C243.574 427.081 253.397 405.16 262.715 383C267.636 371.295 272.565 359.546 277.864 348.004L282.341 339.83L284.467 333L291.229 318.576L296.306 306L303.355 291.83L316.424 260C330.404 227.744 344.529 195.5 359.229 163.576L362.429 155.001L366.61 146.715L373.86 129L392.131 89L397.154 76L410.33 46L419.425 25.0008L424.301 15.8302C425.296 13.0593 424.998 9.89447 425 7L0 7z"/>
<path style="fill:#f5f5f5; stroke:#f5f5f5;" d="M2 9C3.94857 15.4596 6.77089 20.9705 9.6767 27L17.9961 46L56.1397 133L160.709 372L180.691 417L183.883 426L188.135 434L200.167 462C203.644 469.493 207.724 477.04 210 485L214 485C216.386 476.655 220.794 468.914 224.291 461L240.131 426L246.004 411L263.291 372L367.86 133L406.004 46L414.323 27C417.229 20.9706 420.051 15.4596 422 9L2 9z"/>
<path style="fill:#ffffff; stroke:#ffffff;" d="M424 16C417.472 26.1055 413.381 37.9345 408.715 49C401.715 65.5993 394.655 82.3582 387.229 98.7145L362.865 153.015L359.229 162.715C344.73 194.685 330.39 226.776 316.424 259L303.355 290.91L299.436 298.039L291.229 317.715L285.309 330L281.941 339.83L278.32 346.039C268.721 365.369 260.705 385.851 252.606 405.83L237.15 440L224.85 468C222.444 473.6 219.54 478.854 219 485L425 485L425 153L425 57L425 30C425 25.4644 425.769 20.2151 424 16M0 18L0 485L205 485C204.517 479.507 202.145 475.005 200.001 470L190.306 448L161.709 383L146.575 348.004L141.659 338.91L139.533 332L132.771 317.715L128.14 306L120.645 290.91L117.481 282.039L93.1397 226L64.7708 162.715L61.571 154.004L53.8843 137C47.2179 120.369 39.449 104.169 31.8688 88L27.6944 77L15.7091 50L6.28086 28C4.64643 24.2126 3.53429 20.3169 0 18z"/>
<path style="fill:#030303; stroke:#030303;" d="M100 95L103.392 103L105.609 109.83L109.981 118.004L133.982 174.004L140.387 191L144.557 199L147.771 207.576C154.976 223.223 162.016 239.083 168.522 255.014C173.879 268.128 178.963 281.246 185.115 294.039C192.356 309.098 197.191 325.352 204.615 340.285L208.758 349.941C209.36 351.43 210.057 353.364 212 353.364C213.943 353.364 214.64 351.43 215.242 349.941L219.385 340.285C226.809 325.352 231.644 309.098 238.885 294.039L244.493 281L248.664 273L255.438 255.015L270.85 219L276.606 206.715L279.443 199L283.613 191L290.018 174.004L308.004 132.004L312.341 123.83L314.478 117.015L318.391 109.83L320.608 103L324 95L100 95z"/>
<path style="fill:#ffffff; stroke:#ffffff;" d="M106 97C108.576 107.845 114.232 117.813 118.579 128L141.579 182L191.15 298L211 345L213 345L232.85 298L282.421 182L305.85 127C310.045 117.125 315.503 107.512 318 97L106 97z"/>
</svg>
