<?xml version="1.0" encoding="UTF-8"?>
<svg xmlns="http://www.w3.org/2000/svg" xmlns:xlink="http://www.w3.org/1999/xlink" width="132pt" height="250pt" viewBox="0 0 132 250" version="1.1">
<g id="surface1">
<path style=" stroke:none;fill-rule:evenodd;fill:rgb(100%,100%,100%);fill-opacity:1;" d="M 1 124.359375 L 131 124.359375 L 131 0 L 1 0 Z M 1 124.359375 "/>
<path style=" stroke:none;fill-rule:nonzero;fill:rgb(0%,0%,0%);fill-opacity:1;" d="M 131.960938 0 L 131 -0.910156 L 1 -0.910156 L 1 0.910156 L 131 0.910156 L 130.039063 0 L 131.960938 0 L 131.960938 -0.910156 L 131 -0.910156 "/>
<path style=" stroke:none;fill-rule:nonzero;fill:rgb(0%,0%,0%);fill-opacity:1;" d="M 131 125.269531 L 131.960938 124.359375 L 131.960938 0 L 130.039063 0 L 130.039063 124.359375 L 131 123.460938 L 131 125.269531 L 131.960938 125.269531 L 131.960938 124.359375 "/>
<path style=" stroke:none;fill-rule:nonzero;fill:rgb(0%,0%,0%);fill-opacity:1;" d="M 0.0390625 124.359375 L 1 125.269531 L 131 125.269531 L 131 123.460938 L 1 123.460938 L 1.960938 124.359375 L 0.0390625 124.359375 L 0.0390625 125.269531 L 1 125.269531 "/>
<path style=" stroke:none;fill-rule:nonzero;fill:rgb(0%,0%,0%);fill-opacity:1;" d="M 1 -0.910156 L 0.0390625 0 L 0.0390625 124.359375 L 1.960938 124.359375 L 1.960938 0 L 1 0.910156 L 1 -0.910156 L 0.0390625 -0.910156 L 0.0390625 0 "/>
<path style=" stroke:none;fill-rule:evenodd;fill:rgb(100%,100%,100%);fill-opacity:1;" d="M 1 248 L 131 248 L 131 123.640625 L 1 123.640625 Z M 1 248 "/>
<path style=" stroke:none;fill-rule:nonzero;fill:rgb(0%,0%,0%);fill-opacity:1;" d="M 131.960938 123.640625 L 131 122.730469 L 1 122.730469 L 1 124.539063 L 131 124.539063 L 130.039063 123.640625 L 131.960938 123.640625 L 131.960938 122.730469 L 131 122.730469 "/>
<path style=" stroke:none;fill-rule:nonzero;fill:rgb(0%,0%,0%);fill-opacity:1;" d="M 131 248.910156 L 131.960938 248 L 131.960938 123.640625 L 130.039063 123.640625 L 130.039063 248 L 131 247.089844 L 131 248.910156 L 131.960938 248.910156 L 131.960938 248 "/>
<path style=" stroke:none;fill-rule:nonzero;fill:rgb(0%,0%,0%);fill-opacity:1;" d="M 0.0390625 248 L 1 248.910156 L 131 248.910156 L 131 247.089844 L 1 247.089844 L 1.960938 248 L 0.0390625 248 L 0.0390625 248.910156 L 1 248.910156 "/>
<path style=" stroke:none;fill-rule:nonzero;fill:rgb(0%,0%,0%);fill-opacity:1;" d="M 1 122.730469 L 0.0390625 123.640625 L 0.0390625 248 L 1.960938 248 L 1.960938 123.640625 L 1 124.539063 L 1 122.730469 L 0.0390625 122.730469 L 0.0390625 123.640625 "/>
<path style=" stroke:none;fill-rule:evenodd;fill:rgb(100%,0%,0%);fill-opacity:1;" d="M 9.230469 116.480469 L 122.769531 116.480469 L 122.769531 7.890625 L 9.230469 7.890625 Z M 9.230469 116.480469 "/>
<path style=" stroke:none;fill-rule:evenodd;fill:rgb(19.993591%,80.076599%,19.993591%);fill-opacity:1;" d="M 9.230469 240.109375 L 122.769531 240.109375 L 122.769531 131.429688 L 9.230469 131.429688 Z M 9.230469 240.109375 "/>
<path style=" stroke:none;fill-rule:evenodd;fill:rgb(100%,100%,100%);fill-opacity:1;" d="M 63.609375 30.460938 L 62.550781 24.378906 L 62.550781 24.109375 L 62.648438 23.480469 L 62.75 22.480469 L 63.03125 21.390625 L 63.417969 20.210938 L 63.988281 19.128906 L 64.761719 18.308594 L 65.808594 17.859375 L 67.050781 17.859375 L 68.300781 18.21875 L 69.539063 18.851563 L 70.789063 19.761719 L 71.839844 20.761719 L 72.609375 21.941406 L 72.988281 23.019531 L 73.082031 24.109375 L 72.890625 25.199219 L 72.511719 26.289063 L 72.03125 27.371094 L 71.648438 28.371094 L 71.167969 29.191406 L 70.789063 29.910156 L 70.5 30.371094 L 70.398438 30.550781 L 70.398438 30.640625 L 70.589844 30.910156 L 70.878906 31.359375 L 71.269531 31.910156 L 71.839844 32.628906 L 72.699219 33.449219 L 73.75 34.441406 L 75.089844 35.53125 L 76.628906 36.710938 L 78.058594 38.160156 L 79.398438 39.699219 L 80.648438 41.328125 L 81.601563 43.148438 L 82.46875 45.140625 L 82.941406 47.128906 L 83.140625 49.308594 L 83.140625 50.488281 L 83.230469 51.851563 L 83.230469 53.390625 L 83.417969 54.929688 L 83.519531 56.648438 L 83.609375 58.371094 L 83.808594 60.101563 L 83.898438 61.730469 L 84 63.359375 L 84.191406 64.898438 L 84.28125 66.261719 L 84.480469 67.53125 L 84.570313 68.53125 L 84.570313 69.25 L 84.667969 69.699219 L 84.667969 69.890625 L 84.480469 69.890625 L 84.089844 69.980469 L 83.519531 70.070313 L 82.941406 70.160156 L 82.179688 70.070313 L 81.601563 69.890625 L 81.128906 69.519531 L 80.839844 68.980469 L 80.550781 67.800781 L 80.261719 66.078125 L 79.78125 63.808594 L 79.398438 61.460938 L 78.917969 59.101563 L 78.640625 57.199219 L 78.351563 55.839844 L 78.25 55.289063 L 78.25 55.019531 L 78.160156 54.390625 L 77.96875 53.480469 L 77.769531 52.660156 L 77.390625 52.121094 L 76.910156 52.121094 L 76.238281 52.75 L 75.480469 54.390625 L 75.089844 55.46875 L 74.710938 56.46875 L 74.417969 57.558594 L 74.140625 58.558594 L 73.949219 59.640625 L 73.851563 60.730469 L 73.660156 61.730469 L 73.660156 62.820313 L 73.558594 63.898438 L 73.558594 68.160156 L 73.660156 69.25 L 73.660156 70.429688 L 73.75 71.519531 L 73.75 72.699219 L 73.851563 73.960938 L 73.949219 75.320313 L 73.949219 76.769531 L 74.039063 78.320313 L 74.140625 79.859375 L 74.140625 81.398438 L 74.230469 82.851563 L 74.332031 84.390625 L 74.417969 85.75 L 74.417969 87.109375 L 74.519531 88.289063 L 74.519531 89.371094 L 74.621094 90.28125 L 74.621094 92.640625 L 74.519531 94.179688 L 74.417969 95.898438 L 74.332031 97.800781 L 74.417969 99.710938 L 74.710938 101.609375 L 75.191406 103.238281 L 75.960938 104.601563 L 76.820313 105.78125 L 77.582031 106.960938 L 78.160156 108.050781 L 78.441406 109.039063 L 78.539063 109.859375 L 78.351563 110.398438 L 77.871094 110.679688 L 76.910156 110.578125 L 75.761719 110.21875 L 74.519531 109.859375 L 73.46875 109.320313 L 72.410156 108.589844 L 71.648438 107.769531 L 70.980469 106.871094 L 70.691406 105.78125 L 70.691406 102.878906 L 70.5 101.699219 L 70.308594 100.429688 L 70.019531 99.070313 L 69.730469 97.53125 L 69.351563 96.078125 L 68.96875 94.449219 L 68.582031 92.910156 L 68.199219 91.460938 L 67.910156 90.011719 L 67.53125 88.648438 L 67.238281 87.378906 L 67.050781 86.378906 L 66.859375 85.480469 L 66.769531 84.839844 L 66.667969 84.210938 L 66.667969 83.300781 L 66.480469 82.210938 L 66.378906 80.941406 L 66.191406 79.679688 L 65.898438 78.320313 L 65.621094 77.050781 L 65.332031 75.960938 L 64.949219 75.050781 L 64.558594 74.421875 L 64.179688 74.058594 L 63.699219 74.148438 L 63.128906 74.691406 L 62.550781 75.691406 L 61.980469 77.410156 L 61.308594 79.679688 L 60.640625 82.121094 L 60.058594 84.300781 L 59.589844 86.109375 L 59.109375 87.648438 L 58.71875 89.011719 L 58.339844 90.101563 L 57.960938 91.011719 L 57.667969 91.730469 L 57.378906 92.269531 L 57.191406 92.820313 L 57 93.269531 L 56.808594 93.628906 L 56.621094 94.089844 L 56.519531 94.449219 L 56.429688 94.898438 L 56.332031 95.449219 L 56.140625 96.898438 L 55.949219 98.710938 L 55.660156 100.890625 L 55.46875 103.058594 L 55.179688 105.148438 L 55.089844 106.871094 L 54.898438 108.050781 L 54.898438 108.589844 L 54.699219 108.859375 L 54.511719 109.320313 L 54.128906 109.769531 L 53.75 110.21875 L 53.167969 110.578125 L 52.5 110.769531 L 51.640625 110.769531 L 50.679688 110.679688 L 49.730469 110.578125 L 48.859375 110.308594 L 48.101563 110.039063 L 47.621094 109.5 L 47.519531 108.679688 L 48 107.5 L 48.960938 106.050781 L 50.109375 104.421875 L 50.78125 103.058594 L 51.070313 101.699219 L 51.160156 100.519531 L 51.070313 99.351563 L 50.96875 98.171875 L 50.871094 96.898438 L 50.871094 95.449219 L 50.96875 94 L 51.160156 92.550781 L 51.449219 91.28125 L 51.640625 90.011719 L 51.929688 88.738281 L 52.21875 87.378906 L 52.5 85.929688 L 52.789063 84.300781 L 52.890625 83.480469 L 52.980469 82.578125 L 53.082031 81.761719 L 53.167969 80.941406 L 53.167969 80.039063 L 53.269531 79.128906 L 53.269531 77.050781 L 53.359375 75.871094 L 53.359375 74.601563 L 53.460938 73.238281 L 53.460938 71.699219 L 53.558594 70.070313 L 53.75 68.160156 L 53.839844 66.171875 L 54.03125 63.898438 L 54.230469 61.640625 L 54.320313 59.550781 L 54.320313 54.570313 L 54.230469 53.390625 L 54.03125 52.390625 L 53.839844 51.671875 L 53.648438 51.210938 L 53.359375 51.121094 L 52.980469 51.210938 L 52.691406 51.671875 L 52.308594 52.390625 L 51.929688 53.390625 L 51.539063 54.839844 L 51.070313 56.558594 L 50.300781 60.011719 L 49.820313 62.628906 L 49.441406 64.539063 L 49.25 65.898438 L 49.058594 66.800781 L 48.859375 67.351563 L 48.582031 67.621094 L 48.289063 67.710938 L 47.910156 67.800781 L 47.519531 67.710938 L 47.050781 67.441406 L 46.761719 66.890625 L 46.46875 65.808594 L 46.28125 64.269531 L 46.179688 62 L 46.179688 58.921875 L 46.28125 57.109375 L 46.378906 55.378906 L 46.46875 53.660156 L 46.570313 52.03125 L 46.761719 50.398438 L 47.050781 48.859375 L 47.238281 47.320313 L 47.621094 45.871094 L 48 44.511719 L 48.480469 43.238281 L 49.058594 42.058594 L 49.628906 40.878906 L 50.398438 39.878906 L 51.261719 38.980469 L 52.21875 38.160156 L 53.269531 37.441406 L 55.46875 36.078125 L 57.378906 34.898438 L 59.199219 33.628906 L 60.730469 32.628906 L 61.878906 31.730469 L 62.839844 31.089844 L 63.417969 30.640625 L 63.609375 30.460938 "/>
<path style=" stroke:none;fill-rule:evenodd;fill:rgb(100%,100%,100%);fill-opacity:1;" d="M 65.898438 153.820313 L 65.898438 153.640625 L 66 153.28125 L 66 151.011719 L 65.898438 150.199219 L 65.621094 149.46875 L 65.230469 148.929688 L 64.851563 148.199219 L 64.558594 147.109375 L 64.371094 145.851563 L 64.28125 144.390625 L 64.46875 142.941406 L 64.761719 141.679688 L 65.230469 140.679688 L 65.898438 140.039063 L 66.960938 139.589844 L 68.390625 139.230469 L 70.019531 139.050781 L 71.738281 138.960938 L 73.46875 139.320313 L 74.898438 140.128906 L 76.050781 141.398438 L 76.628906 143.398438 L 76.71875 145.570313 L 76.53125 147.300781 L 76.148438 148.75 L 75.570313 149.921875 L 75 150.832031 L 74.519531 151.371094 L 74.140625 151.738281 L 73.949219 151.832031 L 73.851563 152.011719 L 73.75 152.371094 L 73.558594 153.011719 L 73.46875 153.820313 L 73.46875 154.640625 L 73.75 155.359375 L 74.417969 156.089844 L 75.378906 156.628906 L 76.53125 156.988281 L 77.679688 157.449219 L 78.730469 157.898438 L 79.691406 158.351563 L 80.738281 158.988281 L 81.699219 159.621094 L 82.660156 160.441406 L 83.609375 161.441406 L 84.089844 161.980469 L 84.667969 162.429688 L 85.238281 162.980469 L 85.71875 163.519531 L 86.289063 164.058594 L 86.871094 164.699219 L 87.351563 165.417969 L 87.917969 166.148438 L 88.300781 166.960938 L 88.78125 167.960938 L 89.167969 168.960938 L 89.449219 170.140625 L 89.738281 171.410156 L 89.929688 172.859375 L 90.121094 174.488281 L 90.121094 176.300781 L 90.03125 179.378906 L 89.648438 181.289063 L 89.167969 182.191406 L 88.5 182.371094 L 87.917969 181.917969 L 87.351563 181.109375 L 86.871094 180.289063 L 86.582031 179.46875 L 86.390625 178.839844 L 86.101563 178.019531 L 85.820313 177.121094 L 85.339844 176.210938 L 84.859375 175.210938 L 84.378906 174.308594 L 83.808594 173.308594 L 83.230469 172.398438 L 82.46875 171.679688 L 81.320313 171.039063 L 80.070313 170.679688 L 78.730469 170.589844 L 77.488281 170.859375 L 76.429688 171.410156 L 75.761719 172.308594 L 75.480469 173.667969 L 75.570313 175.390625 L 75.667969 177.210938 L 75.960938 179.199219 L 76.339844 181.011719 L 76.71875 182.832031 L 77.199219 184.371094 L 77.679688 185.640625 L 78.25 186.539063 L 78.730469 187.269531 L 79.308594 188.449219 L 79.691406 189.71875 L 80.070313 191.261719 L 80.261719 192.890625 L 80.261719 194.519531 L 80.167969 196.058594 L 79.691406 197.417969 L 79.210938 198.691406 L 78.917969 200.050781 L 78.832031 201.410156 L 78.832031 202.679688 L 79.019531 204.039063 L 79.398438 205.21875 L 79.878906 206.390625 L 80.460938 207.390625 L 81.128906 208.480469 L 81.890625 209.75 L 82.660156 211.109375 L 83.519531 212.46875 L 84.191406 213.917969 L 84.859375 215.28125 L 85.429688 216.460938 L 85.910156 217.359375 L 86.390625 218.269531 L 86.960938 219.269531 L 87.628906 220.261719 L 88.300781 221.261719 L 88.878906 222.082031 L 89.359375 222.710938 L 89.738281 223.160156 L 89.839844 223.351563 L 89.929688 223.441406 L 90.320313 223.710938 L 90.789063 224.160156 L 91.269531 224.699219 L 91.660156 225.429688 L 91.941406 226.25 L 91.941406 227.058594 L 91.558594 227.96875 L 90.890625 228.960938 L 90.121094 229.78125 L 89.359375 230.511719 L 88.5 230.960938 L 87.832031 230.960938 L 87.160156 230.511719 L 86.871094 229.417969 L 86.769531 227.511719 L 86.199219 226.148438 L 85.53125 225.070313 L 84.859375 224.160156 L 84.191406 223.53125 L 83.519531 222.980469 L 82.941406 222.53125 L 82.46875 222.082031 L 82.082031 221.621094 L 81.511719 221.082031 L 80.550781 220.261719 L 79.210938 219.179688 L 77.769531 218 L 76.339844 216.550781 L 75.089844 214.820313 L 74.230469 213.011719 L 73.75 210.929688 L 72.800781 209.109375 L 71.839844 207.300781 L 70.878906 205.488281 L 69.25 202.230469 L 68.679688 200.871094 L 68.199219 199.871094 L 68.109375 199.140625 L 67.71875 198.960938 L 66.667969 199.230469 L 65.140625 199.871094 L 63.320313 200.769531 L 61.308594 201.859375 L 59.488281 203.039063 L 57.960938 204.039063 L 56.808594 204.851563 L 56.140625 205.761719 L 55.570313 207.121094 L 55.089844 208.660156 L 54.699219 210.46875 L 54.320313 212.289063 L 53.941406 214.011719 L 53.558594 215.550781 L 52.980469 216.910156 L 52.308594 218.269531 L 51.640625 219.808594 L 50.78125 221.621094 L 50.011719 223.441406 L 49.148438 225.25 L 48.289063 226.96875 L 47.429688 228.417969 L 46.660156 229.601563 L 45.988281 230.511719 L 45.710938 231.320313 L 45.609375 231.960938 L 45.609375 232.5 L 45.800781 232.949219 L 45.988281 233.320313 L 46.089844 233.5 L 46.179688 233.589844 L 45.710938 233.679688 L 44.371094 233.859375 L 42.449219 234.128906 L 40.339844 234.398438 L 38.140625 234.488281 L 36.230469 234.398438 L 34.890625 233.949219 L 34.410156 233.230469 L 34.601563 232.320313 L 34.980469 231.5 L 35.648438 230.78125 L 36.417969 230.140625 L 37.378906 229.601563 L 38.238281 229.058594 L 39.101563 228.601563 L 39.871094 228.148438 L 40.25 227.789063 L 40.628906 227.148438 L 41.109375 226.339844 L 41.589844 225.25 L 42.070313 223.980469 L 42.550781 222.621094 L 43.03125 221.167969 L 43.5 219.71875 L 44.460938 216.640625 L 44.839844 215.101563 L 45.230469 213.648438 L 45.511719 212.289063 L 45.800781 211.109375 L 45.988281 210.019531 L 46.179688 209.199219 L 46.378906 208.390625 L 46.570313 207.570313 L 46.761719 206.582031 L 47.050781 205.667969 L 47.429688 204.582031 L 47.808594 203.488281 L 48.191406 202.410156 L 48.667969 201.230469 L 49.25 200.140625 L 49.917969 198.960938 L 50.589844 197.78125 L 51.261719 196.699219 L 52.121094 195.519531 L 52.980469 194.519531 L 53.839844 193.429688 L 54.898438 192.441406 L 55.851563 191.441406 L 56.710938 190.351563 L 57.480469 189.167969 L 58.148438 187.988281 L 58.71875 186.820313 L 59.199219 185.550781 L 59.589844 184.371094 L 59.871094 183.191406 L 60.160156 182.011719 L 60.351563 180.917969 L 60.449219 179.929688 L 60.640625 179.019531 L 60.730469 178.199219 L 60.832031 177.480469 L 60.832031 176.851563 L 60.929688 176.390625 L 60.929688 175.667969 L 60.730469 175.03125 L 60.351563 174.667969 L 59.78125 174.398438 L 59.109375 174.398438 L 58.25 174.851563 L 57.289063 175.582031 L 56.238281 176.75 L 54.988281 178.109375 L 53.558594 179.46875 L 51.929688 180.832031 L 50.398438 182.011719 L 48.769531 183.101563 L 47.332031 183.917969 L 46.089844 184.550781 L 45.128906 185 L 44.082031 185.269531 L 42.550781 185.460938 L 40.820313 185.640625 L 39.289063 185.550781 L 38.140625 185.179688 L 37.761719 184.550781 L 38.53125 183.371094 L 40.539063 181.648438 L 43.21875 179.648438 L 44.460938 178.570313 L 45.710938 177.570313 L 46.761719 176.480469 L 47.808594 175.390625 L 48.769531 174.398438 L 49.730469 173.308594 L 50.488281 172.308594 L 51.261719 171.320313 L 51.929688 170.410156 L 52.5 169.410156 L 53.082031 168.511719 L 53.558594 167.691406 L 53.941406 166.871094 L 54.230469 166.148438 L 54.898438 164.519531 L 55.851563 162.519531 L 57.101563 160.53125 L 58.53125 158.441406 L 60.160156 156.628906 L 61.980469 155.089844 L 63.890625 154.179688 L 65.898438 153.820313 "/>
</g>
</svg>
