<?xml version="1.0" encoding="UTF-8"?>
<svg xmlns="http://www.w3.org/2000/svg" xmlns:xlink="http://www.w3.org/1999/xlink" width="132pt" height="250pt" viewBox="0 0 132 250" version="1.1">
<g id="surface1">
<path style=" stroke:none;fill-rule:evenodd;fill:rgb(100%,100%,100%);fill-opacity:1;" d="M 0.78125 129.949219 L 131.378906 129.949219 L 131.378906 5.449219 L 0.78125 5.449219 Z M 0.78125 129.949219 "/>
<path style=" stroke:none;fill-rule:evenodd;fill:rgb(0%,0%,0%);fill-opacity:1;" d="M 131.378906 4.539063 L 132.351563 4.539063 L 132.351563 5.449219 L 130.421875 5.449219 L 131.378906 6.351563 L 0.78125 6.351563 L 0.78125 4.539063 L 131.378906 4.539063 L 132.351563 5.449219 "/>
<path style=" stroke:none;fill-rule:evenodd;fill:rgb(0%,0%,0%);fill-opacity:1;" d="M 132.351563 129.800781 L 132.351563 130.859375 L 131.378906 130.859375 L 131.378906 128.890625 L 130.421875 129.800781 L 130.421875 5.449219 L 132.351563 5.449219 L 132.351563 129.800781 L 131.378906 130.859375 "/>
<path style=" stroke:none;fill-rule:evenodd;fill:rgb(0%,0%,0%);fill-opacity:1;" d="M 0.78125 130.859375 L -0.191406 130.859375 L -0.191406 129.800781 L 1.582031 129.800781 L 0.78125 128.890625 L 131.539063 128.890625 L 131.539063 130.859375 L 0.78125 130.859375 L -0.191406 129.800781 "/>
<path style=" stroke:none;fill-rule:evenodd;fill:rgb(0%,0%,0%);fill-opacity:1;" d="M -0.191406 5.449219 L -0.191406 4.539063 L 0.78125 4.539063 L 0.78125 6.199219 L 1.738281 5.449219 L 1.738281 129.949219 L -0.191406 129.949219 L -0.191406 5.449219 L 0.78125 4.539063 "/>
<path style=" stroke:none;fill-rule:evenodd;fill:rgb(100%,100%,100%);fill-opacity:1;" d="M 0.78125 253.859375 L 131.378906 253.859375 L 131.378906 129.199219 L 0.78125 129.199219 Z M 0.78125 253.859375 "/>
<path style=" stroke:none;fill-rule:evenodd;fill:rgb(0%,0%,0%);fill-opacity:1;" d="M 131.378906 128.289063 L 132.351563 128.289063 L 132.351563 129.199219 L 130.421875 129.199219 L 131.378906 130.261719 L 0.78125 130.261719 L 0.78125 128.289063 L 131.378906 128.289063 L 132.351563 129.199219 "/>
<path style=" stroke:none;fill-rule:evenodd;fill:rgb(0%,0%,0%);fill-opacity:1;" d="M 132.351563 253.710938 L 132.351563 254.609375 L 131.378906 254.609375 L 131.378906 252.800781 L 130.421875 253.710938 L 130.421875 129.199219 L 132.351563 129.199219 L 132.351563 253.710938 L 131.378906 254.609375 "/>
<path style=" stroke:none;fill-rule:evenodd;fill:rgb(0%,0%,0%);fill-opacity:1;" d="M -0.191406 129.199219 L -0.191406 128.289063 L 0.78125 128.289063 L 0.78125 130.109375 L 1.738281 129.199219 L 1.738281 253.859375 L -0.191406 253.859375 L -0.191406 129.199219 L 0.78125 128.289063 "/>
<path style=" stroke:none;fill-rule:evenodd;fill:rgb(100%,0%,0%);fill-opacity:1;" d="M 8.960938 122.089844 L 123.199219 122.089844 L 123.199219 13.308594 L 8.960938 13.308594 Z M 8.960938 122.089844 "/>
<path style=" stroke:none;fill-rule:evenodd;fill:rgb(87.889099%,87.889099%,87.889099%);fill-opacity:1;" d="M 8.960938 245.839844 L 123.199219 245.839844 L 123.199219 136.910156 L 8.960938 136.910156 Z M 8.960938 245.839844 "/>
<path style=" stroke:none;fill-rule:evenodd;fill:rgb(100%,100%,100%);fill-opacity:1;" d="M 63.667969 35.851563 L 63.351563 36.011719 L 62.871094 36.460938 L 61.910156 37.058594 L 60.789063 37.96875 L 59.179688 39.03125 L 57.417969 40.238281 L 55.488281 41.449219 L 53.238281 42.808594 L 52.121094 43.570313 L 51.160156 44.328125 L 50.359375 45.230469 L 49.550781 46.289063 L 48.910156 47.5 L 47.949219 49.921875 L 47.46875 51.289063 L 47.148438 52.800781 L 46.988281 54.308594 L 46.667969 55.820313 L 46.511719 57.488281 L 46.339844 59.148438 L 46.339844 60.820313 L 46.179688 62.480469 L 46.019531 64.300781 L 46.019531 67.46875 L 46.179688 69.738281 L 46.339844 71.261719 L 46.667969 72.308594 L 46.988281 72.921875 L 47.46875 73.21875 L 48.269531 73.21875 L 48.429688 73.070313 L 48.75 72.769531 L 48.910156 72.308594 L 49.230469 71.410156 L 49.390625 70.039063 L 49.710938 68.078125 L 50.199219 65.511719 L 51 62.03125 L 51.480469 60.210938 L 51.800781 58.851563 L 52.28125 57.789063 L 52.601563 57.03125 L 52.917969 56.578125 L 53.558594 56.578125 L 53.730469 57.03125 L 54.050781 57.789063 L 54.210938 58.851563 L 54.210938 67.019531 L 54.050781 69.289063 L 53.730469 71.558594 L 53.730469 73.679688 L 53.558594 75.488281 L 53.398438 77.160156 L 53.398438 78.671875 L 53.238281 80.03125 L 53.238281 84.570313 L 53.082031 85.480469 L 53.082031 87.289063 L 52.917969 88.050781 L 52.761719 88.960938 L 52.761719 89.710938 L 52.441406 91.378906 L 52.121094 92.890625 L 51.800781 94.25 L 51.640625 95.460938 L 51.320313 96.671875 L 51.160156 98.03125 L 50.839844 99.390625 L 50.839844 103.628906 L 51.160156 106.050781 L 51 107.109375 L 50.679688 108.46875 L 50.039063 109.828125 L 48.910156 111.5 L 47.949219 113.011719 L 47.46875 114.21875 L 47.46875 114.980469 L 47.949219 115.578125 L 48.75 115.730469 L 49.710938 116.039063 L 50.679688 116.339844 L 52.441406 116.339844 L 53.082031 116.039063 L 53.730469 115.730469 L 54.050781 115.28125 L 54.53125 114.828125 L 54.691406 114.371094 L 54.851563 114.070313 L 54.851563 113.460938 L 55.011719 112.398438 L 55.167969 110.589844 L 55.488281 108.46875 L 55.648438 106.351563 L 55.96875 104.238281 L 56.128906 102.421875 L 56.289063 100.910156 L 56.449219 100.300781 L 56.449219 99.851563 L 56.609375 99.550781 L 56.769531 99.089844 L 56.929688 98.789063 L 57.089844 98.339844 L 57.417969 97.730469 L 57.582031 97.128906 L 57.898438 96.519531 L 58.378906 95.609375 L 58.699219 94.398438 L 59.019531 93.039063 L 59.5 91.53125 L 59.980469 89.710938 L 60.621094 87.589844 L 61.269531 85.171875 L 61.910156 82.898438 L 62.550781 81.089844 L 63.191406 80.179688 L 63.667969 79.578125 L 64.148438 79.578125 L 64.640625 79.878906 L 64.960938 80.480469 L 65.28125 81.390625 L 65.601563 82.449219 L 65.917969 83.808594 L 66.238281 85.171875 L 66.398438 86.378906 L 66.398438 87.75 L 66.71875 88.800781 L 66.71875 90.320313 L 66.878906 90.921875 L 67.039063 91.828125 L 67.199219 92.890625 L 67.519531 94.101563 L 67.851563 95.460938 L 68.167969 96.96875 L 68.648438 98.339844 L 68.96875 99.851563 L 69.289063 101.511719 L 69.769531 103.03125 L 70.089844 104.539063 L 70.25 105.898438 L 70.570313 107.109375 L 70.730469 108.320313 L 70.730469 111.191406 L 71.050781 112.398438 L 71.699219 113.308594 L 72.5 114.070313 L 73.460938 114.828125 L 74.582031 115.28125 L 75.871094 115.730469 L 76.988281 116.039063 L 77.949219 116.339844 L 78.441406 115.878906 L 78.601563 115.28125 L 78.441406 114.519531 L 78.269531 113.460938 L 77.628906 112.398438 L 76.832031 111.191406 L 76.03125 110.140625 L 75.230469 108.769531 L 74.738281 107.109375 L 74.417969 105.140625 L 74.417969 101.359375 L 74.582031 99.699219 L 74.582031 93.800781 L 74.417969 92.589844 L 74.417969 89.859375 L 74.261719 88.351563 L 74.101563 86.839844 L 74.101563 83.808594 L 73.941406 82.300781 L 73.941406 79.421875 L 73.78125 78.210938 L 73.78125 77 L 73.621094 75.949219 L 73.621094 67.171875 L 73.941406 66.109375 L 73.941406 65.050781 L 74.101563 63.988281 L 74.417969 62.929688 L 74.738281 61.878906 L 75.070313 60.96875 L 75.550781 59.761719 L 76.351563 58.238281 L 76.988281 57.488281 L 77.46875 57.488281 L 77.789063 58.089844 L 77.949219 58.851563 L 78.269531 59.761719 L 78.269531 60.671875 L 78.441406 61.269531 L 78.761719 62.628906 L 78.917969 64.601563 L 79.398438 66.871094 L 79.878906 69.289063 L 80.359375 71.558594 L 80.679688 73.21875 L 80.839844 74.429688 L 81.160156 75.039063 L 81.640625 75.339844 L 82.289063 75.488281 L 83.089844 75.640625 L 83.570313 75.488281 L 84.210938 75.488281 L 84.53125 75.339844 L 84.851563 75.339844 L 84.851563 73.980469 L 84.53125 72.921875 L 84.371094 71.710938 L 84.210938 70.351563 L 84.050781 68.828125 L 84.050781 67.171875 L 83.890625 65.511719 L 83.730469 63.839844 L 83.570313 62.03125 L 83.570313 60.359375 L 83.25 58.851563 L 83.25 54.769531 L 83.089844 52.5 L 82.609375 50.53125 L 81.640625 48.558594 L 80.679688 46.75 L 79.398438 45.078125 L 78.109375 43.570313 L 76.667969 42.058594 L 75.070313 41 L 73.78125 39.789063 L 72.660156 38.878906 L 71.859375 37.96875 L 71.210938 37.371094 L 70.890625 36.761719 L 70.570313 36.308594 L 70.410156 36.011719 L 70.570313 35.699219 L 70.730469 35.25 L 71.210938 34.640625 L 71.699219 33.738281 L 72.019531 32.828125 L 72.5 31.621094 L 72.980469 30.558594 L 73.140625 29.5 L 72.980469 28.441406 L 72.660156 27.378906 L 71.859375 26.171875 L 70.730469 25.109375 L 69.609375 24.210938 L 68.332031 23.601563 L 67.039063 23.300781 L 65.761719 23.300781 L 64.800781 23.75 L 63.988281 24.511719 L 63.351563 25.570313 L 63.03125 26.78125 L 62.710938 27.839844 L 62.710938 28.898438 L 62.550781 29.5 L 62.550781 29.800781 L 63.667969 35.851563 "/>
<path style=" stroke:none;fill-rule:evenodd;fill:rgb(100%,100%,100%);fill-opacity:1;" d="M 65.917969 159.300781 L 63.832031 159.761719 L 61.910156 160.660156 L 60.140625 162.179688 L 58.539063 163.988281 L 57.089844 166.109375 L 55.808594 168.082031 L 54.851563 170.039063 L 54.210938 171.710938 L 53.890625 172.460938 L 53.558594 173.21875 L 53.082031 173.980469 L 52.441406 174.890625 L 51.800781 175.941406 L 51.160156 176.851563 L 50.359375 177.910156 L 49.710938 178.820313 L 48.75 179.878906 L 47.789063 180.941406 L 46.667969 182 L 45.539063 183.050781 L 44.417969 184.109375 L 43.140625 185.167969 L 41.691406 186.230469 L 40.410156 187.140625 L 38.320313 188.960938 L 37.679688 190.167969 L 38 190.769531 L 39.121094 191.070313 L 40.730469 191.21875 L 42.488281 191.070313 L 43.941406 190.769531 L 45.058594 190.621094 L 46.019531 190.167969 L 47.308594 189.410156 L 48.75 188.648438 L 50.359375 187.589844 L 51.800781 186.378906 L 53.558594 185.019531 L 55.011719 183.660156 L 56.128906 182.300781 L 57.261719 181.089844 L 58.21875 180.332031 L 59.019531 179.878906 L 59.820313 179.878906 L 60.300781 180.179688 L 60.789063 180.628906 L 60.949219 181.238281 L 60.949219 182 L 60.789063 182.449219 L 60.789063 183.808594 L 60.621094 184.570313 L 60.460938 185.480469 L 60.300781 186.53125 L 60.140625 187.589844 L 59.820313 188.800781 L 59.5 189.859375 L 59.179688 191.070313 L 58.699219 192.429688 L 58.058594 193.488281 L 57.417969 194.699219 L 56.609375 195.910156 L 55.808594 196.96875 L 54.851563 198.03125 L 53.730469 198.941406 L 52.917969 200.148438 L 52.121094 201.058594 L 51.160156 202.269531 L 50.519531 203.332031 L 49.871094 204.539063 L 49.230469 205.75 L 48.589844 206.808594 L 48.109375 208.019531 L 47.789063 209.082031 L 47.308594 210.128906 L 46.988281 211.191406 L 46.667969 212.101563 L 46.511719 213.160156 L 46.339844 213.917969 L 46.019531 214.820313 L 45.859375 215.582031 L 45.699219 216.640625 L 45.378906 217.851563 L 45.058594 219.210938 L 44.738281 220.71875 L 44.417969 222.238281 L 43.941406 223.75 L 43.460938 225.261719 L 42.980469 226.78125 L 42.488281 228.289063 L 42.011719 229.648438 L 41.53125 230.859375 L 41.050781 231.917969 L 40.570313 232.832031 L 40.089844 233.429688 L 39.769531 233.738281 L 38.960938 234.191406 L 38.160156 234.640625 L 37.199219 235.25 L 36.238281 235.699219 L 35.429688 236.460938 L 34.789063 237.058594 L 34.46875 237.96875 L 34.308594 238.878906 L 34.789063 239.640625 L 36.082031 240.238281 L 40.25 240.238281 L 42.332031 239.789063 L 44.261719 239.480469 L 45.539063 239.332031 L 46.019531 239.179688 L 45.859375 238.878906 L 45.699219 238.582031 L 45.539063 238.121094 L 45.539063 236.910156 L 45.859375 236.160156 L 46.511719 235.25 L 47.308594 234.039063 L 48.269531 232.53125 L 49.070313 230.859375 L 49.871094 229.050781 L 50.679688 227.230469 L 51.640625 225.410156 L 52.28125 223.898438 L 52.917969 222.539063 L 53.558594 221.179688 L 53.890625 219.667969 L 54.210938 217.851563 L 54.691406 216.039063 L 55.011719 214.21875 L 55.488281 212.710938 L 56.128906 211.351563 L 56.769531 210.441406 L 57.898438 209.679688 L 59.5 208.621094 L 61.269531 207.410156 L 63.351563 206.351563 L 65.121094 205.449219 L 66.71875 204.839844 L 67.679688 204.539063 L 68.167969 204.691406 L 68.167969 205.449219 L 68.648438 206.5 L 69.289063 207.871094 L 70.089844 209.378906 L 70.890625 211.039063 L 71.859375 212.859375 L 72.820313 214.667969 L 73.78125 216.488281 L 74.261719 218.609375 L 75.070313 220.417969 L 76.351563 222.089844 L 77.789063 223.601563 L 79.238281 224.808594 L 80.679688 225.871094 L 81.640625 226.628906 L 82.128906 227.230469 L 82.609375 227.679688 L 83.089844 228.140625 L 83.570313 228.589844 L 84.210938 229.199219 L 85.011719 229.800781 L 85.660156 230.710938 L 86.300781 231.769531 L 86.941406 233.128906 L 86.941406 235.101563 L 87.261719 236.160156 L 87.898438 236.609375 L 88.539063 236.609375 L 89.511719 236.160156 L 90.308594 235.398438 L 90.949219 234.640625 L 91.75 233.582031 L 92.230469 232.679688 L 92.230469 231.917969 L 91.75 231.011719 L 91.429688 230.261719 L 90.949219 229.800781 L 90.46875 229.351563 L 89.988281 229.050781 L 89.988281 228.890625 L 89.832031 228.738281 L 89.511719 228.289063 L 89.019531 227.679688 L 88.378906 226.929688 L 87.738281 225.871094 L 87.101563 224.808594 L 86.460938 223.898438 L 85.980469 222.988281 L 85.488281 222.089844 L 85.011719 220.878906 L 84.210938 219.511719 L 83.570313 218 L 82.769531 216.640625 L 81.960938 215.28125 L 81.160156 214.070313 L 80.519531 213.011719 L 79.878906 211.949219 L 79.398438 210.738281 L 79.082031 209.679688 L 78.917969 208.320313 L 78.917969 205.601563 L 79.238281 204.230469 L 79.71875 203.019531 L 80.199219 201.660156 L 80.359375 200.148438 L 80.359375 198.488281 L 80.199219 196.820313 L 79.71875 195.308594 L 79.398438 193.949219 L 78.761719 192.890625 L 78.269531 192.128906 L 77.789063 191.21875 L 77.308594 189.859375 L 76.832031 188.351563 L 76.351563 186.53125 L 76.03125 184.71875 L 75.710938 182.75 L 75.550781 180.941406 L 75.550781 179.269531 L 75.871094 177.910156 L 76.511719 177 L 77.46875 176.398438 L 78.761719 176.101563 L 80.199219 176.25 L 81.320313 176.550781 L 82.609375 177.148438 L 83.25 177.910156 L 83.890625 178.820313 L 84.53125 179.878906 L 85.011719 180.789063 L 85.488281 181.691406 L 85.980469 182.601563 L 86.140625 183.511719 L 86.460938 184.417969 L 86.621094 185.019531 L 86.941406 185.78125 L 87.417969 186.691406 L 88.058594 187.441406 L 88.539063 187.898438 L 89.351563 187.738281 L 89.832031 186.839844 L 90.148438 184.871094 L 90.308594 181.839844 L 90.308594 180.03125 L 89.988281 178.371094 L 89.832031 177 L 89.511719 175.640625 L 89.351563 174.429688 L 88.859375 173.519531 L 88.378906 172.460938 L 88.058594 171.710938 L 87.417969 170.949219 L 86.941406 170.199219 L 86.460938 169.589844 L 85.820313 169.140625 L 85.332031 168.53125 L 84.691406 167.929688 L 84.210938 167.46875 L 83.730469 167.019531 L 82.769531 165.960938 L 81.800781 165.199219 L 80.839844 164.601563 L 79.71875 163.839844 L 78.761719 163.390625 L 77.789063 162.929688 L 76.511719 162.480469 L 75.390625 162.179688 L 74.417969 161.570313 L 73.78125 160.96875 L 73.460938 160.210938 L 73.460938 159.300781 L 73.621094 158.550781 L 73.78125 157.941406 L 73.941406 157.488281 L 73.941406 157.339844 L 74.101563 157.339844 L 74.582031 156.878906 L 75.070313 156.429688 L 75.550781 155.519531 L 76.191406 154.308594 L 76.511719 152.800781 L 76.832031 151.128906 L 76.667969 148.859375 L 76.03125 146.898438 L 74.910156 145.691406 L 73.460938 144.78125 L 71.699219 144.480469 L 70.089844 144.628906 L 68.332031 144.78125 L 66.878906 145.078125 L 65.917969 145.539063 L 65.28125 146.140625 L 64.800781 147.199219 L 64.480469 148.410156 L 64.320313 149.921875 L 64.320313 151.441406 L 64.640625 152.648438 L 64.800781 153.710938 L 65.28125 154.460938 L 65.601563 155.070313 L 65.917969 155.667969 L 66.082031 156.582031 L 66.082031 158.851563 L 65.917969 159.148438 L 65.917969 159.300781 "/>
</g>
</svg>
