<?xml version="1.0" encoding="UTF-8"?>
<svg xmlns="http://www.w3.org/2000/svg" xmlns:xlink="http://www.w3.org/1999/xlink" width="209pt" height="56pt" viewBox="0 0 209 56" version="1.1">
<g id="surface1">
<path style="fill-rule:evenodd;fill:rgb(100%,100%,100%);fill-opacity:1;stroke-width:5.5;stroke-linecap:butt;stroke-linejoin:miter;stroke:rgb(0%,0%,0%);stroke-opacity:1;stroke-miterlimit:10;" d="M 0.585938 -40.507813 L 2091.210938 -40.507813 L 2091.210938 519.882813 L 0.585938 519.882813 Z M 0.585938 -40.507813 " transform="matrix(0.1,0,0,-0.1,0,56)"/>
<path style=" stroke:none;fill-rule:evenodd;fill:rgb(0%,100%,0%);fill-opacity:1;" d="M 152.078125 32.5 C 152.082031 43.535156 143.058594 52.5625 132.03125 52.5625 C 121 52.5625 111.976563 43.535156 111.976563 32.5 C 111.976563 21.464844 121 12.4375 132.03125 12.4375 C 143.058594 12.4375 152.082031 21.464844 152.082031 32.5 "/>
<path style="fill:none;stroke-width:5.5;stroke-linecap:round;stroke-linejoin:round;stroke:rgb(0%,0%,0%);stroke-opacity:1;stroke-miterlimit:10;" d="M 1520.78125 235 C 1520.820313 124.648438 1430.585938 34.375 1320.3125 34.375 C 1210 34.375 1119.765625 124.648438 1119.765625 235 C 1119.765625 345.351563 1210 435.625 1320.3125 435.625 C 1430.585938 435.625 1520.820313 345.351563 1520.820313 235 Z M 1520.78125 235 " transform="matrix(0.1,0,0,-0.1,0,56)"/>
<path style="fill:none;stroke-width:8.0772;stroke-linecap:round;stroke-linejoin:round;stroke:rgb(0%,0%,0%);stroke-opacity:1;stroke-miterlimit:10;" d="M 1220 134.6875 L 1260.703125 355.390625 " transform="matrix(0.1,0,0,-0.1,0,56)"/>
<path style="fill:none;stroke-width:8.0772;stroke-linecap:round;stroke-linejoin:round;stroke:rgb(0%,0%,0%);stroke-opacity:1;stroke-miterlimit:10;" d="M 1220 134.6875 L 1444.882813 174.804688 " transform="matrix(0.1,0,0,-0.1,0,56)"/>
<path style="fill:none;stroke-width:8.0772;stroke-linecap:round;stroke-linejoin:round;stroke:rgb(0%,0%,0%);stroke-opacity:1;stroke-miterlimit:10;" d="M 1260.703125 355.390625 L 1306.71875 309.882813 " transform="matrix(0.1,0,0,-0.1,0,56)"/>
<path style="fill:none;stroke-width:8.0772;stroke-linecap:round;stroke-linejoin:round;stroke:rgb(0%,0%,0%);stroke-opacity:1;stroke-miterlimit:10;" d="M 1398.90625 220.3125 L 1444.882813 174.804688 " transform="matrix(0.1,0,0,-0.1,0,56)"/>
<path style="fill:none;stroke-width:8.0772;stroke-linecap:round;stroke-linejoin:round;stroke:rgb(0%,0%,0%);stroke-opacity:1;stroke-miterlimit:10;" d="M 1306.71875 309.882813 L 1352.8125 355.390625 " transform="matrix(0.1,0,0,-0.1,0,56)"/>
<path style="fill:none;stroke-width:8.0772;stroke-linecap:round;stroke-linejoin:round;stroke:rgb(0%,0%,0%);stroke-opacity:1;stroke-miterlimit:10;" d="M 1398.90625 220.3125 L 1444.882813 264.414063 " transform="matrix(0.1,0,0,-0.1,0,56)"/>
<path style="fill:none;stroke-width:8.0772;stroke-linecap:round;stroke-linejoin:round;stroke:rgb(0%,0%,0%);stroke-opacity:1;stroke-miterlimit:10;" d="M 1352.8125 355.390625 L 1444.882813 264.414063 " transform="matrix(0.1,0,0,-0.1,0,56)"/>
<path style=" stroke:none;fill-rule:evenodd;fill:rgb(100%,100%,100%);fill-opacity:1;" d="M 99.78125 32.230469 C 99.785156 43.046875 91.246094 51.894531 80.816406 51.894531 C 70.382813 51.894531 61.847656 43.046875 61.847656 32.234375 C 61.847656 21.417969 70.382813 12.570313 80.816406 12.570313 C 91.246094 12.570313 99.785156 21.417969 99.785156 32.234375 "/>
<path style="fill:none;stroke-width:5.5;stroke-linecap:round;stroke-linejoin:round;stroke:rgb(0%,0%,0%);stroke-opacity:1;stroke-miterlimit:10;" d="M 997.8125 237.695313 C 997.851563 129.53125 912.460938 41.054688 808.164063 41.054688 C 703.828125 41.054688 618.476563 129.53125 618.476563 237.65625 C 618.476563 345.820313 703.828125 434.296875 808.164063 434.296875 C 912.460938 434.296875 997.851563 345.820313 997.851563 237.65625 Z M 997.8125 237.695313 " transform="matrix(0.1,0,0,-0.1,0,56)"/>
<path style=" stroke:none;fill-rule:evenodd;fill:rgb(100%,100%,100%);fill-opacity:1;" d="M 50.871094 32.230469 C 50.871094 43.046875 42.003906 51.894531 31.160156 51.894531 C 20.316406 51.894531 11.445313 43.046875 11.445313 32.234375 C 11.445313 21.417969 20.316406 12.570313 31.160156 12.570313 C 42.003906 12.570313 50.871094 21.417969 50.871094 32.234375 "/>
<path style="fill:none;stroke-width:5.5;stroke-linecap:round;stroke-linejoin:round;stroke:rgb(0%,0%,0%);stroke-opacity:1;stroke-miterlimit:10;" d="M 508.710938 237.695313 C 508.710938 129.53125 420.039063 41.054688 311.601563 41.054688 C 203.164063 41.054688 114.453125 129.53125 114.453125 237.65625 C 114.453125 345.820313 203.164063 434.296875 311.601563 434.296875 C 420.039063 434.296875 508.710938 345.820313 508.710938 237.65625 Z M 508.710938 237.695313 " transform="matrix(0.1,0,0,-0.1,0,56)"/>
<path style=" stroke:none;fill-rule:evenodd;fill:rgb(0%,100%,0%);fill-opacity:1;" d="M 198.960938 32.230469 C 198.960938 43.046875 190.457031 51.894531 180.058594 51.894531 C 169.664063 51.894531 161.160156 43.046875 161.160156 32.234375 C 161.160156 21.417969 169.664063 12.570313 180.058594 12.570313 C 190.457031 12.570313 198.960938 21.417969 198.960938 32.234375 "/>
<path style="fill:none;stroke-width:5.5;stroke-linecap:round;stroke-linejoin:round;stroke:rgb(0%,0%,0%);stroke-opacity:1;stroke-miterlimit:10;" d="M 1989.609375 237.695313 C 1989.609375 129.53125 1904.570313 41.054688 1800.585938 41.054688 C 1696.640625 41.054688 1611.601563 129.53125 1611.601563 237.65625 C 1611.601563 345.820313 1696.640625 434.296875 1800.585938 434.296875 C 1904.570313 434.296875 1989.609375 345.820313 1989.609375 237.65625 Z M 1989.609375 237.695313 " transform="matrix(0.1,0,0,-0.1,0,56)"/>
</g>
</svg>
