<?xml version="1.0" encoding="UTF-8"?>
<svg xmlns="http://www.w3.org/2000/svg" xmlns:xlink="http://www.w3.org/1999/xlink" width="208pt" height="55pt" viewBox="0 0 208 55" version="1.1">
<g id="surface1">
<path style="fill-rule:evenodd;fill:rgb(100%,100%,100%);fill-opacity:1;stroke-width:5.5;stroke-linecap:butt;stroke-linejoin:miter;stroke:rgb(0%,0%,0%);stroke-opacity:1;stroke-miterlimit:10;" d="M 0.585938 -39.804688 L 2080.3125 -39.804688 L 2080.3125 509.882813 L 0.585938 509.882813 Z M 0.585938 -39.804688 " transform="matrix(0.1,0,0,-0.1,0,55)"/>
<path style=" stroke:none;fill-rule:evenodd;fill:rgb(100%,100%,100%);fill-opacity:1;" d="M 151 31.429688 C 150.996094 42.242188 142.003906 51.089844 131.015625 51.089844 C 120.023438 51.089844 111.027344 42.242188 111.027344 31.429688 C 111.027344 20.617188 120.023438 11.769531 131.015625 11.769531 C 142.003906 11.769531 150.996094 20.617188 150.996094 31.429688 "/>
<path style="fill:none;stroke-width:5.5;stroke-linecap:round;stroke-linejoin:round;stroke:rgb(0%,0%,0%);stroke-opacity:1;stroke-miterlimit:10;" d="M 1510 235.703125 C 1509.960938 127.578125 1420.039063 39.101563 1310.15625 39.101563 C 1200.234375 39.101563 1110.273438 127.578125 1110.273438 235.703125 C 1110.273438 343.828125 1200.234375 432.304688 1310.15625 432.304688 C 1420.039063 432.304688 1509.960938 343.828125 1509.960938 235.703125 Z M 1510 235.703125 " transform="matrix(0.1,0,0,-0.1,0,55)"/>
<path style="fill:none;stroke-width:9.4233;stroke-linecap:round;stroke-linejoin:round;stroke:rgb(0%,0%,0%);stroke-opacity:1;stroke-miterlimit:10;" d="M 1160.390625 225 L 1350.117188 353.398438 " transform="matrix(0.1,0,0,-0.1,0,55)"/>
<path style="fill:none;stroke-width:9.4233;stroke-linecap:round;stroke-linejoin:round;stroke:rgb(0%,0%,0%);stroke-opacity:1;stroke-miterlimit:10;" d="M 1160.390625 225 L 1350.117188 97.890625 " transform="matrix(0.1,0,0,-0.1,0,55)"/>
<path style="fill:none;stroke-width:9.4233;stroke-linecap:round;stroke-linejoin:round;stroke:rgb(0%,0%,0%);stroke-opacity:1;stroke-miterlimit:10;" d="M 1350.117188 353.398438 L 1350.117188 294.492188 " transform="matrix(0.1,0,0,-0.1,0,55)"/>
<path style="fill:none;stroke-width:9.4233;stroke-linecap:round;stroke-linejoin:round;stroke:rgb(0%,0%,0%);stroke-opacity:1;stroke-miterlimit:10;" d="M 1350.117188 166.210938 L 1350.117188 97.890625 " transform="matrix(0.1,0,0,-0.1,0,55)"/>
<path style="fill:none;stroke-width:9.4233;stroke-linecap:round;stroke-linejoin:round;stroke:rgb(0%,0%,0%);stroke-opacity:1;stroke-miterlimit:10;" d="M 1350.117188 294.492188 L 1409.6875 294.492188 " transform="matrix(0.1,0,0,-0.1,0,55)"/>
<path style="fill:none;stroke-width:9.4233;stroke-linecap:round;stroke-linejoin:round;stroke:rgb(0%,0%,0%);stroke-opacity:1;stroke-miterlimit:10;" d="M 1350.117188 166.210938 L 1409.6875 166.210938 " transform="matrix(0.1,0,0,-0.1,0,55)"/>
<path style="fill:none;stroke-width:9.4233;stroke-linecap:round;stroke-linejoin:round;stroke:rgb(0%,0%,0%);stroke-opacity:1;stroke-miterlimit:10;" d="M 1409.6875 294.492188 L 1409.6875 166.210938 " transform="matrix(0.1,0,0,-0.1,0,55)"/>
<path style=" stroke:none;fill-rule:evenodd;fill:rgb(100%,100%,0%);fill-opacity:1;" d="M 99.109375 31.96875 C 99.105469 42.484375 90.539063 51.089844 80.070313 51.089844 C 69.601563 51.089844 61.035156 42.484375 61.035156 31.964844 C 61.035156 21.445313 69.601563 12.839844 80.070313 12.839844 C 90.539063 12.839844 99.105469 21.445313 99.105469 31.964844 "/>
<path style="fill:none;stroke-width:5.5;stroke-linecap:round;stroke-linejoin:round;stroke:rgb(0%,0%,0%);stroke-opacity:1;stroke-miterlimit:10;" d="M 991.09375 230.3125 C 991.054688 125.15625 905.390625 39.101563 800.703125 39.101563 C 696.015625 39.101563 610.351563 125.15625 610.351563 230.351563 C 610.351563 335.546875 696.015625 421.601563 800.703125 421.601563 C 905.390625 421.601563 991.054688 335.546875 991.054688 230.351563 Z M 991.09375 230.3125 " transform="matrix(0.1,0,0,-0.1,0,55)"/>
<path style=" stroke:none;fill-rule:evenodd;fill:rgb(100%,100%,100%);fill-opacity:1;" d="M 51.011719 31.96875 C 51.007813 42.484375 42.015625 51.089844 31.023438 51.089844 C 20.03125 51.089844 11.039063 42.484375 11.039063 31.964844 C 11.039063 21.445313 20.03125 12.839844 31.023438 12.839844 C 42.015625 12.839844 51.007813 21.445313 51.007813 31.964844 "/>
<path style="fill:none;stroke-width:5.5;stroke-linecap:round;stroke-linejoin:round;stroke:rgb(0%,0%,0%);stroke-opacity:1;stroke-miterlimit:10;" d="M 510.117188 230.3125 C 510.078125 125.15625 420.15625 39.101563 310.234375 39.101563 C 200.3125 39.101563 110.390625 125.15625 110.390625 230.351563 C 110.390625 335.546875 200.3125 421.601563 310.234375 421.601563 C 420.15625 421.601563 510.078125 335.546875 510.078125 230.351563 Z M 510.117188 230.3125 " transform="matrix(0.1,0,0,-0.1,0,55)"/>
<path style=" stroke:none;fill-rule:evenodd;fill:rgb(100%,100%,100%);fill-opacity:1;" d="M 198.011719 31.96875 C 198.011719 42.484375 189.445313 51.089844 178.976563 51.089844 C 168.507813 51.089844 159.941406 42.484375 159.941406 31.964844 C 159.941406 21.445313 168.507813 12.839844 178.976563 12.839844 C 189.445313 12.839844 198.011719 21.445313 198.011719 31.964844 "/>
<path style="fill:none;stroke-width:5.5;stroke-linecap:round;stroke-linejoin:round;stroke:rgb(0%,0%,0%);stroke-opacity:1;stroke-miterlimit:10;" d="M 1980.117188 230.3125 C 1980.117188 125.15625 1894.453125 39.101563 1789.765625 39.101563 C 1685.078125 39.101563 1599.414063 125.15625 1599.414063 230.351563 C 1599.414063 335.546875 1685.078125 421.601563 1789.765625 421.601563 C 1894.453125 421.601563 1980.117188 335.546875 1980.117188 230.351563 Z M 1980.117188 230.3125 " transform="matrix(0.1,0,0,-0.1,0,55)"/>
</g>
</svg>
