<?xml version="1.0" encoding="UTF-8"?>
<svg xmlns="http://www.w3.org/2000/svg" xmlns:xlink="http://www.w3.org/1999/xlink" width="164pt" height="56pt" viewBox="0 0 164 56" version="1.1">
<g id="surface1">
<path style="fill-rule:evenodd;fill:rgb(100%,100%,100%);fill-opacity:1;stroke-width:5.5;stroke-linecap:butt;stroke-linejoin:miter;stroke:rgb(0%,0%,0%);stroke-opacity:1;stroke-miterlimit:10;" d="M 0.585938 -40.507813 L 1639.882813 -40.507813 L 1639.882813 519.882813 L 0.585938 519.882813 Z M 0.585938 -40.507813 " transform="matrix(0.1,0,0,-0.1,0,56)"/>
<path style=" stroke:none;fill-rule:evenodd;fill:rgb(0%,100%,0%);fill-opacity:1;" d="M 151.808594 32.5 C 151.808594 43.535156 142.824219 52.5625 131.84375 52.5625 C 120.859375 52.5625 111.875 43.535156 111.875 32.5 C 111.875 21.464844 120.859375 12.4375 131.84375 12.4375 C 142.824219 12.4375 151.808594 21.464844 151.808594 32.5 "/>
<path style="fill:none;stroke-width:5.5;stroke-linecap:round;stroke-linejoin:round;stroke:rgb(0%,0%,0%);stroke-opacity:1;stroke-miterlimit:10;" d="M 1518.085938 235 C 1518.085938 124.648438 1428.242188 34.375 1318.4375 34.375 C 1208.59375 34.375 1118.75 124.648438 1118.75 235 C 1118.75 345.351563 1208.59375 435.625 1318.4375 435.625 C 1428.242188 435.625 1518.085938 345.351563 1518.085938 235 Z M 1518.085938 235 " transform="matrix(0.1,0,0,-0.1,0,56)"/>
<path style="fill:none;stroke-width:8.0735;stroke-linecap:round;stroke-linejoin:round;stroke:rgb(0%,0%,0%);stroke-opacity:1;stroke-miterlimit:10;" d="M 1166.09375 231.015625 L 1352.890625 359.414063 " transform="matrix(0.1,0,0,-0.1,0,56)"/>
<path style="fill:none;stroke-width:8.0735;stroke-linecap:round;stroke-linejoin:round;stroke:rgb(0%,0%,0%);stroke-opacity:1;stroke-miterlimit:10;" d="M 1166.09375 231.015625 L 1352.890625 102.617188 " transform="matrix(0.1,0,0,-0.1,0,56)"/>
<path style="fill:none;stroke-width:8.0735;stroke-linecap:round;stroke-linejoin:round;stroke:rgb(0%,0%,0%);stroke-opacity:1;stroke-miterlimit:10;" d="M 1352.890625 359.414063 L 1352.890625 295.195313 " transform="matrix(0.1,0,0,-0.1,0,56)"/>
<path style="fill:none;stroke-width:8.0735;stroke-linecap:round;stroke-linejoin:round;stroke:rgb(0%,0%,0%);stroke-opacity:1;stroke-miterlimit:10;" d="M 1352.890625 166.796875 L 1352.890625 102.617188 " transform="matrix(0.1,0,0,-0.1,0,56)"/>
<path style="fill:none;stroke-width:8.0735;stroke-linecap:round;stroke-linejoin:round;stroke:rgb(0%,0%,0%);stroke-opacity:1;stroke-miterlimit:10;" d="M 1352.890625 295.195313 L 1417.890625 295.195313 " transform="matrix(0.1,0,0,-0.1,0,56)"/>
<path style="fill:none;stroke-width:8.0735;stroke-linecap:round;stroke-linejoin:round;stroke:rgb(0%,0%,0%);stroke-opacity:1;stroke-miterlimit:10;" d="M 1352.890625 166.796875 L 1417.890625 166.796875 " transform="matrix(0.1,0,0,-0.1,0,56)"/>
<path style="fill:none;stroke-width:8.0735;stroke-linecap:round;stroke-linejoin:round;stroke:rgb(0%,0%,0%);stroke-opacity:1;stroke-miterlimit:10;" d="M 1417.890625 295.195313 L 1417.890625 166.796875 " transform="matrix(0.1,0,0,-0.1,0,56)"/>
<path style=" stroke:none;fill-rule:evenodd;fill:rgb(100%,100%,100%);fill-opacity:1;" d="M 99.691406 32.230469 C 99.691406 43.046875 91.164063 51.894531 80.738281 51.894531 C 70.316406 51.894531 61.789063 43.046875 61.789063 32.234375 C 61.789063 21.417969 70.316406 12.570313 80.738281 12.570313 C 91.164063 12.570313 99.691406 21.417969 99.691406 32.234375 "/>
<path style="fill:none;stroke-width:5.5;stroke-linecap:round;stroke-linejoin:round;stroke:rgb(0%,0%,0%);stroke-opacity:1;stroke-miterlimit:10;" d="M 996.914063 237.695313 C 996.914063 129.53125 911.640625 41.054688 807.382813 41.054688 C 703.164063 41.054688 617.890625 129.53125 617.890625 237.65625 C 617.890625 345.820313 703.164063 434.296875 807.382813 434.296875 C 911.640625 434.296875 996.914063 345.820313 996.914063 237.65625 Z M 996.914063 237.695313 " transform="matrix(0.1,0,0,-0.1,0,56)"/>
<path style=" stroke:none;fill-rule:evenodd;fill:rgb(100%,100%,100%);fill-opacity:1;" d="M 50.691406 32.230469 C 50.6875 43.046875 41.855469 51.894531 31.058594 51.894531 C 20.265625 51.894531 11.433594 43.046875 11.433594 32.234375 C 11.433594 21.417969 20.265625 12.570313 31.058594 12.570313 C 41.855469 12.570313 50.6875 21.417969 50.6875 32.234375 "/>
<path style="fill:none;stroke-width:5.5;stroke-linecap:round;stroke-linejoin:round;stroke:rgb(0%,0%,0%);stroke-opacity:1;stroke-miterlimit:10;" d="M 506.914063 237.695313 C 506.875 129.53125 418.554688 41.054688 310.585938 41.054688 C 202.65625 41.054688 114.335938 129.53125 114.335938 237.65625 C 114.335938 345.820313 202.65625 434.296875 310.585938 434.296875 C 418.554688 434.296875 506.875 345.820313 506.875 237.65625 Z M 506.914063 237.695313 " transform="matrix(0.1,0,0,-0.1,0,56)"/>
</g>
</svg>
