<?xml version="1.0" encoding="UTF-8"?>
<svg xmlns="http://www.w3.org/2000/svg" xmlns:xlink="http://www.w3.org/1999/xlink" width="1221pt" height="1066pt" viewBox="0 0 1221 1066" version="1.1">
<g id="surface1">
<path style=" stroke:none;fill-rule:evenodd;fill:rgb(100%,0%,0%);fill-opacity:1;" d="M 1155.851563 871.621094 L 1125.460938 879.191406 L 1091.878906 883.71875 L 1063.089844 886.75 L 1029.511719 891.289063 L 965.539063 891.289063 L 936.75 883.71875 L 903.171875 871.621094 L 872.78125 864.050781 L 851.988281 859.511719 L 839.191406 864.050781 L 826.398438 867.078125 L 818.398438 879.191406 L 810.410156 895.828125 L 800.808594 915.5 L 788.019531 938.199219 L 780.019531 962.410156 L 776.820313 982.082031 L 776.820313 998.730469 L 780.019531 1010.839844 L 784.820313 1022.941406 L 788.019531 1033.53125 L 788.019531 1050.179688 L 780.019531 1062.289063 L 767.230469 1077.417969 L 754.429688 1086.5 L 741.640625 1094.058594 L 725.648438 1098.601563 L 712.851563 1094.058594 L 696.859375 1086.5 L 679.269531 1074.390625 L 666.46875 1054.71875 L 658.480469 1038.070313 L 653.679688 1025.96875 L 650.480469 1018.398438 L 650.480469 1010.839844 L 645.679688 1006.300781 L 640.890625 994.191406 L 628.089844 979.058594 L 604.101563 954.851563 L 581.710938 930.628906 L 565.71875 915.5 L 548.128906 903.398438 L 535.328125 898.859375 L 524.140625 903.398438 L 511.351563 910.960938 L 493.75 923.070313 L 472.960938 938.199219 L 452.171875 959.390625 L 434.578125 979.058594 L 418.589844 994.191406 L 401 1013.859375 L 388.199219 1030.511719 L 367.410156 1042.609375 L 351.421875 1054.71875 L 325.828125 1062.289063 L 300.238281 1069.851563 L 258.660156 1069.851563 L 241.070313 1065.308594 L 228.28125 1057.75 L 223.480469 1042.609375 L 223.480469 1018.398438 L 228.28125 991.160156 L 236.269531 959.390625 L 245.871094 930.628906 L 253.859375 906.421875 L 258.660156 886.75 L 261.859375 867.078125 L 269.859375 847.410156 L 274.648438 823.199219 L 282.648438 800.5 L 287.449219 776.289063 L 287.449219 747.53125 L 279.449219 739.96875 L 269.859375 732.398438 L 249.070313 727.859375 L 223.480469 724.839844 L 194.691406 715.761719 L 165.898438 708.191406 L 106.730469 708.191406 L 93.941406 703.648438 L 76.351563 696.078125 L 55.558594 683.980469 L 29.96875 664.308594 L 13.96875 649.171875 L 5.980469 637.070313 L 5.980469 624.960938 L 9.179688 617.398438 L 21.96875 605.289063 L 42.761719 597.71875 L 73.148438 593.191406 L 97.140625 585.621094 L 114.730469 581.078125 L 127.519531 581.078125 L 135.519531 576.539063 L 143.511719 573.511719 L 156.308594 573.511719 L 173.898438 568.96875 L 194.691406 568.96875 L 215.480469 565.949219 L 233.070313 556.871094 L 241.070313 553.839844 L 245.871094 544.761719 L 241.070313 534.171875 L 233.070313 522.058594 L 215.480469 505.421875 L 194.691406 485.75 L 169.101563 466.070313 L 153.109375 453.96875 L 140.320313 441.859375 L 127.519531 434.300781 L 114.730469 426.730469 L 101.929688 417.648438 L 89.140625 402.519531 L 73.148438 385.871094 L 55.558594 366.199219 L 42.761719 346.53125 L 42.761719 319.289063 L 50.761719 307.191406 L 68.351563 299.621094 L 89.140625 290.539063 L 114.730469 287.511719 L 140.320313 282.96875 L 165.898438 278.429688 L 223.480469 278.429688 L 249.070313 282.96875 L 274.648438 287.511719 L 308.238281 295.078125 L 341.820313 302.648438 L 367.410156 307.191406 L 388.199219 310.210938 L 405.789063 307.191406 L 413.789063 299.621094 L 421.789063 287.511719 L 421.789063 243.628906 L 418.589844 223.960938 L 418.589844 204.289063 L 421.789063 195.210938 L 421.789063 183.101563 L 426.578125 175.53125 L 426.578125 167.96875 L 431.378906 155.859375 L 431.378906 96.851563 L 434.578125 84.738281 L 442.578125 72.628906 L 452.171875 72.628906 L 468.171875 77.171875 L 488.960938 92.308594 L 519.339844 119.539063 L 544.929688 151.320313 L 560.921875 167.96875 L 573.71875 183.101563 L 578.511719 192.179688 L 581.710938 195.210938 L 591.308594 204.289063 L 599.308594 214.878906 L 615.300781 226.980469 L 632.890625 243.628906 L 645.679688 251.199219 L 658.480469 255.738281 L 671.269531 255.738281 L 679.269531 246.660156 L 692.058594 236.058594 L 704.859375 219.421875 L 720.851563 204.289063 L 733.640625 183.101563 L 751.238281 167.96875 L 764.03125 148.300781 L 776.820313 131.648438 L 784.820313 116.519531 L 792.820313 108.949219 L 797.609375 99.871094 L 797.609375 96.851563 L 818.398438 77.171875 L 839.191406 60.53125 L 859.988281 48.421875 L 877.578125 45.398438 L 893.570313 48.421875 L 906.359375 65.070313 L 911.160156 92.308594 L 911.160156 183.101563 L 906.359375 211.851563 L 906.359375 267.839844 L 903.171875 287.511719 L 903.171875 341.988281 L 911.160156 354.101563 L 923.960938 363.171875 L 944.75 370.738281 L 999.121094 370.738281 L 1037.5 366.199219 L 1099.878906 366.199219 L 1122.261719 370.738281 L 1138.261719 378.308594 L 1146.25 390.410156 L 1143.058594 407.058594 L 1122.261719 426.730469 L 1099.878906 449.429688 L 1083.878906 466.070313 L 1075.890625 478.179688 L 1066.289063 490.289063 L 1063.089844 497.851563 L 1058.289063 509.960938 L 1050.300781 522.058594 L 1032.710938 534.171875 L 1019.910156 549.300781 L 1007.121094 565.949219 L 999.121094 581.078125 L 995.921875 593.191406 L 999.121094 608.320313 L 1007.121094 629.5 L 1019.910156 644.628906 L 1042.300781 668.851563 L 1066.289063 688.519531 L 1087.078125 703.648438 L 1104.671875 724.839844 L 1117.46875 739.96875 L 1133.460938 756.609375 L 1146.25 768.71875 L 1159.050781 783.851563 L 1176.640625 800.5 L 1189.429688 811.089844 L 1202.230469 823.199219 L 1210.21875 835.300781 L 1215.019531 842.871094 L 1215.019531 851.949219 L 1202.230469 859.511719 L 1184.640625 867.078125 L 1155.851563 871.621094 "/>
<path style="fill:none;stroke-width:93.4104;stroke-linecap:round;stroke-linejoin:round;stroke:rgb(0%,0%,0%);stroke-opacity:1;stroke-miterlimit:10;" d="M 11558.515625 1943.789063 L 11254.609375 1868.085938 L 10918.789063 1822.8125 L 10630.898438 1792.5 L 10295.117188 1747.109375 L 9655.390625 1747.109375 L 9367.5 1822.8125 L 9031.71875 1943.789063 L 8727.8125 2019.492188 L 8519.882813 2064.882813 L 8391.914063 2019.492188 L 8263.984375 1989.21875 L 8183.984375 1868.085938 L 8104.101563 1701.71875 L 8008.085938 1505 L 7880.195313 1278.007813 L 7800.195313 1035.898438 L 7768.203125 839.179688 L 7768.203125 672.695313 L 7800.195313 551.601563 L 7848.203125 430.585938 L 7880.195313 324.6875 L 7880.195313 158.203125 L 7800.195313 37.109375 L 7672.304688 -114.179688 L 7544.296875 -205 L 7416.40625 -280.585938 L 7256.484375 -326.015625 L 7128.515625 -280.585938 L 6968.59375 -205 L 6792.695313 -83.90625 L 6664.6875 112.8125 L 6584.804688 279.296875 L 6536.796875 400.3125 L 6504.804688 476.015625 L 6504.804688 551.601563 L 6456.796875 596.992188 L 6408.90625 718.085938 L 6280.898438 869.414063 L 6041.015625 1111.484375 L 5817.109375 1353.710938 L 5657.1875 1505 L 5481.289063 1626.015625 L 5353.28125 1671.40625 L 5241.40625 1626.015625 L 5113.515625 1550.390625 L 4937.5 1429.296875 L 4729.609375 1278.007813 L 4521.71875 1066.09375 L 4345.78125 869.414063 L 4185.898438 718.085938 L 4010 521.40625 L 3881.992188 354.882813 L 3674.101563 233.90625 L 3514.21875 112.8125 L 3258.28125 37.109375 L 3002.382813 -38.515625 L 2586.601563 -38.515625 L 2410.703125 6.914063 L 2282.8125 82.5 L 2234.804688 233.90625 L 2234.804688 476.015625 L 2282.8125 748.398438 L 2362.695313 1066.09375 L 2458.710938 1353.710938 L 2538.59375 1595.78125 L 2586.601563 1792.5 L 2618.59375 1989.21875 L 2698.59375 2185.898438 L 2746.484375 2428.007813 L 2826.484375 2655 L 2874.492188 2897.109375 L 2874.492188 3184.6875 L 2794.492188 3260.3125 L 2698.59375 3336.015625 L 2490.703125 3381.40625 L 2234.804688 3411.601563 L 1946.914063 3502.382813 L 1658.984375 3578.085938 L 1067.304688 3578.085938 L 939.414063 3623.515625 L 763.515625 3699.21875 L 555.585938 3820.195313 L 299.6875 4016.914063 L 139.6875 4168.28125 L 59.804688 4289.296875 L 59.804688 4410.390625 L 91.796875 4486.015625 L 219.6875 4607.109375 L 427.617188 4682.8125 L 731.484375 4728.085938 L 971.40625 4803.789063 L 1147.304688 4849.21875 L 1275.195313 4849.21875 L 1355.195313 4894.609375 L 1435.117188 4924.882813 L 1563.085938 4924.882813 L 1738.984375 4970.3125 L 1946.914063 4970.3125 L 2154.804688 5000.507813 L 2330.703125 5091.289063 L 2410.703125 5121.601563 L 2458.710938 5212.382813 L 2410.703125 5318.28125 L 2330.703125 5439.414063 L 2154.804688 5605.78125 L 1946.914063 5802.5 L 1691.015625 5999.296875 L 1531.09375 6120.3125 L 1403.203125 6241.40625 L 1275.195313 6316.992188 L 1147.304688 6392.695313 L 1019.296875 6483.515625 L 891.40625 6634.804688 L 731.484375 6801.289063 L 555.585938 6998.007813 L 427.617188 7194.6875 L 427.617188 7467.109375 L 507.617188 7588.085938 L 683.515625 7663.789063 L 891.40625 7754.609375 L 1147.304688 7784.882813 L 1403.203125 7830.3125 L 1658.984375 7875.703125 L 2234.804688 7875.703125 L 2490.703125 7830.3125 L 2746.484375 7784.882813 L 3082.382813 7709.21875 L 3418.203125 7633.515625 L 3674.101563 7588.085938 L 3881.992188 7557.890625 L 4057.890625 7588.085938 L 4137.890625 7663.789063 L 4217.890625 7784.882813 L 4217.890625 8223.710938 L 4185.898438 8420.390625 L 4185.898438 8617.109375 L 4217.890625 8707.890625 L 4217.890625 8828.984375 L 4265.78125 8904.6875 L 4265.78125 8980.3125 L 4313.789063 9101.40625 L 4313.789063 9691.484375 L 4345.78125 9812.617188 L 4425.78125 9933.710938 L 4521.71875 9933.710938 L 4681.71875 9888.28125 L 4889.609375 9736.914063 L 5193.398438 9464.609375 L 5449.296875 9146.796875 L 5609.21875 8980.3125 L 5737.1875 8828.984375 L 5785.117188 8738.203125 L 5817.109375 8707.890625 L 5913.085938 8617.109375 L 5993.085938 8511.210938 L 6153.007813 8390.195313 L 6328.90625 8223.710938 L 6456.796875 8148.007813 L 6584.804688 8102.617188 L 6712.695313 8102.617188 L 6792.695313 8193.398438 L 6920.585938 8299.414063 L 7048.59375 8465.78125 L 7208.515625 8617.109375 L 7336.40625 8828.984375 L 7512.382813 8980.3125 L 7640.3125 9176.992188 L 7768.203125 9343.515625 L 7848.203125 9494.804688 L 7928.203125 9570.507813 L 7976.09375 9661.289063 L 7976.09375 9691.484375 L 8183.984375 9888.28125 L 8391.914063 10054.6875 L 8599.882813 10175.78125 L 8775.78125 10206.015625 L 8935.703125 10175.78125 L 9063.59375 10009.296875 L 9111.601563 9736.914063 L 9111.601563 8828.984375 L 9063.59375 8541.484375 L 9063.59375 7981.601563 L 9031.71875 7784.882813 L 9031.71875 7240.117188 L 9111.601563 7118.984375 L 9239.609375 7028.28125 L 9447.5 6952.617188 L 9991.210938 6952.617188 L 10375 6998.007813 L 10998.789063 6998.007813 L 11222.617188 6952.617188 L 11382.617188 6876.914063 L 11462.5 6755.898438 L 11430.585938 6589.414063 L 11222.617188 6392.695313 L 10998.789063 6165.703125 L 10838.789063 5999.296875 L 10758.90625 5878.203125 L 10662.890625 5757.109375 L 10630.898438 5681.484375 L 10582.890625 5560.390625 L 10503.007813 5439.414063 L 10327.109375 5318.28125 L 10199.101563 5166.992188 L 10071.210938 5000.507813 L 9991.210938 4849.21875 L 9959.21875 4728.085938 L 9991.210938 4576.796875 L 10071.210938 4365 L 10199.101563 4213.710938 L 10423.007813 3971.484375 L 10662.890625 3774.804688 L 10870.78125 3623.515625 L 11046.71875 3411.601563 L 11174.6875 3260.3125 L 11334.609375 3093.90625 L 11462.5 2972.8125 L 11590.507813 2821.484375 L 11766.40625 2655 L 11894.296875 2549.101563 L 12022.304688 2428.007813 L 12102.1875 2306.992188 L 12150.195313 2231.289063 L 12150.195313 2140.507813 L 12022.304688 2064.882813 L 11846.40625 1989.21875 Z M 11558.515625 1943.789063 " transform="matrix(0.1,0,0,-0.1,0,1066)"/>
</g>
</svg>
