<?xml version="1.0" encoding="UTF-8"?>
<svg xmlns="http://www.w3.org/2000/svg" xmlns:xlink="http://www.w3.org/1999/xlink" width="248pt" height="188pt" viewBox="0 0 248 188" version="1.1">
<g id="surface1">
<path style=" stroke:none;fill-rule:evenodd;fill:rgb(0%,0%,0%);fill-opacity:1;" d="M 2.761719 134.71875 L 0.0507813 164.75 L 5.460938 189.101563 L 21.820313 189.101563 L 16.269531 183.691406 L 10.871094 162.050781 L 13.570313 137.429688 L 38.039063 118.359375 L 29.929688 142.839844 L 38.039063 159.210938 L 51.820313 175.570313 L 51.820313 183.691406 L 62.640625 180.988281 L 59.929688 170.160156 L 43.582031 142.839844 L 51.820313 126.46875 L 62.640625 110.238281 L 81.691406 112.949219 L 103.460938 112.949219 L 128.050781 110.238281 L 138.871094 145.550781 L 133.460938 178.28125 L 136.160156 191.941406 L 152.519531 191.941406 L 144.410156 183.691406 L 144.410156 164.75 L 149.820313 140.140625 L 157.929688 112.949219 L 187.929688 140.140625 L 174.421875 170.160156 L 171.710938 172.871094 L 168.871094 180.988281 L 177.121094 189.101563 L 201.578125 140.140625 L 201.578125 137.429688 L 185.230469 115.648438 L 177.121094 102.128906 L 187.929688 91.03125 L 193.339844 77.511719 L 198.75 61.140625 L 204.289063 50.320313 L 212.53125 50.320313 L 239.699219 55.730469 L 247.949219 53.019531 L 247.949219 47.609375 L 237 39.359375 L 217.941406 23 L 215.238281 23 L 217.941406 14.878906 L 215.238281 4.058594 L 212.53125 12.171875 L 209.828125 17.578125 L 190.640625 14.878906 L 177.121094 6.761719 L 185.230469 20.289063 L 193.339844 23 L 187.929688 31.109375 L 174.421875 47.609375 L 168.871094 55.730469 L 119.808594 53.019531 L 38.039063 50.320313 L 16.269531 61.140625 L 10.871094 82.921875 L 13.570313 102.128906 L 2.761719 134.71875 "/>
<path style="fill:none;stroke-width:8.1129;stroke-linecap:round;stroke-linejoin:round;stroke:rgb(0.784302%,0.784302%,0.784302%);stroke-opacity:1;stroke-miterlimit:10;" d="M 27.617188 532.8125 L 0.507813 232.5 L 54.609375 -11.015625 L 218.203125 -11.015625 L 162.695313 43.085938 L 108.710938 259.492188 L 135.703125 505.703125 L 380.390625 696.40625 L 299.296875 451.601563 L 380.390625 287.890625 L 518.203125 124.296875 L 518.203125 43.085938 L 626.40625 70.117188 L 599.296875 178.398438 L 435.820313 451.601563 L 518.203125 615.3125 L 626.40625 777.617188 L 816.914063 750.507813 L 1034.609375 750.507813 L 1280.507813 777.617188 L 1388.710938 424.492188 L 1334.609375 97.1875 L 1361.601563 -39.414063 L 1525.195313 -39.414063 L 1444.101563 43.085938 L 1444.101563 232.5 L 1498.203125 478.59375 L 1579.296875 750.507813 L 1879.296875 478.59375 L 1744.21875 178.398438 L 1717.109375 151.289063 L 1688.710938 70.117188 L 1771.210938 -11.015625 L 2015.78125 478.59375 L 2015.78125 505.703125 L 1852.304688 723.515625 L 1771.210938 858.710938 L 1879.296875 969.6875 L 1933.398438 1104.882813 L 1987.5 1268.59375 L 2042.890625 1376.796875 L 2125.3125 1376.796875 L 2396.992188 1322.695313 L 2479.492188 1349.804688 L 2479.492188 1403.90625 L 2370 1486.40625 L 2179.414063 1650 L 2152.382813 1650 L 2179.414063 1731.210938 L 2152.382813 1839.414063 L 2125.3125 1758.28125 L 2098.28125 1704.21875 L 1906.40625 1731.210938 L 1771.210938 1812.382813 L 1852.304688 1677.109375 L 1933.398438 1650 L 1879.296875 1568.90625 L 1744.21875 1403.90625 L 1688.710938 1322.695313 L 1198.085938 1349.804688 L 380.390625 1376.796875 L 162.695313 1268.59375 L 108.710938 1050.78125 L 135.703125 858.710938 Z M 27.617188 532.8125 " transform="matrix(0.1,0,0,-0.1,0,188)"/>
</g>
</svg>
