<?xml version="1.0" encoding="UTF-8"?>
<svg xmlns="http://www.w3.org/2000/svg" xmlns:xlink="http://www.w3.org/1999/xlink" width="140pt" height="180pt" viewBox="0 0 140 180" version="1.1">
<g id="surface1">
<path style=" stroke:none;fill-rule:evenodd;fill:rgb(100%,0%,0%);fill-opacity:1;" d="M 86.628906 182.179688 L 88.378906 180.691406 L 90 179.199219 L 91.480469 177.570313 L 92.960938 176.082031 L 94.308594 174.589844 L 95.519531 173.101563 L 96.730469 171.609375 L 97.539063 170.121094 L 98.480469 168.628906 L 99.417969 167.140625 L 100.230469 165.917969 L 100.910156 164.429688 L 101.441406 162.941406 L 101.980469 161.589844 L 102.660156 160.230469 L 102.929688 158.738281 L 103.328125 157.519531 L 103.730469 156.167969 L 103.871094 154.820313 L 104.140625 153.730469 L 104.269531 152.511719 L 104.410156 151.289063 L 104.679688 150.210938 L 104.679688 146.820313 L 104.808594 145.878906 L 104.808594 141.410156 L 104.679688 140.730469 L 104.679688 137.878906 L 104.410156 137.339844 L 104.410156 136.800781 L 104.269531 136.390625 L 104.269531 135.851563 L 104.140625 135.449219 L 104.140625 135.308594 L 103.871094 135.039063 L 103.730469 134.769531 L 103.460938 134.769531 L 103.460938 134.5 L 103.328125 134.5 L 103.199219 134.359375 L 102.929688 134.5 L 102.660156 134.5 L 102.660156 134.769531 L 102.390625 134.898438 L 101.980469 135.308594 L 101.851563 135.71875 L 101.710938 135.851563 L 101.441406 136.261719 L 101.308594 136.53125 L 101.179688 136.941406 L 100.910156 137.339844 L 100.769531 137.75 L 100.769531 138.019531 L 100.5 138.699219 L 100.371094 138.96875 L 100.230469 139.371094 L 99.960938 139.917969 L 99.832031 140.320313 L 99.691406 140.730469 L 99.417969 141 L 99.417969 141.410156 L 99.289063 141.808594 L 99.019531 142.21875 L 98.890625 142.351563 L 98.75 142.761719 L 98.480469 143.167969 L 98.351563 143.441406 L 98.210938 143.710938 L 97.941406 144.121094 L 97.808594 144.390625 L 97.539063 144.660156 L 97.398438 144.929688 L 97.269531 145.332031 L 97 145.609375 L 96.871094 145.878906 L 96.730469 146.148438 L 96.460938 146.417969 L 96.332031 146.820313 L 96.058594 147.101563 L 95.917969 147.371094 L 95.789063 147.769531 L 95.519531 147.910156 L 95.378906 148.308594 L 95.25 148.71875 L 94.980469 148.859375 L 94.582031 149.261719 L 94.441406 149.667969 L 93.898438 150.210938 L 93.769531 150.351563 L 93.5 150.621094 L 93.101563 150.75 L 92.960938 150.75 L 92.832031 150.890625 L 92.417969 151.160156 L 90.941406 151.160156 L 90.808594 150.890625 L 90.539063 150.890625 L 90.398438 150.75 L 90.128906 150.621094 L 90 150.351563 L 90 150.210938 L 89.589844 149.800781 L 89.589844 147.910156 L 89.859375 147.640625 L 89.859375 147.101563 L 90 146.691406 L 90 146.417969 L 90.128906 146.28125 L 90.128906 146.148438 L 90.398438 145.878906 L 90.398438 145.738281 L 90.539063 145.609375 L 90.808594 145.332031 L 90.808594 145.199219 L 90.941406 145.199219 L 90.941406 144.929688 L 91.082031 144.929688 L 91.339844 144.789063 L 91.480469 144.660156 L 91.480469 144.390625 L 91.609375 144.390625 L 91.609375 144.25 L 91.878906 144.121094 L 92.019531 143.839844 L 92.019531 143.710938 L 92.289063 143.300781 L 92.417969 143.167969 L 92.558594 142.761719 L 92.558594 142.351563 L 92.832031 141.949219 L 92.960938 141.679688 L 93.101563 141 L 93.359375 140.460938 L 93.359375 140.191406 L 93.5 139.511719 L 93.5 138.96875 L 93.769531 138.429688 L 93.769531 136.53125 L 93.5 136.261719 L 93.5 135.851563 L 93.359375 135.449219 L 93.359375 135.039063 L 93.101563 134.898438 L 92.960938 134.5 L 92.832031 134.359375 L 92.832031 133.960938 L 92.417969 133.820313 L 92.289063 133.550781 L 92.019531 133.410156 L 91.878906 133.410156 L 91.609375 133.28125 L 90.398438 133.28125 L 90.128906 133.410156 L 89.859375 133.410156 L 89.589844 133.550781 L 89.320313 133.960938 L 89.058594 134.230469 L 88.917969 134.359375 L 88.519531 134.769531 L 88.378906 134.898438 L 88.109375 135.308594 L 87.839844 135.449219 L 87.570313 135.71875 L 87.441406 135.851563 L 87.167969 136.261719 L 86.628906 136.800781 L 86.5 136.941406 L 86.359375 137.210938 L 86.089844 137.339844 L 86.089844 137.480469 L 85.960938 137.480469 L 85.691406 137.75 L 85.550781 137.878906 L 85.550781 138.019531 L 85.417969 138.289063 L 85.148438 138.429688 L 85.148438 138.699219 L 85.019531 138.699219 L 84.878906 138.832031 L 84.609375 138.96875 L 84.480469 139.371094 L 84.210938 139.511719 L 84.210938 139.78125 L 84.070313 139.917969 L 83.941406 140.320313 L 83.667969 140.460938 L 83.53125 140.730469 L 83.128906 141 L 83 141.410156 L 82.730469 141.679688 L 82.589844 141.949219 L 82.191406 142.21875 L 82.050781 142.351563 L 81.917969 142.628906 L 81.648438 142.761719 L 81.238281 142.898438 L 81.109375 142.898438 L 80.980469 143.167969 L 80.710938 143.300781 L 79.628906 143.300781 L 79.488281 143.167969 L 79.21875 143.167969 L 79.21875 142.898438 L 79.089844 142.761719 L 79.089844 141.410156 L 79.21875 141 L 79.21875 140.730469 L 79.488281 140.320313 L 79.628906 139.78125 L 80.03125 139.238281 L 80.570313 137.339844 L 81.238281 135.449219 L 81.917969 133.550781 L 82.460938 131.789063 L 82.730469 129.890625 L 83.128906 128.128906 L 83.53125 126.511719 L 83.667969 124.878906 L 83.941406 123.121094 L 84.070313 121.5 L 84.070313 120.011719 L 84.210938 118.519531 L 84.070313 117.03125 L 84.070313 115.539063 L 83.941406 114.050781 L 83.941406 112.558594 L 83.667969 111.199219 L 83.398438 109.851563 L 83.128906 108.628906 L 82.730469 107.269531 L 82.460938 106.191406 L 82.050781 104.839844 L 81.648438 103.75 L 81.238281 102.667969 L 80.980469 101.449219 L 80.441406 100.640625 L 79.761719 99.417969 L 79.488281 98.46875 L 78.960938 97.660156 L 78.28125 96.710938 L 77.738281 95.761719 L 77.46875 94.808594 L 76.800781 94 L 76.261719 93.320313 L 75.71875 92.511719 L 75.320313 91.96875 L 74.78125 91.289063 L 74.511719 90.75 L 73.839844 90.339844 L 73.570313 89.800781 L 73.160156 89.390625 L 72.761719 88.988281 L 72.359375 88.851563 L 72.089844 88.449219 L 71.679688 88.308594 L 71.28125 88.039063 L 70.878906 88.039063 L 70.738281 87.898438 L 69.800781 87.898438 L 69.660156 88.039063 L 69.390625 88.039063 L 69.261719 88.308594 L 69.121094 88.449219 L 68.859375 88.582031 L 68.71875 88.988281 L 68.589844 89.261719 L 68.589844 89.53125 L 68.320313 89.941406 L 68.179688 90.339844 L 68.179688 91.429688 L 67.910156 91.96875 L 67.910156 95.488281 L 68.179688 95.898438 L 68.179688 96.441406 L 68.320313 96.710938 L 68.320313 97.390625 L 68.589844 97.789063 L 68.589844 97.929688 L 68.71875 98.332031 L 68.859375 98.878906 L 68.859375 99.28125 L 69.121094 99.691406 L 69.261719 100.230469 L 69.390625 100.769531 L 69.660156 101.179688 L 69.800781 101.859375 L 70.070313 102.398438 L 70.199219 103.210938 L 70.339844 103.75 L 70.738281 104.429688 L 70.878906 105.378906 L 71.140625 106.191406 L 71.28125 106.871094 L 71.550781 107.679688 L 71.679688 108.359375 L 71.820313 109.167969 L 72.089844 109.851563 L 72.21875 110.660156 L 72.359375 111.339844 L 72.628906 112.148438 L 72.761719 112.832031 L 72.761719 113.640625 L 73.03125 114.179688 L 73.160156 114.988281 L 73.160156 115.667969 L 73.300781 116.210938 L 73.300781 117.03125 L 73.570313 117.699219 L 73.570313 119.601563 L 73.699219 120.140625 L 73.699219 123.660156 L 73.570313 124.199219 L 73.570313 125.832031 L 73.300781 126.371094 L 73.300781 126.910156 L 73.160156 127.320313 L 73.03125 127.589844 L 73.03125 127.859375 L 72.761719 128.128906 L 72.628906 128.398438 L 72.359375 128.539063 L 72.21875 128.808594 L 72.089844 128.949219 L 71.820313 128.949219 L 71.550781 129.082031 L 71.140625 129.082031 L 70.738281 128.949219 L 70.199219 128.949219 L 70.070313 128.808594 L 69.660156 128.539063 L 69.390625 128.398438 L 69.261719 128.128906 L 68.859375 128 L 68.179688 127.320313 L 67.78125 126.910156 L 67.640625 126.640625 L 67.238281 126.371094 L 67.101563 125.96875 L 66.839844 125.558594 L 66.699219 125.148438 L 66.160156 124.609375 L 65.890625 124.199219 L 65.761719 123.929688 L 65.621094 123.53125 L 65.621094 123.121094 L 65.351563 122.710938 L 65.21875 122.441406 L 64.949219 122.039063 L 64.949219 121.628906 L 64.820313 121.21875 L 64.679688 121.089844 L 64.679688 120.679688 L 64.410156 120.410156 L 64.410156 120.011719 L 64.28125 119.601563 L 64.28125 119.191406 L 64.140625 118.917969 L 64.140625 118.519531 L 63.871094 118.109375 L 63.871094 117.160156 L 63.738281 116.761719 L 63.738281 115.941406 L 63.46875 115.539063 L 63.46875 114.179688 L 63.332031 113.640625 L 63.332031 112.011719 L 63.199219 111.609375 L 63.199219 111.070313 L 62.929688 110.519531 L 62.800781 110.121094 L 62.800781 109.582031 L 62.660156 109.167969 L 62.390625 108.761719 L 62.261719 108.359375 L 61.988281 108.21875 L 61.851563 107.820313 L 61.71875 107.679688 L 61.449219 107.539063 L 61.179688 107.269531 L 60.910156 107.140625 L 60.78125 107.140625 L 60.511719 106.871094 L 60.238281 107.140625 L 59.96875 107.140625 L 59.699219 107.269531 L 59.429688 107.269531 L 59.289063 107.679688 L 58.890625 107.820313 L 58.761719 108.21875 L 58.351563 108.628906 L 58.21875 109.167969 L 57.808594 109.710938 L 57.539063 110.25 L 57.269531 110.800781 L 57 111.609375 L 56.738281 112.558594 L 56.46875 113.230469 L 56.332031 114.179688 L 55.929688 115.269531 L 55.789063 116.480469 L 55.519531 117.570313 L 55.519531 122.582031 L 55.789063 123.929688 L 55.929688 125.148438 L 56.058594 126.511719 L 56.332031 127.859375 L 56.46875 129.351563 L 56.738281 130.570313 L 57 131.929688 L 57.410156 133.410156 L 57.539063 134.769531 L 57.949219 135.988281 L 58.351563 137.210938 L 58.761719 138.429688 L 59.019531 139.78125 L 59.429688 140.859375 L 59.832031 141.949219 L 59.96875 142.898438 L 60.371094 144.121094 L 60.78125 144.789063 L 60.910156 145.738281 L 61.308594 146.417969 L 61.449219 147.230469 L 61.851563 147.769531 L 61.988281 148.308594 L 62.261719 148.71875 L 62.390625 148.859375 L 62.390625 149.398438 L 62.660156 149.667969 L 62.660156 150.070313 L 62.800781 150.210938 L 62.800781 151.699219 L 62.660156 151.839844 L 62.660156 152.238281 L 62.390625 152.511719 L 62.261719 152.648438 L 62.261719 152.78125 L 61.851563 152.78125 L 61.851563 153.050781 L 61.179688 153.050781 L 60.910156 152.78125 L 60.78125 152.78125 L 60.371094 152.648438 L 60.238281 152.511719 L 59.96875 152.511719 L 59.832031 152.109375 L 59.429688 151.839844 L 58.890625 151.558594 L 58.488281 151.160156 L 58.21875 150.621094 L 57.808594 150.070313 L 57.410156 149.398438 L 57 148.859375 L 56.738281 148.179688 L 56.332031 147.371094 L 55.789063 146.691406 L 55.390625 145.878906 L 54.980469 145.199219 L 54.582031 144.25 L 54.308594 143.300781 L 53.769531 142.628906 L 53.371094 141.679688 L 52.960938 140.730469 L 52.558594 139.78125 L 52.289063 138.699219 L 51.890625 137.75 L 51.351563 136.800781 L 50.941406 135.851563 L 50.539063 134.898438 L 50.140625 133.820313 L 50 132.871094 L 49.601563 131.929688 L 49.332031 130.980469 L 48.917969 130.03125 L 48.519531 129.082031 L 48.390625 128.398438 L 47.980469 127.460938 L 47.851563 126.511719 L 47.441406 125.832031 L 47.167969 125.148438 L 46.898438 124.480469 L 46.5 124.070313 L 46.371094 123.53125 L 45.960938 123.121094 L 45.691406 122.710938 L 45.417969 122.582031 L 45.019531 122.441406 L 44.878906 122.167969 L 44.480469 122.167969 L 44.082031 122.039063 L 43.941406 122.039063 L 43.539063 122.167969 L 43.128906 122.167969 L 43 122.441406 L 42.601563 122.582031 L 42.460938 122.710938 L 42.191406 122.988281 L 41.917969 123.390625 L 41.648438 123.53125 L 41.519531 123.929688 L 41.25 124.199219 L 41.109375 124.480469 L 40.980469 124.878906 L 40.710938 125.148438 L 40.582031 125.558594 L 40.582031 125.96875 L 40.441406 126.371094 L 40.441406 129.488281 L 40.582031 130.03125 L 40.582031 130.441406 L 40.710938 130.980469 L 40.710938 131.378906 L 40.980469 131.929688 L 40.980469 132.332031 L 41.109375 132.871094 L 41.25 133.410156 L 41.25 133.820313 L 41.519531 134.359375 L 41.648438 134.898438 L 41.648438 135.449219 L 41.917969 135.988281 L 42.058594 136.390625 L 42.191406 136.941406 L 42.191406 137.480469 L 42.460938 138.019531 L 42.601563 138.429688 L 42.601563 138.96875 L 42.730469 139.511719 L 42.730469 139.917969 L 43 140.460938 L 43 141 L 43.128906 141.410156 L 43.128906 142.351563 L 43.398438 142.761719 L 43.398438 144.660156 L 43.539063 144.929688 L 43.539063 146.417969 L 43.128906 146.417969 L 43 146.28125 L 42.730469 146.148438 L 42.601563 145.878906 L 42.460938 145.738281 L 42.191406 145.609375 L 42.058594 145.332031 L 41.917969 144.929688 L 41.519531 144.789063 L 41.25 144.390625 L 41.109375 144.121094 L 40.710938 143.839844 L 40.441406 143.441406 L 40.167969 143.300781 L 39.769531 142.898438 L 39.5 142.761719 L 39.230469 142.351563 L 38.960938 142.21875 L 38.691406 141.949219 L 38.289063 141.808594 L 38.019531 141.679688 L 37.609375 141.410156 L 37.480469 141.269531 L 37.070313 141.269531 L 36.667969 141 L 36.539063 140.859375 L 36.128906 140.859375 L 35.730469 140.730469 L 35.320313 140.730469 L 35.191406 140.460938 L 34.78125 140.460938 L 34.519531 140.320313 L 33.710938 140.320313 L 33.300781 140.191406 L 32.359375 140.191406 L 32.089844 139.917969 L 30.878906 139.917969 L 30.609375 139.78125 L 28.71875 139.78125 L 28.320313 139.917969 L 27.78125 139.917969 L 27.378906 140.191406 L 27.109375 140.320313 L 26.699219 140.460938 L 26.300781 140.730469 L 25.898438 140.859375 L 25.761719 141.269531 L 25.628906 141.410156 L 25.359375 141.808594 L 25.359375 143.300781 L 25.628906 143.839844 L 25.628906 144.25 L 25.898438 144.789063 L 26.167969 145.199219 L 26.429688 145.738281 L 26.839844 146.28125 L 27.378906 146.820313 L 27.917969 147.371094 L 28.589844 147.910156 L 29.261719 148.589844 L 30.070313 149.261719 L 30.738281 149.800781 L 31.691406 150.351563 L 32.628906 151.160156 L 33.710938 151.699219 L 34.648438 152.511719 L 35.730469 153.191406 L 36.667969 153.730469 L 37.609375 154.539063 L 38.289063 155.21875 L 39.230469 156.03125 L 40.039063 156.710938 L 40.710938 157.519531 L 41.519531 158.070313 L 42.058594 158.738281 L 42.601563 159.558594 L 43.398438 160.230469 L 43.667969 161.050781 L 44.210938 161.71875 L 44.878906 162.539063 L 45.148438 163.082031 L 45.558594 163.890625 L 45.960938 164.570313 L 46.371094 165.378906 L 46.640625 165.917969 L 47.039063 166.601563 L 47.441406 167.140625 L 47.582031 167.949219 L 47.980469 168.5 L 48.121094 169.039063 L 48.390625 169.851563 L 48.660156 170.390625 L 48.917969 170.929688 L 49.058594 171.480469 L 49.332031 171.878906 L 49.460938 172.417969 L 49.871094 172.832031 L 50 173.371094 L 50.140625 173.78125 L 50.539063 174.320313 L 50.808594 174.589844 L 51.082031 175.269531 L 51.480469 175.539063 L 52.832031 176.890625 L 53.371094 177.300781 L 53.769531 177.570313 L 54.308594 178.25 L 54.851563 178.519531 L 55.25 178.929688 L 55.789063 179.328125 L 56.332031 179.738281 L 56.871094 180.011719 L 57.410156 180.410156 L 57.808594 180.820313 L 58.351563 180.960938 L 58.890625 181.359375 L 59.429688 181.769531 L 59.96875 181.898438 L 60.371094 182.308594 L 60.910156 182.449219 L 61.308594 182.851563 L 61.851563 182.988281 L 62.261719 183.261719 L 62.800781 183.667969 L 63.199219 183.800781 L 63.46875 183.941406 L 63.871094 183.941406 L 60.78125 183.941406 L 57.539063 183.667969 L 54.582031 182.988281 L 51.890625 182.308594 L 49.058594 181.5 L 46.5 180.410156 L 43.941406 179.46875 L 41.25 178.25 L 38.960938 176.890625 L 36.667969 175.398438 L 34.519531 173.910156 L 32.359375 172.289063 L 30.339844 170.53125 L 28.320313 168.898438 L 26.699219 167.140625 L 24.820313 165.378906 L 23.199219 163.480469 L 21.71875 161.71875 L 20.371094 159.960938 L 18.890625 158.070313 L 17.820313 156.308594 L 16.738281 154.539063 L 15.53125 152.78125 L 14.582031 151.160156 L 13.910156 149.398438 L 13.101563 147.910156 L 12.558594 146.691406 L 12.03125 145.332031 L 11.621094 144.121094 L 11.488281 142.898438 L 11.351563 141.949219 L 11.351563 141 L 11.082031 140.320313 L 11.082031 136.941406 L 10.949219 135.851563 L 10.949219 134.898438 L 10.808594 133.960938 L 10.539063 132.871094 L 10.539063 131.929688 L 10.410156 130.839844 L 10.140625 129.621094 L 10.011719 128.539063 L 9.871094 127.589844 L 9.601563 126.511719 L 9.46875 125.417969 L 9.058594 124.480469 L 8.929688 123.390625 L 8.660156 122.441406 L 8.390625 121.21875 L 8.121094 120.410156 L 7.851563 119.460938 L 7.449219 118.519531 L 7.179688 117.570313 L 6.910156 116.761719 L 6.5 115.941406 L 6.101563 115.128906 L 5.699219 114.589844 L 5.160156 113.78125 L 4.890625 113.230469 L 4.480469 112.691406 L 4.082031 112.148438 L 3.679688 112.011719 L 3.410156 111.609375 L 2.601563 110.800781 L 2.191406 110.519531 L 2.058594 110.25 L 1.660156 109.851563 L 1.519531 109.582031 L 1.121094 109.167969 L 0.980469 108.761719 L 0.710938 108.359375 L 0.578125 108.089844 L 0.441406 107.679688 L 0.171875 107.269531 L 0.171875 106.730469 L 0.0390625 106.332031 L 0.0390625 106.191406 L 0.171875 105.917969 L 0.171875 105.78125 L 0.441406 105.648438 L 0.578125 105.378906 L 0.710938 105.238281 L 2.058594 105.238281 L 2.460938 105.378906 L 3 105.648438 L 3.539063 105.78125 L 4.082031 106.191406 L 4.890625 106.332031 L 5.429688 106.730469 L 6.101563 107.140625 L 6.640625 107.539063 L 7.179688 108.089844 L 7.851563 108.359375 L 8.390625 108.761719 L 8.929688 109.167969 L 9.46875 109.582031 L 10.011719 109.851563 L 10.410156 110.25 L 10.949219 110.660156 L 11.351563 111.070313 L 11.621094 111.339844 L 12.03125 111.738281 L 12.429688 112.148438 L 12.832031 112.558594 L 13.101563 113.101563 L 13.511719 113.5 L 13.78125 113.78125 L 14.050781 114.179688 L 14.308594 114.589844 L 14.582031 114.988281 L 14.851563 115.269531 L 14.988281 115.667969 L 15.390625 116.082031 L 15.53125 116.480469 L 15.800781 116.761719 L 15.929688 117.160156 L 16.070313 117.699219 L 16.332031 118.109375 L 16.46875 118.519531 L 16.738281 118.648438 L 16.738281 119.058594 L 16.871094 119.460938 L 17.011719 119.730469 L 17.28125 120.011719 L 17.550781 120.140625 L 17.820313 120.410156 L 17.949219 120.550781 L 18.21875 120.679688 L 18.351563 120.679688 L 18.761719 120.949219 L 20.238281 120.949219 L 20.371094 120.679688 L 20.511719 120.679688 L 20.78125 120.550781 L 21.179688 120.410156 L 21.320313 120.140625 L 21.449219 120.011719 L 21.71875 119.730469 L 21.859375 119.601563 L 21.988281 119.460938 L 21.988281 119.191406 L 22.261719 118.917969 L 22.390625 118.648438 L 22.390625 118.238281 L 22.660156 118.109375 L 22.660156 117.699219 L 22.800781 117.429688 L 22.800781 113.78125 L 22.929688 113.5 L 22.929688 112.289063 L 23.199219 112.011719 L 23.199219 111.199219 L 23.339844 110.660156 L 23.339844 110.25 L 23.46875 109.710938 L 23.738281 109.308594 L 23.878906 108.761719 L 24.148438 108.21875 L 24.28125 107.679688 L 24.410156 107.140625 L 24.679688 106.332031 L 24.949219 105.78125 L 25.21875 105.109375 L 25.628906 104.289063 L 25.898438 103.621094 L 26.167969 102.800781 L 26.429688 102.128906 L 26.699219 101.308594 L 27.109375 100.640625 L 27.238281 99.820313 L 27.378906 98.878906 L 27.378906 98.199219 L 27.648438 97.390625 L 27.648438 94.269531 L 27.378906 93.460938 L 27.378906 92.78125 L 27.238281 91.96875 L 27.109375 91.289063 L 26.839844 90.480469 L 26.699219 89.800781 L 26.429688 88.988281 L 26.300781 88.308594 L 26.167969 87.5 L 25.761719 86.960938 L 25.359375 86.140625 L 25.21875 85.46875 L 24.820313 84.929688 L 24.410156 84.109375 L 24.148438 83.570313 L 23.738281 82.890625 L 23.339844 82.351563 L 22.929688 81.667969 L 22.660156 81.128906 L 22.261719 80.460938 L 21.71875 80.050781 L 21.449219 79.640625 L 21.179688 79.238281 L 20.910156 78.96875 L 20.78125 78.558594 L 20.511719 78.421875 L 20.371094 78.019531 L 20.371094 77.609375 L 20.238281 77.480469 L 20.238281 76.929688 L 20.371094 76.660156 L 20.371094 76.53125 L 20.511719 76.261719 L 20.78125 76.121094 L 20.910156 75.988281 L 21.449219 75.988281 L 21.859375 75.710938 L 21.988281 75.988281 L 22.800781 75.988281 L 23.199219 76.121094 L 23.339844 76.261719 L 23.738281 76.53125 L 24.148438 76.660156 L 24.28125 76.929688 L 24.679688 77.070313 L 24.949219 77.199219 L 25.21875 77.609375 L 25.628906 78.019531 L 26.167969 78.421875 L 26.429688 78.691406 L 27.109375 79.238281 L 27.378906 79.640625 L 27.917969 80.179688 L 28.589844 80.859375 L 29.128906 81.398438 L 29.800781 81.949219 L 30.339844 82.488281 L 30.878906 83.160156 L 31.691406 83.839844 L 32.230469 84.519531 L 33.03125 85.058594 L 33.570313 85.871094 L 34.25 86.550781 L 34.78125 87.359375 L 35.589844 87.898438 L 36.128906 88.582031 L 36.667969 89.390625 L 37.210938 90.070313 L 37.75 90.878906 L 38.289063 91.558594 L 38.960938 92.238281 L 39.230469 92.917969 L 39.769531 93.730469 L 40.167969 94.269531 L 40.582031 94.949219 L 40.980469 95.488281 L 41.109375 96.03125 L 41.519531 96.710938 L 41.519531 95.21875 L 41.648438 94.808594 L 41.648438 93.730469 L 41.917969 93.050781 L 41.917969 92.238281 L 42.058594 91.558594 L 42.058594 91.019531 L 42.191406 90.480469 L 42.460938 89.941406 L 42.460938 89.261719 L 42.601563 88.582031 L 42.730469 87.898438 L 43 87.359375 L 43.128906 86.550781 L 43.398438 85.871094 L 43.539063 85.058594 L 43.941406 84.378906 L 44.082031 83.441406 L 44.480469 82.488281 L 44.621094 81.667969 L 45.019531 80.859375 L 45.417969 79.640625 L 45.691406 78.691406 L 46.101563 77.609375 L 46.640625 76.53125 L 47.039063 75.441406 L 47.582031 74.089844 L 48.121094 72.730469 L 48.519531 71.519531 L 48.917969 70.160156 L 49.058594 69.078125 L 49.332031 67.71875 L 49.058594 66.371094 L 49.058594 65.148438 L 48.917969 63.800781 L 48.519531 62.578125 L 48.121094 61.359375 L 47.582031 60.140625 L 47.167969 58.921875 L 46.5 57.839844 L 45.960938 56.75 L 45.148438 55.671875 L 44.480469 54.449219 L 43.667969 53.371094 L 43 52.421875 L 42.191406 51.328125 L 41.25 50.390625 L 40.582031 49.441406 L 39.769531 48.761719 L 38.960938 47.808594 L 38.148438 47 L 37.480469 46.320313 L 36.667969 45.511719 L 36 44.96875 L 35.320313 44.289063 L 34.78125 43.609375 L 34.25 43.339844 L 33.710938 42.671875 L 33.300781 42.390625 L 33.167969 41.988281 L 32.761719 41.851563 L 32.628906 41.449219 L 32.359375 41.179688 L 32.230469 40.898438 L 32.089844 40.628906 L 32.089844 40.359375 L 31.820313 40.089844 L 31.820313 39.011719 L 32.089844 38.871094 L 32.089844 38.601563 L 32.230469 38.46875 L 32.359375 38.199219 L 32.628906 38.058594 L 32.761719 38.058594 L 33.03125 37.929688 L 34.109375 37.929688 L 34.519531 38.058594 L 34.648438 38.058594 L 34.78125 38.199219 L 35.050781 38.46875 L 35.191406 38.46875 L 35.589844 38.601563 L 35.730469 39.011719 L 36.128906 39.410156 L 36.667969 39.691406 L 37.480469 40.359375 L 38.148438 41.039063 L 39.089844 41.851563 L 40.039063 42.53125 L 40.980469 43.339844 L 42.058594 44.289063 L 43.128906 45.101563 L 44.480469 46.050781 L 45.691406 47 L 47.039063 48.078125 L 48.390625 49.300781 L 49.601563 50.25 L 51.082031 51.328125 L 52.429688 52.421875 L 53.910156 53.5 L 55.25 54.71875 L 56.46875 55.800781 L 57.808594 56.75 L 59.019531 57.839844 L 60.371094 58.78125 L 61.449219 59.730469 L 62.660156 60.679688 L 63.738281 61.628906 L 64.679688 62.308594 L 65.621094 63.121094 L 66.300781 63.800781 L 67.101563 64.339844 L 67.640625 64.878906 L 68.179688 65.289063 L 68.179688 64.609375 L 68.320313 63.800781 L 68.589844 63.25 L 68.71875 62.578125 L 68.71875 61.898438 L 68.859375 61.21875 L 69.121094 60.679688 L 69.261719 60.140625 L 69.390625 59.460938 L 69.390625 58.921875 L 69.660156 58.378906 L 69.800781 57.839844 L 69.800781 57.160156 L 70.070313 56.480469 L 70.070313 53.371094 L 69.800781 52.820313 L 69.800781 52.011719 L 69.660156 51.328125 L 69.390625 50.390625 L 69.261719 49.570313 L 68.859375 48.761719 L 68.589844 47.808594 L 68.179688 46.589844 L 67.78125 45.78125 L 67.238281 44.558594 L 66.160156 42.121094 L 65.621094 40.628906 L 64.820313 39.410156 L 64.28125 38.058594 L 63.46875 36.710938 L 63.199219 35.488281 L 62.660156 34.128906 L 62.261719 32.78125 L 61.71875 31.558594 L 61.308594 30.199219 L 61.179688 29.121094 L 60.78125 27.769531 L 60.511719 26.679688 L 60.371094 25.601563 L 60.238281 24.378906 L 59.96875 23.300781 L 59.832031 22.210938 L 59.832031 21.128906 L 59.699219 19.910156 L 59.699219 15.980469 L 59.832031 15.171875 L 59.832031 13.410156 L 59.96875 12.730469 L 60.238281 11.921875 L 60.238281 11.238281 L 60.371094 10.429688 L 60.511719 9.75 L 60.78125 9.210938 L 60.910156 8.53125 L 61.179688 7.859375 L 61.308594 7.039063 L 61.449219 6.5 L 61.851563 5.960938 L 61.988281 5.421875 L 62.390625 5.011719 L 62.660156 4.609375 L 63.199219 4.328125 L 63.332031 4.058594 L 64.28125 4.058594 L 64.410156 4.328125 L 64.679688 4.328125 L 64.820313 4.609375 L 65.21875 4.878906 L 65.351563 5.28125 L 65.621094 5.550781 L 65.761719 5.960938 L 65.890625 6.371094 L 66.160156 6.910156 L 66.300781 7.308594 L 66.429688 7.859375 L 66.429688 8.398438 L 66.699219 8.941406 L 66.839844 9.480469 L 66.839844 10.019531 L 67.101563 10.699219 L 67.101563 12.460938 L 67.238281 13 L 67.238281 15.308594 L 67.371094 15.980469 L 67.371094 16.660156 L 67.640625 17.199219 L 67.78125 17.738281 L 67.910156 18.421875 L 68.179688 19.101563 L 68.320313 19.640625 L 68.589844 20.320313 L 68.71875 20.859375 L 68.859375 21.398438 L 69.121094 22.210938 L 69.390625 22.761719 L 69.660156 23.300781 L 70.070313 23.839844 L 70.199219 24.648438 L 70.609375 25.191406 L 70.738281 25.730469 L 71.140625 26.28125 L 71.550781 26.820313 L 71.679688 27.5 L 72.089844 28.039063 L 72.359375 28.308594 L 72.761719 28.988281 L 73.160156 29.53125 L 73.570313 29.800781 L 73.839844 30.199219 L 74.238281 30.609375 L 74.648438 31.019531 L 75.589844 32.511719 L 76.667969 34 L 77.609375 35.488281 L 78.550781 36.980469 L 79.488281 38.601563 L 80.167969 40.359375 L 80.980469 41.988281 L 81.648438 43.609375 L 82.191406 45.511719 L 83 47.410156 L 83.398438 49.300781 L 83.941406 51.058594 L 84.480469 52.820313 L 84.878906 54.71875 L 85.148438 56.480469 L 85.550781 58.378906 L 85.691406 60.269531 L 85.960938 62.171875 L 86.359375 63.800781 L 86.359375 65.691406 L 86.5 67.320313 L 86.628906 69.078125 L 86.628906 70.570313 L 86.898438 72.058594 L 86.898438 76.261719 L 86.628906 77.609375 L 86.628906 79.910156 L 86.5 80.859375 L 86.5 81.539063 L 86.359375 82.488281 L 86.089844 83.03125 L 86.089844 83.839844 L 85.960938 84.378906 L 85.960938 86.820313 L 86.089844 87.089844 L 86.089844 87.5 L 86.359375 87.628906 L 86.5 88.039063 L 86.5 88.308594 L 86.628906 88.449219 L 86.898438 88.449219 L 87.039063 88.582031 L 87.570313 88.582031 L 87.839844 88.449219 L 87.980469 88.449219 L 88.378906 88.308594 L 88.519531 88.308594 L 88.917969 88.039063 L 89.320313 87.898438 L 89.460938 87.5 L 89.859375 87.359375 L 90.128906 86.960938 L 90.539063 86.550781 L 90.941406 86.140625 L 91.339844 85.871094 L 91.609375 85.332031 L 92.289063 84.648438 L 92.960938 83.980469 L 93.5 83.160156 L 94.039063 82.351563 L 94.582031 81.398438 L 95.25 80.589844 L 95.519531 79.640625 L 95.917969 78.558594 L 96.058594 77.609375 L 96.460938 76.660156 L 96.730469 75.578125 L 96.871094 74.628906 L 97 73.550781 L 97.269531 72.460938 L 97.398438 71.519531 L 97.398438 69.210938 L 97.539063 68.269531 L 97.539063 65.148438 L 97.398438 64.199219 L 97.398438 60.410156 L 97.269531 59.730469 L 97.269531 52.820313 L 97.398438 52.421875 L 97.398438 51.738281 L 97.539063 51.46875 L 97.539063 51.058594 L 97.808594 50.929688 L 97.941406 50.789063 L 98.210938 50.519531 L 98.351563 50.390625 L 99.289063 50.390625 L 99.417969 50.519531 L 99.832031 50.789063 L 100.230469 50.929688 L 100.5 51.058594 L 100.910156 51.46875 L 101.308594 51.878906 L 101.851563 52.421875 L 102.25 52.960938 L 102.789063 53.5 L 103.328125 54.308594 L 103.871094 54.988281 L 104.679688 55.800781 L 105.351563 57.429688 L 105.890625 59.191406 L 106.699219 60.949219 L 107.101563 62.710938 L 107.640625 64.609375 L 107.910156 66.640625 L 108.179688 68.539063 L 108.578125 70.570313 L 108.71875 72.601563 L 108.71875 74.628906 L 108.851563 76.660156 L 108.851563 81 L 108.71875 83.03125 L 108.71875 85.058594 L 108.578125 87.089844 L 108.308594 89.261719 L 108.179688 91.019531 L 107.910156 92.917969 L 107.769531 94.808594 L 107.640625 96.710938 L 107.238281 98.332031 L 107.101563 99.960938 L 106.828125 101.449219 L 106.429688 102.941406 L 106.289063 104.289063 L 106.160156 105.648438 L 105.75 106.730469 L 105.621094 107.679688 L 105.351563 108.628906 L 105.21875 109.167969 L 105.21875 109.710938 L 106.160156 109.582031 L 107.238281 109.03125 L 108.179688 108.628906 L 109.261719 108.089844 L 110.199219 107.539063 L 111.28125 106.730469 L 112.21875 105.917969 L 113.160156 105.238281 L 114.101563 104.429688 L 115.050781 103.75 L 115.988281 102.800781 L 116.800781 101.859375 L 117.609375 100.910156 L 118.550781 99.960938 L 119.21875 99.148438 L 120.03125 97.929688 L 120.699219 96.980469 L 121.511719 95.898438 L 122.179688 94.949219 L 122.71875 93.859375 L 123.398438 92.917969 L 123.929688 91.832031 L 124.46875 90.75 L 124.878906 89.800781 L 125.421875 88.582031 L 125.691406 87.628906 L 126.089844 86.820313 L 126.359375 85.871094 L 126.488281 84.929688 L 126.628906 83.980469 L 126.898438 83.03125 L 127.03125 82.082031 L 127.03125 80.589844 L 127.171875 80.050781 L 127.171875 79.238281 L 127.441406 78.691406 L 127.570313 78.421875 L 127.570313 77.75 L 127.839844 77.480469 L 127.96875 77.199219 L 127.96875 76.929688 L 128.109375 76.660156 L 128.378906 76.53125 L 128.511719 76.261719 L 129.320313 76.261719 L 129.460938 76.53125 L 129.859375 76.929688 L 129.988281 77.070313 L 130.128906 77.480469 L 130.53125 77.75 L 130.800781 78.148438 L 130.941406 78.558594 L 131.070313 78.96875 L 131.480469 79.511719 L 131.609375 80.050781 L 131.878906 80.589844 L 132.28125 81.128906 L 132.421875 81.949219 L 132.820313 82.488281 L 132.960938 83.839844 L 133.089844 85.332031 L 133.089844 86.550781 L 133.359375 88.039063 L 133.359375 89.390625 L 133.089844 90.878906 L 133.089844 92.371094 L 132.960938 93.859375 L 132.820313 95.351563 L 132.421875 96.839844 L 132.28125 98.46875 L 131.878906 99.960938 L 131.480469 101.449219 L 131.070313 102.941406 L 130.800781 104.429688 L 130.128906 105.917969 L 129.859375 107.539063 L 129.320313 109.03125 L 128.921875 110.519531 L 128.378906 111.738281 L 127.839844 113.230469 L 127.171875 114.589844 L 126.628906 115.941406 L 126.089844 117.03125 L 125.550781 118.238281 L 125.011719 119.460938 L 124.609375 120.550781 L 124.070313 121.5 L 123.53125 122.441406 L 122.988281 123.390625 L 122.589844 124.199219 L 122.179688 124.878906 L 121.648438 125.558594 L 121.511719 126.371094 L 121.238281 126.910156 L 121.109375 127.460938 L 120.96875 128 L 120.96875 129.488281 L 121.109375 129.890625 L 121.238281 130.300781 L 121.511719 130.570313 L 121.910156 130.980469 L 122.050781 131.378906 L 122.449219 131.519531 L 122.71875 131.789063 L 123.128906 131.929688 L 123.53125 132.058594 L 123.929688 132.332031 L 124.199219 132.332031 L 124.609375 132.46875 L 125.949219 132.46875 L 126.488281 132.332031 L 126.898438 132.332031 L 127.171875 132.058594 L 127.570313 131.929688 L 127.96875 131.789063 L 128.378906 131.519531 L 128.648438 131.109375 L 128.921875 130.839844 L 129.320313 130.441406 L 129.460938 130.03125 L 129.589844 129.621094 L 129.988281 129.351563 L 130.398438 128.808594 L 130.53125 128.128906 L 130.941406 127.589844 L 131.339844 127.050781 L 131.609375 126.371094 L 132.011719 125.832031 L 132.421875 125.019531 L 132.820313 124.199219 L 133.089844 123.53125 L 133.5 122.710938 L 133.898438 122.039063 L 134.300781 121.21875 L 134.570313 120.550781 L 134.980469 119.730469 L 135.378906 119.058594 L 135.921875 118.238281 L 136.320313 117.570313 L 136.730469 116.761719 L 137 116.082031 L 137.269531 115.269531 L 137.539063 114.71875 L 137.941406 114.050781 L 138.339844 113.5 L 138.75 112.691406 L 138.878906 112.148438 L 139.289063 111.609375 L 139.421875 111.070313 L 139.691406 110.519531 L 140.089844 109.851563 L 139.828125 115.667969 L 139.421875 120.949219 L 139.019531 125.96875 L 138.339844 130.570313 L 137.398438 135.039063 L 136.320313 139.238281 L 134.980469 143.167969 L 133.5 146.820313 L 132.011719 150.210938 L 130.398438 153.332031 L 128.511719 156.308594 L 126.488281 159.011719 L 124.609375 161.589844 L 122.449219 163.890625 L 120.429688 166.058594 L 118.140625 167.949219 L 115.988281 169.851563 L 113.570313 171.480469 L 111.28125 172.832031 L 109.121094 174.320313 L 106.828125 175.398438 L 104.679688 176.488281 L 102.390625 177.441406 L 100.230469 178.25 L 98.210938 178.929688 L 96.058594 179.738281 L 94.308594 180.28125 L 92.417969 180.820313 L 90.808594 181.230469 L 89.320313 181.5 L 87.839844 181.898438 L 86.628906 182.179688 "/>
<path style=" stroke:none;fill-rule:evenodd;fill:rgb(100%,100%,100%);fill-opacity:1;" d="M 70.199219 75.988281 L 70.070313 75.578125 L 70.070313 75.171875 L 70.199219 74.769531 L 70.199219 73.550781 L 70.339844 73.140625 L 70.339844 72.191406 L 70.609375 71.789063 L 70.738281 71.519531 L 70.738281 71.109375 L 70.878906 70.570313 L 70.878906 70.160156 L 71.140625 69.761719 L 71.28125 69.351563 L 71.28125 69.078125 L 71.550781 68.671875 L 71.679688 68.128906 L 71.820313 67.71875 L 71.820313 67.320313 L 72.089844 67.050781 L 72.21875 66.640625 L 72.359375 66.230469 L 72.359375 65.828125 L 72.628906 65.558594 L 72.761719 65.148438 L 72.761719 64.738281 L 73.03125 64.199219 L 73.03125 63.800781 L 73.160156 63.390625 L 73.300781 63.121094 L 73.300781 62.578125 L 73.570313 62.171875 L 73.570313 61.761719 L 73.699219 61.359375 L 73.699219 61.21875 L 73.839844 60.820313 L 73.839844 60.679688 L 74.109375 60.410156 L 74.238281 60.140625 L 74.238281 59.871094 L 74.511719 59.730469 L 74.511719 59.460938 L 74.648438 59.328125 L 74.78125 59.328125 L 74.78125 59.191406 L 75.050781 59.191406 L 75.179688 58.921875 L 75.589844 58.921875 L 75.71875 59.191406 L 75.988281 59.191406 L 76.128906 59.328125 L 76.261719 59.460938 L 76.667969 59.730469 L 76.800781 59.871094 L 77.070313 60.140625 L 77.199219 60.410156 L 77.609375 60.679688 L 77.738281 60.949219 L 78.148438 61.359375 L 78.28125 61.898438 L 78.550781 62.308594 L 78.960938 62.851563 L 79.089844 63.25 L 79.21875 63.800781 L 79.488281 64.199219 L 79.628906 64.738281 L 79.761719 65.289063 L 80.03125 65.691406 L 80.167969 66.230469 L 80.441406 66.78125 L 80.570313 67.179688 L 80.570313 67.71875 L 80.710938 68.269531 L 80.710938 68.671875 L 80.980469 69.210938 L 80.980469 69.761719 L 81.109375 70.160156 L 81.109375 70.699219 L 81.238281 71.109375 L 81.238281 72.058594 L 81.511719 72.601563 L 81.511719 75.988281 L 81.78125 76.121094 L 81.511719 76.53125 L 81.511719 78.96875 L 81.238281 79.238281 L 81.238281 80.050781 L 81.109375 80.460938 L 81.109375 80.859375 L 80.980469 81 L 80.980469 81.398438 L 80.710938 81.667969 L 80.570313 82.082031 L 80.441406 82.488281 L 80.167969 82.621094 L 80.03125 83.03125 L 79.761719 83.160156 L 79.628906 83.570313 L 79.488281 83.839844 L 79.21875 83.980469 L 79.089844 84.109375 L 78.691406 84.378906 L 78.550781 84.519531 L 78.148438 84.648438 L 77.738281 84.648438 L 77.609375 85.058594 L 75.050781 85.058594 L 74.648438 84.648438 L 74.238281 84.648438 L 74.109375 84.519531 L 73.699219 84.378906 L 73.570313 84.378906 L 73.160156 84.109375 L 73.03125 83.980469 L 72.628906 83.570313 L 72.359375 83.441406 L 72.21875 83.160156 L 72.089844 83.03125 L 71.820313 82.621094 L 71.679688 82.488281 L 71.550781 82.082031 L 71.28125 81.667969 L 71.140625 81.398438 L 70.878906 81 L 70.738281 80.589844 L 70.738281 80.179688 L 70.609375 79.910156 L 70.609375 79.511719 L 70.339844 78.96875 L 70.339844 78.558594 L 70.199219 78.019531 L 70.199219 75.988281 "/>
</g>
</svg>
