<?xml version="1.0" encoding="UTF-8"?>
<svg xmlns="http://www.w3.org/2000/svg" xmlns:xlink="http://www.w3.org/1999/xlink" width="1072pt" height="1910pt" viewBox="0 0 1072 1910" version="1.1">
<g id="surface1">
<path style=" stroke:none;fill-rule:evenodd;fill:rgb(0%,0%,0%);fill-opacity:1;" d="M 508.019531 1210.351563 L 503.21875 1222.449219 L 495.230469 1243.628906 L 490.429688 1269.351563 L 480.839844 1295.070313 L 476.039063 1325.328125 L 468.050781 1351.050781 L 463.25 1372.230469 L 458.449219 1384.339844 L 453.660156 1397.949219 L 450.460938 1410.058594 L 445.660156 1422.160156 L 440.871094 1435.78125 L 436.070313 1452.421875 L 436.070313 1469.058594 L 431.269531 1487.21875 L 431.269531 1529.578125 L 428.070313 1558.328125 L 418.480469 1593.121094 L 408.890625 1626.410156 L 400.890625 1661.210938 L 386.5 1691.460938 L 381.710938 1720.210938 L 373.710938 1738.371094 L 368.921875 1755.011719 L 364.121094 1767.109375 L 364.121094 1780.730469 L 359.320313 1788.289063 L 359.320313 1860.910156 L 356.121094 1865.449219 L 356.121094 1869.988281 L 351.328125 1874.53125 L 351.328125 1877.558594 L 346.53125 1882.089844 L 346.53125 1886.628906 L 351.328125 1891.167969 L 351.328125 1903.28125 L 356.121094 1912.351563 L 356.121094 1933.53125 L 351.328125 1938.070313 L 346.53125 1938.070313 L 341.730469 1942.609375 L 225.019531 1942.609375 L 220.21875 1938.070313 L 220.21875 1912.351563 L 225.019531 1907.808594 L 225.019531 1903.28125 L 229.808594 1898.738281 L 234.609375 1891.167969 L 239.410156 1877.558594 L 247.398438 1860.910156 L 256.988281 1844.269531 L 264.988281 1830.648438 L 269.78125 1814.011719 L 269.78125 1797.371094 L 274.578125 1783.75 L 274.578125 1767.109375 L 269.78125 1750.46875 L 269.78125 1682.390625 L 274.578125 1647.589844 L 279.378906 1609.769531 L 284.171875 1571.941406 L 287.371094 1541.679688 L 292.171875 1515.960938 L 296.96875 1499.320313 L 296.96875 1487.21875 L 301.761719 1473.601563 L 306.558594 1461.5 L 311.359375 1452.421875 L 311.359375 1400.980469 L 306.558594 1379.800781 L 301.761719 1351.050781 L 306.558594 1311.71875 L 311.359375 1264.820313 L 314.550781 1214.890625 L 324.148438 1163.449219 L 328.941406 1112.011719 L 336.941406 1074.191406 L 336.941406 1043.929688 L 341.730469 1015.179688 L 356.121094 971.308594 L 364.121094 925.921875 L 378.511719 879.019531 L 391.300781 832.121094 L 405.691406 785.210938 L 413.679688 754.960938 L 418.480469 733.769531 L 418.480469 712.589844 L 413.679688 703.519531 L 408.890625 698.980469 L 405.691406 691.410156 L 400.890625 682.328125 L 391.300781 674.769531 L 386.5 665.691406 L 378.511719 656.609375 L 368.921875 653.589844 L 346.53125 653.589844 L 336.941406 656.609375 L 328.941406 661.148438 L 319.351563 670.230469 L 314.550781 677.800781 L 311.359375 682.328125 L 306.558594 691.410156 L 306.558594 695.949219 L 301.761719 698.980469 L 301.761719 708.050781 L 296.96875 712.589844 L 296.96875 721.671875 L 292.171875 724.699219 L 287.371094 729.238281 L 284.171875 733.769531 L 279.378906 742.851563 L 274.578125 745.878906 L 269.78125 750.421875 L 264.988281 754.960938 L 261.789063 759.488281 L 256.988281 767.058594 L 247.398438 776.140625 L 239.410156 785.210938 L 229.808594 792.78125 L 220.21875 801.859375 L 212.21875 806.398438 L 207.429688 813.960938 L 197.828125 818.5 L 197.828125 823.039063 L 193.039063 823.039063 L 193.039063 832.121094 L 189.839844 835.140625 L 189.839844 857.839844 L 185.039063 860.859375 L 185.039063 865.398438 L 180.25 869.941406 L 175.449219 874.480469 L 170.648438 882.039063 L 162.660156 891.121094 L 153.070313 903.21875 L 145.070313 916.839844 L 130.679688 928.941406 L 122.691406 942.558594 L 108.300781 954.660156 L 98.699219 963.738281 L 90.710938 971.308594 L 76.320313 975.839844 L 53.929688 975.839844 L 45.941406 971.308594 L 31.550781 968.28125 L 23.550781 963.738281 L 18.761719 959.199219 L 13.960938 954.660156 L 9.160156 954.660156 L 9.160156 950.121094 L 5.96875 947.101563 L 5.96875 928.941406 L 9.160156 925.921875 L 9.160156 916.839844 L 13.960938 912.300781 L 13.960938 882.039063 L 18.761719 879.019531 L 18.761719 874.480469 L 23.550781 869.941406 L 28.351563 860.859375 L 36.351563 857.839844 L 41.140625 848.761719 L 53.929688 835.140625 L 68.320313 823.039063 L 85.910156 806.398438 L 98.699219 789.75 L 113.089844 776.140625 L 125.878906 764.03125 L 135.480469 759.488281 L 140.269531 750.421875 L 145.070313 745.878906 L 148.269531 742.851563 L 148.269531 738.308594 L 153.070313 733.769531 L 153.070313 721.671875 L 157.859375 717.128906 L 157.859375 703.519531 L 162.660156 695.949219 L 167.460938 691.410156 L 167.460938 682.328125 L 170.648438 677.800781 L 180.25 670.230469 L 185.039063 661.148438 L 189.839844 649.050781 L 197.828125 623.328125 L 207.429688 593.070313 L 217.019531 555.25 L 225.019531 517.421875 L 234.609375 482.628906 L 239.410156 452.371094 L 247.398438 435.730469 L 252.199219 423.621094 L 256.988281 410.011719 L 261.789063 402.441406 L 269.78125 388.820313 L 279.378906 381.261719 L 287.371094 376.71875 L 301.761719 367.640625 L 314.550781 363.109375 L 328.941406 355.539063 L 351.328125 346.460938 L 368.921875 338.898438 L 386.5 325.28125 L 405.691406 316.199219 L 423.28125 308.640625 L 431.269531 299.558594 L 440.871094 295.019531 L 445.660156 292 L 450.460938 287.460938 L 450.460938 273.839844 L 445.660156 270.820313 L 445.660156 261.738281 L 440.871094 257.199219 L 440.871094 248.121094 L 436.070313 245.101563 L 436.070313 240.558594 L 431.269531 231.480469 L 431.269531 223.910156 L 428.070313 214.839844 L 428.070313 193.660156 L 423.28125 189.121094 L 423.28125 158.859375 L 418.480469 151.289063 L 418.480469 108.929688 L 428.070313 95.320313 L 436.070313 83.210938 L 450.460938 69.601563 L 468.050781 57.488281 L 485.628906 48.410156 L 508.019531 45.390625 L 535.199219 48.410156 L 552.789063 57.488281 L 570.378906 69.601563 L 584.769531 83.210938 L 594.359375 95.320313 L 602.351563 108.929688 L 602.351563 142.21875 L 597.558594 151.289063 L 597.558594 189.121094 L 594.359375 193.660156 L 594.359375 214.839844 L 589.558594 223.910156 L 589.558594 231.480469 L 584.769531 240.558594 L 584.769531 245.101563 L 579.96875 248.121094 L 579.96875 257.199219 L 575.171875 261.738281 L 575.171875 270.820313 L 570.378906 273.839844 L 570.378906 287.460938 L 575.171875 292 L 579.96875 295.019531 L 584.769531 299.558594 L 597.558594 308.640625 L 616.738281 316.199219 L 634.328125 325.28125 L 651.921875 338.898438 L 669.511719 346.460938 L 688.691406 355.539063 L 706.28125 363.109375 L 719.070313 367.640625 L 733.460938 376.71875 L 741.460938 381.261719 L 751.050781 388.820313 L 759.050781 402.441406 L 763.839844 410.011719 L 768.640625 423.621094 L 773.441406 435.730469 L 783.03125 452.371094 L 795.820313 482.628906 L 808.609375 517.421875 L 827.800781 555.25 L 845.390625 588.53125 L 862.96875 623.328125 L 877.359375 644.511719 L 885.359375 661.148438 L 890.148438 665.691406 L 894.949219 674.769531 L 899.75 682.328125 L 902.949219 686.871094 L 907.738281 695.949219 L 912.539063 698.980469 L 912.539063 712.589844 L 917.339844 721.671875 L 917.339844 729.238281 L 922.128906 733.769531 L 922.128906 742.851563 L 925.328125 745.878906 L 930.128906 750.421875 L 934.921875 754.960938 L 944.519531 759.488281 L 957.308594 771.601563 L 971.699219 789.75 L 984.488281 801.859375 L 1002.078125 818.5 L 1016.46875 835.140625 L 1029.261719 844.21875 L 1034.058594 853.300781 L 1042.050781 860.859375 L 1046.851563 865.398438 L 1046.851563 869.941406 L 1051.640625 874.480469 L 1056.441406 882.039063 L 1056.441406 907.761719 L 1061.238281 912.300781 L 1061.238281 921.378906 L 1066.03125 925.921875 L 1066.03125 942.558594 L 1061.238281 947.101563 L 1061.238281 950.121094 L 1056.441406 954.660156 L 1051.640625 959.199219 L 1042.050781 963.738281 L 1038.851563 963.738281 L 1024.460938 968.28125 L 1016.46875 971.308594 L 994.078125 971.308594 L 979.691406 968.28125 L 971.699219 959.199219 L 962.109375 950.121094 L 947.71875 938.019531 L 939.71875 925.921875 L 925.328125 912.300781 L 917.339844 900.199219 L 907.738281 886.578125 L 899.75 879.019531 L 890.148438 869.941406 L 885.359375 865.398438 L 885.359375 860.859375 L 880.558594 857.839844 L 880.558594 835.140625 L 877.359375 832.121094 L 877.359375 823.039063 L 872.570313 818.5 L 867.769531 813.960938 L 862.96875 810.929688 L 858.179688 806.398438 L 850.179688 797.320313 L 840.589844 789.75 L 831 780.679688 L 823 771.601563 L 813.410156 764.03125 L 808.609375 754.960938 L 800.621094 750.421875 L 800.621094 745.878906 L 795.820313 742.851563 L 791.019531 738.308594 L 786.230469 733.769531 L 783.03125 729.238281 L 778.230469 721.671875 L 773.441406 717.128906 L 773.441406 708.050781 L 768.640625 703.519531 L 768.640625 698.980469 L 763.839844 695.949219 L 763.839844 686.871094 L 759.050781 682.328125 L 755.851563 674.769531 L 751.050781 665.691406 L 741.460938 661.148438 L 733.460938 653.589844 L 723.871094 649.050781 L 701.488281 649.050781 L 691.890625 653.589844 L 683.898438 661.148438 L 674.300781 674.769531 L 669.511719 682.328125 L 664.710938 686.871094 L 661.511719 695.949219 L 656.71875 703.519531 L 651.921875 712.589844 L 651.921875 729.238281 L 656.71875 750.421875 L 664.710938 785.210938 L 679.101563 827.578125 L 691.890625 874.480469 L 706.28125 925.921875 L 714.28125 971.308594 L 723.871094 1010.640625 L 733.460938 1039.390625 L 733.460938 1069.648438 L 741.460938 1112.011719 L 746.25 1158.910156 L 755.851563 1210.351563 L 759.050781 1261.789063 L 763.839844 1308.691406 L 768.640625 1351.050781 L 763.839844 1379.800781 L 759.050781 1400.980469 L 759.050781 1447.878906 L 763.839844 1461.5 L 768.640625 1469.058594 L 768.640625 1482.679688 L 773.441406 1494.78125 L 778.230469 1512.941406 L 783.03125 1537.140625 L 786.230469 1571.941406 L 791.019531 1605.230469 L 795.820313 1644.558594 L 795.820313 1677.851563 L 800.621094 1708.109375 L 800.621094 1745.929688 L 795.820313 1762.570313 L 795.820313 1780.730469 L 800.621094 1792.828125 L 800.621094 1809.46875 L 805.410156 1827.628906 L 813.410156 1844.269531 L 823 1860.910156 L 831 1874.53125 L 835.789063 1886.628906 L 840.589844 1895.710938 L 845.390625 1898.738281 L 845.390625 1903.28125 L 850.179688 1912.351563 L 850.179688 1933.53125 L 845.390625 1938.070313 L 723.871094 1938.070313 L 719.070313 1933.53125 L 714.28125 1929 L 714.28125 1898.738281 L 719.070313 1895.710938 L 719.070313 1886.628906 L 723.871094 1882.089844 L 723.871094 1877.558594 L 719.070313 1874.53125 L 714.28125 1865.449219 L 714.28125 1860.910156 L 711.078125 1856.371094 L 711.078125 1783.75 L 706.28125 1776.191406 L 706.28125 1762.570313 L 701.488281 1750.46875 L 696.691406 1738.371094 L 688.691406 1715.671875 L 679.101563 1691.460938 L 669.511719 1656.671875 L 661.511719 1623.378906 L 651.921875 1588.578125 L 642.328125 1555.300781 L 639.128906 1525.039063 L 639.128906 1482.679688 L 634.328125 1466.039063 L 634.328125 1447.878906 L 629.539063 1435.78125 L 624.738281 1419.140625 L 619.941406 1405.519531 L 616.738281 1393.421875 L 611.949219 1379.800781 L 607.148438 1367.699219 L 602.351563 1346.511719 L 594.359375 1320.789063 L 589.558594 1290.539063 L 579.96875 1264.820313 L 570.378906 1240.609375 L 567.179688 1222.449219 L 562.378906 1210.351563 L 557.589844 1201.269531 L 552.789063 1193.710938 L 552.789063 1189.171875 L 547.988281 1184.628906 L 544.789063 1180.089844 L 540 1175.550781 "/>
<path style="fill:none;stroke-width:93.3905;stroke-linecap:round;stroke-linejoin:round;stroke:rgb(0%,0%,0%);stroke-opacity:1;stroke-miterlimit:10;" d="M 5080.195313 6996.484375 L 5032.1875 6875.507813 L 4952.304688 6663.710938 L 4904.296875 6406.484375 L 4808.398438 6149.296875 L 4760.390625 5846.71875 L 4680.507813 5589.492188 L 4632.5 5377.695313 L 4584.492188 5256.601563 L 4536.601563 5120.507813 L 4504.609375 4999.414063 L 4456.601563 4878.398438 L 4408.710938 4742.1875 L 4360.703125 4575.78125 L 4360.703125 4409.414063 L 4312.695313 4227.8125 L 4312.695313 3804.21875 L 4280.703125 3516.71875 L 4184.804688 3168.789063 L 4088.90625 2835.898438 L 4008.90625 2487.890625 L 3865 2185.390625 L 3817.109375 1897.890625 L 3737.109375 1716.289063 L 3689.21875 1549.882813 L 3641.210938 1428.90625 L 3641.210938 1292.695313 L 3593.203125 1217.109375 L 3593.203125 490.898438 L 3561.210938 445.507813 L 3561.210938 400.117188 L 3513.28125 354.6875 L 3513.28125 324.414063 L 3465.3125 279.101563 L 3465.3125 233.710938 L 3513.28125 188.320313 L 3513.28125 67.1875 L 3561.210938 -23.515625 L 3561.210938 -235.3125 L 3513.28125 -280.703125 L 3465.3125 -280.703125 L 3417.304688 -326.09375 L 2250.195313 -326.09375 L 2202.1875 -280.703125 L 2202.1875 -23.515625 L 2250.195313 21.914063 L 2250.195313 67.1875 L 2298.085938 112.617188 L 2346.09375 188.320313 L 2394.101563 324.414063 L 2473.984375 490.898438 L 2569.882813 657.304688 L 2649.882813 793.515625 L 2697.8125 959.882813 L 2697.8125 1126.289063 L 2745.78125 1262.5 L 2745.78125 1428.90625 L 2697.8125 1595.3125 L 2697.8125 2276.09375 L 2745.78125 2624.101563 L 2793.789063 3002.304688 L 2841.71875 3380.585938 L 2873.710938 3683.203125 L 2921.71875 3940.390625 L 2969.6875 4106.796875 L 2969.6875 4227.8125 L 3017.617188 4363.984375 L 3065.585938 4485 L 3113.59375 4575.78125 L 3113.59375 5090.195313 L 3065.585938 5301.992188 L 3017.617188 5589.492188 L 3065.585938 5982.8125 L 3113.59375 6451.796875 L 3145.507813 6951.09375 L 3241.484375 7465.507813 L 3289.414063 7979.882813 L 3369.414063 8358.085938 L 3369.414063 8660.703125 L 3417.304688 8948.203125 L 3561.210938 9386.914063 L 3641.210938 9840.78125 L 3785.117188 10309.804688 L 3913.007813 10778.789063 L 4056.914063 11247.890625 L 4136.796875 11550.390625 L 4184.804688 11762.304688 L 4184.804688 11974.101563 L 4136.796875 12064.804688 L 4088.90625 12110.195313 L 4056.914063 12185.898438 L 4008.90625 12276.71875 L 3913.007813 12352.304688 L 3865 12443.085938 L 3785.117188 12533.90625 L 3689.21875 12564.101563 L 3465.3125 12564.101563 L 3369.414063 12533.90625 L 3289.414063 12488.515625 L 3193.515625 12397.695313 L 3145.507813 12321.992188 L 3113.59375 12276.71875 L 3065.585938 12185.898438 L 3065.585938 12140.507813 L 3017.617188 12110.195313 L 3017.617188 12019.492188 L 2969.6875 11974.101563 L 2969.6875 11883.28125 L 2921.71875 11853.007813 L 2873.710938 11807.617188 L 2841.71875 11762.304688 L 2793.789063 11671.484375 L 2745.78125 11641.210938 L 2697.8125 11595.78125 L 2649.882813 11550.390625 L 2617.890625 11505.117188 L 2569.882813 11429.414063 L 2473.984375 11338.59375 L 2394.101563 11247.890625 L 2298.085938 11172.1875 L 2202.1875 11081.40625 L 2122.1875 11036.015625 L 2074.296875 10960.390625 L 1978.28125 10915 L 1978.28125 10869.609375 L 1930.390625 10869.609375 L 1930.390625 10778.789063 L 1898.398438 10748.59375 L 1898.398438 10521.601563 L 1850.390625 10491.40625 L 1850.390625 10446.015625 L 1802.5 10400.585938 L 1754.492188 10355.195313 L 1706.484375 10279.609375 L 1626.601563 10188.789063 L 1530.703125 10067.8125 L 1450.703125 9931.601563 L 1306.796875 9810.585938 L 1226.914063 9674.414063 L 1083.007813 9553.398438 L 986.992188 9462.617188 L 907.109375 9386.914063 L 763.203125 9341.601563 L 539.296875 9341.601563 L 459.414063 9386.914063 L 315.507813 9417.1875 L 235.507813 9462.617188 L 187.617188 9508.007813 L 139.609375 9553.398438 L 91.601563 9553.398438 L 91.601563 9598.789063 L 59.6875 9628.984375 L 59.6875 9810.585938 L 91.601563 9840.78125 L 91.601563 9931.601563 L 139.609375 9976.992188 L 139.609375 10279.609375 L 187.617188 10309.804688 L 187.617188 10355.195313 L 235.507813 10400.585938 L 283.515625 10491.40625 L 363.515625 10521.601563 L 411.40625 10612.382813 L 539.296875 10748.59375 L 683.203125 10869.609375 L 859.101563 11036.015625 L 986.992188 11202.5 L 1130.898438 11338.59375 L 1258.789063 11459.6875 L 1354.804688 11505.117188 L 1402.695313 11595.78125 L 1450.703125 11641.210938 L 1482.695313 11671.484375 L 1482.695313 11716.914063 L 1530.703125 11762.304688 L 1530.703125 11883.28125 L 1578.59375 11928.710938 L 1578.59375 12064.804688 L 1626.601563 12140.507813 L 1674.609375 12185.898438 L 1674.609375 12276.71875 L 1706.484375 12321.992188 L 1802.5 12397.695313 L 1850.390625 12488.515625 L 1898.398438 12609.492188 L 1978.28125 12866.71875 L 2074.296875 13169.296875 L 2170.195313 13547.5 L 2250.195313 13925.78125 L 2346.09375 14273.710938 L 2394.101563 14576.289063 L 2473.984375 14742.695313 L 2521.992188 14863.789063 L 2569.882813 14999.882813 L 2617.890625 15075.585938 L 2697.8125 15211.796875 L 2793.789063 15287.382813 L 2873.710938 15332.8125 L 3017.617188 15423.59375 L 3145.507813 15468.90625 L 3289.414063 15544.609375 L 3513.28125 15635.390625 L 3689.21875 15711.015625 L 3865 15847.1875 L 4056.914063 15938.007813 L 4232.8125 16013.59375 L 4312.695313 16104.414063 L 4408.710938 16149.804688 L 4456.601563 16180 L 4504.609375 16225.390625 L 4504.609375 16361.601563 L 4456.601563 16391.796875 L 4456.601563 16482.617188 L 4408.710938 16528.007813 L 4408.710938 16618.789063 L 4360.703125 16648.984375 L 4360.703125 16694.414063 L 4312.695313 16785.195313 L 4312.695313 16860.898438 L 4280.703125 16951.601563 L 4280.703125 17163.398438 L 4232.8125 17208.789063 L 4232.8125 17511.40625 L 4184.804688 17587.109375 L 4184.804688 18010.703125 L 4280.703125 18146.796875 L 4360.703125 18267.890625 L 4504.609375 18403.984375 L 4680.507813 18525.117188 L 4856.289063 18615.898438 L 5080.195313 18646.09375 L 5351.992188 18615.898438 L 5527.890625 18525.117188 L 5703.789063 18403.984375 L 5847.695313 18267.890625 L 5943.59375 18146.796875 L 6023.515625 18010.703125 L 6023.515625 17677.8125 L 5975.585938 17587.109375 L 5975.585938 17208.789063 L 5943.59375 17163.398438 L 5943.59375 16951.601563 L 5895.585938 16860.898438 L 5895.585938 16785.195313 L 5847.695313 16694.414063 L 5847.695313 16648.984375 L 5799.6875 16618.789063 L 5799.6875 16528.007813 L 5751.71875 16482.617188 L 5751.71875 16391.796875 L 5703.789063 16361.601563 L 5703.789063 16225.390625 L 5751.71875 16180 L 5799.6875 16149.804688 L 5847.695313 16104.414063 L 5975.585938 16013.59375 L 6167.382813 15938.007813 L 6343.28125 15847.1875 L 6519.21875 15711.015625 L 6695.117188 15635.390625 L 6886.914063 15544.609375 L 7062.8125 15468.90625 L 7190.703125 15423.59375 L 7334.609375 15332.8125 L 7414.609375 15287.382813 L 7510.507813 15211.796875 L 7590.507813 15075.585938 L 7638.398438 14999.882813 L 7686.40625 14863.789063 L 7734.414063 14742.695313 L 7830.3125 14576.289063 L 7958.203125 14273.710938 L 8086.09375 13925.78125 L 8278.007813 13547.5 L 8453.90625 13214.6875 L 8629.6875 12866.71875 L 8773.59375 12654.882813 L 8853.59375 12488.515625 L 8901.484375 12443.085938 L 8949.492188 12352.304688 L 8997.5 12276.71875 L 9029.492188 12231.289063 L 9077.382813 12140.507813 L 9125.390625 12110.195313 L 9125.390625 11974.101563 L 9173.398438 11883.28125 L 9173.398438 11807.617188 L 9221.289063 11762.304688 L 9221.289063 11671.484375 L 9253.28125 11641.210938 L 9301.289063 11595.78125 L 9349.21875 11550.390625 L 9445.195313 11505.117188 L 9573.085938 11383.984375 L 9716.992188 11202.5 L 9844.882813 11081.40625 L 10020.78125 10915 L 10164.6875 10748.59375 L 10292.617188 10657.8125 L 10340.585938 10566.992188 L 10420.507813 10491.40625 L 10468.515625 10446.015625 L 10468.515625 10400.585938 L 10516.40625 10355.195313 L 10564.414063 10279.609375 L 10564.414063 10022.382813 L 10612.382813 9976.992188 L 10612.382813 9886.210938 L 10660.3125 9840.78125 L 10660.3125 9674.414063 L 10612.382813 9628.984375 L 10612.382813 9598.789063 L 10564.414063 9553.398438 L 10516.40625 9508.007813 L 10420.507813 9462.617188 L 10388.515625 9462.617188 L 10244.609375 9417.1875 L 10164.6875 9386.914063 L 9940.78125 9386.914063 L 9796.914063 9417.1875 L 9716.992188 9508.007813 L 9621.09375 9598.789063 L 9477.1875 9719.804688 L 9397.1875 9840.78125 L 9253.28125 9976.992188 L 9173.398438 10098.007813 L 9077.382813 10234.21875 L 8997.5 10309.804688 L 8901.484375 10400.585938 L 8853.59375 10446.015625 L 8853.59375 10491.40625 L 8805.585938 10521.601563 L 8805.585938 10748.59375 L 8773.59375 10778.789063 L 8773.59375 10869.609375 L 8725.703125 10915 L 8677.695313 10960.390625 L 8629.6875 10990.703125 L 8581.796875 11036.015625 L 8501.796875 11126.796875 L 8405.898438 11202.5 L 8310 11293.203125 L 8230 11383.984375 L 8134.101563 11459.6875 L 8086.09375 11550.390625 L 8006.210938 11595.78125 L 8006.210938 11641.210938 L 7958.203125 11671.484375 L 7910.195313 11716.914063 L 7862.304688 11762.304688 L 7830.3125 11807.617188 L 7782.304688 11883.28125 L 7734.414063 11928.710938 L 7734.414063 12019.492188 L 7686.40625 12064.804688 L 7686.40625 12110.195313 L 7638.398438 12140.507813 L 7638.398438 12231.289063 L 7590.507813 12276.71875 L 7558.515625 12352.304688 L 7510.507813 12443.085938 L 7414.609375 12488.515625 L 7334.609375 12564.101563 L 7238.710938 12609.492188 L 7014.882813 12609.492188 L 6918.90625 12564.101563 L 6838.984375 12488.515625 L 6743.007813 12352.304688 L 6695.117188 12276.71875 L 6647.109375 12231.289063 L 6615.117188 12140.507813 L 6567.1875 12064.804688 L 6519.21875 11974.101563 L 6519.21875 11807.617188 L 6567.1875 11595.78125 L 6647.109375 11247.890625 L 6791.015625 10824.21875 L 6918.90625 10355.195313 L 7062.8125 9840.78125 L 7142.8125 9386.914063 L 7238.710938 8993.59375 L 7334.609375 8706.09375 L 7334.609375 8403.515625 L 7414.609375 7979.882813 L 7462.5 7510.898438 L 7558.515625 6996.484375 L 7590.507813 6482.109375 L 7638.398438 6013.085938 L 7686.40625 5589.492188 L 7638.398438 5301.992188 L 7590.507813 5090.195313 L 7590.507813 4621.210938 L 7638.398438 4485 L 7686.40625 4409.414063 L 7686.40625 4273.203125 L 7734.414063 4152.1875 L 7782.304688 3970.585938 L 7830.3125 3728.59375 L 7862.304688 3380.585938 L 7910.195313 3047.695313 L 7958.203125 2654.414063 L 7958.203125 2321.484375 L 8006.210938 2018.90625 L 8006.210938 1640.703125 L 7958.203125 1474.296875 L 7958.203125 1292.695313 L 8006.210938 1171.71875 L 8006.210938 1005.3125 L 8054.101563 823.710938 L 8134.101563 657.304688 L 8230 490.898438 L 8310 354.6875 L 8357.890625 233.710938 L 8405.898438 142.890625 L 8453.90625 112.617188 L 8453.90625 67.1875 L 8501.796875 -23.515625 L 8501.796875 -235.3125 L 8453.90625 -280.703125 L 7238.710938 -280.703125 L 7190.703125 -235.3125 L 7142.8125 -190 L 7142.8125 112.617188 L 7190.703125 142.890625 L 7190.703125 233.710938 L 7238.710938 279.101563 L 7238.710938 324.414063 L 7190.703125 354.6875 L 7142.8125 445.507813 L 7142.8125 490.898438 L 7110.78125 536.289063 L 7110.78125 1262.5 L 7062.8125 1338.085938 L 7062.8125 1474.296875 L 7014.882813 1595.3125 L 6966.914063 1716.289063 L 6886.914063 1943.28125 L 6791.015625 2185.390625 L 6695.117188 2533.28125 L 6615.117188 2866.210938 L 6519.21875 3214.21875 L 6423.28125 3546.992188 L 6391.289063 3849.609375 L 6391.289063 4273.203125 L 6343.28125 4439.609375 L 6343.28125 4621.210938 L 6295.390625 4742.1875 L 6247.382813 4908.59375 L 6199.414063 5044.804688 L 6167.382813 5165.78125 L 6119.492188 5301.992188 L 6071.484375 5423.007813 L 6023.515625 5634.882813 L 5943.59375 5892.109375 L 5895.585938 6194.609375 L 5799.6875 6451.796875 L 5703.789063 6693.90625 L 5671.796875 6875.507813 L 5623.789063 6996.484375 L 5575.898438 7087.304688 L 5527.890625 7162.890625 L 5527.890625 7208.28125 L 5479.882813 7253.710938 L 5447.890625 7299.101563 L 5400 7344.492188 Z M 5080.195313 6996.484375 " transform="matrix(0.1,0,0,-0.1,0,1910)"/>
</g>
</svg>
