<?xml version="1.0" encoding="UTF-8"?>
<svg xmlns="http://www.w3.org/2000/svg" xmlns:xlink="http://www.w3.org/1999/xlink" width="161pt" height="220pt" viewBox="0 0 161 220" version="1.1">
<g id="surface1">
<path style=" stroke:none;fill-rule:evenodd;fill:rgb(100%,100%,100%);fill-opacity:1;" d="M 42.339844 107.488281 L 42.199219 107.089844 L 42.199219 106.679688 L 42.339844 106.269531 L 42.339844 105.058594 L 42.46875 104.648438 L 42.46875 103.699219 L 42.75 103.300781 L 42.878906 103.03125 L 42.878906 102.621094 L 43.019531 102.078125 L 43.019531 101.671875 L 43.289063 101.269531 L 43.417969 100.859375 L 43.417969 100.589844 L 43.691406 100.179688 L 43.832031 99.640625 L 43.960938 99.230469 L 43.960938 98.828125 L 44.230469 98.558594 L 44.371094 98.148438 L 44.5 97.75 L 44.5 97.339844 L 44.78125 97.070313 L 44.910156 96.660156 L 44.910156 96.261719 L 45.179688 95.710938 L 45.179688 95.308594 L 45.320313 94.898438 L 45.449219 94.628906 L 45.449219 94.089844 L 45.71875 93.679688 L 45.71875 93.28125 L 45.859375 92.871094 L 45.859375 92.738281 L 45.988281 92.328125 L 45.988281 92.191406 L 46.261719 91.921875 L 46.398438 91.648438 L 46.398438 91.378906 L 46.667969 91.25 L 46.667969 90.980469 L 46.808594 90.839844 L 46.941406 90.839844 L 46.941406 90.710938 L 47.210938 90.710938 L 47.351563 90.429688 L 47.75 90.429688 L 47.890625 90.710938 L 48.160156 90.710938 L 48.429688 90.980469 L 48.832031 91.25 L 48.96875 91.378906 L 49.238281 91.648438 L 49.378906 91.921875 L 49.78125 92.191406 L 49.917969 92.46875 L 50.320313 92.871094 L 50.460938 93.410156 L 50.730469 93.820313 L 51.140625 94.359375 L 51.269531 94.769531 L 51.410156 95.308594 L 51.679688 95.710938 L 51.808594 96.261719 L 51.949219 96.800781 L 52.21875 97.199219 L 52.351563 97.75 L 52.621094 98.289063 L 52.761719 98.691406 L 52.761719 99.230469 L 52.890625 99.78125 L 52.890625 100.179688 L 53.167969 100.71875 L 53.167969 101.269531 L 53.300781 101.671875 L 53.300781 102.210938 L 53.441406 102.621094 L 53.441406 103.570313 L 53.710938 104.109375 L 53.710938 107.488281 L 53.980469 107.628906 L 53.710938 108.03125 L 53.710938 110.46875 L 53.441406 110.738281 L 53.441406 111.550781 L 53.300781 111.960938 L 53.300781 112.371094 L 53.167969 112.5 L 53.167969 112.910156 L 52.890625 113.179688 L 52.761719 113.578125 L 52.621094 113.988281 L 52.351563 114.128906 L 52.21875 114.53125 L 51.949219 114.671875 L 51.808594 115.070313 L 51.679688 115.339844 L 51.410156 115.480469 L 51.269531 115.621094 L 50.859375 115.890625 L 50.730469 116.019531 L 50.320313 116.160156 L 49.917969 116.160156 L 49.78125 116.558594 L 47.210938 116.558594 L 46.808594 116.160156 L 46.398438 116.160156 L 46.261719 116.019531 L 45.859375 115.890625 L 45.71875 115.890625 L 45.320313 115.621094 L 45.179688 115.480469 L 44.78125 115.070313 L 44.5 114.941406 L 44.371094 114.671875 L 44.230469 114.53125 L 43.960938 114.128906 L 43.832031 113.988281 L 43.691406 113.578125 L 43.417969 113.179688 L 43.289063 112.910156 L 43.019531 112.5 L 42.878906 112.101563 L 42.878906 111.691406 L 42.75 111.421875 L 42.75 111.011719 L 42.46875 110.46875 L 42.46875 110.058594 L 42.339844 109.519531 L 42.339844 107.488281 "/>
<path style=" stroke:none;fill-rule:evenodd;fill:rgb(0%,0%,0%);fill-opacity:1;" d="M 91.460938 228.929688 L 70.082031 228.929688 L 72.25 14.621094 L 80.769531 8.941406 L 89.300781 14.621094 L 91.460938 228.929688 "/>
<path style=" stroke:none;fill-rule:nonzero;fill:rgb(0%,0%,0%);fill-opacity:1;" d="M 161.148438 119.140625 L 161.148438 121.300781 L -0.289063 121.300781 L -0.289063 116.96875 L 161.148438 116.96875 L 161.148438 119.140625 "/>
<path style=" stroke:none;fill-rule:nonzero;fill:rgb(0%,0%,0%);fill-opacity:1;" d="M 161.148438 44.949219 L 161.148438 47.109375 L -0.289063 47.109375 L -0.289063 42.78125 L 161.148438 42.78125 L 161.148438 44.949219 "/>
<path style=" stroke:none;fill-rule:evenodd;fill:rgb(0%,0%,0%);fill-opacity:1;" d="M 50.859375 146.351563 L 29.480469 146.351563 L 32.058594 116.699219 L 32.058594 116.019531 L 32.191406 115.339844 L 32.191406 114.671875 L 32.332031 114.128906 L 32.601563 113.578125 L 32.730469 113.039063 L 32.730469 112.5 L 33 111.960938 L 33.269531 111.550781 L 33.539063 111.011719 L 33.679688 110.738281 L 34.082031 110.339844 L 34.21875 109.789063 L 34.488281 109.519531 L 34.761719 109.390625 L 35.167969 108.980469 L 35.441406 108.710938 L 35.710938 108.578125 L 35.980469 108.171875 L 36.390625 108.03125 L 36.660156 107.898438 L 36.929688 107.761719 L 37.332031 107.488281 L 37.601563 107.359375 L 38.011719 107.359375 L 38.28125 107.21875 L 38.550781 107.21875 L 38.960938 107.089844 L 39.769531 107.089844 L 40.167969 106.820313 L 40.441406 107.089844 L 41.261719 107.089844 L 41.660156 107.21875 L 42.070313 107.21875 L 42.339844 107.359375 L 42.609375 107.359375 L 42.878906 107.488281 L 43.289063 107.761719 L 43.691406 107.898438 L 43.832031 108.03125 L 44.230469 108.171875 L 44.5 108.578125 L 44.910156 108.710938 L 45.050781 108.980469 L 45.449219 109.390625 L 45.71875 109.519531 L 45.988281 109.789063 L 46.261719 110.339844 L 46.53125 110.738281 L 46.667969 111.011719 L 46.941406 111.550781 L 47.210938 111.960938 L 47.480469 112.5 L 47.621094 113.039063 L 47.75 113.578125 L 47.890625 114.128906 L 48.019531 114.671875 L 48.019531 115.339844 L 48.160156 116.019531 L 48.289063 116.699219 L 50.859375 146.351563 "/>
<path style=" stroke:none;fill-rule:evenodd;fill:rgb(0%,0%,0%);fill-opacity:1;" d="M 50.859375 72.558594 L 29.480469 72.558594 L 32.058594 42.921875 L 32.058594 42.238281 L 32.191406 41.558594 L 32.191406 40.890625 L 32.332031 40.480469 L 32.601563 39.800781 L 32.730469 39.261719 L 32.730469 38.71875 L 33 38.308594 L 33.539063 37.230469 L 33.679688 36.960938 L 34.082031 36.550781 L 34.21875 36.148438 L 34.488281 35.738281 L 34.761719 35.609375 L 35.167969 35.328125 L 35.441406 34.929688 L 35.710938 34.789063 L 35.980469 34.519531 L 36.390625 34.25 L 36.660156 34.121094 L 36.929688 33.980469 L 37.332031 33.851563 L 37.601563 33.570313 L 38.011719 33.570313 L 38.28125 33.441406 L 38.550781 33.441406 L 38.960938 33.300781 L 39.769531 33.300781 L 40.167969 33.171875 L 40.441406 33.300781 L 41.261719 33.300781 L 41.660156 33.441406 L 42.070313 33.441406 L 42.339844 33.570313 L 42.609375 33.570313 L 42.878906 33.851563 L 43.289063 33.980469 L 43.691406 34.121094 L 43.832031 34.25 L 44.230469 34.519531 L 44.5 34.789063 L 44.910156 34.929688 L 45.050781 35.328125 L 45.449219 35.609375 L 45.71875 35.738281 L 45.988281 36.148438 L 46.261719 36.550781 L 46.53125 36.960938 L 46.941406 37.769531 L 47.210938 38.308594 L 47.480469 38.71875 L 47.621094 39.261719 L 47.75 39.800781 L 47.890625 40.480469 L 48.019531 40.890625 L 48.019531 41.558594 L 48.160156 42.238281 L 48.289063 42.921875 L 50.859375 72.558594 "/>
<path style=" stroke:none;fill-rule:nonzero;fill:rgb(0%,0%,0%);fill-opacity:1;" d="M 118.660156 149.871094 L 123.667969 149.871094 L 123.667969 141.609375 L 118.660156 141.609375 Z M 118.660156 149.871094 "/>
<path style=" stroke:none;fill-rule:nonzero;fill:rgb(0%,0%,0%);fill-opacity:1;" d="M 113.519531 156.910156 L 114.328125 156.910156 L 115.011719 156.640625 L 115.410156 156.640625 L 115.011719 156.769531 L 115.28125 156.640625 L 115.820313 156.089844 L 115.949219 156.089844 L 116.21875 155.960938 L 116.5 155.691406 L 116.898438 155.28125 L 117.171875 155.011719 L 117.308594 154.46875 L 117.578125 154.199219 L 117.710938 153.929688 L 117.851563 153.660156 L 117.980469 153.25 L 118.25 152.570313 L 118.53125 152.300781 L 118.390625 152.441406 L 118.53125 152.03125 L 118.53125 150.140625 L 118.660156 149.871094 L 123.671875 149.871094 L 123.53125 150.808594 L 123.53125 152.03125 L 123.398438 152.441406 L 123.398438 152.980469 L 123.128906 153.929688 L 122.988281 154.46875 L 122.71875 155.691406 L 122.449219 155.960938 L 122.449219 156.371094 L 122.039063 156.910156 L 121.910156 157.308594 L 121.5 158.128906 L 121.230469 158.53125 L 121.101563 158.941406 L 120.558594 159.609375 L 120.28125 160.019531 L 119.878906 160.699219 L 119.46875 160.96875 L 119.199219 161.238281 L 118.660156 161.648438 L 118.25 162.191406 L 117.578125 162.460938 L 117.710938 162.320313 L 117.171875 162.730469 L 116.089844 163.269531 L 115.820313 163.269531 L 115.011719 163.679688 L 113.519531 163.679688 "/>
<path style=" stroke:none;fill-rule:nonzero;fill:rgb(0%,0%,0%);fill-opacity:1;" d="M 48.160156 163.679688 L 113.519531 163.679688 L 113.519531 156.910156 L 48.160156 156.910156 Z M 48.160156 163.679688 "/>
<path style=" stroke:none;fill-rule:nonzero;fill:rgb(0%,0%,0%);fill-opacity:1;" d="M 42.878906 149.871094 L 42.878906 150.949219 L 43.019531 151.488281 L 43.019531 152.03125 L 43.148438 152.441406 L 43.019531 152.300781 L 43.289063 152.570313 L 43.558594 153.25 L 43.691406 153.660156 L 43.691406 153.929688 L 43.832031 154.199219 L 44.101563 154.46875 L 44.371094 155.011719 L 45.050781 155.691406 L 45.050781 155.820313 L 45.320313 155.960938 L 45.589844 156.371094 L 45.449219 156.089844 L 46.261719 156.5 L 46.53125 156.769531 L 46.261719 156.640625 L 46.53125 156.640625 L 47.351563 156.910156 L 48.160156 156.910156 L 48.160156 163.679688 L 46.53125 163.679688 L 45.859375 163.269531 L 45.449219 163.269531 L 44.371094 162.730469 L 43.960938 162.460938 L 43.148438 161.917969 L 42.878906 161.648438 L 42.46875 161.511719 L 42.070313 160.96875 L 41.660156 160.699219 L 41.121094 160.019531 L 40.988281 159.609375 L 40.441406 158.941406 L 40.167969 158.53125 L 39.898438 158.128906 L 39.628906 157.308594 L 39.5 156.910156 L 39.089844 156.371094 L 39.089844 155.960938 L 38.820313 155.691406 L 38.417969 154.46875 L 38.28125 153.929688 L 38.140625 152.980469 L 38.140625 152.441406 L 38.011719 152.03125 L 38.011719 149.871094 "/>
<path style=" stroke:none;fill-rule:nonzero;fill:rgb(0%,0%,0%);fill-opacity:1;" d="M 40.441406 141.609375 L 42.878906 141.609375 L 42.878906 149.871094 L 38.011719 149.871094 L 38.011719 141.609375 L 40.441406 141.609375 "/>
<path style=" stroke:none;fill-rule:evenodd;fill:rgb(0%,0%,0%);fill-opacity:1;" d="M 110.679688 146.351563 L 132.191406 146.351563 L 129.488281 116.699219 L 129.488281 116.019531 L 129.351563 115.339844 L 129.351563 114.671875 L 129.21875 114.128906 L 128.941406 113.578125 L 128.808594 113.039063 L 128.671875 112.5 L 128.398438 111.960938 L 128.128906 111.550781 L 128 111.011719 L 127.859375 110.738281 L 127.460938 110.339844 L 127.191406 109.789063 L 126.921875 109.519531 L 126.78125 109.390625 L 126.101563 108.710938 L 125.699219 108.578125 L 125.429688 108.171875 L 125.160156 108.03125 L 124.890625 107.898438 L 124.480469 107.761719 L 124.070313 107.488281 L 123.941406 107.359375 L 123.53125 107.359375 L 123.261719 107.21875 L 122.859375 107.21875 L 122.578125 107.089844 L 121.640625 107.089844 L 121.371094 106.820313 L 121.101563 107.089844 L 120.148438 107.089844 L 119.878906 107.21875 L 119.46875 107.21875 L 119.199219 107.359375 L 118.800781 107.359375 L 118.53125 107.488281 L 118.25 107.761719 L 117.851563 107.898438 L 117.441406 108.03125 L 117.171875 108.171875 L 116.898438 108.578125 L 116.628906 108.710938 L 116.21875 108.980469 L 115.949219 109.390625 L 115.820313 109.519531 L 115.410156 109.789063 L 115.140625 110.339844 L 114.871094 110.738281 L 114.601563 111.011719 L 114.46875 111.550781 L 114.328125 111.960938 L 114.058594 112.5 L 113.921875 113.039063 L 113.648438 113.578125 L 113.519531 114.128906 L 113.378906 114.671875 L 113.25 115.339844 L 113.25 116.699219 L 110.679688 146.351563 "/>
<path style=" stroke:none;fill-rule:nonzero;fill:rgb(0%,0%,0%);fill-opacity:1;" d="M 118.660156 76.078125 L 123.667969 76.078125 L 123.667969 67.960938 L 118.660156 67.960938 Z M 118.660156 76.078125 "/>
<path style=" stroke:none;fill-rule:nonzero;fill:rgb(0%,0%,0%);fill-opacity:1;" d="M 113.519531 83.261719 L 114.328125 83.261719 L 115.011719 82.851563 L 115.410156 82.851563 L 115.011719 83.121094 L 115.28125 82.851563 L 115.820313 82.449219 L 115.949219 82.449219 L 116.21875 82.179688 L 116.5 81.910156 L 116.898438 81.5 L 117.171875 81.230469 L 117.308594 80.691406 L 117.578125 80.421875 L 117.710938 80.28125 L 117.851563 79.871094 L 117.980469 79.601563 L 118.25 78.929688 L 118.53125 78.519531 L 118.390625 78.789063 L 118.53125 78.25 L 118.53125 76.351563 L 118.660156 76.078125 L 123.671875 76.078125 L 123.53125 77.03125 L 123.53125 78.25 L 123.398438 78.789063 L 123.398438 79.199219 L 123.128906 80.28125 L 122.988281 80.691406 L 122.71875 81.910156 L 122.449219 82.179688 L 122.449219 82.578125 L 122.039063 83.261719 L 121.910156 83.53125 L 121.5 84.339844 L 121.230469 84.75 L 121.101563 85.289063 L 120.558594 85.828125 L 120.28125 86.238281 L 119.878906 86.910156 L 119.46875 87.191406 L 119.199219 87.589844 L 118.660156 87.859375 L 118.25 88.398438 L 117.578125 88.671875 L 117.710938 88.539063 L 117.171875 89.078125 L 116.089844 89.488281 L 115.820313 89.488281 L 115.011719 89.890625 L 113.519531 89.890625 "/>
<path style=" stroke:none;fill-rule:nonzero;fill:rgb(0%,0%,0%);fill-opacity:1;" d="M 48.160156 89.890625 L 113.519531 89.890625 L 113.519531 83.261719 L 48.160156 83.261719 Z M 48.160156 89.890625 "/>
<path style=" stroke:none;fill-rule:nonzero;fill:rgb(0%,0%,0%);fill-opacity:1;" d="M 42.878906 76.078125 L 42.878906 77.171875 L 43.019531 77.710938 L 43.019531 78.25 L 43.148438 78.789063 L 43.019531 78.519531 L 43.289063 78.929688 L 43.558594 79.601563 L 43.691406 79.871094 L 43.691406 80.28125 L 44.101563 80.691406 L 44.371094 81.230469 L 45.050781 81.910156 L 45.050781 82.039063 L 45.320313 82.179688 L 45.589844 82.578125 L 45.449219 82.449219 L 46.261719 82.71875 L 46.53125 83.121094 L 46.261719 82.851563 L 46.53125 82.851563 L 47.351563 83.261719 L 48.160156 83.261719 L 48.160156 89.890625 L 46.53125 89.890625 L 45.859375 89.488281 L 45.449219 89.488281 L 44.371094 89.078125 L 43.960938 88.671875 L 43.148438 88.269531 L 42.878906 87.859375 L 42.46875 87.730469 L 42.070313 87.191406 L 41.660156 86.910156 L 41.121094 86.238281 L 40.988281 85.828125 L 40.441406 85.289063 L 40.167969 84.75 L 39.898438 84.339844 L 39.628906 83.53125 L 39.5 83.261719 L 39.089844 82.578125 L 39.089844 82.179688 L 38.820313 81.910156 L 38.417969 80.691406 L 38.28125 80.28125 L 38.140625 79.199219 L 38.140625 78.789063 L 38.011719 78.25 L 38.011719 76.078125 "/>
<path style=" stroke:none;fill-rule:nonzero;fill:rgb(0%,0%,0%);fill-opacity:1;" d="M 40.441406 67.960938 L 42.878906 67.960938 L 42.878906 76.078125 L 38.011719 76.078125 L 38.011719 67.960938 L 40.441406 67.960938 "/>
<path style=" stroke:none;fill-rule:evenodd;fill:rgb(0%,0%,0%);fill-opacity:1;" d="M 110.679688 72.558594 L 132.191406 72.558594 L 129.488281 42.921875 L 129.488281 42.238281 L 129.351563 41.558594 L 129.351563 40.890625 L 129.21875 40.480469 L 128.941406 39.800781 L 128.808594 39.261719 L 128.671875 38.71875 L 128.398438 38.308594 L 128.128906 37.769531 L 128 37.230469 L 127.859375 36.960938 L 127.460938 36.550781 L 127.191406 36.148438 L 126.921875 35.738281 L 126.78125 35.609375 L 126.371094 35.328125 L 126.101563 34.929688 L 125.699219 34.789063 L 125.160156 34.25 L 124.890625 34.121094 L 124.480469 33.980469 L 124.070313 33.851563 L 123.941406 33.570313 L 123.53125 33.570313 L 123.261719 33.441406 L 122.859375 33.441406 L 122.578125 33.300781 L 121.640625 33.300781 L 121.371094 33.171875 L 121.101563 33.300781 L 120.148438 33.300781 L 119.878906 33.441406 L 119.46875 33.441406 L 119.199219 33.570313 L 118.800781 33.570313 L 118.53125 33.851563 L 118.25 33.980469 L 117.851563 34.121094 L 117.441406 34.25 L 117.171875 34.519531 L 116.898438 34.789063 L 116.628906 34.929688 L 116.21875 35.328125 L 115.949219 35.609375 L 115.410156 36.148438 L 115.140625 36.550781 L 114.871094 36.960938 L 114.601563 37.230469 L 114.46875 37.769531 L 114.328125 38.308594 L 114.058594 38.71875 L 113.921875 39.261719 L 113.648438 39.800781 L 113.519531 40.480469 L 113.378906 40.890625 L 113.25 41.558594 L 113.25 42.921875 L 110.679688 72.558594 "/>
</g>
</svg>
