<?xml version="1.0" encoding="UTF-8"?>
<svg xmlns="http://www.w3.org/2000/svg" xmlns:xlink="http://www.w3.org/1999/xlink" width="585pt" height="571pt" viewBox="0 0 585 571" version="1.1">
<g id="surface1">
<path style=" stroke:none;fill-rule:evenodd;fill:rgb(59.959412%,59.568787%,59.568787%);fill-opacity:1;" d="M 254.128906 502.679688 L 330.871094 502.679688 L 330.871094 599.582031 L 254.128906 599.582031 L 254.128906 502.679688 "/>
<path style="fill:none;stroke-width:124.551;stroke-linecap:round;stroke-linejoin:round;stroke:rgb(0.784302%,0.784302%,0.784302%);stroke-opacity:1;stroke-miterlimit:10;" d="M 2541.289063 683.203125 L 3308.710938 683.203125 L 3308.710938 -285.820313 L 2541.289063 -285.820313 Z M 2541.289063 683.203125 " transform="matrix(0.1,0,0,-0.1,0,571)"/>
<path style=" stroke:none;fill-rule:evenodd;fill:rgb(62.693787%,100%,62.693787%);fill-opacity:1;" d="M 577.039063 502.679688 L 7.960938 502.679688 L 110.261719 389.121094 L 57.511719 389.121094 L 147.03125 293.730469 L 100.671875 293.730469 L 187 202.890625 L 137.441406 202.890625 L 290.898438 45.421875 L 447.558594 202.890625 L 393.210938 202.890625 L 484.328125 293.730469 L 437.96875 293.730469 L 527.488281 389.121094 L 473.140625 389.121094 L 577.039063 502.679688 "/>
<path style="fill:none;stroke-width:124.551;stroke-linecap:round;stroke-linejoin:round;stroke:rgb(0.784302%,0.784302%,0.784302%);stroke-opacity:1;stroke-miterlimit:10;" d="M 5770.390625 683.203125 L 79.609375 683.203125 L 1102.617188 1818.789063 L 575.117188 1818.789063 L 1470.3125 2772.695313 L 1006.71875 2772.695313 L 1870 3681.09375 L 1374.414063 3681.09375 L 2908.984375 5255.78125 L 4475.585938 3681.09375 L 3932.109375 3681.09375 L 4843.28125 2772.695313 L 4379.6875 2772.695313 L 5274.882813 1818.789063 L 4731.40625 1818.789063 Z M 5770.390625 683.203125 " transform="matrix(0.1,0,0,-0.1,0,571)"/>
<path style="fill:none;stroke-width:124.551;stroke-linecap:round;stroke-linejoin:round;stroke:rgb(0.784302%,0.784302%,0.784302%);stroke-opacity:1;stroke-miterlimit:10;" d="M 1870 3681.09375 L 3932.109375 3681.09375 " transform="matrix(0.1,0,0,-0.1,0,571)"/>
<path style="fill:none;stroke-width:124.551;stroke-linecap:round;stroke-linejoin:round;stroke:rgb(0.784302%,0.784302%,0.784302%);stroke-opacity:1;stroke-miterlimit:10;" d="M 1470.3125 2772.695313 L 4379.6875 2772.695313 " transform="matrix(0.1,0,0,-0.1,0,571)"/>
<path style="fill:none;stroke-width:124.551;stroke-linecap:round;stroke-linejoin:round;stroke:rgb(0.784302%,0.784302%,0.784302%);stroke-opacity:1;stroke-miterlimit:10;" d="M 1102.617188 1818.789063 L 4731.40625 1818.789063 " transform="matrix(0.1,0,0,-0.1,0,571)"/>
</g>
</svg>
