<?xml version="1.0" encoding="UTF-8"?>
<svg xmlns="http://www.w3.org/2000/svg" xmlns:xlink="http://www.w3.org/1999/xlink" width="506pt" height="489pt" viewBox="0 0 506 489" version="1.1">
<g id="surface1">
<path style=" stroke:none;fill-rule:evenodd;fill:rgb(87.889099%,87.889099%,87.889099%);fill-opacity:1;" d="M 119.398438 49.671875 L 138.351563 49.671875 L 138.351563 44.03125 L 119.398438 44.03125 Z M 119.398438 49.671875 "/>
<path style=" stroke:none;fill-rule:evenodd;fill:rgb(87.889099%,87.889099%,87.889099%);fill-opacity:1;" d="M 138.351563 55.878906 L 157.910156 55.878906 L 157.910156 49.667969 L 138.351563 49.667969 Z M 138.351563 55.878906 "/>
<path style=" stroke:none;fill-rule:evenodd;fill:rgb(87.889099%,87.889099%,87.889099%);fill-opacity:1;" d="M 119.398438 62.089844 L 138.351563 62.089844 L 138.351563 55.878906 L 119.398438 55.878906 Z M 119.398438 62.089844 "/>
<path style=" stroke:none;fill-rule:evenodd;fill:rgb(87.889099%,87.889099%,87.889099%);fill-opacity:1;" d="M 138.351563 68.289063 L 157.910156 68.289063 L 157.910156 62.648438 L 138.351563 62.648438 Z M 138.351563 68.289063 "/>
<path style=" stroke:none;fill-rule:evenodd;fill:rgb(87.889099%,87.889099%,87.889099%);fill-opacity:1;" d="M 119.398438 75.070313 L 138.351563 75.070313 L 138.351563 68.859375 L 119.398438 68.859375 Z M 119.398438 75.070313 "/>
<path style=" stroke:none;fill-rule:evenodd;fill:rgb(87.889099%,87.889099%,87.889099%);fill-opacity:1;" d="M 138.351563 80.148438 L 157.910156 80.148438 L 157.910156 74.511719 L 138.351563 74.511719 Z M 138.351563 80.148438 "/>
<path style=" stroke:none;fill-rule:evenodd;fill:rgb(87.889099%,87.889099%,87.889099%);fill-opacity:1;" d="M 119.398438 86.921875 L 138.351563 86.921875 L 138.351563 81.28125 L 119.398438 81.28125 Z M 119.398438 86.921875 "/>
<path style=" stroke:none;fill-rule:evenodd;fill:rgb(87.889099%,87.889099%,87.889099%);fill-opacity:1;" d="M 138.351563 93.128906 L 157.910156 93.128906 L 157.910156 86.917969 L 138.351563 86.917969 Z M 138.351563 93.128906 "/>
<path style=" stroke:none;fill-rule:evenodd;fill:rgb(87.889099%,87.889099%,87.889099%);fill-opacity:1;" d="M 119.398438 99.898438 L 138.351563 99.898438 L 138.351563 94.261719 L 119.398438 94.261719 Z M 119.398438 99.898438 "/>
<path style=" stroke:none;fill-rule:evenodd;fill:rgb(87.889099%,87.889099%,87.889099%);fill-opacity:1;" d="M 138.351563 106.121094 L 157.910156 106.121094 L 157.910156 99.910156 L 138.351563 99.910156 Z M 138.351563 106.121094 "/>
<path style=" stroke:none;fill-rule:evenodd;fill:rgb(87.889099%,87.889099%,87.889099%);fill-opacity:1;" d="M 119.398438 111.199219 L 138.351563 111.199219 L 138.351563 104.988281 L 119.398438 104.988281 Z M 119.398438 111.199219 "/>
<path style=" stroke:none;fill-rule:evenodd;fill:rgb(87.889099%,87.889099%,87.889099%);fill-opacity:1;" d="M 138.351563 117.960938 L 157.910156 117.960938 L 157.910156 112.320313 L 138.351563 112.320313 Z M 138.351563 117.960938 "/>
<path style=" stroke:none;fill-rule:evenodd;fill:rgb(87.889099%,87.889099%,87.889099%);fill-opacity:1;" d="M 119.398438 124.179688 L 138.351563 124.179688 L 138.351563 117.96875 L 119.398438 117.96875 Z M 119.398438 124.179688 "/>
<path style=" stroke:none;fill-rule:evenodd;fill:rgb(87.889099%,87.889099%,87.889099%);fill-opacity:1;" d="M 138.351563 131.511719 L 157.910156 131.511719 L 157.910156 125.300781 L 138.351563 125.300781 Z M 138.351563 131.511719 "/>
<path style=" stroke:none;fill-rule:evenodd;fill:rgb(87.889099%,87.889099%,87.889099%);fill-opacity:1;" d="M 119.398438 137.160156 L 138.351563 137.160156 L 138.351563 130.949219 L 119.398438 130.949219 Z M 119.398438 137.160156 "/>
<path style=" stroke:none;fill-rule:evenodd;fill:rgb(87.889099%,87.889099%,87.889099%);fill-opacity:1;" d="M 138.351563 143.929688 L 157.910156 143.929688 L 157.910156 137.71875 L 138.351563 137.71875 Z M 138.351563 143.929688 "/>
<path style=" stroke:none;fill-rule:evenodd;fill:rgb(87.889099%,87.889099%,87.889099%);fill-opacity:1;" d="M 119.398438 149.570313 L 138.351563 149.570313 L 138.351563 143.929688 L 119.398438 143.929688 Z M 119.398438 149.570313 "/>
<path style=" stroke:none;fill-rule:evenodd;fill:rgb(87.889099%,87.889099%,87.889099%);fill-opacity:1;" d="M 138.351563 156.339844 L 157.910156 156.339844 L 157.910156 150.699219 L 138.351563 150.699219 Z M 138.351563 156.339844 "/>
<path style=" stroke:none;fill-rule:evenodd;fill:rgb(87.889099%,87.889099%,87.889099%);fill-opacity:1;" d="M 119.398438 163.121094 L 138.351563 163.121094 L 138.351563 156.910156 L 119.398438 156.910156 Z M 119.398438 163.121094 "/>
<path style=" stroke:none;fill-rule:evenodd;fill:rgb(87.889099%,87.889099%,87.889099%);fill-opacity:1;" d="M 138.351563 169.328125 L 157.910156 169.328125 L 157.910156 163.691406 L 138.351563 163.691406 Z M 138.351563 169.328125 "/>
<path style=" stroke:none;fill-rule:evenodd;fill:rgb(87.889099%,87.889099%,87.889099%);fill-opacity:1;" d="M 119.398438 174.410156 L 138.351563 174.410156 L 138.351563 168.199219 L 119.398438 168.199219 Z M 119.398438 174.410156 "/>
<path style=" stroke:none;fill-rule:evenodd;fill:rgb(87.889099%,87.889099%,87.889099%);fill-opacity:1;" d="M 138.351563 181.191406 L 157.910156 181.191406 L 157.910156 174.980469 L 138.351563 174.980469 Z M 138.351563 181.191406 "/>
<path style=" stroke:none;fill-rule:evenodd;fill:rgb(87.889099%,87.889099%,87.889099%);fill-opacity:1;" d="M 119.398438 188.519531 L 138.351563 188.519531 L 138.351563 182.878906 L 119.398438 182.878906 Z M 119.398438 188.519531 "/>
<path style=" stroke:none;fill-rule:evenodd;fill:rgb(87.889099%,87.889099%,87.889099%);fill-opacity:1;" d="M 138.351563 193.601563 L 157.910156 193.601563 L 157.910156 187.390625 L 138.351563 187.390625 Z M 138.351563 193.601563 "/>
<path style=" stroke:none;fill-rule:evenodd;fill:rgb(87.889099%,87.889099%,87.889099%);fill-opacity:1;" d="M 119.398438 200.371094 L 138.351563 200.371094 L 138.351563 194.730469 L 119.398438 194.730469 Z M 119.398438 200.371094 "/>
<path style=" stroke:none;fill-rule:evenodd;fill:rgb(87.889099%,87.889099%,87.889099%);fill-opacity:1;" d="M 138.351563 206.578125 L 157.910156 206.578125 L 157.910156 200.941406 L 138.351563 200.941406 Z M 138.351563 206.578125 "/>
<path style="fill:none;stroke-width:5.8827;stroke-linecap:butt;stroke-linejoin:miter;stroke:rgb(75.389099%,75.389099%,75.389099%);stroke-opacity:1;stroke-miterlimit:10;" d="M 1175.703125 2807.1875 L 1609.609375 2807.1875 L 1609.609375 4483.59375 L 1175.703125 4483.59375 Z M 1175.703125 2807.1875 " transform="matrix(0.1,0,0,-0.1,0,489)"/>
<path style="fill:none;stroke-width:5.8827;stroke-linecap:butt;stroke-linejoin:miter;stroke:rgb(75.389099%,75.389099%,75.389099%);stroke-opacity:1;stroke-miterlimit:10;" d="M 1200.117188 2829.804688 L 1591.210938 2829.804688 L 1591.210938 4461.015625 L 1200.117188 4461.015625 Z M 1200.117188 2829.804688 " transform="matrix(0.1,0,0,-0.1,0,489)"/>
<path style=" stroke:none;fill-rule:evenodd;fill:rgb(87.889099%,87.889099%,87.889099%);fill-opacity:1;" d="M 350.421875 49.671875 L 366.921875 49.671875 L 366.921875 44.03125 L 350.421875 44.03125 Z M 350.421875 49.671875 "/>
<path style=" stroke:none;fill-rule:evenodd;fill:rgb(87.889099%,87.889099%,87.889099%);fill-opacity:1;" d="M 367.539063 55.871094 L 385.261719 55.871094 L 385.261719 50.230469 L 367.539063 50.230469 Z M 367.539063 55.871094 "/>
<path style=" stroke:none;fill-rule:evenodd;fill:rgb(87.889099%,87.889099%,87.889099%);fill-opacity:1;" d="M 350.421875 60.949219 L 366.921875 60.949219 L 366.921875 55.308594 L 350.421875 55.308594 Z M 350.421875 60.949219 "/>
<path style=" stroke:none;fill-rule:evenodd;fill:rgb(87.889099%,87.889099%,87.889099%);fill-opacity:1;" d="M 367.539063 68.289063 L 385.261719 68.289063 L 385.261719 62.648438 L 367.539063 62.648438 Z M 367.539063 68.289063 "/>
<path style=" stroke:none;fill-rule:evenodd;fill:rgb(87.889099%,87.889099%,87.889099%);fill-opacity:1;" d="M 350.421875 73.941406 L 366.921875 73.941406 L 366.921875 68.300781 L 350.421875 68.300781 Z M 350.421875 73.941406 "/>
<path style=" stroke:none;fill-rule:evenodd;fill:rgb(87.889099%,87.889099%,87.889099%);fill-opacity:1;" d="M 367.539063 80.148438 L 385.261719 80.148438 L 385.261719 74.511719 L 367.539063 74.511719 Z M 367.539063 80.148438 "/>
<path style=" stroke:none;fill-rule:evenodd;fill:rgb(87.889099%,87.889099%,87.889099%);fill-opacity:1;" d="M 350.421875 86.351563 L 366.921875 86.351563 L 366.921875 80.710938 L 350.421875 80.710938 Z M 350.421875 86.351563 "/>
<path style=" stroke:none;fill-rule:evenodd;fill:rgb(87.889099%,87.889099%,87.889099%);fill-opacity:1;" d="M 367.539063 92 L 385.261719 92 L 385.261719 86.359375 L 367.539063 86.359375 Z M 367.539063 92 "/>
<path style=" stroke:none;fill-rule:evenodd;fill:rgb(87.889099%,87.889099%,87.889099%);fill-opacity:1;" d="M 350.421875 99.339844 L 366.921875 99.339844 L 366.921875 93.699219 L 350.421875 93.699219 Z M 350.421875 99.339844 "/>
<path style=" stroke:none;fill-rule:evenodd;fill:rgb(87.889099%,87.889099%,87.889099%);fill-opacity:1;" d="M 367.539063 105.550781 L 385.261719 105.550781 L 385.261719 99.910156 L 367.539063 99.910156 Z M 367.539063 105.550781 "/>
<path style=" stroke:none;fill-rule:evenodd;fill:rgb(87.889099%,87.889099%,87.889099%);fill-opacity:1;" d="M 350.421875 110.628906 L 366.921875 110.628906 L 366.921875 104.988281 L 350.421875 104.988281 Z M 350.421875 110.628906 "/>
<path style=" stroke:none;fill-rule:evenodd;fill:rgb(87.889099%,87.889099%,87.889099%);fill-opacity:1;" d="M 367.539063 117.398438 L 385.261719 117.398438 L 385.261719 111.761719 L 367.539063 111.761719 Z M 367.539063 117.398438 "/>
<path style=" stroke:none;fill-rule:evenodd;fill:rgb(87.889099%,87.889099%,87.889099%);fill-opacity:1;" d="M 350.421875 122.480469 L 366.921875 122.480469 L 366.921875 116.269531 L 350.421875 116.269531 Z M 350.421875 122.480469 "/>
<path style=" stroke:none;fill-rule:evenodd;fill:rgb(87.889099%,87.889099%,87.889099%);fill-opacity:1;" d="M 367.539063 129.25 L 385.261719 129.25 L 385.261719 123.609375 L 367.539063 123.609375 Z M 367.539063 129.25 "/>
<path style=" stroke:none;fill-rule:evenodd;fill:rgb(87.889099%,87.889099%,87.889099%);fill-opacity:1;" d="M 350.421875 135.460938 L 366.921875 135.460938 L 366.921875 129.820313 L 350.421875 129.820313 Z M 350.421875 135.460938 "/>
<path style=" stroke:none;fill-rule:evenodd;fill:rgb(87.889099%,87.889099%,87.889099%);fill-opacity:1;" d="M 367.539063 141.671875 L 385.261719 141.671875 L 385.261719 136.03125 L 367.539063 136.03125 Z M 367.539063 141.671875 "/>
<path style=" stroke:none;fill-rule:evenodd;fill:rgb(87.889099%,87.889099%,87.889099%);fill-opacity:1;" d="M 350.421875 148.441406 L 366.921875 148.441406 L 366.921875 142.800781 L 350.421875 142.800781 Z M 350.421875 148.441406 "/>
<path style=" stroke:none;fill-rule:evenodd;fill:rgb(87.889099%,87.889099%,87.889099%);fill-opacity:1;" d="M 367.539063 154.648438 L 385.261719 154.648438 L 385.261719 149.011719 L 367.539063 149.011719 Z M 367.539063 154.648438 "/>
<path style=" stroke:none;fill-rule:evenodd;fill:rgb(87.889099%,87.889099%,87.889099%);fill-opacity:1;" d="M 350.421875 161.421875 L 366.921875 161.421875 L 366.921875 155.78125 L 350.421875 155.78125 Z M 350.421875 161.421875 "/>
<path style=" stroke:none;fill-rule:evenodd;fill:rgb(87.889099%,87.889099%,87.889099%);fill-opacity:1;" d="M 367.539063 167.070313 L 385.261719 167.070313 L 385.261719 161.429688 L 367.539063 161.429688 Z M 367.539063 167.070313 "/>
<path style=" stroke:none;fill-rule:evenodd;fill:rgb(87.889099%,87.889099%,87.889099%);fill-opacity:1;" d="M 350.421875 172.710938 L 366.921875 172.710938 L 366.921875 167.070313 L 350.421875 167.070313 Z M 350.421875 172.710938 "/>
<path style=" stroke:none;fill-rule:evenodd;fill:rgb(87.889099%,87.889099%,87.889099%);fill-opacity:1;" d="M 367.539063 178.921875 L 385.261719 178.921875 L 385.261719 173.28125 L 367.539063 173.28125 Z M 367.539063 178.921875 "/>
<path style=" stroke:none;fill-rule:evenodd;fill:rgb(87.889099%,87.889099%,87.889099%);fill-opacity:1;" d="M 350.421875 185.128906 L 366.921875 185.128906 L 366.921875 179.488281 L 350.421875 179.488281 Z M 350.421875 185.128906 "/>
<path style=" stroke:none;fill-rule:evenodd;fill:rgb(87.889099%,87.889099%,87.889099%);fill-opacity:1;" d="M 367.539063 190.769531 L 385.261719 190.769531 L 385.261719 185.128906 L 367.539063 185.128906 Z M 367.539063 190.769531 "/>
<path style=" stroke:none;fill-rule:evenodd;fill:rgb(87.889099%,87.889099%,87.889099%);fill-opacity:1;" d="M 350.421875 196.980469 L 366.921875 196.980469 L 366.921875 191.339844 L 350.421875 191.339844 Z M 350.421875 196.980469 "/>
<path style=" stroke:none;fill-rule:evenodd;fill:rgb(87.889099%,87.889099%,87.889099%);fill-opacity:1;" d="M 367.539063 203.191406 L 385.261719 203.191406 L 385.261719 197.550781 L 367.539063 197.550781 Z M 367.539063 203.191406 "/>
<path style="fill:none;stroke-width:5.8827;stroke-linecap:butt;stroke-linejoin:miter;stroke:rgb(75.389099%,75.389099%,75.389099%);stroke-opacity:1;stroke-miterlimit:10;" d="M 3491.992188 2835.390625 L 3883.085938 2835.390625 L 3883.085938 4483.59375 L 3491.992188 4483.59375 Z M 3491.992188 2835.390625 " transform="matrix(0.1,0,0,-0.1,0,489)"/>
<path style="fill:none;stroke-width:5.8827;stroke-linecap:butt;stroke-linejoin:miter;stroke:rgb(75.389099%,75.389099%,75.389099%);stroke-opacity:1;stroke-miterlimit:10;" d="M 3504.21875 2863.59375 L 3864.804688 2863.59375 L 3864.804688 4461.015625 L 3504.21875 4461.015625 Z M 3504.21875 2863.59375 " transform="matrix(0.1,0,0,-0.1,0,489)"/>
<path style=" stroke:none;fill-rule:evenodd;fill:rgb(87.889099%,87.889099%,87.889099%);fill-opacity:1;" d="M 174.410156 271.5 L 179.300781 271.5 L 179.300781 252.871094 L 174.410156 252.871094 Z M 174.410156 271.5 "/>
<path style=" stroke:none;fill-rule:evenodd;fill:rgb(87.889099%,87.889099%,87.889099%);fill-opacity:1;" d="M 181.128906 252.871094 L 186.019531 252.871094 L 186.019531 234.238281 L 181.128906 234.238281 Z M 181.128906 252.871094 "/>
<path style=" stroke:none;fill-rule:evenodd;fill:rgb(87.889099%,87.889099%,87.889099%);fill-opacity:1;" d="M 186.628906 271.5 L 191.519531 271.5 L 191.519531 252.871094 L 186.628906 252.871094 Z M 186.628906 271.5 "/>
<path style=" stroke:none;fill-rule:evenodd;fill:rgb(87.889099%,87.889099%,87.889099%);fill-opacity:1;" d="M 192.128906 252.871094 L 197.019531 252.871094 L 197.019531 234.238281 L 192.128906 234.238281 Z M 192.128906 252.871094 "/>
<path style=" stroke:none;fill-rule:evenodd;fill:rgb(87.889099%,87.889099%,87.889099%);fill-opacity:1;" d="M 198.859375 271.5 L 203.75 271.5 L 203.75 252.871094 L 198.859375 252.871094 Z M 198.859375 271.5 "/>
<path style=" stroke:none;fill-rule:evenodd;fill:rgb(87.889099%,87.889099%,87.889099%);fill-opacity:1;" d="M 203.738281 252.871094 L 208.628906 252.871094 L 208.628906 234.238281 L 203.738281 234.238281 Z M 203.738281 252.871094 "/>
<path style=" stroke:none;fill-rule:evenodd;fill:rgb(87.889099%,87.889099%,87.889099%);fill-opacity:1;" d="M 210.46875 271.5 L 215.359375 271.5 L 215.359375 252.871094 L 210.46875 252.871094 Z M 210.46875 271.5 "/>
<path style=" stroke:none;fill-rule:evenodd;fill:rgb(87.889099%,87.889099%,87.889099%);fill-opacity:1;" d="M 215.96875 252.871094 L 220.859375 252.871094 L 220.859375 234.238281 L 215.96875 234.238281 Z M 215.96875 252.871094 "/>
<path style=" stroke:none;fill-rule:evenodd;fill:rgb(87.889099%,87.889099%,87.889099%);fill-opacity:1;" d="M 222.078125 271.5 L 226.96875 271.5 L 226.96875 252.871094 L 222.078125 252.871094 Z M 222.078125 271.5 "/>
<path style=" stroke:none;fill-rule:evenodd;fill:rgb(87.889099%,87.889099%,87.889099%);fill-opacity:1;" d="M 228.800781 252.871094 L 233.691406 252.871094 L 233.691406 234.238281 L 228.800781 234.238281 Z M 228.800781 252.871094 "/>
<path style=" stroke:none;fill-rule:evenodd;fill:rgb(87.889099%,87.889099%,87.889099%);fill-opacity:1;" d="M 234.300781 271.5 L 239.191406 271.5 L 239.191406 252.871094 L 234.300781 252.871094 Z M 234.300781 271.5 "/>
<path style=" stroke:none;fill-rule:evenodd;fill:rgb(87.889099%,87.889099%,87.889099%);fill-opacity:1;" d="M 240.410156 252.871094 L 245.300781 252.871094 L 245.300781 234.238281 L 240.410156 234.238281 Z M 240.410156 252.871094 "/>
<path style=" stroke:none;fill-rule:evenodd;fill:rgb(87.889099%,87.889099%,87.889099%);fill-opacity:1;" d="M 246.53125 271.5 L 251.417969 271.5 L 251.417969 252.871094 L 246.53125 252.871094 Z M 246.53125 271.5 "/>
<path style=" stroke:none;fill-rule:evenodd;fill:rgb(87.889099%,87.889099%,87.889099%);fill-opacity:1;" d="M 252.640625 252.871094 L 257.53125 252.871094 L 257.53125 234.238281 L 252.640625 234.238281 Z M 252.640625 252.871094 "/>
<path style=" stroke:none;fill-rule:evenodd;fill:rgb(87.889099%,87.889099%,87.889099%);fill-opacity:1;" d="M 258.75 271.5 L 264.25 271.5 L 264.25 252.871094 L 258.75 252.871094 Z M 258.75 271.5 "/>
<path style=" stroke:none;fill-rule:evenodd;fill:rgb(87.889099%,87.889099%,87.889099%);fill-opacity:1;" d="M 264.859375 252.871094 L 269.75 252.871094 L 269.75 234.238281 L 264.859375 234.238281 Z M 264.859375 252.871094 "/>
<path style=" stroke:none;fill-rule:evenodd;fill:rgb(87.889099%,87.889099%,87.889099%);fill-opacity:1;" d="M 271.578125 271.5 L 276.46875 271.5 L 276.46875 252.871094 L 271.578125 252.871094 Z M 271.578125 271.5 "/>
<path style=" stroke:none;fill-rule:evenodd;fill:rgb(87.889099%,87.889099%,87.889099%);fill-opacity:1;" d="M 277.699219 252.871094 L 282.589844 252.871094 L 282.589844 234.238281 L 277.699219 234.238281 Z M 277.699219 252.871094 "/>
<path style=" stroke:none;fill-rule:evenodd;fill:rgb(87.889099%,87.889099%,87.889099%);fill-opacity:1;" d="M 283.808594 271.5 L 288.699219 271.5 L 288.699219 252.871094 L 283.808594 252.871094 Z M 283.808594 271.5 "/>
<path style=" stroke:none;fill-rule:evenodd;fill:rgb(87.889099%,87.889099%,87.889099%);fill-opacity:1;" d="M 288.699219 252.871094 L 293.589844 252.871094 L 293.589844 234.238281 L 288.699219 234.238281 Z M 288.699219 252.871094 "/>
<path style=" stroke:none;fill-rule:evenodd;fill:rgb(87.889099%,87.889099%,87.889099%);fill-opacity:1;" d="M 295.421875 271.5 L 300.308594 271.5 L 300.308594 252.871094 L 295.421875 252.871094 Z M 295.421875 271.5 "/>
<path style=" stroke:none;fill-rule:evenodd;fill:rgb(87.889099%,87.889099%,87.889099%);fill-opacity:1;" d="M 300.308594 252.871094 L 305.199219 252.871094 L 305.199219 234.238281 L 300.308594 234.238281 Z M 300.308594 252.871094 "/>
<path style=" stroke:none;fill-rule:evenodd;fill:rgb(87.889099%,87.889099%,87.889099%);fill-opacity:1;" d="M 307.03125 271.5 L 311.917969 271.5 L 311.917969 252.871094 L 307.03125 252.871094 Z M 307.03125 271.5 "/>
<path style=" stroke:none;fill-rule:evenodd;fill:rgb(87.889099%,87.889099%,87.889099%);fill-opacity:1;" d="M 313.140625 252.871094 L 318.03125 252.871094 L 318.03125 234.238281 L 313.140625 234.238281 Z M 313.140625 252.871094 "/>
<path style=" stroke:none;fill-rule:evenodd;fill:rgb(87.889099%,87.889099%,87.889099%);fill-opacity:1;" d="M 319.261719 271.5 L 324.148438 271.5 L 324.148438 252.871094 L 319.261719 252.871094 Z M 319.261719 271.5 "/>
<path style=" stroke:none;fill-rule:evenodd;fill:rgb(87.889099%,87.889099%,87.889099%);fill-opacity:1;" d="M 324.761719 252.871094 L 329.648438 252.871094 L 329.648438 234.238281 L 324.761719 234.238281 Z M 324.761719 252.871094 "/>
<path style="fill:none;stroke-width:5.8827;stroke-linecap:butt;stroke-linejoin:miter;stroke:rgb(75.389099%,75.389099%,75.389099%);stroke-opacity:1;stroke-miterlimit:10;" d="M 1707.382813 2152.5 L 3308.710938 2152.5 L 3308.710938 2587.109375 L 1707.382813 2587.109375 Z M 1707.382813 2152.5 " transform="matrix(0.1,0,0,-0.1,0,489)"/>
<path style="fill:none;stroke-width:5.8827;stroke-linecap:butt;stroke-linejoin:miter;stroke:rgb(75.389099%,75.389099%,75.389099%);stroke-opacity:1;stroke-miterlimit:10;" d="M 1731.914063 2175.117188 L 3290.390625 2175.117188 L 3290.390625 2558.90625 L 1731.914063 2558.90625 Z M 1731.914063 2175.117188 " transform="matrix(0.1,0,0,-0.1,0,489)"/>
<path style="fill:none;stroke-width:5.8827;stroke-linecap:round;stroke-linejoin:round;stroke:rgb(0%,0%,0%);stroke-opacity:1;stroke-miterlimit:10;" d="M 8.398438 4506.210938 L 5019.882813 4506.210938 " transform="matrix(0.1,0,0,-0.1,0,489)"/>
<path style="fill:none;stroke-width:5.8827;stroke-linecap:round;stroke-linejoin:round;stroke:rgb(0%,0%,0%);stroke-opacity:1;stroke-miterlimit:10;" d="M 14.492188 2795.898438 L 1560.703125 2795.898438 L 1646.289063 2733.90625 L 1670.703125 2705.585938 L 1683.007813 2666.09375 L 1701.289063 2592.695313 L 1707.382813 2525 L 1713.515625 2440.3125 L 1713.515625 -319.6875 " transform="matrix(0.1,0,0,-0.1,0,489)"/>
<path style="fill:none;stroke-width:5.8827;stroke-linecap:round;stroke-linejoin:round;stroke:rgb(0%,0%,0%);stroke-opacity:1;stroke-miterlimit:10;" d="M 5019.882813 2812.890625 L 3485.898438 2812.890625 L 3400.3125 2750.78125 L 3375.898438 2722.617188 L 3363.710938 2683.085938 L 3345.3125 2609.6875 L 3339.21875 2541.914063 L 3333.085938 2457.304688 L 3333.085938 -302.8125 " transform="matrix(0.1,0,0,-0.1,0,489)"/>
<path style="fill:none;stroke-width:5.8827;stroke-linecap:round;stroke-linejoin:round;stroke:rgb(0%,0%,0%);stroke-opacity:1;stroke-miterlimit:10;" d="M 8.398438 3716.015625 L 1181.796875 3716.015625 M 2.304688 3744.21875 L 1157.382813 3744.21875 " transform="matrix(0.1,0,0,-0.1,0,489)"/>
<path style="fill:none;stroke-width:29.4133;stroke-linecap:round;stroke-linejoin:round;stroke:rgb(0%,0%,0%);stroke-opacity:1;stroke-miterlimit:10;" d="M 1065.703125 3704.6875 L 1065.703125 2829.804688 " transform="matrix(0.1,0,0,-0.1,0,489)"/>
<path style="fill:none;stroke-width:5.8827;stroke-linecap:round;stroke-linejoin:round;stroke:rgb(0%,0%,0%);stroke-opacity:1;stroke-miterlimit:10;" d="M 5056.601563 3710.3125 L 3883.203125 3710.3125 M 2550.78125 -348.007813 L 2550.78125 2113.007813 " transform="matrix(0.1,0,0,-0.1,0,489)"/>
<path style="fill:none;stroke-width:23.5306;stroke-linecap:round;stroke-linejoin:round;stroke:rgb(0%,0%,0%);stroke-opacity:1;stroke-miterlimit:10;" d="M 2575.3125 1971.914063 L 3320.898438 1971.914063 " transform="matrix(0.1,0,0,-0.1,0,489)"/>
<path style="fill:none;stroke-width:5.8827;stroke-linecap:round;stroke-linejoin:round;stroke:rgb(0%,0%,0%);stroke-opacity:1;stroke-miterlimit:10;" d="M 2520.3125 2101.71875 L 2520.3125 -359.296875 M 3895.390625 3682.109375 L 5038.28125 3682.109375 " transform="matrix(0.1,0,0,-0.1,0,489)"/>
<path style="fill:none;stroke-width:23.5306;stroke-linecap:round;stroke-linejoin:round;stroke:rgb(0%,0%,0%);stroke-opacity:1;stroke-miterlimit:10;" d="M 3981.015625 4500.507813 L 3981.015625 3732.890625 " transform="matrix(0.1,0,0,-0.1,0,489)"/>
</g>
</svg>
