<?xml version="1.0" encoding="UTF-8"?>
<svg xmlns="http://www.w3.org/2000/svg" xmlns:xlink="http://www.w3.org/1999/xlink" width="546pt" height="488pt" viewBox="0 0 546 488" version="1.1">
<g id="surface1">
<path style=" stroke:none;fill-rule:evenodd;fill:rgb(87.889099%,87.889099%,87.889099%);fill-opacity:1;" d="M 128.179688 53.050781 L 141.011719 53.050781 L 141.011719 47.410156 L 128.179688 47.410156 Z M 128.179688 53.050781 "/>
<path style=" stroke:none;fill-rule:evenodd;fill:rgb(87.889099%,87.889099%,87.889099%);fill-opacity:1;" d="M 141.628906 59.269531 L 154.460938 59.269531 L 154.460938 53.058594 L 141.628906 53.058594 Z M 141.628906 59.269531 "/>
<path style=" stroke:none;fill-rule:evenodd;fill:rgb(87.889099%,87.889099%,87.889099%);fill-opacity:1;" d="M 128.179688 65.480469 L 141.011719 65.480469 L 141.011719 59.269531 L 128.179688 59.269531 Z M 128.179688 65.480469 "/>
<path style=" stroke:none;fill-rule:evenodd;fill:rgb(87.889099%,87.889099%,87.889099%);fill-opacity:1;" d="M 141.628906 71.679688 L 154.460938 71.679688 L 154.460938 66.039063 L 141.628906 66.039063 Z M 141.628906 71.679688 "/>
<path style=" stroke:none;fill-rule:evenodd;fill:rgb(87.889099%,87.889099%,87.889099%);fill-opacity:1;" d="M 128.179688 78.460938 L 141.011719 78.460938 L 141.011719 72.25 L 128.179688 72.25 Z M 128.179688 78.460938 "/>
<path style=" stroke:none;fill-rule:evenodd;fill:rgb(87.889099%,87.889099%,87.889099%);fill-opacity:1;" d="M 141.628906 83.53125 L 154.460938 83.53125 L 154.460938 77.890625 L 141.628906 77.890625 Z M 141.628906 83.53125 "/>
<path style=" stroke:none;fill-rule:evenodd;fill:rgb(87.889099%,87.889099%,87.889099%);fill-opacity:1;" d="M 128.179688 90.308594 L 141.011719 90.308594 L 141.011719 84.667969 L 128.179688 84.667969 Z M 128.179688 90.308594 "/>
<path style=" stroke:none;fill-rule:evenodd;fill:rgb(87.889099%,87.889099%,87.889099%);fill-opacity:1;" d="M 141.628906 96.519531 L 154.460938 96.519531 L 154.460938 90.308594 L 141.628906 90.308594 Z M 141.628906 96.519531 "/>
<path style=" stroke:none;fill-rule:evenodd;fill:rgb(87.889099%,87.889099%,87.889099%);fill-opacity:1;" d="M 128.179688 103.289063 L 141.011719 103.289063 L 141.011719 97.648438 L 128.179688 97.648438 Z M 128.179688 103.289063 "/>
<path style=" stroke:none;fill-rule:evenodd;fill:rgb(87.889099%,87.889099%,87.889099%);fill-opacity:1;" d="M 141.628906 110.070313 L 154.460938 110.070313 L 154.460938 103.859375 L 141.628906 103.859375 Z M 141.628906 110.070313 "/>
<path style=" stroke:none;fill-rule:evenodd;fill:rgb(87.889099%,87.889099%,87.889099%);fill-opacity:1;" d="M 128.179688 115.148438 L 141.011719 115.148438 L 141.011719 108.941406 L 128.179688 108.941406 Z M 128.179688 115.148438 "/>
<path style=" stroke:none;fill-rule:evenodd;fill:rgb(87.889099%,87.889099%,87.889099%);fill-opacity:1;" d="M 141.628906 121.910156 L 154.460938 121.910156 L 154.460938 116.269531 L 141.628906 116.269531 Z M 141.628906 121.910156 "/>
<path style=" stroke:none;fill-rule:evenodd;fill:rgb(87.889099%,87.889099%,87.889099%);fill-opacity:1;" d="M 128.179688 128.128906 L 141.011719 128.128906 L 141.011719 121.917969 L 128.179688 121.917969 Z M 128.179688 128.128906 "/>
<path style=" stroke:none;fill-rule:evenodd;fill:rgb(87.889099%,87.889099%,87.889099%);fill-opacity:1;" d="M 141.628906 135.46875 L 154.460938 135.46875 L 154.460938 129.261719 L 141.628906 129.261719 Z M 141.628906 135.46875 "/>
<path style=" stroke:none;fill-rule:evenodd;fill:rgb(87.889099%,87.889099%,87.889099%);fill-opacity:1;" d="M 128.179688 141.109375 L 141.011719 141.109375 L 141.011719 134.898438 L 128.179688 134.898438 Z M 128.179688 141.109375 "/>
<path style=" stroke:none;fill-rule:evenodd;fill:rgb(87.889099%,87.889099%,87.889099%);fill-opacity:1;" d="M 141.628906 147.878906 L 154.460938 147.878906 L 154.460938 141.667969 L 141.628906 141.667969 Z M 141.628906 147.878906 "/>
<path style=" stroke:none;fill-rule:evenodd;fill:rgb(87.889099%,87.889099%,87.889099%);fill-opacity:1;" d="M 128.179688 153.519531 L 141.011719 153.519531 L 141.011719 147.878906 L 128.179688 147.878906 Z M 128.179688 153.519531 "/>
<path style=" stroke:none;fill-rule:evenodd;fill:rgb(87.889099%,87.889099%,87.889099%);fill-opacity:1;" d="M 141.628906 160.300781 L 154.460938 160.300781 L 154.460938 154.660156 L 141.628906 154.660156 Z M 141.628906 160.300781 "/>
<path style=" stroke:none;fill-rule:evenodd;fill:rgb(87.889099%,87.889099%,87.889099%);fill-opacity:1;" d="M 128.179688 167.070313 L 141.011719 167.070313 L 141.011719 160.859375 L 128.179688 160.859375 Z M 128.179688 167.070313 "/>
<path style=" stroke:none;fill-rule:evenodd;fill:rgb(87.889099%,87.889099%,87.889099%);fill-opacity:1;" d="M 141.628906 173.28125 L 154.460938 173.28125 L 154.460938 167.640625 L 141.628906 167.640625 Z M 141.628906 173.28125 "/>
<path style=" stroke:none;fill-rule:evenodd;fill:rgb(87.889099%,87.889099%,87.889099%);fill-opacity:1;" d="M 128.179688 178.359375 L 141.011719 178.359375 L 141.011719 172.148438 L 128.179688 172.148438 Z M 128.179688 178.359375 "/>
<path style=" stroke:none;fill-rule:evenodd;fill:rgb(87.889099%,87.889099%,87.889099%);fill-opacity:1;" d="M 141.628906 185.140625 L 154.460938 185.140625 L 154.460938 178.929688 L 141.628906 178.929688 Z M 141.628906 185.140625 "/>
<path style=" stroke:none;fill-rule:evenodd;fill:rgb(87.889099%,87.889099%,87.889099%);fill-opacity:1;" d="M 128.179688 192.46875 L 141.011719 192.46875 L 141.011719 186.832031 L 128.179688 186.832031 Z M 128.179688 192.46875 "/>
<path style=" stroke:none;fill-rule:evenodd;fill:rgb(87.889099%,87.889099%,87.889099%);fill-opacity:1;" d="M 141.628906 197.550781 L 154.460938 197.550781 L 154.460938 191.339844 L 141.628906 191.339844 Z M 141.628906 197.550781 "/>
<path style=" stroke:none;fill-rule:evenodd;fill:rgb(87.889099%,87.889099%,87.889099%);fill-opacity:1;" d="M 128.179688 204.320313 L 141.011719 204.320313 L 141.011719 198.679688 L 128.179688 198.679688 Z M 128.179688 204.320313 "/>
<path style=" stroke:none;fill-rule:evenodd;fill:rgb(87.889099%,87.889099%,87.889099%);fill-opacity:1;" d="M 141.628906 210.53125 L 154.460938 210.53125 L 154.460938 204.890625 L 141.628906 204.890625 Z M 141.628906 210.53125 "/>
<path style="fill:none;stroke-width:5.8827;stroke-linecap:butt;stroke-linejoin:miter;stroke:rgb(75.389099%,75.389099%,75.389099%);stroke-opacity:1;stroke-miterlimit:10;" d="M 1269.609375 2752.109375 L 1569.101563 2752.109375 L 1569.101563 4434.101563 L 1269.609375 4434.101563 Z M 1269.609375 2752.109375 " transform="matrix(0.1,0,0,-0.1,0,488)"/>
<path style="fill:none;stroke-width:5.8827;stroke-linecap:butt;stroke-linejoin:miter;stroke:rgb(75.389099%,75.389099%,75.389099%);stroke-opacity:1;stroke-miterlimit:10;" d="M 1287.890625 2774.609375 L 1556.796875 2774.609375 L 1556.796875 4411.484375 L 1287.890625 4411.484375 Z M 1287.890625 2774.609375 " transform="matrix(0.1,0,0,-0.1,0,488)"/>
<path style=" stroke:none;fill-rule:evenodd;fill:rgb(87.889099%,87.889099%,87.889099%);fill-opacity:1;" d="M 386.089844 53.050781 L 400.148438 53.050781 L 400.148438 47.410156 L 386.089844 47.410156 Z M 386.089844 53.050781 "/>
<path style=" stroke:none;fill-rule:evenodd;fill:rgb(87.889099%,87.889099%,87.889099%);fill-opacity:1;" d="M 400.761719 59.261719 L 415.429688 59.261719 L 415.429688 53.621094 L 400.761719 53.621094 Z M 400.761719 59.261719 "/>
<path style=" stroke:none;fill-rule:evenodd;fill:rgb(87.889099%,87.889099%,87.889099%);fill-opacity:1;" d="M 386.089844 64.339844 L 400.148438 64.339844 L 400.148438 58.699219 L 386.089844 58.699219 Z M 386.089844 64.339844 "/>
<path style=" stroke:none;fill-rule:evenodd;fill:rgb(87.889099%,87.889099%,87.889099%);fill-opacity:1;" d="M 400.761719 71.679688 L 415.429688 71.679688 L 415.429688 66.039063 L 400.761719 66.039063 Z M 400.761719 71.679688 "/>
<path style=" stroke:none;fill-rule:evenodd;fill:rgb(87.889099%,87.889099%,87.889099%);fill-opacity:1;" d="M 386.089844 77.320313 L 400.148438 77.320313 L 400.148438 71.679688 L 386.089844 71.679688 Z M 386.089844 77.320313 "/>
<path style=" stroke:none;fill-rule:evenodd;fill:rgb(87.889099%,87.889099%,87.889099%);fill-opacity:1;" d="M 400.761719 83.53125 L 415.429688 83.53125 L 415.429688 77.890625 L 400.761719 77.890625 Z M 400.761719 83.53125 "/>
<path style=" stroke:none;fill-rule:evenodd;fill:rgb(87.889099%,87.889099%,87.889099%);fill-opacity:1;" d="M 386.089844 89.738281 L 400.148438 89.738281 L 400.148438 84.101563 L 386.089844 84.101563 Z M 386.089844 89.738281 "/>
<path style=" stroke:none;fill-rule:evenodd;fill:rgb(87.889099%,87.889099%,87.889099%);fill-opacity:1;" d="M 400.761719 95.390625 L 415.429688 95.390625 L 415.429688 89.75 L 400.761719 89.75 Z M 400.761719 95.390625 "/>
<path style=" stroke:none;fill-rule:evenodd;fill:rgb(87.889099%,87.889099%,87.889099%);fill-opacity:1;" d="M 386.089844 102.71875 L 400.148438 102.71875 L 400.148438 97.082031 L 386.089844 97.082031 Z M 386.089844 102.71875 "/>
<path style=" stroke:none;fill-rule:evenodd;fill:rgb(87.889099%,87.889099%,87.889099%);fill-opacity:1;" d="M 400.761719 109.5 L 415.429688 109.5 L 415.429688 103.859375 L 400.761719 103.859375 Z M 400.761719 109.5 "/>
<path style=" stroke:none;fill-rule:evenodd;fill:rgb(87.889099%,87.889099%,87.889099%);fill-opacity:1;" d="M 386.089844 114.578125 L 400.148438 114.578125 L 400.148438 108.941406 L 386.089844 108.941406 Z M 386.089844 114.578125 "/>
<path style=" stroke:none;fill-rule:evenodd;fill:rgb(87.889099%,87.889099%,87.889099%);fill-opacity:1;" d="M 400.761719 121.351563 L 415.429688 121.351563 L 415.429688 115.710938 L 400.761719 115.710938 Z M 400.761719 121.351563 "/>
<path style=" stroke:none;fill-rule:evenodd;fill:rgb(87.889099%,87.889099%,87.889099%);fill-opacity:1;" d="M 386.089844 126.429688 L 400.148438 126.429688 L 400.148438 120.21875 L 386.089844 120.21875 Z M 386.089844 126.429688 "/>
<path style=" stroke:none;fill-rule:evenodd;fill:rgb(87.889099%,87.889099%,87.889099%);fill-opacity:1;" d="M 400.761719 133.199219 L 415.429688 133.199219 L 415.429688 127.558594 L 400.761719 127.558594 Z M 400.761719 133.199219 "/>
<path style=" stroke:none;fill-rule:evenodd;fill:rgb(87.889099%,87.889099%,87.889099%);fill-opacity:1;" d="M 386.089844 139.410156 L 400.148438 139.410156 L 400.148438 133.769531 L 386.089844 133.769531 Z M 386.089844 139.410156 "/>
<path style=" stroke:none;fill-rule:evenodd;fill:rgb(87.889099%,87.889099%,87.889099%);fill-opacity:1;" d="M 400.761719 145.621094 L 415.429688 145.621094 L 415.429688 139.980469 L 400.761719 139.980469 Z M 400.761719 145.621094 "/>
<path style=" stroke:none;fill-rule:evenodd;fill:rgb(87.889099%,87.889099%,87.889099%);fill-opacity:1;" d="M 386.089844 152.390625 L 400.148438 152.390625 L 400.148438 146.75 L 386.089844 146.75 Z M 386.089844 152.390625 "/>
<path style=" stroke:none;fill-rule:evenodd;fill:rgb(87.889099%,87.889099%,87.889099%);fill-opacity:1;" d="M 400.761719 158.601563 L 415.429688 158.601563 L 415.429688 152.960938 L 400.761719 152.960938 Z M 400.761719 158.601563 "/>
<path style=" stroke:none;fill-rule:evenodd;fill:rgb(87.889099%,87.889099%,87.889099%);fill-opacity:1;" d="M 386.089844 165.378906 L 400.148438 165.378906 L 400.148438 159.738281 L 386.089844 159.738281 Z M 386.089844 165.378906 "/>
<path style=" stroke:none;fill-rule:evenodd;fill:rgb(87.889099%,87.889099%,87.889099%);fill-opacity:1;" d="M 400.761719 171.019531 L 415.429688 171.019531 L 415.429688 165.378906 L 400.761719 165.378906 Z M 400.761719 171.019531 "/>
<path style=" stroke:none;fill-rule:evenodd;fill:rgb(87.889099%,87.889099%,87.889099%);fill-opacity:1;" d="M 386.089844 176.660156 L 400.148438 176.660156 L 400.148438 171.019531 L 386.089844 171.019531 Z M 386.089844 176.660156 "/>
<path style=" stroke:none;fill-rule:evenodd;fill:rgb(87.889099%,87.889099%,87.889099%);fill-opacity:1;" d="M 400.761719 182.871094 L 415.429688 182.871094 L 415.429688 177.230469 L 400.761719 177.230469 Z M 400.761719 182.871094 "/>
<path style=" stroke:none;fill-rule:evenodd;fill:rgb(87.889099%,87.889099%,87.889099%);fill-opacity:1;" d="M 386.089844 189.078125 L 400.148438 189.078125 L 400.148438 183.441406 L 386.089844 183.441406 Z M 386.089844 189.078125 "/>
<path style=" stroke:none;fill-rule:evenodd;fill:rgb(87.889099%,87.889099%,87.889099%);fill-opacity:1;" d="M 400.761719 194.730469 L 415.429688 194.730469 L 415.429688 189.089844 L 400.761719 189.089844 Z M 400.761719 194.730469 "/>
<path style=" stroke:none;fill-rule:evenodd;fill:rgb(87.889099%,87.889099%,87.889099%);fill-opacity:1;" d="M 386.089844 200.929688 L 400.148438 200.929688 L 400.148438 195.289063 L 386.089844 195.289063 Z M 386.089844 200.929688 "/>
<path style=" stroke:none;fill-rule:evenodd;fill:rgb(87.889099%,87.889099%,87.889099%);fill-opacity:1;" d="M 400.761719 207.140625 L 415.429688 207.140625 L 415.429688 201.5 L 400.761719 201.5 Z M 400.761719 207.140625 "/>
<path style="fill:none;stroke-width:5.8827;stroke-linecap:butt;stroke-linejoin:miter;stroke:rgb(75.389099%,75.389099%,75.389099%);stroke-opacity:1;stroke-miterlimit:10;" d="M 3860.898438 2785.898438 L 4178.710938 2785.898438 L 4178.710938 4439.6875 L 3860.898438 4439.6875 Z M 3860.898438 2785.898438 " transform="matrix(0.1,0,0,-0.1,0,488)"/>
<path style="fill:none;stroke-width:5.8827;stroke-linecap:butt;stroke-linejoin:miter;stroke:rgb(75.389099%,75.389099%,75.389099%);stroke-opacity:1;stroke-miterlimit:10;" d="M 3873.203125 2808.515625 L 4166.601563 2808.515625 L 4166.601563 4411.484375 L 3873.203125 4411.484375 Z M 3873.203125 2808.515625 " transform="matrix(0.1,0,0,-0.1,0,488)"/>
<path style=" stroke:none;fill-rule:evenodd;fill:rgb(87.889099%,87.889099%,87.889099%);fill-opacity:1;" d="M 174.019531 258.511719 L 180.738281 258.511719 L 180.738281 246.660156 L 174.019531 246.660156 Z M 174.019531 258.511719 "/>
<path style=" stroke:none;fill-rule:evenodd;fill:rgb(87.889099%,87.889099%,87.889099%);fill-opacity:1;" d="M 181.351563 246.089844 L 188.679688 246.089844 L 188.679688 234.238281 L 181.351563 234.238281 Z M 181.351563 246.089844 "/>
<path style=" stroke:none;fill-rule:evenodd;fill:rgb(87.889099%,87.889099%,87.889099%);fill-opacity:1;" d="M 188.691406 258.511719 L 196.019531 258.511719 L 196.019531 246.660156 L 188.691406 246.660156 Z M 188.691406 258.511719 "/>
<path style=" stroke:none;fill-rule:evenodd;fill:rgb(87.889099%,87.889099%,87.889099%);fill-opacity:1;" d="M 195.410156 246.089844 L 202.128906 246.089844 L 202.128906 234.238281 L 195.410156 234.238281 Z M 195.410156 246.089844 "/>
<path style=" stroke:none;fill-rule:evenodd;fill:rgb(87.889099%,87.889099%,87.889099%);fill-opacity:1;" d="M 204.578125 258.511719 L 211.910156 258.511719 L 211.910156 246.660156 L 204.578125 246.660156 Z M 204.578125 258.511719 "/>
<path style=" stroke:none;fill-rule:evenodd;fill:rgb(87.889099%,87.889099%,87.889099%);fill-opacity:1;" d="M 211.910156 246.089844 L 218.628906 246.089844 L 218.628906 234.238281 L 211.910156 234.238281 Z M 211.910156 246.089844 "/>
<path style=" stroke:none;fill-rule:evenodd;fill:rgb(87.889099%,87.889099%,87.889099%);fill-opacity:1;" d="M 218.628906 258.511719 L 225.351563 258.511719 L 225.351563 246.660156 L 218.628906 246.660156 Z M 218.628906 258.511719 "/>
<path style=" stroke:none;fill-rule:evenodd;fill:rgb(87.889099%,87.889099%,87.889099%);fill-opacity:1;" d="M 226.578125 246.089844 L 233.910156 246.089844 L 233.910156 234.238281 L 226.578125 234.238281 Z M 226.578125 246.089844 "/>
<path style=" stroke:none;fill-rule:evenodd;fill:rgb(87.889099%,87.889099%,87.889099%);fill-opacity:1;" d="M 233.910156 258.511719 L 240.628906 258.511719 L 240.628906 246.660156 L 233.910156 246.660156 Z M 233.910156 258.511719 "/>
<path style=" stroke:none;fill-rule:evenodd;fill:rgb(87.889099%,87.889099%,87.889099%);fill-opacity:1;" d="M 242.46875 246.089844 L 249.800781 246.089844 L 249.800781 234.238281 L 242.46875 234.238281 Z M 242.46875 246.089844 "/>
<path style=" stroke:none;fill-rule:evenodd;fill:rgb(87.889099%,87.889099%,87.889099%);fill-opacity:1;" d="M 249.800781 258.511719 L 257.128906 258.511719 L 257.128906 246.660156 L 249.800781 246.660156 Z M 249.800781 258.511719 "/>
<path style=" stroke:none;fill-rule:evenodd;fill:rgb(87.889099%,87.889099%,87.889099%);fill-opacity:1;" d="M 257.75 246.089844 L 264.46875 246.089844 L 264.46875 234.238281 L 257.75 234.238281 Z M 257.75 246.089844 "/>
<path style=" stroke:none;fill-rule:evenodd;fill:rgb(87.889099%,87.889099%,87.889099%);fill-opacity:1;" d="M 265.078125 258.511719 L 273.03125 258.511719 L 273.03125 246.660156 L 265.078125 246.660156 Z M 265.078125 258.511719 "/>
<path style=" stroke:none;fill-rule:evenodd;fill:rgb(87.889099%,87.889099%,87.889099%);fill-opacity:1;" d="M 273.03125 246.089844 L 280.980469 246.089844 L 280.980469 234.238281 L 273.03125 234.238281 Z M 273.03125 246.089844 "/>
<path style=" stroke:none;fill-rule:evenodd;fill:rgb(87.889099%,87.889099%,87.889099%);fill-opacity:1;" d="M 282.199219 258.511719 L 289.53125 258.511719 L 289.53125 246.660156 L 282.199219 246.660156 Z M 282.199219 258.511719 "/>
<path style=" stroke:none;fill-rule:evenodd;fill:rgb(87.889099%,87.889099%,87.889099%);fill-opacity:1;" d="M 290.140625 246.089844 L 297.46875 246.089844 L 297.46875 234.238281 L 290.140625 234.238281 Z M 290.140625 246.089844 "/>
<path style=" stroke:none;fill-rule:evenodd;fill:rgb(87.889099%,87.889099%,87.889099%);fill-opacity:1;" d="M 297.46875 258.511719 L 304.191406 258.511719 L 304.191406 246.660156 L 297.46875 246.660156 Z M 297.46875 258.511719 "/>
<path style=" stroke:none;fill-rule:evenodd;fill:rgb(87.889099%,87.889099%,87.889099%);fill-opacity:1;" d="M 306.03125 246.089844 L 312.75 246.089844 L 312.75 234.238281 L 306.03125 234.238281 Z M 306.03125 246.089844 "/>
<path style=" stroke:none;fill-rule:evenodd;fill:rgb(87.889099%,87.889099%,87.889099%);fill-opacity:1;" d="M 313.359375 258.511719 L 320.691406 258.511719 L 320.691406 246.660156 L 313.359375 246.660156 Z M 313.359375 258.511719 "/>
<path style=" stroke:none;fill-rule:evenodd;fill:rgb(87.889099%,87.889099%,87.889099%);fill-opacity:1;" d="M 320.699219 246.089844 L 327.417969 246.089844 L 327.417969 234.238281 L 320.699219 234.238281 Z M 320.699219 246.089844 "/>
<path style=" stroke:none;fill-rule:evenodd;fill:rgb(87.889099%,87.889099%,87.889099%);fill-opacity:1;" d="M 328.03125 258.511719 L 335.359375 258.511719 L 335.359375 246.660156 L 328.03125 246.660156 Z M 328.03125 258.511719 "/>
<path style=" stroke:none;fill-rule:evenodd;fill:rgb(87.889099%,87.889099%,87.889099%);fill-opacity:1;" d="M 335.980469 246.089844 L 343.308594 246.089844 L 343.308594 234.238281 L 335.980469 234.238281 Z M 335.980469 246.089844 "/>
<path style=" stroke:none;fill-rule:evenodd;fill:rgb(87.889099%,87.889099%,87.889099%);fill-opacity:1;" d="M 343.921875 258.511719 L 350.640625 258.511719 L 350.640625 246.660156 L 343.921875 246.660156 Z M 343.921875 258.511719 "/>
<path style=" stroke:none;fill-rule:evenodd;fill:rgb(87.889099%,87.889099%,87.889099%);fill-opacity:1;" d="M 351.261719 246.089844 L 358.589844 246.089844 L 358.589844 234.238281 L 351.261719 234.238281 Z M 351.261719 246.089844 "/>
<path style=" stroke:none;fill-rule:evenodd;fill:rgb(87.889099%,87.889099%,87.889099%);fill-opacity:1;" d="M 359.199219 258.511719 L 365.917969 258.511719 L 365.917969 246.660156 L 359.199219 246.660156 Z M 359.199219 258.511719 "/>
<path style=" stroke:none;fill-rule:evenodd;fill:rgb(87.889099%,87.889099%,87.889099%);fill-opacity:1;" d="M 365.929688 246.089844 L 372.648438 246.089844 L 372.648438 234.238281 L 365.929688 234.238281 Z M 365.929688 246.089844 "/>
<path style="fill:none;stroke-width:5.8827;stroke-linecap:butt;stroke-linejoin:miter;stroke:rgb(75.389099%,75.389099%,75.389099%);stroke-opacity:1;stroke-miterlimit:10;" d="M 1685.195313 2283.59375 L 3757.109375 2283.59375 L 3757.109375 2560.195313 L 1685.195313 2560.195313 Z M 1685.195313 2283.59375 " transform="matrix(0.1,0,0,-0.1,0,488)"/>
<path style="fill:none;stroke-width:5.8827;stroke-linecap:butt;stroke-linejoin:miter;stroke:rgb(75.389099%,75.389099%,75.389099%);stroke-opacity:1;stroke-miterlimit:10;" d="M 1721.914063 2294.882813 L 3726.484375 2294.882813 L 3726.484375 2548.90625 L 1721.914063 2548.90625 Z M 1721.914063 2294.882813 " transform="matrix(0.1,0,0,-0.1,0,488)"/>
<path style="fill:none;stroke-width:5.8827;stroke-linecap:round;stroke-linejoin:round;stroke:rgb(0%,0%,0%);stroke-opacity:1;stroke-miterlimit:10;" d="M 16.679688 4462.304688 L 5395 4462.304688 M 22.8125 2740.78125 L 1538.515625 2740.78125 L 1624.101563 2678.710938 L 1654.609375 2650.507813 L 1666.796875 2611.015625 L 1679.101563 2537.617188 L 1685.195313 2469.882813 L 1691.289063 2385.195313 L 1691.289063 -397.5 " transform="matrix(0.1,0,0,-0.1,0,488)"/>
<path style="fill:none;stroke-width:5.8827;stroke-linecap:round;stroke-linejoin:round;stroke:rgb(0%,0%,0%);stroke-opacity:1;stroke-miterlimit:10;" d="M 5388.90625 2757.695313 L 3903.710938 2757.695313 L 3824.296875 2695.585938 L 3793.710938 2667.382813 L 3781.484375 2627.890625 L 3769.296875 2554.492188 L 3763.203125 2486.796875 L 3756.992188 2402.109375 L 3756.992188 -380.507813 " transform="matrix(0.1,0,0,-0.1,0,488)"/>
<path style="fill:none;stroke-width:5.8827;stroke-linecap:round;stroke-linejoin:round;stroke:rgb(0%,0%,0%);stroke-opacity:1;stroke-miterlimit:10;" d="M 16.679688 3632.617188 L 1275.703125 3632.617188 M 4.492188 3660.78125 L 1245.117188 3660.78125 " transform="matrix(0.1,0,0,-0.1,0,488)"/>
<path style="fill:none;stroke-width:35.2959;stroke-linecap:round;stroke-linejoin:round;stroke:rgb(0%,0%,0%);stroke-opacity:1;stroke-miterlimit:10;" d="M 1147.382813 3632.617188 L 1147.382813 2752.109375 " transform="matrix(0.1,0,0,-0.1,0,488)"/>
<path style="fill:none;stroke-width:5.8827;stroke-linecap:round;stroke-linejoin:round;stroke:rgb(0%,0%,0%);stroke-opacity:1;stroke-miterlimit:10;" d="M 5431.601563 3655.195313 L 4172.617188 3655.195313 M 2742.5 -358.007813 L 2742.5 2272.304688 " transform="matrix(0.1,0,0,-0.1,0,488)"/>
<path style="fill:none;stroke-width:23.5306;stroke-linecap:round;stroke-linejoin:round;stroke:rgb(0%,0%,0%);stroke-opacity:1;stroke-miterlimit:10;" d="M 2748.59375 2097.304688 L 3738.710938 2097.304688 " transform="matrix(0.1,0,0,-0.1,0,488)"/>
<path style="fill:none;stroke-width:5.8827;stroke-linecap:round;stroke-linejoin:round;stroke:rgb(0%,0%,0%);stroke-opacity:1;stroke-miterlimit:10;" d="M 2711.914063 2272.304688 L 2711.914063 -369.296875 " transform="matrix(0.1,0,0,-0.1,0,488)"/>
<path style="fill:none;stroke-width:5.8827;stroke-linecap:round;stroke-linejoin:round;stroke:rgb(0%,0%,0%);stroke-opacity:1;stroke-miterlimit:10;" d="M 4178.710938 3626.992188 L 5407.1875 3626.992188 " transform="matrix(0.1,0,0,-0.1,0,488)"/>
<path style="fill:none;stroke-width:23.5306;stroke-linecap:round;stroke-linejoin:round;stroke:rgb(0%,0%,0%);stroke-opacity:1;stroke-miterlimit:10;" d="M 4270.390625 4451.015625 L 4270.390625 3677.8125 " transform="matrix(0.1,0,0,-0.1,0,488)"/>
<path style="fill:none;stroke-width:5.8827;stroke-linecap:round;stroke-linejoin:round;stroke:rgb(0%,0%,0%);stroke-opacity:1;stroke-dasharray:70.5918,35.2959;stroke-miterlimit:10;" d="M 4264.296875 4213.984375 L 5456.09375 4213.984375 M 4221.484375 3350.390625 L 5413.28125 3350.390625 M 4.492188 4219.609375 L 1293.984375 4219.609375 M 4.492188 3367.304688 L 1098.515625 3367.304688 M 2051.914063 2278.007813 L 2051.914063 -369.296875 M 3439.21875 2091.71875 L 3439.21875 -352.304688 M 4.492188 3062.5 L 1098.515625 3062.5 M 4.492188 3948.710938 L 1293.984375 3948.710938 M 4307.109375 3954.296875 L 5437.695313 3954.296875 M 4227.617188 3073.789063 L 5419.414063 3073.789063 M 2388.007813 2255.390625 L 2388.007813 -369.296875 M 3078.59375 2080.390625 L 3078.59375 -335.390625 " transform="matrix(0.1,0,0,-0.1,0,488)"/>
</g>
</svg>
