<?xml version="1.0" encoding="UTF-8"?>
<svg xmlns="http://www.w3.org/2000/svg" xmlns:xlink="http://www.w3.org/1999/xlink" width="572pt" height="478pt" viewBox="0 0 572 478" version="1.1">
<g id="surface1">
<path style=" stroke:none;fill-rule:evenodd;fill:rgb(87.889099%,87.889099%,87.889099%);fill-opacity:1;" d="M 409.210938 60.398438 L 420.820313 60.398438 L 420.820313 54.191406 L 409.210938 54.191406 Z M 409.210938 60.398438 "/>
<path style=" stroke:none;fill-rule:evenodd;fill:rgb(87.889099%,87.889099%,87.889099%);fill-opacity:1;" d="M 422.039063 67.171875 L 434.261719 67.171875 L 434.261719 60.960938 L 422.039063 60.960938 Z M 422.039063 67.171875 "/>
<path style=" stroke:none;fill-rule:evenodd;fill:rgb(87.889099%,87.889099%,87.889099%);fill-opacity:1;" d="M 409.210938 72.25 L 420.820313 72.25 L 420.820313 66.039063 L 409.210938 66.039063 Z M 409.210938 72.25 "/>
<path style=" stroke:none;fill-rule:evenodd;fill:rgb(87.889099%,87.889099%,87.889099%);fill-opacity:1;" d="M 422.039063 80.148438 L 434.261719 80.148438 L 434.261719 73.941406 L 422.039063 73.941406 Z M 422.039063 80.148438 "/>
<path style=" stroke:none;fill-rule:evenodd;fill:rgb(87.889099%,87.889099%,87.889099%);fill-opacity:1;" d="M 409.210938 86.359375 L 420.820313 86.359375 L 420.820313 80.148438 L 409.210938 80.148438 Z M 409.210938 86.359375 "/>
<path style=" stroke:none;fill-rule:evenodd;fill:rgb(87.889099%,87.889099%,87.889099%);fill-opacity:1;" d="M 422.039063 93.128906 L 434.261719 93.128906 L 434.261719 86.917969 L 422.039063 86.917969 Z M 422.039063 93.128906 "/>
<path style=" stroke:none;fill-rule:evenodd;fill:rgb(87.889099%,87.889099%,87.889099%);fill-opacity:1;" d="M 409.210938 99.339844 L 420.820313 99.339844 L 420.820313 93.128906 L 409.210938 93.128906 Z M 409.210938 99.339844 "/>
<path style=" stroke:none;fill-rule:evenodd;fill:rgb(87.889099%,87.889099%,87.889099%);fill-opacity:1;" d="M 422.039063 105.550781 L 434.261719 105.550781 L 434.261719 99.339844 L 422.039063 99.339844 Z M 422.039063 105.550781 "/>
<path style=" stroke:none;fill-rule:evenodd;fill:rgb(87.889099%,87.889099%,87.889099%);fill-opacity:1;" d="M 409.210938 113.449219 L 420.820313 113.449219 L 420.820313 107.238281 L 409.210938 107.238281 Z M 409.210938 113.449219 "/>
<path style=" stroke:none;fill-rule:evenodd;fill:rgb(87.889099%,87.889099%,87.889099%);fill-opacity:1;" d="M 422.039063 120.789063 L 434.261719 120.789063 L 434.261719 114.582031 L 422.039063 114.582031 Z M 422.039063 120.789063 "/>
<path style=" stroke:none;fill-rule:evenodd;fill:rgb(87.889099%,87.889099%,87.889099%);fill-opacity:1;" d="M 409.210938 126.429688 L 420.820313 126.429688 L 420.820313 120.21875 L 409.210938 120.21875 Z M 409.210938 126.429688 "/>
<path style=" stroke:none;fill-rule:evenodd;fill:rgb(87.889099%,87.889099%,87.889099%);fill-opacity:1;" d="M 422.039063 133.210938 L 434.261719 133.210938 L 434.261719 127 L 422.039063 127 Z M 422.039063 133.210938 "/>
<path style=" stroke:none;fill-rule:evenodd;fill:rgb(87.889099%,87.889099%,87.889099%);fill-opacity:1;" d="M 409.210938 139.410156 L 420.820313 139.410156 L 420.820313 132.640625 L 409.210938 132.640625 Z M 409.210938 139.410156 "/>
<path style=" stroke:none;fill-rule:evenodd;fill:rgb(87.889099%,87.889099%,87.889099%);fill-opacity:1;" d="M 422.039063 146.191406 L 434.261719 146.191406 L 434.261719 139.980469 L 422.039063 139.980469 Z M 422.039063 146.191406 "/>
<path style=" stroke:none;fill-rule:evenodd;fill:rgb(87.889099%,87.889099%,87.889099%);fill-opacity:1;" d="M 409.210938 152.960938 L 420.820313 152.960938 L 420.820313 146.75 L 409.210938 146.75 Z M 409.210938 152.960938 "/>
<path style=" stroke:none;fill-rule:evenodd;fill:rgb(87.889099%,87.889099%,87.889099%);fill-opacity:1;" d="M 422.039063 159.171875 L 434.261719 159.171875 L 434.261719 152.960938 L 422.039063 152.960938 Z M 422.039063 159.171875 "/>
<path style=" stroke:none;fill-rule:evenodd;fill:rgb(87.889099%,87.889099%,87.889099%);fill-opacity:1;" d="M 409.210938 166.511719 L 420.820313 166.511719 L 420.820313 160.300781 L 409.210938 160.300781 Z M 409.210938 166.511719 "/>
<path style=" stroke:none;fill-rule:evenodd;fill:rgb(87.889099%,87.889099%,87.889099%);fill-opacity:1;" d="M 422.039063 173.28125 L 434.261719 173.28125 L 434.261719 167.070313 L 422.039063 167.070313 Z M 422.039063 173.28125 "/>
<path style=" stroke:none;fill-rule:evenodd;fill:rgb(87.889099%,87.889099%,87.889099%);fill-opacity:1;" d="M 409.210938 180.621094 L 420.820313 180.621094 L 420.820313 174.410156 L 409.210938 174.410156 Z M 409.210938 180.621094 "/>
<path style=" stroke:none;fill-rule:evenodd;fill:rgb(87.889099%,87.889099%,87.889099%);fill-opacity:1;" d="M 422.039063 186.828125 L 434.261719 186.828125 L 434.261719 180.621094 L 422.039063 180.621094 Z M 422.039063 186.828125 "/>
<path style=" stroke:none;fill-rule:evenodd;fill:rgb(87.889099%,87.889099%,87.889099%);fill-opacity:1;" d="M 409.210938 192.46875 L 420.820313 192.46875 L 420.820313 186.261719 L 409.210938 186.261719 Z M 409.210938 192.46875 "/>
<path style=" stroke:none;fill-rule:evenodd;fill:rgb(87.889099%,87.889099%,87.889099%);fill-opacity:1;" d="M 422.039063 199.25 L 434.261719 199.25 L 434.261719 193.039063 L 422.039063 193.039063 Z M 422.039063 199.25 "/>
<path style=" stroke:none;fill-rule:evenodd;fill:rgb(87.889099%,87.889099%,87.889099%);fill-opacity:1;" d="M 409.210938 206.019531 L 420.820313 206.019531 L 420.820313 199.808594 L 409.210938 199.808594 Z M 409.210938 206.019531 "/>
<path style=" stroke:none;fill-rule:evenodd;fill:rgb(87.889099%,87.889099%,87.889099%);fill-opacity:1;" d="M 422.039063 212.230469 L 434.261719 212.230469 L 434.261719 206.019531 L 422.039063 206.019531 Z M 422.039063 212.230469 "/>
<path style=" stroke:none;fill-rule:evenodd;fill:rgb(87.889099%,87.889099%,87.889099%);fill-opacity:1;" d="M 409.210938 218.441406 L 420.820313 218.441406 L 420.820313 212.230469 L 409.210938 212.230469 Z M 409.210938 218.441406 "/>
<path style=" stroke:none;fill-rule:evenodd;fill:rgb(87.889099%,87.889099%,87.889099%);fill-opacity:1;" d="M 422.039063 225.210938 L 434.261719 225.210938 L 434.261719 219 L 422.039063 219 Z M 422.039063 225.210938 "/>
<path style="fill:none;stroke-width:5.8827;stroke-linecap:butt;stroke-linejoin:miter;stroke:rgb(75.389099%,75.389099%,75.389099%);stroke-opacity:1;stroke-miterlimit:10;" d="M 4092.109375 2499.6875 L 4361.015625 2499.6875 L 4361.015625 4271.992188 L 4092.109375 4271.992188 Z M 4092.109375 2499.6875 " transform="matrix(0.1,0,0,-0.1,0,478)"/>
<path style="fill:none;stroke-width:5.8827;stroke-linecap:butt;stroke-linejoin:miter;stroke:rgb(75.389099%,75.389099%,75.389099%);stroke-opacity:1;stroke-miterlimit:10;" d="M 4098.203125 2527.890625 L 4348.789063 2527.890625 L 4348.789063 4243.789063 L 4098.203125 4243.789063 Z M 4098.203125 2527.890625 " transform="matrix(0.1,0,0,-0.1,0,478)"/>
<path style=" stroke:none;fill-rule:evenodd;fill:rgb(87.889099%,87.889099%,87.889099%);fill-opacity:1;" d="M 187.351563 272.050781 L 194.070313 272.050781 L 194.070313 261.332031 L 187.351563 261.332031 Z M 187.351563 272.050781 "/>
<path style=" stroke:none;fill-rule:evenodd;fill:rgb(87.889099%,87.889099%,87.889099%);fill-opacity:1;" d="M 194.691406 260.761719 L 202.019531 260.761719 L 202.019531 250.039063 L 194.691406 250.039063 Z M 194.691406 260.761719 "/>
<path style=" stroke:none;fill-rule:evenodd;fill:rgb(87.889099%,87.889099%,87.889099%);fill-opacity:1;" d="M 202.019531 272.050781 L 209.351563 272.050781 L 209.351563 261.332031 L 202.019531 261.332031 Z M 202.019531 272.050781 "/>
<path style=" stroke:none;fill-rule:evenodd;fill:rgb(87.889099%,87.889099%,87.889099%);fill-opacity:1;" d="M 209.351563 260.761719 L 216.070313 260.761719 L 216.070313 250.039063 L 209.351563 250.039063 Z M 209.351563 260.761719 "/>
<path style=" stroke:none;fill-rule:evenodd;fill:rgb(87.889099%,87.889099%,87.889099%);fill-opacity:1;" d="M 218.519531 272.050781 L 225.851563 272.050781 L 225.851563 261.332031 L 218.519531 261.332031 Z M 218.519531 272.050781 "/>
<path style=" stroke:none;fill-rule:evenodd;fill:rgb(87.889099%,87.889099%,87.889099%);fill-opacity:1;" d="M 225.859375 260.761719 L 232.578125 260.761719 L 232.578125 250.039063 L 225.859375 250.039063 Z M 225.859375 260.761719 "/>
<path style=" stroke:none;fill-rule:evenodd;fill:rgb(87.889099%,87.889099%,87.889099%);fill-opacity:1;" d="M 232.578125 272.050781 L 239.300781 272.050781 L 239.300781 261.332031 L 232.578125 261.332031 Z M 232.578125 272.050781 "/>
<path style=" stroke:none;fill-rule:evenodd;fill:rgb(87.889099%,87.889099%,87.889099%);fill-opacity:1;" d="M 240.519531 260.761719 L 247.851563 260.761719 L 247.851563 250.039063 L 240.519531 250.039063 Z M 240.519531 260.761719 "/>
<path style=" stroke:none;fill-rule:evenodd;fill:rgb(87.889099%,87.889099%,87.889099%);fill-opacity:1;" d="M 247.859375 272.050781 L 254.578125 272.050781 L 254.578125 261.332031 L 247.859375 261.332031 Z M 247.859375 272.050781 "/>
<path style=" stroke:none;fill-rule:evenodd;fill:rgb(87.889099%,87.889099%,87.889099%);fill-opacity:1;" d="M 256.410156 260.761719 L 263.738281 260.761719 L 263.738281 250.039063 L 256.410156 250.039063 Z M 256.410156 260.761719 "/>
<path style=" stroke:none;fill-rule:evenodd;fill:rgb(87.889099%,87.889099%,87.889099%);fill-opacity:1;" d="M 264.359375 272.050781 L 271.691406 272.050781 L 271.691406 261.332031 L 264.359375 261.332031 Z M 264.359375 272.050781 "/>
<path style=" stroke:none;fill-rule:evenodd;fill:rgb(87.889099%,87.889099%,87.889099%);fill-opacity:1;" d="M 272.300781 260.761719 L 279.019531 260.761719 L 279.019531 250.039063 L 272.300781 250.039063 Z M 272.300781 260.761719 "/>
<path style=" stroke:none;fill-rule:evenodd;fill:rgb(87.889099%,87.889099%,87.889099%);fill-opacity:1;" d="M 279.640625 272.050781 L 288.199219 272.050781 L 288.199219 261.332031 L 279.640625 261.332031 Z M 279.640625 272.050781 "/>
<path style=" stroke:none;fill-rule:evenodd;fill:rgb(87.889099%,87.889099%,87.889099%);fill-opacity:1;" d="M 288.191406 260.761719 L 296.140625 260.761719 L 296.140625 250.039063 L 288.191406 250.039063 Z M 288.191406 260.761719 "/>
<path style=" stroke:none;fill-rule:evenodd;fill:rgb(87.889099%,87.889099%,87.889099%);fill-opacity:1;" d="M 297.359375 272.050781 L 304.691406 272.050781 L 304.691406 261.332031 L 297.359375 261.332031 Z M 297.359375 272.050781 "/>
<path style=" stroke:none;fill-rule:evenodd;fill:rgb(87.889099%,87.889099%,87.889099%);fill-opacity:1;" d="M 305.308594 260.761719 L 312.640625 260.761719 L 312.640625 250.039063 L 305.308594 250.039063 Z M 305.308594 260.761719 "/>
<path style=" stroke:none;fill-rule:evenodd;fill:rgb(87.889099%,87.889099%,87.889099%);fill-opacity:1;" d="M 313.25 272.050781 L 319.96875 272.050781 L 319.96875 261.332031 L 313.25 261.332031 Z M 313.25 272.050781 "/>
<path style=" stroke:none;fill-rule:evenodd;fill:rgb(87.889099%,87.889099%,87.889099%);fill-opacity:1;" d="M 321.808594 260.761719 L 328.53125 260.761719 L 328.53125 250.039063 L 321.808594 250.039063 Z M 321.808594 260.761719 "/>
<path style=" stroke:none;fill-rule:evenodd;fill:rgb(87.889099%,87.889099%,87.889099%);fill-opacity:1;" d="M 329.140625 272.050781 L 336.46875 272.050781 L 336.46875 261.332031 L 329.140625 261.332031 Z M 329.140625 272.050781 "/>
<path style=" stroke:none;fill-rule:evenodd;fill:rgb(87.889099%,87.889099%,87.889099%);fill-opacity:1;" d="M 336.480469 260.761719 L 343.199219 260.761719 L 343.199219 250.039063 L 336.480469 250.039063 Z M 336.480469 260.761719 "/>
<path style=" stroke:none;fill-rule:evenodd;fill:rgb(87.889099%,87.889099%,87.889099%);fill-opacity:1;" d="M 343.808594 272.050781 L 351.140625 272.050781 L 351.140625 261.332031 L 343.808594 261.332031 Z M 343.808594 272.050781 "/>
<path style=" stroke:none;fill-rule:evenodd;fill:rgb(87.889099%,87.889099%,87.889099%);fill-opacity:1;" d="M 351.761719 260.761719 L 359.089844 260.761719 L 359.089844 250.039063 L 351.761719 250.039063 Z M 351.761719 260.761719 "/>
<path style=" stroke:none;fill-rule:evenodd;fill:rgb(87.889099%,87.889099%,87.889099%);fill-opacity:1;" d="M 359.699219 272.050781 L 366.417969 272.050781 L 366.417969 261.332031 L 359.699219 261.332031 Z M 359.699219 272.050781 "/>
<path style=" stroke:none;fill-rule:evenodd;fill:rgb(87.889099%,87.889099%,87.889099%);fill-opacity:1;" d="M 367.648438 260.761719 L 374.980469 260.761719 L 374.980469 250.039063 L 367.648438 250.039063 Z M 367.648438 260.761719 "/>
<path style=" stroke:none;fill-rule:evenodd;fill:rgb(87.889099%,87.889099%,87.889099%);fill-opacity:1;" d="M 375.589844 272.050781 L 382.308594 272.050781 L 382.308594 261.332031 L 375.589844 261.332031 Z M 375.589844 272.050781 "/>
<path style=" stroke:none;fill-rule:evenodd;fill:rgb(87.889099%,87.889099%,87.889099%);fill-opacity:1;" d="M 382.308594 260.761719 L 389.03125 260.761719 L 389.03125 250.039063 L 382.308594 250.039063 Z M 382.308594 260.761719 "/>
<path style="fill:none;stroke-width:5.8827;stroke-linecap:butt;stroke-linejoin:miter;stroke:rgb(75.389099%,75.389099%,75.389099%);stroke-opacity:1;stroke-miterlimit:10;" d="M 1818.515625 2048.085938 L 3920.898438 2048.085938 L 3920.898438 2302.109375 L 1818.515625 2302.109375 Z M 1818.515625 2048.085938 " transform="matrix(0.1,0,0,-0.1,0,478)"/>
<path style="fill:none;stroke-width:5.8827;stroke-linecap:butt;stroke-linejoin:miter;stroke:rgb(75.389099%,75.389099%,75.389099%);stroke-opacity:1;stroke-miterlimit:10;" d="M 1855.195313 2059.414063 L 3890.390625 2059.414063 L 3890.390625 2290.820313 L 1855.195313 2290.820313 Z M 1855.195313 2059.414063 " transform="matrix(0.1,0,0,-0.1,0,478)"/>
<path style="fill:none;stroke-width:5.8827;stroke-linecap:round;stroke-linejoin:round;stroke:rgb(0%,0%,0%);stroke-opacity:1;stroke-miterlimit:10;" d="M 3.28125 4277.695313 L 5705.507813 4277.695313 M 3.28125 2460.195313 L 1641.289063 2460.195313 L 1733.007813 2403.710938 L 1769.609375 2375.507813 L 1781.796875 2341.601563 L 1794.101563 2273.90625 L 1800.195313 2206.210938 L 1806.289063 2127.1875 L 1806.289063 -458.007813 " transform="matrix(0.1,0,0,-0.1,0,478)"/>
<path style="fill:none;stroke-width:5.8827;stroke-linecap:round;stroke-linejoin:round;stroke:rgb(0%,0%,0%);stroke-opacity:1;stroke-miterlimit:10;" d="M 5723.90625 2477.109375 L 4104.296875 2477.109375 L 4018.710938 2420.703125 L 3988.203125 2392.382813 L 3969.804688 2352.890625 L 3957.617188 2285.195313 L 3951.484375 2223.085938 L 3945.390625 2144.101563 L 3945.390625 -458.007813 " transform="matrix(0.1,0,0,-0.1,0,478)"/>
<path style="fill:none;stroke-width:5.8827;stroke-linecap:round;stroke-linejoin:round;stroke:rgb(0%,0%,0%);stroke-opacity:1;stroke-miterlimit:10;" d="M 15.585938 3351.992188 L 1317.382813 3351.992188 " transform="matrix(0.1,0,0,-0.1,0,478)"/>
<path style="fill:none;stroke-width:5.8827;stroke-linecap:round;stroke-linejoin:round;stroke:rgb(0%,0%,0%);stroke-opacity:1;stroke-miterlimit:10;" d="M 3.28125 3380.195313 L 1384.609375 3380.195313 " transform="matrix(0.1,0,0,-0.1,0,478)"/>
<path style="fill:none;stroke-width:23.5306;stroke-linecap:round;stroke-linejoin:round;stroke:rgb(0%,0%,0%);stroke-opacity:1;stroke-miterlimit:10;" d="M 1207.304688 3323.789063 L 1207.304688 2471.484375 " transform="matrix(0.1,0,0,-0.1,0,478)"/>
<path style="fill:none;stroke-width:5.8827;stroke-linecap:round;stroke-linejoin:round;stroke:rgb(0%,0%,0%);stroke-opacity:1;stroke-miterlimit:10;" d="M 5705.507813 3374.609375 L 4373.203125 3374.609375 M 2833.085938 -458.007813 L 2833.085938 2025.585938 " transform="matrix(0.1,0,0,-0.1,0,478)"/>
<path style="fill:none;stroke-width:17.648;stroke-linecap:round;stroke-linejoin:round;stroke:rgb(0%,0%,0%);stroke-opacity:1;stroke-miterlimit:10;" d="M 2881.914063 1856.210938 L 3939.296875 1856.210938 " transform="matrix(0.1,0,0,-0.1,0,478)"/>
<path style="fill:none;stroke-width:5.8827;stroke-linecap:round;stroke-linejoin:round;stroke:rgb(0%,0%,0%);stroke-opacity:1;stroke-miterlimit:10;" d="M 2863.59375 2025.585938 L 2863.59375 -463.59375 " transform="matrix(0.1,0,0,-0.1,0,478)"/>
<path style="fill:none;stroke-width:5.8827;stroke-linecap:round;stroke-linejoin:round;stroke:rgb(0%,0%,0%);stroke-opacity:1;stroke-miterlimit:10;" d="M 4367.109375 3346.289063 L 5705.507813 3346.289063 " transform="matrix(0.1,0,0,-0.1,0,478)"/>
<path style="fill:none;stroke-width:17.648;stroke-linecap:round;stroke-linejoin:round;stroke:rgb(0%,0%,0%);stroke-opacity:1;stroke-miterlimit:10;" d="M 4501.484375 4266.40625 L 4501.484375 3380.195313 " transform="matrix(0.1,0,0,-0.1,0,478)"/>
<path style="fill:none;stroke-width:5.8827;stroke-linecap:round;stroke-linejoin:round;stroke:rgb(0%,0%,0%);stroke-opacity:1;stroke-dasharray:70.5918,35.2959;stroke-miterlimit:10;" d="M 4379.296875 2911.71875 L 5705.507813 2911.71875 M 2063.007813 2031.210938 L 2063.007813 -491.796875 M 3401.40625 1850.585938 L 3401.40625 -458.007813 M 4538.203125 3594.6875 L 5705.507813 3594.6875 M 4373.203125 2685.898438 L 5699.414063 2685.898438 M 2570.195313 2008.59375 L 2570.195313 -458.007813 M 3114.21875 1839.296875 L 3114.21875 -458.007813 M 2331.914063 2031.210938 L 2331.914063 -480.507813 M 3676.484375 1850.585938 L 3676.484375 -452.304688 M 4379.296875 3126.210938 L 5705.507813 3126.210938 M 4538.203125 3820.507813 L 5705.507813 3820.507813 M 4538.203125 4057.5 L 5705.507813 4057.5 " transform="matrix(0.1,0,0,-0.1,0,478)"/>
<path style=" stroke:none;fill-rule:evenodd;fill:rgb(87.889099%,87.889099%,87.889099%);fill-opacity:1;" d="M 132.351563 62.089844 L 143.960938 62.089844 L 143.960938 55.878906 L 132.351563 55.878906 Z M 132.351563 62.089844 "/>
<path style=" stroke:none;fill-rule:evenodd;fill:rgb(87.889099%,87.889099%,87.889099%);fill-opacity:1;" d="M 145.179688 68.859375 L 157.398438 68.859375 L 157.398438 62.648438 L 145.179688 62.648438 Z M 145.179688 68.859375 "/>
<path style=" stroke:none;fill-rule:evenodd;fill:rgb(87.889099%,87.889099%,87.889099%);fill-opacity:1;" d="M 132.351563 73.941406 L 143.960938 73.941406 L 143.960938 67.730469 L 132.351563 67.730469 Z M 132.351563 73.941406 "/>
<path style=" stroke:none;fill-rule:evenodd;fill:rgb(87.889099%,87.889099%,87.889099%);fill-opacity:1;" d="M 145.179688 81.839844 L 157.398438 81.839844 L 157.398438 75.628906 L 145.179688 75.628906 Z M 145.179688 81.839844 "/>
<path style=" stroke:none;fill-rule:evenodd;fill:rgb(87.889099%,87.889099%,87.889099%);fill-opacity:1;" d="M 132.351563 88.050781 L 143.960938 88.050781 L 143.960938 81.839844 L 132.351563 81.839844 Z M 132.351563 88.050781 "/>
<path style=" stroke:none;fill-rule:evenodd;fill:rgb(87.889099%,87.889099%,87.889099%);fill-opacity:1;" d="M 145.179688 94.828125 L 157.398438 94.828125 L 157.398438 88.621094 L 145.179688 88.621094 Z M 145.179688 94.828125 "/>
<path style=" stroke:none;fill-rule:evenodd;fill:rgb(87.889099%,87.889099%,87.889099%);fill-opacity:1;" d="M 132.351563 101.039063 L 143.960938 101.039063 L 143.960938 94.832031 L 132.351563 94.832031 Z M 132.351563 101.039063 "/>
<path style=" stroke:none;fill-rule:evenodd;fill:rgb(87.889099%,87.889099%,87.889099%);fill-opacity:1;" d="M 145.179688 107.238281 L 157.398438 107.238281 L 157.398438 101.03125 L 145.179688 101.03125 Z M 145.179688 107.238281 "/>
<path style=" stroke:none;fill-rule:evenodd;fill:rgb(87.889099%,87.889099%,87.889099%);fill-opacity:1;" d="M 132.351563 115.148438 L 143.960938 115.148438 L 143.960938 108.941406 L 132.351563 108.941406 Z M 132.351563 115.148438 "/>
<path style=" stroke:none;fill-rule:evenodd;fill:rgb(87.889099%,87.889099%,87.889099%);fill-opacity:1;" d="M 145.179688 122.480469 L 157.398438 122.480469 L 157.398438 116.269531 L 145.179688 116.269531 Z M 145.179688 122.480469 "/>
<path style=" stroke:none;fill-rule:evenodd;fill:rgb(87.889099%,87.889099%,87.889099%);fill-opacity:1;" d="M 132.351563 128.128906 L 143.960938 128.128906 L 143.960938 121.917969 L 132.351563 121.917969 Z M 132.351563 128.128906 "/>
<path style=" stroke:none;fill-rule:evenodd;fill:rgb(87.889099%,87.889099%,87.889099%);fill-opacity:1;" d="M 145.179688 134.898438 L 157.398438 134.898438 L 157.398438 128.691406 L 145.179688 128.691406 Z M 145.179688 134.898438 "/>
<path style=" stroke:none;fill-rule:evenodd;fill:rgb(87.889099%,87.889099%,87.889099%);fill-opacity:1;" d="M 132.351563 141.109375 L 143.960938 141.109375 L 143.960938 134.339844 L 132.351563 134.339844 Z M 132.351563 141.109375 "/>
<path style=" stroke:none;fill-rule:evenodd;fill:rgb(87.889099%,87.889099%,87.889099%);fill-opacity:1;" d="M 145.179688 147.878906 L 157.398438 147.878906 L 157.398438 141.667969 L 145.179688 141.667969 Z M 145.179688 147.878906 "/>
<path style=" stroke:none;fill-rule:evenodd;fill:rgb(87.889099%,87.889099%,87.889099%);fill-opacity:1;" d="M 132.351563 154.660156 L 143.960938 154.660156 L 143.960938 148.449219 L 132.351563 148.449219 Z M 132.351563 154.660156 "/>
<path style=" stroke:none;fill-rule:evenodd;fill:rgb(87.889099%,87.889099%,87.889099%);fill-opacity:1;" d="M 145.179688 160.871094 L 157.398438 160.871094 L 157.398438 154.660156 L 145.179688 154.660156 Z M 145.179688 160.871094 "/>
<path style=" stroke:none;fill-rule:evenodd;fill:rgb(87.889099%,87.889099%,87.889099%);fill-opacity:1;" d="M 132.351563 168.199219 L 143.960938 168.199219 L 143.960938 161.988281 L 132.351563 161.988281 Z M 132.351563 168.199219 "/>
<path style=" stroke:none;fill-rule:evenodd;fill:rgb(87.889099%,87.889099%,87.889099%);fill-opacity:1;" d="M 145.179688 174.980469 L 157.398438 174.980469 L 157.398438 168.769531 L 145.179688 168.769531 Z M 145.179688 174.980469 "/>
<path style=" stroke:none;fill-rule:evenodd;fill:rgb(87.889099%,87.889099%,87.889099%);fill-opacity:1;" d="M 132.351563 182.308594 L 143.960938 182.308594 L 143.960938 176.101563 L 132.351563 176.101563 Z M 132.351563 182.308594 "/>
<path style=" stroke:none;fill-rule:evenodd;fill:rgb(87.889099%,87.889099%,87.889099%);fill-opacity:1;" d="M 145.179688 188.519531 L 157.398438 188.519531 L 157.398438 182.308594 L 145.179688 182.308594 Z M 145.179688 188.519531 "/>
<path style=" stroke:none;fill-rule:evenodd;fill:rgb(87.889099%,87.889099%,87.889099%);fill-opacity:1;" d="M 132.351563 194.171875 L 143.960938 194.171875 L 143.960938 187.960938 L 132.351563 187.960938 Z M 132.351563 194.171875 "/>
<path style=" stroke:none;fill-rule:evenodd;fill:rgb(87.889099%,87.889099%,87.889099%);fill-opacity:1;" d="M 145.179688 200.941406 L 157.398438 200.941406 L 157.398438 194.730469 L 145.179688 194.730469 Z M 145.179688 200.941406 "/>
<path style=" stroke:none;fill-rule:evenodd;fill:rgb(87.889099%,87.889099%,87.889099%);fill-opacity:1;" d="M 132.351563 207.710938 L 143.960938 207.710938 L 143.960938 201.5 L 132.351563 201.5 Z M 132.351563 207.710938 "/>
<path style=" stroke:none;fill-rule:evenodd;fill:rgb(87.889099%,87.889099%,87.889099%);fill-opacity:1;" d="M 145.179688 213.921875 L 157.398438 213.921875 L 157.398438 207.710938 L 145.179688 207.710938 Z M 145.179688 213.921875 "/>
<path style=" stroke:none;fill-rule:evenodd;fill:rgb(87.889099%,87.889099%,87.889099%);fill-opacity:1;" d="M 132.351563 220.128906 L 143.960938 220.128906 L 143.960938 213.917969 L 132.351563 213.917969 Z M 132.351563 220.128906 "/>
<path style=" stroke:none;fill-rule:evenodd;fill:rgb(87.889099%,87.889099%,87.889099%);fill-opacity:1;" d="M 145.179688 226.898438 L 157.398438 226.898438 L 157.398438 220.691406 L 145.179688 220.691406 Z M 145.179688 226.898438 "/>
<path style="fill:none;stroke-width:5.8827;stroke-linecap:butt;stroke-linejoin:miter;stroke:rgb(75.389099%,75.389099%,75.389099%);stroke-opacity:1;stroke-miterlimit:10;" d="M 1323.515625 2482.8125 L 1592.382813 2482.8125 L 1592.382813 4255.117188 L 1323.515625 4255.117188 Z M 1323.515625 2482.8125 " transform="matrix(0.1,0,0,-0.1,0,478)"/>
<path style="fill:none;stroke-width:5.8827;stroke-linecap:butt;stroke-linejoin:miter;stroke:rgb(75.389099%,75.389099%,75.389099%);stroke-opacity:1;stroke-miterlimit:10;" d="M 1329.609375 2511.015625 L 1580.195313 2511.015625 L 1580.195313 4226.914063 L 1329.609375 4226.914063 Z M 1329.609375 2511.015625 " transform="matrix(0.1,0,0,-0.1,0,478)"/>
<path style="fill:none;stroke-width:5.8827;stroke-linecap:round;stroke-linejoin:round;stroke:rgb(0%,0%,0%);stroke-opacity:1;stroke-dasharray:70.5918,35.2959;stroke-miterlimit:10;" d="M 3.28125 4046.210938 L 1298.984375 4046.210938 " transform="matrix(0.1,0,0,-0.1,0,478)"/>
<path style="fill:none;stroke-width:5.8827;stroke-linecap:round;stroke-linejoin:round;stroke:rgb(0%,0%,0%);stroke-opacity:1;stroke-dasharray:70.5918,35.2959;stroke-miterlimit:10;" d="M 3.28125 3814.804688 L 1298.984375 3814.804688 M 3.28125 3606.015625 L 1298.984375 3606.015625 M 3.28125 3131.796875 L 1201.210938 3131.796875 M 3.28125 2911.71875 L 1201.210938 2911.71875 M 3.28125 2685.898438 L 1201.210938 2685.898438 " transform="matrix(0.1,0,0,-0.1,0,478)"/>
</g>
</svg>
