<?xml version="1.0" encoding="UTF-8"?>
<svg xmlns="http://www.w3.org/2000/svg" xmlns:xlink="http://www.w3.org/1999/xlink" width="508pt" height="489pt" viewBox="0 0 508 489" version="1.1">
<g id="surface1">
<path style=" stroke:none;fill-rule:evenodd;fill:rgb(87.889099%,87.889099%,87.889099%);fill-opacity:1;" d="M 119.398438 50.230469 L 138.351563 50.230469 L 138.351563 44.589844 L 119.398438 44.589844 Z M 119.398438 50.230469 "/>
<path style=" stroke:none;fill-rule:evenodd;fill:rgb(87.889099%,87.889099%,87.889099%);fill-opacity:1;" d="M 138.351563 56.441406 L 157.910156 56.441406 L 157.910156 50.230469 L 138.351563 50.230469 Z M 138.351563 56.441406 "/>
<path style=" stroke:none;fill-rule:evenodd;fill:rgb(87.889099%,87.889099%,87.889099%);fill-opacity:1;" d="M 119.398438 62.648438 L 138.351563 62.648438 L 138.351563 56.441406 L 119.398438 56.441406 Z M 119.398438 62.648438 "/>
<path style=" stroke:none;fill-rule:evenodd;fill:rgb(87.889099%,87.889099%,87.889099%);fill-opacity:1;" d="M 138.351563 68.859375 L 157.910156 68.859375 L 157.910156 63.21875 L 138.351563 63.21875 Z M 138.351563 68.859375 "/>
<path style=" stroke:none;fill-rule:evenodd;fill:rgb(87.889099%,87.889099%,87.889099%);fill-opacity:1;" d="M 119.398438 75.640625 L 138.351563 75.640625 L 138.351563 69.429688 L 119.398438 69.429688 Z M 119.398438 75.640625 "/>
<path style=" stroke:none;fill-rule:evenodd;fill:rgb(87.889099%,87.889099%,87.889099%);fill-opacity:1;" d="M 138.351563 80.710938 L 157.910156 80.710938 L 157.910156 75.070313 L 138.351563 75.070313 Z M 138.351563 80.710938 "/>
<path style=" stroke:none;fill-rule:evenodd;fill:rgb(87.889099%,87.889099%,87.889099%);fill-opacity:1;" d="M 119.398438 87.480469 L 138.351563 87.480469 L 138.351563 81.839844 L 119.398438 81.839844 Z M 119.398438 87.480469 "/>
<path style=" stroke:none;fill-rule:evenodd;fill:rgb(87.889099%,87.889099%,87.889099%);fill-opacity:1;" d="M 138.351563 93.699219 L 157.910156 93.699219 L 157.910156 87.488281 L 138.351563 87.488281 Z M 138.351563 93.699219 "/>
<path style=" stroke:none;fill-rule:evenodd;fill:rgb(87.889099%,87.889099%,87.889099%);fill-opacity:1;" d="M 119.398438 100.46875 L 138.351563 100.46875 L 138.351563 94.832031 L 119.398438 94.832031 Z M 119.398438 100.46875 "/>
<path style=" stroke:none;fill-rule:evenodd;fill:rgb(87.889099%,87.889099%,87.889099%);fill-opacity:1;" d="M 138.351563 106.679688 L 157.910156 106.679688 L 157.910156 100.46875 L 138.351563 100.46875 Z M 138.351563 106.679688 "/>
<path style=" stroke:none;fill-rule:evenodd;fill:rgb(87.889099%,87.889099%,87.889099%);fill-opacity:1;" d="M 119.398438 111.761719 L 138.351563 111.761719 L 138.351563 105.550781 L 119.398438 105.550781 Z M 119.398438 111.761719 "/>
<path style=" stroke:none;fill-rule:evenodd;fill:rgb(87.889099%,87.889099%,87.889099%);fill-opacity:1;" d="M 138.351563 118.53125 L 157.910156 118.53125 L 157.910156 112.890625 L 138.351563 112.890625 Z M 138.351563 118.53125 "/>
<path style=" stroke:none;fill-rule:evenodd;fill:rgb(87.889099%,87.889099%,87.889099%);fill-opacity:1;" d="M 119.398438 124.738281 L 138.351563 124.738281 L 138.351563 118.53125 L 119.398438 118.53125 Z M 119.398438 124.738281 "/>
<path style=" stroke:none;fill-rule:evenodd;fill:rgb(87.889099%,87.889099%,87.889099%);fill-opacity:1;" d="M 138.351563 132.078125 L 157.910156 132.078125 L 157.910156 125.871094 L 138.351563 125.871094 Z M 138.351563 132.078125 "/>
<path style=" stroke:none;fill-rule:evenodd;fill:rgb(87.889099%,87.889099%,87.889099%);fill-opacity:1;" d="M 119.398438 137.71875 L 138.351563 137.71875 L 138.351563 131.511719 L 119.398438 131.511719 Z M 119.398438 137.71875 "/>
<path style=" stroke:none;fill-rule:evenodd;fill:rgb(87.889099%,87.889099%,87.889099%);fill-opacity:1;" d="M 138.351563 144.5 L 157.910156 144.5 L 157.910156 138.289063 L 138.351563 138.289063 Z M 138.351563 144.5 "/>
<path style=" stroke:none;fill-rule:evenodd;fill:rgb(87.889099%,87.889099%,87.889099%);fill-opacity:1;" d="M 119.398438 150.140625 L 138.351563 150.140625 L 138.351563 144.5 L 119.398438 144.5 Z M 119.398438 150.140625 "/>
<path style=" stroke:none;fill-rule:evenodd;fill:rgb(87.889099%,87.889099%,87.889099%);fill-opacity:1;" d="M 138.351563 156.910156 L 157.910156 156.910156 L 157.910156 151.269531 L 138.351563 151.269531 Z M 138.351563 156.910156 "/>
<path style=" stroke:none;fill-rule:evenodd;fill:rgb(87.889099%,87.889099%,87.889099%);fill-opacity:1;" d="M 119.398438 163.691406 L 138.351563 163.691406 L 138.351563 157.480469 L 119.398438 157.480469 Z M 119.398438 163.691406 "/>
<path style=" stroke:none;fill-rule:evenodd;fill:rgb(87.889099%,87.889099%,87.889099%);fill-opacity:1;" d="M 138.351563 169.890625 L 157.910156 169.890625 L 157.910156 164.25 L 138.351563 164.25 Z M 138.351563 169.890625 "/>
<path style=" stroke:none;fill-rule:evenodd;fill:rgb(87.889099%,87.889099%,87.889099%);fill-opacity:1;" d="M 119.398438 174.980469 L 138.351563 174.980469 L 138.351563 168.769531 L 119.398438 168.769531 Z M 119.398438 174.980469 "/>
<path style=" stroke:none;fill-rule:evenodd;fill:rgb(87.889099%,87.889099%,87.889099%);fill-opacity:1;" d="M 138.351563 181.75 L 157.910156 181.75 L 157.910156 175.539063 L 138.351563 175.539063 Z M 138.351563 181.75 "/>
<path style=" stroke:none;fill-rule:evenodd;fill:rgb(87.889099%,87.889099%,87.889099%);fill-opacity:1;" d="M 119.398438 189.078125 L 138.351563 189.078125 L 138.351563 183.441406 L 119.398438 183.441406 Z M 119.398438 189.078125 "/>
<path style=" stroke:none;fill-rule:evenodd;fill:rgb(87.889099%,87.889099%,87.889099%);fill-opacity:1;" d="M 138.351563 194.171875 L 157.910156 194.171875 L 157.910156 187.960938 L 138.351563 187.960938 Z M 138.351563 194.171875 "/>
<path style=" stroke:none;fill-rule:evenodd;fill:rgb(87.889099%,87.889099%,87.889099%);fill-opacity:1;" d="M 119.398438 200.929688 L 138.351563 200.929688 L 138.351563 195.289063 L 119.398438 195.289063 Z M 119.398438 200.929688 "/>
<path style=" stroke:none;fill-rule:evenodd;fill:rgb(87.889099%,87.889099%,87.889099%);fill-opacity:1;" d="M 138.351563 207.140625 L 157.910156 207.140625 L 157.910156 201.5 L 138.351563 201.5 Z M 138.351563 207.140625 "/>
<path style="fill:none;stroke-width:5.8827;stroke-linecap:butt;stroke-linejoin:miter;stroke:rgb(75.389099%,75.389099%,75.389099%);stroke-opacity:1;stroke-miterlimit:10;" d="M 1175.703125 2801.601563 L 1609.609375 2801.601563 L 1609.609375 4478.007813 L 1175.703125 4478.007813 Z M 1175.703125 2801.601563 " transform="matrix(0.1,0,0,-0.1,0,489)"/>
<path style="fill:none;stroke-width:5.8827;stroke-linecap:butt;stroke-linejoin:miter;stroke:rgb(75.389099%,75.389099%,75.389099%);stroke-opacity:1;stroke-miterlimit:10;" d="M 1200.117188 2824.21875 L 1591.210938 2824.21875 L 1591.210938 4455.390625 L 1200.117188 4455.390625 Z M 1200.117188 2824.21875 " transform="matrix(0.1,0,0,-0.1,0,489)"/>
<path style=" stroke:none;fill-rule:evenodd;fill:rgb(87.889099%,87.889099%,87.889099%);fill-opacity:1;" d="M 350.421875 50.230469 L 366.921875 50.230469 L 366.921875 44.589844 L 350.421875 44.589844 Z M 350.421875 50.230469 "/>
<path style=" stroke:none;fill-rule:evenodd;fill:rgb(87.889099%,87.889099%,87.889099%);fill-opacity:1;" d="M 367.539063 56.441406 L 385.261719 56.441406 L 385.261719 50.800781 L 367.539063 50.800781 Z M 367.539063 56.441406 "/>
<path style=" stroke:none;fill-rule:evenodd;fill:rgb(87.889099%,87.889099%,87.889099%);fill-opacity:1;" d="M 350.421875 61.519531 L 366.921875 61.519531 L 366.921875 55.878906 L 350.421875 55.878906 Z M 350.421875 61.519531 "/>
<path style=" stroke:none;fill-rule:evenodd;fill:rgb(87.889099%,87.889099%,87.889099%);fill-opacity:1;" d="M 367.539063 68.859375 L 385.261719 68.859375 L 385.261719 63.21875 L 367.539063 63.21875 Z M 367.539063 68.859375 "/>
<path style=" stroke:none;fill-rule:evenodd;fill:rgb(87.889099%,87.889099%,87.889099%);fill-opacity:1;" d="M 350.421875 74.5 L 366.921875 74.5 L 366.921875 68.859375 L 350.421875 68.859375 Z M 350.421875 74.5 "/>
<path style=" stroke:none;fill-rule:evenodd;fill:rgb(87.889099%,87.889099%,87.889099%);fill-opacity:1;" d="M 367.539063 80.710938 L 385.261719 80.710938 L 385.261719 75.070313 L 367.539063 75.070313 Z M 367.539063 80.710938 "/>
<path style=" stroke:none;fill-rule:evenodd;fill:rgb(87.889099%,87.889099%,87.889099%);fill-opacity:1;" d="M 350.421875 86.921875 L 366.921875 86.921875 L 366.921875 81.28125 L 350.421875 81.28125 Z M 350.421875 86.921875 "/>
<path style=" stroke:none;fill-rule:evenodd;fill:rgb(87.889099%,87.889099%,87.889099%);fill-opacity:1;" d="M 367.539063 92.558594 L 385.261719 92.558594 L 385.261719 86.917969 L 367.539063 86.917969 Z M 367.539063 92.558594 "/>
<path style=" stroke:none;fill-rule:evenodd;fill:rgb(87.889099%,87.889099%,87.889099%);fill-opacity:1;" d="M 350.421875 99.898438 L 366.921875 99.898438 L 366.921875 94.261719 L 350.421875 94.261719 Z M 350.421875 99.898438 "/>
<path style=" stroke:none;fill-rule:evenodd;fill:rgb(87.889099%,87.889099%,87.889099%);fill-opacity:1;" d="M 367.539063 106.109375 L 385.261719 106.109375 L 385.261719 100.46875 L 367.539063 100.46875 Z M 367.539063 106.109375 "/>
<path style=" stroke:none;fill-rule:evenodd;fill:rgb(87.889099%,87.889099%,87.889099%);fill-opacity:1;" d="M 350.421875 111.191406 L 366.921875 111.191406 L 366.921875 105.550781 L 350.421875 105.550781 Z M 350.421875 111.191406 "/>
<path style=" stroke:none;fill-rule:evenodd;fill:rgb(87.889099%,87.889099%,87.889099%);fill-opacity:1;" d="M 367.539063 117.960938 L 385.261719 117.960938 L 385.261719 112.320313 L 367.539063 112.320313 Z M 367.539063 117.960938 "/>
<path style=" stroke:none;fill-rule:evenodd;fill:rgb(87.889099%,87.889099%,87.889099%);fill-opacity:1;" d="M 350.421875 123.050781 L 366.921875 123.050781 L 366.921875 116.839844 L 350.421875 116.839844 Z M 350.421875 123.050781 "/>
<path style=" stroke:none;fill-rule:evenodd;fill:rgb(87.889099%,87.889099%,87.889099%);fill-opacity:1;" d="M 367.539063 129.820313 L 385.261719 129.820313 L 385.261719 124.179688 L 367.539063 124.179688 Z M 367.539063 129.820313 "/>
<path style=" stroke:none;fill-rule:evenodd;fill:rgb(87.889099%,87.889099%,87.889099%);fill-opacity:1;" d="M 350.421875 136.019531 L 366.921875 136.019531 L 366.921875 130.378906 L 350.421875 130.378906 Z M 350.421875 136.019531 "/>
<path style=" stroke:none;fill-rule:evenodd;fill:rgb(87.889099%,87.889099%,87.889099%);fill-opacity:1;" d="M 367.539063 142.230469 L 385.261719 142.230469 L 385.261719 136.589844 L 367.539063 136.589844 Z M 367.539063 142.230469 "/>
<path style=" stroke:none;fill-rule:evenodd;fill:rgb(87.889099%,87.889099%,87.889099%);fill-opacity:1;" d="M 350.421875 149.011719 L 366.921875 149.011719 L 366.921875 143.371094 L 350.421875 143.371094 Z M 350.421875 149.011719 "/>
<path style=" stroke:none;fill-rule:evenodd;fill:rgb(87.889099%,87.889099%,87.889099%);fill-opacity:1;" d="M 367.539063 155.21875 L 385.261719 155.21875 L 385.261719 149.582031 L 367.539063 149.582031 Z M 367.539063 155.21875 "/>
<path style=" stroke:none;fill-rule:evenodd;fill:rgb(87.889099%,87.889099%,87.889099%);fill-opacity:1;" d="M 350.421875 161.988281 L 366.921875 161.988281 L 366.921875 156.351563 L 350.421875 156.351563 Z M 350.421875 161.988281 "/>
<path style=" stroke:none;fill-rule:evenodd;fill:rgb(87.889099%,87.889099%,87.889099%);fill-opacity:1;" d="M 367.539063 167.628906 L 385.261719 167.628906 L 385.261719 161.988281 L 367.539063 161.988281 Z M 367.539063 167.628906 "/>
<path style=" stroke:none;fill-rule:evenodd;fill:rgb(87.889099%,87.889099%,87.889099%);fill-opacity:1;" d="M 350.421875 173.28125 L 366.921875 173.28125 L 366.921875 167.640625 L 350.421875 167.640625 Z M 350.421875 173.28125 "/>
<path style=" stroke:none;fill-rule:evenodd;fill:rgb(87.889099%,87.889099%,87.889099%);fill-opacity:1;" d="M 367.539063 179.488281 L 385.261719 179.488281 L 385.261719 173.851563 L 367.539063 173.851563 Z M 367.539063 179.488281 "/>
<path style=" stroke:none;fill-rule:evenodd;fill:rgb(87.889099%,87.889099%,87.889099%);fill-opacity:1;" d="M 350.421875 185.691406 L 366.921875 185.691406 L 366.921875 180.050781 L 350.421875 180.050781 Z M 350.421875 185.691406 "/>
<path style=" stroke:none;fill-rule:evenodd;fill:rgb(87.889099%,87.889099%,87.889099%);fill-opacity:1;" d="M 367.539063 191.339844 L 385.261719 191.339844 L 385.261719 185.699219 L 367.539063 185.699219 Z M 367.539063 191.339844 "/>
<path style=" stroke:none;fill-rule:evenodd;fill:rgb(87.889099%,87.889099%,87.889099%);fill-opacity:1;" d="M 350.421875 197.550781 L 366.921875 197.550781 L 366.921875 191.910156 L 350.421875 191.910156 Z M 350.421875 197.550781 "/>
<path style=" stroke:none;fill-rule:evenodd;fill:rgb(87.889099%,87.889099%,87.889099%);fill-opacity:1;" d="M 367.539063 203.761719 L 385.261719 203.761719 L 385.261719 198.121094 L 367.539063 198.121094 Z M 367.539063 203.761719 "/>
<path style="fill:none;stroke-width:5.8827;stroke-linecap:butt;stroke-linejoin:miter;stroke:rgb(75.389099%,75.389099%,75.389099%);stroke-opacity:1;stroke-miterlimit:10;" d="M 3491.992188 2829.804688 L 3883.085938 2829.804688 L 3883.085938 4478.007813 L 3491.992188 4478.007813 Z M 3491.992188 2829.804688 " transform="matrix(0.1,0,0,-0.1,0,489)"/>
<path style="fill:none;stroke-width:5.8827;stroke-linecap:butt;stroke-linejoin:miter;stroke:rgb(75.389099%,75.389099%,75.389099%);stroke-opacity:1;stroke-miterlimit:10;" d="M 3504.21875 2858.007813 L 3864.804688 2858.007813 L 3864.804688 4455.390625 L 3504.21875 4455.390625 Z M 3504.21875 2858.007813 " transform="matrix(0.1,0,0,-0.1,0,489)"/>
<path style=" stroke:none;fill-rule:evenodd;fill:rgb(87.889099%,87.889099%,87.889099%);fill-opacity:1;" d="M 174.410156 272.058594 L 179.300781 272.058594 L 179.300781 253.429688 L 174.410156 253.429688 Z M 174.410156 272.058594 "/>
<path style=" stroke:none;fill-rule:evenodd;fill:rgb(87.889099%,87.889099%,87.889099%);fill-opacity:1;" d="M 181.128906 253.441406 L 186.019531 253.441406 L 186.019531 234.808594 L 181.128906 234.808594 Z M 181.128906 253.441406 "/>
<path style=" stroke:none;fill-rule:evenodd;fill:rgb(87.889099%,87.889099%,87.889099%);fill-opacity:1;" d="M 186.628906 272.058594 L 191.519531 272.058594 L 191.519531 253.429688 L 186.628906 253.429688 Z M 186.628906 272.058594 "/>
<path style=" stroke:none;fill-rule:evenodd;fill:rgb(87.889099%,87.889099%,87.889099%);fill-opacity:1;" d="M 192.128906 253.441406 L 197.019531 253.441406 L 197.019531 234.808594 L 192.128906 234.808594 Z M 192.128906 253.441406 "/>
<path style=" stroke:none;fill-rule:evenodd;fill:rgb(87.889099%,87.889099%,87.889099%);fill-opacity:1;" d="M 198.859375 272.058594 L 203.75 272.058594 L 203.75 253.429688 L 198.859375 253.429688 Z M 198.859375 272.058594 "/>
<path style=" stroke:none;fill-rule:evenodd;fill:rgb(87.889099%,87.889099%,87.889099%);fill-opacity:1;" d="M 203.738281 253.441406 L 208.628906 253.441406 L 208.628906 234.808594 L 203.738281 234.808594 Z M 203.738281 253.441406 "/>
<path style=" stroke:none;fill-rule:evenodd;fill:rgb(87.889099%,87.889099%,87.889099%);fill-opacity:1;" d="M 210.46875 272.058594 L 215.359375 272.058594 L 215.359375 253.429688 L 210.46875 253.429688 Z M 210.46875 272.058594 "/>
<path style=" stroke:none;fill-rule:evenodd;fill:rgb(87.889099%,87.889099%,87.889099%);fill-opacity:1;" d="M 215.96875 253.441406 L 220.859375 253.441406 L 220.859375 234.808594 L 215.96875 234.808594 Z M 215.96875 253.441406 "/>
<path style=" stroke:none;fill-rule:evenodd;fill:rgb(87.889099%,87.889099%,87.889099%);fill-opacity:1;" d="M 222.078125 272.058594 L 226.96875 272.058594 L 226.96875 253.429688 L 222.078125 253.429688 Z M 222.078125 272.058594 "/>
<path style=" stroke:none;fill-rule:evenodd;fill:rgb(87.889099%,87.889099%,87.889099%);fill-opacity:1;" d="M 228.800781 253.441406 L 233.691406 253.441406 L 233.691406 234.808594 L 228.800781 234.808594 Z M 228.800781 253.441406 "/>
<path style=" stroke:none;fill-rule:evenodd;fill:rgb(87.889099%,87.889099%,87.889099%);fill-opacity:1;" d="M 234.300781 272.058594 L 239.191406 272.058594 L 239.191406 253.429688 L 234.300781 253.429688 Z M 234.300781 272.058594 "/>
<path style=" stroke:none;fill-rule:evenodd;fill:rgb(87.889099%,87.889099%,87.889099%);fill-opacity:1;" d="M 240.410156 253.441406 L 245.300781 253.441406 L 245.300781 234.808594 L 240.410156 234.808594 Z M 240.410156 253.441406 "/>
<path style=" stroke:none;fill-rule:evenodd;fill:rgb(87.889099%,87.889099%,87.889099%);fill-opacity:1;" d="M 246.53125 272.058594 L 251.417969 272.058594 L 251.417969 253.429688 L 246.53125 253.429688 Z M 246.53125 272.058594 "/>
<path style=" stroke:none;fill-rule:evenodd;fill:rgb(87.889099%,87.889099%,87.889099%);fill-opacity:1;" d="M 252.640625 253.441406 L 257.53125 253.441406 L 257.53125 234.808594 L 252.640625 234.808594 Z M 252.640625 253.441406 "/>
<path style=" stroke:none;fill-rule:evenodd;fill:rgb(87.889099%,87.889099%,87.889099%);fill-opacity:1;" d="M 258.75 272.058594 L 264.25 272.058594 L 264.25 253.429688 L 258.75 253.429688 Z M 258.75 272.058594 "/>
<path style=" stroke:none;fill-rule:evenodd;fill:rgb(87.889099%,87.889099%,87.889099%);fill-opacity:1;" d="M 264.859375 253.441406 L 269.75 253.441406 L 269.75 234.808594 L 264.859375 234.808594 Z M 264.859375 253.441406 "/>
<path style=" stroke:none;fill-rule:evenodd;fill:rgb(87.889099%,87.889099%,87.889099%);fill-opacity:1;" d="M 271.578125 272.058594 L 276.46875 272.058594 L 276.46875 253.429688 L 271.578125 253.429688 Z M 271.578125 272.058594 "/>
<path style=" stroke:none;fill-rule:evenodd;fill:rgb(87.889099%,87.889099%,87.889099%);fill-opacity:1;" d="M 277.699219 253.441406 L 282.589844 253.441406 L 282.589844 234.808594 L 277.699219 234.808594 Z M 277.699219 253.441406 "/>
<path style=" stroke:none;fill-rule:evenodd;fill:rgb(87.889099%,87.889099%,87.889099%);fill-opacity:1;" d="M 283.808594 272.058594 L 288.699219 272.058594 L 288.699219 253.429688 L 283.808594 253.429688 Z M 283.808594 272.058594 "/>
<path style=" stroke:none;fill-rule:evenodd;fill:rgb(87.889099%,87.889099%,87.889099%);fill-opacity:1;" d="M 288.699219 253.441406 L 293.589844 253.441406 L 293.589844 234.808594 L 288.699219 234.808594 Z M 288.699219 253.441406 "/>
<path style=" stroke:none;fill-rule:evenodd;fill:rgb(87.889099%,87.889099%,87.889099%);fill-opacity:1;" d="M 295.421875 272.058594 L 300.308594 272.058594 L 300.308594 253.429688 L 295.421875 253.429688 Z M 295.421875 272.058594 "/>
<path style=" stroke:none;fill-rule:evenodd;fill:rgb(87.889099%,87.889099%,87.889099%);fill-opacity:1;" d="M 300.308594 253.441406 L 305.199219 253.441406 L 305.199219 234.808594 L 300.308594 234.808594 Z M 300.308594 253.441406 "/>
<path style=" stroke:none;fill-rule:evenodd;fill:rgb(87.889099%,87.889099%,87.889099%);fill-opacity:1;" d="M 307.03125 272.058594 L 311.917969 272.058594 L 311.917969 253.429688 L 307.03125 253.429688 Z M 307.03125 272.058594 "/>
<path style=" stroke:none;fill-rule:evenodd;fill:rgb(87.889099%,87.889099%,87.889099%);fill-opacity:1;" d="M 313.140625 253.441406 L 318.03125 253.441406 L 318.03125 234.808594 L 313.140625 234.808594 Z M 313.140625 253.441406 "/>
<path style=" stroke:none;fill-rule:evenodd;fill:rgb(87.889099%,87.889099%,87.889099%);fill-opacity:1;" d="M 319.261719 272.058594 L 324.148438 272.058594 L 324.148438 253.429688 L 319.261719 253.429688 Z M 319.261719 272.058594 "/>
<path style=" stroke:none;fill-rule:evenodd;fill:rgb(87.889099%,87.889099%,87.889099%);fill-opacity:1;" d="M 324.761719 253.441406 L 329.648438 253.441406 L 329.648438 234.808594 L 324.761719 234.808594 Z M 324.761719 253.441406 "/>
<path style="fill:none;stroke-width:5.8827;stroke-linecap:butt;stroke-linejoin:miter;stroke:rgb(75.389099%,75.389099%,75.389099%);stroke-opacity:1;stroke-miterlimit:10;" d="M 1707.382813 2146.914063 L 3308.710938 2146.914063 L 3308.710938 2581.484375 L 1707.382813 2581.484375 Z M 1707.382813 2146.914063 " transform="matrix(0.1,0,0,-0.1,0,489)"/>
<path style="fill:none;stroke-width:5.8827;stroke-linecap:butt;stroke-linejoin:miter;stroke:rgb(75.389099%,75.389099%,75.389099%);stroke-opacity:1;stroke-miterlimit:10;" d="M 1731.914063 2169.414063 L 3290.390625 2169.414063 L 3290.390625 2553.203125 L 1731.914063 2553.203125 Z M 1731.914063 2169.414063 " transform="matrix(0.1,0,0,-0.1,0,489)"/>
<path style="fill:none;stroke-width:5.8827;stroke-linecap:round;stroke-linejoin:round;stroke:rgb(0%,0%,0%);stroke-opacity:1;stroke-miterlimit:10;" d="M 8.398438 4500.507813 L 5019.882813 4500.507813 " transform="matrix(0.1,0,0,-0.1,0,489)"/>
<path style="fill:none;stroke-width:5.8827;stroke-linecap:round;stroke-linejoin:round;stroke:rgb(0%,0%,0%);stroke-opacity:1;stroke-miterlimit:10;" d="M 14.492188 2790.3125 L 1560.703125 2790.3125 L 1646.289063 2728.203125 L 1670.703125 2700 L 1683.007813 2660.507813 L 1701.289063 2587.109375 L 1707.382813 2519.414063 L 1713.515625 2434.6875 L 1713.515625 -325.390625 " transform="matrix(0.1,0,0,-0.1,0,489)"/>
<path style="fill:none;stroke-width:5.8827;stroke-linecap:round;stroke-linejoin:round;stroke:rgb(0%,0%,0%);stroke-opacity:1;stroke-miterlimit:10;" d="M 5019.882813 2807.1875 L 3485.898438 2807.1875 L 3400.3125 2745.117188 L 3375.898438 2716.914063 L 3363.710938 2677.382813 L 3345.3125 2603.984375 L 3339.21875 2536.289063 L 3333.085938 2451.601563 L 3333.085938 -308.515625 " transform="matrix(0.1,0,0,-0.1,0,489)"/>
<path style="fill:none;stroke-width:5.8827;stroke-linecap:round;stroke-linejoin:round;stroke:rgb(0%,0%,0%);stroke-opacity:1;stroke-miterlimit:10;" d="M 8.398438 3710.3125 L 1181.796875 3710.3125 M 2.304688 3738.59375 L 1157.382813 3738.59375 " transform="matrix(0.1,0,0,-0.1,0,489)"/>
<path style="fill:none;stroke-width:35.2959;stroke-linecap:round;stroke-linejoin:round;stroke:rgb(0%,0%,0%);stroke-opacity:1;stroke-miterlimit:10;" d="M 1065.703125 3698.984375 L 1065.703125 2824.21875 " transform="matrix(0.1,0,0,-0.1,0,489)"/>
<path style="fill:none;stroke-width:5.8827;stroke-linecap:round;stroke-linejoin:round;stroke:rgb(0%,0%,0%);stroke-opacity:1;stroke-miterlimit:10;" d="M 5056.601563 3704.6875 L 3883.203125 3704.6875 M 2550.78125 -353.59375 L 2550.78125 2107.304688 " transform="matrix(0.1,0,0,-0.1,0,489)"/>
<path style="fill:none;stroke-width:23.5306;stroke-linecap:round;stroke-linejoin:round;stroke:rgb(0%,0%,0%);stroke-opacity:1;stroke-miterlimit:10;" d="M 2575.3125 1966.210938 L 3320.898438 1966.210938 " transform="matrix(0.1,0,0,-0.1,0,489)"/>
<path style="fill:none;stroke-width:5.8827;stroke-linecap:round;stroke-linejoin:round;stroke:rgb(0%,0%,0%);stroke-opacity:1;stroke-miterlimit:10;" d="M 2520.3125 2096.015625 L 2520.3125 -364.882813 " transform="matrix(0.1,0,0,-0.1,0,489)"/>
<path style="fill:none;stroke-width:5.8827;stroke-linecap:round;stroke-linejoin:round;stroke:rgb(0%,0%,0%);stroke-opacity:1;stroke-miterlimit:10;" d="M 3895.390625 3676.484375 L 5038.28125 3676.484375 " transform="matrix(0.1,0,0,-0.1,0,489)"/>
<path style="fill:none;stroke-width:23.5306;stroke-linecap:round;stroke-linejoin:round;stroke:rgb(0%,0%,0%);stroke-opacity:1;stroke-miterlimit:10;" d="M 3981.015625 4494.882813 L 3981.015625 3727.304688 " transform="matrix(0.1,0,0,-0.1,0,489)"/>
<path style="fill:none;stroke-width:5.8827;stroke-linecap:round;stroke-linejoin:round;stroke:rgb(0%,0%,0%);stroke-opacity:1;stroke-dasharray:70.5918,35.2959;stroke-miterlimit:10;" d="M 3974.804688 4133.710938 L 5081.09375 4133.710938 M 3938.203125 3281.40625 L 5044.414063 3281.40625 M 2.304688 4133.710938 L 1200.117188 4133.710938 M 2.304688 3270.117188 L 1016.796875 3270.117188 M 2116.914063 2101.71875 L 2116.914063 -359.296875 M 2948.085938 1926.71875 L 2948.085938 -359.296875 " transform="matrix(0.1,0,0,-0.1,0,489)"/>
</g>
</svg>
