<?xml version="1.0" encoding="UTF-8"?>
<svg xmlns="http://www.w3.org/2000/svg" xmlns:xlink="http://www.w3.org/1999/xlink" width="573pt" height="511pt" viewBox="0 0 573 511" version="1.1">
<g id="surface1">
<path style="fill:none;stroke-width:5.8827;stroke-linecap:round;stroke-linejoin:round;stroke:rgb(0%,0%,0%);stroke-opacity:1;stroke-miterlimit:10;" d="M 2831.40625 4799.609375 L 2831.40625 4206.914063 M 2868.085938 4793.90625 L 2868.085938 4206.914063 " transform="matrix(0.1,0,0,-0.1,0,511)"/>
<path style=" stroke:none;fill-rule:evenodd;fill:rgb(87.889099%,87.889099%,87.889099%);fill-opacity:1;" d="M 409.039063 130.378906 L 420.648438 130.378906 L 420.648438 125.300781 L 409.039063 125.300781 Z M 409.039063 130.378906 "/>
<path style=" stroke:none;fill-rule:evenodd;fill:rgb(87.889099%,87.889099%,87.889099%);fill-opacity:1;" d="M 421.871094 136.589844 L 434.089844 136.589844 L 434.089844 131.511719 L 421.871094 131.511719 Z M 421.871094 136.589844 "/>
<path style=" stroke:none;fill-rule:evenodd;fill:rgb(87.889099%,87.889099%,87.889099%);fill-opacity:1;" d="M 409.039063 141.109375 L 420.648438 141.109375 L 420.648438 136.03125 L 409.039063 136.03125 Z M 409.039063 141.109375 "/>
<path style=" stroke:none;fill-rule:evenodd;fill:rgb(87.889099%,87.889099%,87.889099%);fill-opacity:1;" d="M 421.871094 147.878906 L 434.089844 147.878906 L 434.089844 142.800781 L 421.871094 142.800781 Z M 421.871094 147.878906 "/>
<path style=" stroke:none;fill-rule:evenodd;fill:rgb(87.889099%,87.889099%,87.889099%);fill-opacity:1;" d="M 409.039063 153.53125 L 420.648438 153.53125 L 420.648438 148.449219 L 409.039063 148.449219 Z M 409.039063 153.53125 "/>
<path style=" stroke:none;fill-rule:evenodd;fill:rgb(87.889099%,87.889099%,87.889099%);fill-opacity:1;" d="M 421.871094 159.171875 L 434.089844 159.171875 L 434.089844 154.089844 L 421.871094 154.089844 Z M 421.871094 159.171875 "/>
<path style=" stroke:none;fill-rule:evenodd;fill:rgb(87.889099%,87.889099%,87.889099%);fill-opacity:1;" d="M 409.039063 165.378906 L 420.648438 165.378906 L 420.648438 160.300781 L 409.039063 160.300781 Z M 409.039063 165.378906 "/>
<path style=" stroke:none;fill-rule:evenodd;fill:rgb(87.889099%,87.889099%,87.889099%);fill-opacity:1;" d="M 421.871094 170.460938 L 434.089844 170.460938 L 434.089844 165.378906 L 421.871094 165.378906 Z M 421.871094 170.460938 "/>
<path style=" stroke:none;fill-rule:evenodd;fill:rgb(87.889099%,87.889099%,87.889099%);fill-opacity:1;" d="M 409.039063 177.230469 L 420.648438 177.230469 L 420.648438 172.148438 L 409.039063 172.148438 Z M 409.039063 177.230469 "/>
<path style=" stroke:none;fill-rule:evenodd;fill:rgb(87.889099%,87.889099%,87.889099%);fill-opacity:1;" d="M 421.871094 184.011719 L 434.089844 184.011719 L 434.089844 178.929688 L 421.871094 178.929688 Z M 421.871094 184.011719 "/>
<path style=" stroke:none;fill-rule:evenodd;fill:rgb(87.889099%,87.889099%,87.889099%);fill-opacity:1;" d="M 409.039063 188.519531 L 420.648438 188.519531 L 420.648438 183.441406 L 409.039063 183.441406 Z M 409.039063 188.519531 "/>
<path style=" stroke:none;fill-rule:evenodd;fill:rgb(87.889099%,87.889099%,87.889099%);fill-opacity:1;" d="M 421.871094 194.730469 L 434.089844 194.730469 L 434.089844 189.648438 L 421.871094 189.648438 Z M 421.871094 194.730469 "/>
<path style=" stroke:none;fill-rule:evenodd;fill:rgb(87.889099%,87.889099%,87.889099%);fill-opacity:1;" d="M 409.039063 200.371094 L 420.648438 200.371094 L 420.648438 194.730469 L 409.039063 194.730469 Z M 409.039063 200.371094 "/>
<path style=" stroke:none;fill-rule:evenodd;fill:rgb(87.889099%,87.889099%,87.889099%);fill-opacity:1;" d="M 421.871094 206.019531 L 434.089844 206.019531 L 434.089844 200.941406 L 421.871094 200.941406 Z M 421.871094 206.019531 "/>
<path style=" stroke:none;fill-rule:evenodd;fill:rgb(87.889099%,87.889099%,87.889099%);fill-opacity:1;" d="M 409.039063 212.230469 L 420.648438 212.230469 L 420.648438 207.148438 L 409.039063 207.148438 Z M 409.039063 212.230469 "/>
<path style=" stroke:none;fill-rule:evenodd;fill:rgb(87.889099%,87.889099%,87.889099%);fill-opacity:1;" d="M 421.871094 217.871094 L 434.089844 217.871094 L 434.089844 212.789063 L 421.871094 212.789063 Z M 421.871094 217.871094 "/>
<path style=" stroke:none;fill-rule:evenodd;fill:rgb(87.889099%,87.889099%,87.889099%);fill-opacity:1;" d="M 409.039063 224.078125 L 420.648438 224.078125 L 420.648438 219 L 409.039063 219 Z M 409.039063 224.078125 "/>
<path style=" stroke:none;fill-rule:evenodd;fill:rgb(87.889099%,87.889099%,87.889099%);fill-opacity:1;" d="M 421.871094 230.289063 L 434.089844 230.289063 L 434.089844 225.210938 L 421.871094 225.210938 Z M 421.871094 230.289063 "/>
<path style=" stroke:none;fill-rule:evenodd;fill:rgb(87.889099%,87.889099%,87.889099%);fill-opacity:1;" d="M 409.039063 236.5 L 420.648438 236.5 L 420.648438 231.417969 L 409.039063 231.417969 Z M 409.039063 236.5 "/>
<path style=" stroke:none;fill-rule:evenodd;fill:rgb(87.889099%,87.889099%,87.889099%);fill-opacity:1;" d="M 421.871094 241.578125 L 434.089844 241.578125 L 434.089844 236.5 L 421.871094 236.5 Z M 421.871094 241.578125 "/>
<path style=" stroke:none;fill-rule:evenodd;fill:rgb(87.889099%,87.889099%,87.889099%);fill-opacity:1;" d="M 409.039063 247.21875 L 420.648438 247.21875 L 420.648438 242.140625 L 409.039063 242.140625 Z M 409.039063 247.21875 "/>
<path style=" stroke:none;fill-rule:evenodd;fill:rgb(87.889099%,87.889099%,87.889099%);fill-opacity:1;" d="M 421.871094 252.871094 L 434.089844 252.871094 L 434.089844 247.789063 L 421.871094 247.789063 Z M 421.871094 252.871094 "/>
<path style=" stroke:none;fill-rule:evenodd;fill:rgb(87.889099%,87.889099%,87.889099%);fill-opacity:1;" d="M 409.039063 258.511719 L 420.648438 258.511719 L 420.648438 253.429688 L 409.039063 253.429688 Z M 409.039063 258.511719 "/>
<path style=" stroke:none;fill-rule:evenodd;fill:rgb(87.889099%,87.889099%,87.889099%);fill-opacity:1;" d="M 421.871094 264.160156 L 434.089844 264.160156 L 434.089844 259.078125 L 421.871094 259.078125 Z M 421.871094 264.160156 "/>
<path style=" stroke:none;fill-rule:evenodd;fill:rgb(87.889099%,87.889099%,87.889099%);fill-opacity:1;" d="M 409.039063 269.800781 L 420.648438 269.800781 L 420.648438 264.71875 L 409.039063 264.71875 Z M 409.039063 269.800781 "/>
<path style=" stroke:none;fill-rule:evenodd;fill:rgb(87.889099%,87.889099%,87.889099%);fill-opacity:1;" d="M 421.871094 276.011719 L 434.089844 276.011719 L 434.089844 270.929688 L 421.871094 270.929688 Z M 421.871094 276.011719 "/>
<path style="fill:none;stroke-width:5.8827;stroke-linecap:butt;stroke-linejoin:miter;stroke:rgb(75.389099%,75.389099%,75.389099%);stroke-opacity:1;stroke-miterlimit:10;" d="M 4090.390625 2321.71875 L 4359.296875 2321.71875 L 4359.296875 3879.492188 L 4090.390625 3879.492188 Z M 4090.390625 2321.71875 " transform="matrix(0.1,0,0,-0.1,0,511)"/>
<path style="fill:none;stroke-width:5.8827;stroke-linecap:butt;stroke-linejoin:miter;stroke:rgb(75.389099%,75.389099%,75.389099%);stroke-opacity:1;stroke-miterlimit:10;" d="M 4096.484375 2344.296875 L 4347.109375 2344.296875 L 4347.109375 3856.992188 L 4096.484375 3856.992188 Z M 4096.484375 2344.296875 " transform="matrix(0.1,0,0,-0.1,0,511)"/>
<path style=" stroke:none;fill-rule:evenodd;fill:rgb(87.889099%,87.889099%,87.889099%);fill-opacity:1;" d="M 187.191406 317.78125 L 193.910156 317.78125 L 193.910156 308.179688 L 187.191406 308.179688 Z M 187.191406 317.78125 "/>
<path style=" stroke:none;fill-rule:evenodd;fill:rgb(87.889099%,87.889099%,87.889099%);fill-opacity:1;" d="M 194.519531 307.621094 L 201.851563 307.621094 L 201.851563 298.019531 L 194.519531 298.019531 Z M 194.519531 307.621094 "/>
<path style=" stroke:none;fill-rule:evenodd;fill:rgb(87.889099%,87.889099%,87.889099%);fill-opacity:1;" d="M 201.851563 317.78125 L 209.179688 317.78125 L 209.179688 308.179688 L 201.851563 308.179688 Z M 201.851563 317.78125 "/>
<path style=" stroke:none;fill-rule:evenodd;fill:rgb(87.889099%,87.889099%,87.889099%);fill-opacity:1;" d="M 209.191406 307.621094 L 215.910156 307.621094 L 215.910156 298.019531 L 209.191406 298.019531 Z M 209.191406 307.621094 "/>
<path style=" stroke:none;fill-rule:evenodd;fill:rgb(87.889099%,87.889099%,87.889099%);fill-opacity:1;" d="M 218.351563 317.78125 L 225.679688 317.78125 L 225.679688 308.179688 L 218.351563 308.179688 Z M 218.351563 317.78125 "/>
<path style=" stroke:none;fill-rule:evenodd;fill:rgb(87.889099%,87.889099%,87.889099%);fill-opacity:1;" d="M 225.691406 307.621094 L 232.410156 307.621094 L 232.410156 298.019531 L 225.691406 298.019531 Z M 225.691406 307.621094 "/>
<path style=" stroke:none;fill-rule:evenodd;fill:rgb(87.889099%,87.889099%,87.889099%);fill-opacity:1;" d="M 232.410156 317.78125 L 239.128906 317.78125 L 239.128906 308.179688 L 232.410156 308.179688 Z M 232.410156 317.78125 "/>
<path style=" stroke:none;fill-rule:evenodd;fill:rgb(87.889099%,87.889099%,87.889099%);fill-opacity:1;" d="M 240.359375 307.621094 L 247.691406 307.621094 L 247.691406 298.019531 L 240.359375 298.019531 Z M 240.359375 307.621094 "/>
<path style=" stroke:none;fill-rule:evenodd;fill:rgb(87.889099%,87.889099%,87.889099%);fill-opacity:1;" d="M 247.691406 317.78125 L 254.410156 317.78125 L 254.410156 308.179688 L 247.691406 308.179688 Z M 247.691406 317.78125 "/>
<path style=" stroke:none;fill-rule:evenodd;fill:rgb(87.889099%,87.889099%,87.889099%);fill-opacity:1;" d="M 256.25 307.621094 L 263.582031 307.621094 L 263.582031 298.019531 L 256.25 298.019531 Z M 256.25 307.621094 "/>
<path style=" stroke:none;fill-rule:evenodd;fill:rgb(87.889099%,87.889099%,87.889099%);fill-opacity:1;" d="M 264.191406 317.78125 L 271.519531 317.78125 L 271.519531 308.179688 L 264.191406 308.179688 Z M 264.191406 317.78125 "/>
<path style=" stroke:none;fill-rule:evenodd;fill:rgb(87.889099%,87.889099%,87.889099%);fill-opacity:1;" d="M 272.140625 307.621094 L 278.859375 307.621094 L 278.859375 298.019531 L 272.140625 298.019531 Z M 272.140625 307.621094 "/>
<path style=" stroke:none;fill-rule:evenodd;fill:rgb(87.889099%,87.889099%,87.889099%);fill-opacity:1;" d="M 279.46875 317.78125 L 288.03125 317.78125 L 288.03125 308.179688 L 279.46875 308.179688 Z M 279.46875 317.78125 "/>
<path style=" stroke:none;fill-rule:evenodd;fill:rgb(87.889099%,87.889099%,87.889099%);fill-opacity:1;" d="M 288.03125 307.621094 L 295.980469 307.621094 L 295.980469 298.019531 L 288.03125 298.019531 Z M 288.03125 307.621094 "/>
<path style=" stroke:none;fill-rule:evenodd;fill:rgb(87.889099%,87.889099%,87.889099%);fill-opacity:1;" d="M 297.199219 317.78125 L 304.53125 317.78125 L 304.53125 308.179688 L 297.199219 308.179688 Z M 297.199219 317.78125 "/>
<path style=" stroke:none;fill-rule:evenodd;fill:rgb(87.889099%,87.889099%,87.889099%);fill-opacity:1;" d="M 305.140625 307.621094 L 312.46875 307.621094 L 312.46875 298.019531 L 305.140625 298.019531 Z M 305.140625 307.621094 "/>
<path style=" stroke:none;fill-rule:evenodd;fill:rgb(87.889099%,87.889099%,87.889099%);fill-opacity:1;" d="M 313.089844 317.78125 L 319.808594 317.78125 L 319.808594 308.179688 L 313.089844 308.179688 Z M 313.089844 317.78125 "/>
<path style=" stroke:none;fill-rule:evenodd;fill:rgb(87.889099%,87.889099%,87.889099%);fill-opacity:1;" d="M 321.640625 307.621094 L 328.359375 307.621094 L 328.359375 298.019531 L 321.640625 298.019531 Z M 321.640625 307.621094 "/>
<path style=" stroke:none;fill-rule:evenodd;fill:rgb(87.889099%,87.889099%,87.889099%);fill-opacity:1;" d="M 328.980469 317.78125 L 336.308594 317.78125 L 336.308594 308.179688 L 328.980469 308.179688 Z M 328.980469 317.78125 "/>
<path style=" stroke:none;fill-rule:evenodd;fill:rgb(87.889099%,87.889099%,87.889099%);fill-opacity:1;" d="M 336.308594 307.621094 L 343.03125 307.621094 L 343.03125 298.019531 L 336.308594 298.019531 Z M 336.308594 307.621094 "/>
<path style=" stroke:none;fill-rule:evenodd;fill:rgb(87.889099%,87.889099%,87.889099%);fill-opacity:1;" d="M 343.640625 317.78125 L 350.96875 317.78125 L 350.96875 308.179688 L 343.640625 308.179688 Z M 343.640625 317.78125 "/>
<path style=" stroke:none;fill-rule:evenodd;fill:rgb(87.889099%,87.889099%,87.889099%);fill-opacity:1;" d="M 351.589844 307.621094 L 358.921875 307.621094 L 358.921875 298.019531 L 351.589844 298.019531 Z M 351.589844 307.621094 "/>
<path style=" stroke:none;fill-rule:evenodd;fill:rgb(87.889099%,87.889099%,87.889099%);fill-opacity:1;" d="M 359.53125 317.78125 L 366.25 317.78125 L 366.25 308.179688 L 359.53125 308.179688 Z M 359.53125 317.78125 "/>
<path style=" stroke:none;fill-rule:evenodd;fill:rgb(87.889099%,87.889099%,87.889099%);fill-opacity:1;" d="M 367.480469 307.621094 L 374.808594 307.621094 L 374.808594 298.019531 L 367.480469 298.019531 Z M 367.480469 307.621094 "/>
<path style=" stroke:none;fill-rule:evenodd;fill:rgb(87.889099%,87.889099%,87.889099%);fill-opacity:1;" d="M 375.421875 317.78125 L 382.140625 317.78125 L 382.140625 308.179688 L 375.421875 308.179688 Z M 375.421875 317.78125 "/>
<path style=" stroke:none;fill-rule:evenodd;fill:rgb(87.889099%,87.889099%,87.889099%);fill-opacity:1;" d="M 382.148438 307.621094 L 388.871094 307.621094 L 388.871094 298.019531 L 382.148438 298.019531 Z M 382.148438 307.621094 "/>
<path style="fill:none;stroke-width:5.8827;stroke-linecap:butt;stroke-linejoin:miter;stroke:rgb(75.389099%,75.389099%,75.389099%);stroke-opacity:1;stroke-miterlimit:10;" d="M 1816.796875 1920.898438 L 3919.21875 1920.898438 L 3919.21875 2146.71875 L 1816.796875 2146.71875 Z M 1816.796875 1920.898438 " transform="matrix(0.1,0,0,-0.1,0,511)"/>
<path style="fill:none;stroke-width:5.8827;stroke-linecap:butt;stroke-linejoin:miter;stroke:rgb(75.389099%,75.389099%,75.389099%);stroke-opacity:1;stroke-miterlimit:10;" d="M 1853.515625 1932.304688 L 3888.710938 1932.304688 L 3888.710938 2141.09375 L 1853.515625 2141.09375 Z M 1853.515625 1932.304688 " transform="matrix(0.1,0,0,-0.1,0,511)"/>
<path style="fill:none;stroke-width:5.8827;stroke-linecap:round;stroke-linejoin:round;stroke:rgb(0%,0%,0%);stroke-opacity:1;stroke-miterlimit:10;" d="M 1.71875 2287.8125 L 1639.609375 2287.8125 L 1731.289063 2236.992188 L 1768.007813 2214.414063 L 1780.195313 2180.585938 L 1792.382813 2124.101563 L 1798.515625 2067.695313 L 1804.609375 1994.296875 L 1804.609375 -280.390625 " transform="matrix(0.1,0,0,-0.1,0,511)"/>
<path style="fill:none;stroke-width:5.8827;stroke-linecap:round;stroke-linejoin:round;stroke:rgb(0%,0%,0%);stroke-opacity:1;stroke-miterlimit:10;" d="M 5722.1875 2310.390625 L 4102.617188 2310.390625 L 4016.992188 2259.609375 L 3986.484375 2236.992188 L 3968.203125 2203.203125 L 3955.898438 2141.09375 L 3949.804688 2084.609375 L 3943.710938 2016.914063 L 3943.710938 -274.6875 " transform="matrix(0.1,0,0,-0.1,0,511)"/>
<path style="fill:none;stroke-width:5.8827;stroke-linecap:round;stroke-linejoin:round;stroke:rgb(0%,0%,0%);stroke-opacity:1;stroke-miterlimit:10;" d="M 13.90625 3078.007813 L 1315.703125 3078.007813 " transform="matrix(0.1,0,0,-0.1,0,511)"/>
<path style="fill:none;stroke-width:5.8827;stroke-linecap:round;stroke-linejoin:round;stroke:rgb(0%,0%,0%);stroke-opacity:1;stroke-miterlimit:10;" d="M 1.71875 3100.585938 L 1382.890625 3100.585938 " transform="matrix(0.1,0,0,-0.1,0,511)"/>
<path style="fill:none;stroke-width:23.5306;stroke-linecap:round;stroke-linejoin:round;stroke:rgb(0%,0%,0%);stroke-opacity:1;stroke-miterlimit:10;" d="M 1205.703125 3055.507813 L 1205.703125 2304.804688 " transform="matrix(0.1,0,0,-0.1,0,511)"/>
<path style="fill:none;stroke-width:5.8827;stroke-linecap:round;stroke-linejoin:round;stroke:rgb(0%,0%,0%);stroke-opacity:1;stroke-miterlimit:10;" d="M 5703.90625 3095 L 4371.484375 3095 M 2831.40625 -280.390625 L 2831.40625 1903.984375 " transform="matrix(0.1,0,0,-0.1,0,511)"/>
<path style="fill:none;stroke-width:17.648;stroke-linecap:round;stroke-linejoin:round;stroke:rgb(0%,0%,0%);stroke-opacity:1;stroke-miterlimit:10;" d="M 2880.3125 1762.890625 L 3937.617188 1762.890625 " transform="matrix(0.1,0,0,-0.1,0,511)"/>
<path style="fill:none;stroke-width:5.8827;stroke-linecap:round;stroke-linejoin:round;stroke:rgb(0%,0%,0%);stroke-opacity:1;stroke-miterlimit:10;" d="M 2868.085938 1903.984375 L 2868.085938 -280.390625 " transform="matrix(0.1,0,0,-0.1,0,511)"/>
<path style="fill:none;stroke-width:5.8827;stroke-linecap:round;stroke-linejoin:round;stroke:rgb(0%,0%,0%);stroke-opacity:1;stroke-miterlimit:10;" d="M 4365.390625 3072.382813 L 5703.90625 3072.382813 " transform="matrix(0.1,0,0,-0.1,0,511)"/>
<path style="fill:none;stroke-width:17.648;stroke-linecap:round;stroke-linejoin:round;stroke:rgb(0%,0%,0%);stroke-opacity:1;stroke-miterlimit:10;" d="M 4499.882813 3885.195313 L 4499.882813 3100.585938 " transform="matrix(0.1,0,0,-0.1,0,511)"/>
<path style="fill:none;stroke-width:5.8827;stroke-linecap:round;stroke-linejoin:round;stroke:rgb(0%,0%,0%);stroke-opacity:1;stroke-dasharray:70.5918,35.2959;stroke-miterlimit:10;" d="M 4377.617188 2818.398438 L 5703.90625 2818.398438 M 2153.007813 1909.6875 L 2153.007813 -308.59375 M 3576.992188 1757.304688 L 3576.992188 -280.390625 M 4371.484375 2570 L 5697.8125 2570 M 2501.40625 1887.109375 L 2501.40625 -280.390625 M 3228.59375 1746.015625 L 3228.59375 -280.390625 M 4536.484375 3354.609375 L 5703.90625 3354.609375 M 4536.484375 3631.210938 L 5703.90625 3631.210938 " transform="matrix(0.1,0,0,-0.1,0,511)"/>
<path style=" stroke:none;fill-rule:evenodd;fill:rgb(87.889099%,87.889099%,87.889099%);fill-opacity:1;" d="M 132.179688 132.078125 L 143.789063 132.078125 L 143.789063 127 L 132.179688 127 Z M 132.179688 132.078125 "/>
<path style=" stroke:none;fill-rule:evenodd;fill:rgb(87.889099%,87.889099%,87.889099%);fill-opacity:1;" d="M 145.011719 138.289063 L 157.230469 138.289063 L 157.230469 133.210938 L 145.011719 133.210938 Z M 145.011719 138.289063 "/>
<path style=" stroke:none;fill-rule:evenodd;fill:rgb(87.889099%,87.889099%,87.889099%);fill-opacity:1;" d="M 132.179688 142.800781 L 143.789063 142.800781 L 143.789063 137.71875 L 132.179688 137.71875 Z M 132.179688 142.800781 "/>
<path style=" stroke:none;fill-rule:evenodd;fill:rgb(87.889099%,87.889099%,87.889099%);fill-opacity:1;" d="M 145.011719 149.578125 L 157.230469 149.578125 L 157.230469 144.5 L 145.011719 144.5 Z M 145.011719 149.578125 "/>
<path style=" stroke:none;fill-rule:evenodd;fill:rgb(87.889099%,87.889099%,87.889099%);fill-opacity:1;" d="M 132.179688 155.21875 L 143.789063 155.21875 L 143.789063 150.140625 L 132.179688 150.140625 Z M 132.179688 155.21875 "/>
<path style=" stroke:none;fill-rule:evenodd;fill:rgb(87.889099%,87.889099%,87.889099%);fill-opacity:1;" d="M 145.011719 160.859375 L 157.230469 160.859375 L 157.230469 155.78125 L 145.011719 155.78125 Z M 145.011719 160.859375 "/>
<path style=" stroke:none;fill-rule:evenodd;fill:rgb(87.889099%,87.889099%,87.889099%);fill-opacity:1;" d="M 132.179688 167.070313 L 143.789063 167.070313 L 143.789063 161.988281 L 132.179688 161.988281 Z M 132.179688 167.070313 "/>
<path style=" stroke:none;fill-rule:evenodd;fill:rgb(87.889099%,87.889099%,87.889099%);fill-opacity:1;" d="M 145.011719 172.148438 L 157.230469 172.148438 L 157.230469 167.070313 L 145.011719 167.070313 Z M 145.011719 172.148438 "/>
<path style=" stroke:none;fill-rule:evenodd;fill:rgb(87.889099%,87.889099%,87.889099%);fill-opacity:1;" d="M 132.179688 178.929688 L 143.789063 178.929688 L 143.789063 173.851563 L 132.179688 173.851563 Z M 132.179688 178.929688 "/>
<path style=" stroke:none;fill-rule:evenodd;fill:rgb(87.889099%,87.889099%,87.889099%);fill-opacity:1;" d="M 145.011719 185.699219 L 157.230469 185.699219 L 157.230469 180.621094 L 145.011719 180.621094 Z M 145.011719 185.699219 "/>
<path style=" stroke:none;fill-rule:evenodd;fill:rgb(87.889099%,87.889099%,87.889099%);fill-opacity:1;" d="M 132.179688 190.210938 L 143.789063 190.210938 L 143.789063 185.128906 L 132.179688 185.128906 Z M 132.179688 190.210938 "/>
<path style=" stroke:none;fill-rule:evenodd;fill:rgb(87.889099%,87.889099%,87.889099%);fill-opacity:1;" d="M 145.011719 196.421875 L 157.230469 196.421875 L 157.230469 191.339844 L 145.011719 191.339844 Z M 145.011719 196.421875 "/>
<path style=" stroke:none;fill-rule:evenodd;fill:rgb(87.889099%,87.889099%,87.889099%);fill-opacity:1;" d="M 132.179688 202.058594 L 143.789063 202.058594 L 143.789063 196.417969 L 132.179688 196.417969 Z M 132.179688 202.058594 "/>
<path style=" stroke:none;fill-rule:evenodd;fill:rgb(87.889099%,87.889099%,87.889099%);fill-opacity:1;" d="M 145.011719 207.710938 L 157.230469 207.710938 L 157.230469 202.628906 L 145.011719 202.628906 Z M 145.011719 207.710938 "/>
<path style=" stroke:none;fill-rule:evenodd;fill:rgb(87.889099%,87.889099%,87.889099%);fill-opacity:1;" d="M 132.179688 213.921875 L 143.789063 213.921875 L 143.789063 208.839844 L 132.179688 208.839844 Z M 132.179688 213.921875 "/>
<path style=" stroke:none;fill-rule:evenodd;fill:rgb(87.889099%,87.889099%,87.889099%);fill-opacity:1;" d="M 145.011719 219.570313 L 157.230469 219.570313 L 157.230469 214.488281 L 145.011719 214.488281 Z M 145.011719 219.570313 "/>
<path style=" stroke:none;fill-rule:evenodd;fill:rgb(87.889099%,87.889099%,87.889099%);fill-opacity:1;" d="M 132.179688 225.769531 L 143.789063 225.769531 L 143.789063 220.691406 L 132.179688 220.691406 Z M 132.179688 225.769531 "/>
<path style=" stroke:none;fill-rule:evenodd;fill:rgb(87.889099%,87.889099%,87.889099%);fill-opacity:1;" d="M 145.011719 231.980469 L 157.230469 231.980469 L 157.230469 226.898438 L 145.011719 226.898438 Z M 145.011719 231.980469 "/>
<path style=" stroke:none;fill-rule:evenodd;fill:rgb(87.889099%,87.889099%,87.889099%);fill-opacity:1;" d="M 132.179688 238.191406 L 143.789063 238.191406 L 143.789063 233.109375 L 132.179688 233.109375 Z M 132.179688 238.191406 "/>
<path style=" stroke:none;fill-rule:evenodd;fill:rgb(87.889099%,87.889099%,87.889099%);fill-opacity:1;" d="M 145.011719 243.269531 L 157.230469 243.269531 L 157.230469 238.191406 L 145.011719 238.191406 Z M 145.011719 243.269531 "/>
<path style=" stroke:none;fill-rule:evenodd;fill:rgb(87.889099%,87.889099%,87.889099%);fill-opacity:1;" d="M 132.179688 248.921875 L 143.789063 248.921875 L 143.789063 243.839844 L 132.179688 243.839844 Z M 132.179688 248.921875 "/>
<path style=" stroke:none;fill-rule:evenodd;fill:rgb(87.889099%,87.889099%,87.889099%);fill-opacity:1;" d="M 145.011719 254.558594 L 157.230469 254.558594 L 157.230469 249.480469 L 145.011719 249.480469 Z M 145.011719 254.558594 "/>
<path style=" stroke:none;fill-rule:evenodd;fill:rgb(87.889099%,87.889099%,87.889099%);fill-opacity:1;" d="M 132.179688 260.199219 L 143.789063 260.199219 L 143.789063 255.121094 L 132.179688 255.121094 Z M 132.179688 260.199219 "/>
<path style=" stroke:none;fill-rule:evenodd;fill:rgb(87.889099%,87.889099%,87.889099%);fill-opacity:1;" d="M 145.011719 265.851563 L 157.230469 265.851563 L 157.230469 260.769531 L 145.011719 260.769531 Z M 145.011719 265.851563 "/>
<path style=" stroke:none;fill-rule:evenodd;fill:rgb(87.889099%,87.889099%,87.889099%);fill-opacity:1;" d="M 132.179688 271.488281 L 143.789063 271.488281 L 143.789063 266.410156 L 132.179688 266.410156 Z M 132.179688 271.488281 "/>
<path style=" stroke:none;fill-rule:evenodd;fill:rgb(87.889099%,87.889099%,87.889099%);fill-opacity:1;" d="M 145.011719 277.699219 L 157.230469 277.699219 L 157.230469 272.621094 L 145.011719 272.621094 Z M 145.011719 277.699219 "/>
<path style="fill:none;stroke-width:5.8827;stroke-linecap:butt;stroke-linejoin:miter;stroke:rgb(75.389099%,75.389099%,75.389099%);stroke-opacity:1;stroke-miterlimit:10;" d="M 1321.796875 2304.804688 L 1590.703125 2304.804688 L 1590.703125 3862.617188 L 1321.796875 3862.617188 Z M 1321.796875 2304.804688 " transform="matrix(0.1,0,0,-0.1,0,511)"/>
<path style="fill:none;stroke-width:5.8827;stroke-linecap:butt;stroke-linejoin:miter;stroke:rgb(75.389099%,75.389099%,75.389099%);stroke-opacity:1;stroke-miterlimit:10;" d="M 1327.890625 2327.304688 L 1578.515625 2327.304688 L 1578.515625 3840 L 1327.890625 3840 Z M 1327.890625 2327.304688 " transform="matrix(0.1,0,0,-0.1,0,511)"/>
<path style="fill:none;stroke-width:5.8827;stroke-linecap:round;stroke-linejoin:round;stroke:rgb(0%,0%,0%);stroke-opacity:1;stroke-dasharray:70.5918,35.2959;stroke-miterlimit:10;" d="M 1.71875 3619.882813 L 1297.382813 3619.882813 " transform="matrix(0.1,0,0,-0.1,0,511)"/>
<path style="fill:none;stroke-width:5.8827;stroke-linecap:round;stroke-linejoin:round;stroke:rgb(0%,0%,0%);stroke-opacity:1;stroke-dasharray:70.5918,35.2959;stroke-miterlimit:10;" d="M 1.71875 3377.1875 L 1297.382813 3377.1875 M 1.71875 2807.109375 L 1199.609375 2807.109375 M 1.71875 2547.5 L 1199.609375 2547.5 " transform="matrix(0.1,0,0,-0.1,0,511)"/>
<path style="fill:none;stroke-width:5.8827;stroke-linecap:round;stroke-linejoin:round;stroke:rgb(0%,0%,0%);stroke-opacity:1;stroke-miterlimit:10;" d="M 1.71875 3890.78125 L 1621.289063 3890.78125 L 1713.007813 3907.8125 L 1749.609375 3918.984375 L 1761.796875 3930.3125 L 1774.101563 3947.304688 L 1780.195313 3969.804688 L 1786.289063 3992.382813 L 1786.289063 4782.617188 " transform="matrix(0.1,0,0,-0.1,0,511)"/>
<path style="fill:none;stroke-width:5.8827;stroke-linecap:round;stroke-linejoin:round;stroke:rgb(0%,0%,0%);stroke-opacity:1;stroke-miterlimit:10;" d="M 5728.28125 3896.484375 L 4108.710938 3896.484375 L 4016.992188 3913.398438 L 3980.390625 3924.6875 L 3968.203125 3936.015625 L 3955.898438 3952.890625 L 3949.804688 3975.507813 L 3943.710938 3998.085938 L 3943.710938 4805.195313 " transform="matrix(0.1,0,0,-0.1,0,511)"/>
<path style=" stroke:none;fill-rule:evenodd;fill:rgb(87.889099%,87.889099%,87.889099%);fill-opacity:1;" d="M 186.570313 111.761719 L 193.289063 111.761719 L 193.289063 102.160156 L 186.570313 102.160156 Z M 186.570313 111.761719 "/>
<path style=" stroke:none;fill-rule:evenodd;fill:rgb(87.889099%,87.889099%,87.889099%);fill-opacity:1;" d="M 193.910156 101.601563 L 201.238281 101.601563 L 201.238281 92 L 193.910156 92 Z M 193.910156 101.601563 "/>
<path style=" stroke:none;fill-rule:evenodd;fill:rgb(87.889099%,87.889099%,87.889099%);fill-opacity:1;" d="M 201.238281 111.761719 L 208.570313 111.761719 L 208.570313 102.160156 L 201.238281 102.160156 Z M 201.238281 111.761719 "/>
<path style=" stroke:none;fill-rule:evenodd;fill:rgb(87.889099%,87.889099%,87.889099%);fill-opacity:1;" d="M 208.578125 101.601563 L 215.300781 101.601563 L 215.300781 92 L 208.578125 92 Z M 208.578125 101.601563 "/>
<path style=" stroke:none;fill-rule:evenodd;fill:rgb(87.889099%,87.889099%,87.889099%);fill-opacity:1;" d="M 217.738281 111.761719 L 225.070313 111.761719 L 225.070313 102.160156 L 217.738281 102.160156 Z M 217.738281 111.761719 "/>
<path style=" stroke:none;fill-rule:evenodd;fill:rgb(87.889099%,87.889099%,87.889099%);fill-opacity:1;" d="M 225.078125 101.601563 L 231.800781 101.601563 L 231.800781 92 L 225.078125 92 Z M 225.078125 101.601563 "/>
<path style=" stroke:none;fill-rule:evenodd;fill:rgb(87.889099%,87.889099%,87.889099%);fill-opacity:1;" d="M 231.800781 111.761719 L 238.519531 111.761719 L 238.519531 102.160156 L 231.800781 102.160156 Z M 231.800781 111.761719 "/>
<path style=" stroke:none;fill-rule:evenodd;fill:rgb(87.889099%,87.889099%,87.889099%);fill-opacity:1;" d="M 239.75 101.601563 L 247.082031 101.601563 L 247.082031 92 L 239.75 92 Z M 239.75 101.601563 "/>
<path style=" stroke:none;fill-rule:evenodd;fill:rgb(87.889099%,87.889099%,87.889099%);fill-opacity:1;" d="M 247.078125 111.761719 L 253.800781 111.761719 L 253.800781 102.160156 L 247.078125 102.160156 Z M 247.078125 111.761719 "/>
<path style=" stroke:none;fill-rule:evenodd;fill:rgb(87.889099%,87.889099%,87.889099%);fill-opacity:1;" d="M 255.640625 101.601563 L 262.96875 101.601563 L 262.96875 92 L 255.640625 92 Z M 255.640625 101.601563 "/>
<path style=" stroke:none;fill-rule:evenodd;fill:rgb(87.889099%,87.889099%,87.889099%);fill-opacity:1;" d="M 263.578125 111.761719 L 270.910156 111.761719 L 270.910156 102.160156 L 263.578125 102.160156 Z M 263.578125 111.761719 "/>
<path style=" stroke:none;fill-rule:evenodd;fill:rgb(87.889099%,87.889099%,87.889099%);fill-opacity:1;" d="M 271.53125 101.601563 L 278.25 101.601563 L 278.25 92 L 271.53125 92 Z M 271.53125 101.601563 "/>
<path style=" stroke:none;fill-rule:evenodd;fill:rgb(87.889099%,87.889099%,87.889099%);fill-opacity:1;" d="M 278.859375 111.761719 L 287.417969 111.761719 L 287.417969 102.160156 L 278.859375 102.160156 Z M 278.859375 111.761719 "/>
<path style=" stroke:none;fill-rule:evenodd;fill:rgb(87.889099%,87.889099%,87.889099%);fill-opacity:1;" d="M 287.421875 101.601563 L 295.371094 101.601563 L 295.371094 92 L 287.421875 92 Z M 287.421875 101.601563 "/>
<path style=" stroke:none;fill-rule:evenodd;fill:rgb(87.889099%,87.889099%,87.889099%);fill-opacity:1;" d="M 296.578125 111.761719 L 303.910156 111.761719 L 303.910156 102.160156 L 296.578125 102.160156 Z M 296.578125 111.761719 "/>
<path style=" stroke:none;fill-rule:evenodd;fill:rgb(87.889099%,87.889099%,87.889099%);fill-opacity:1;" d="M 304.53125 101.601563 L 311.859375 101.601563 L 311.859375 92 L 304.53125 92 Z M 304.53125 101.601563 "/>
<path style=" stroke:none;fill-rule:evenodd;fill:rgb(87.889099%,87.889099%,87.889099%);fill-opacity:1;" d="M 312.46875 111.761719 L 319.191406 111.761719 L 319.191406 102.160156 L 312.46875 102.160156 Z M 312.46875 111.761719 "/>
<path style=" stroke:none;fill-rule:evenodd;fill:rgb(87.889099%,87.889099%,87.889099%);fill-opacity:1;" d="M 321.03125 101.601563 L 327.75 101.601563 L 327.75 92 L 321.03125 92 Z M 321.03125 101.601563 "/>
<path style=" stroke:none;fill-rule:evenodd;fill:rgb(87.889099%,87.889099%,87.889099%);fill-opacity:1;" d="M 328.359375 111.761719 L 335.691406 111.761719 L 335.691406 102.160156 L 328.359375 102.160156 Z M 328.359375 111.761719 "/>
<path style=" stroke:none;fill-rule:evenodd;fill:rgb(87.889099%,87.889099%,87.889099%);fill-opacity:1;" d="M 335.699219 101.601563 L 342.417969 101.601563 L 342.417969 92 L 335.699219 92 Z M 335.699219 101.601563 "/>
<path style=" stroke:none;fill-rule:evenodd;fill:rgb(87.889099%,87.889099%,87.889099%);fill-opacity:1;" d="M 343.03125 111.761719 L 350.359375 111.761719 L 350.359375 102.160156 L 343.03125 102.160156 Z M 343.03125 111.761719 "/>
<path style=" stroke:none;fill-rule:evenodd;fill:rgb(87.889099%,87.889099%,87.889099%);fill-opacity:1;" d="M 350.980469 101.601563 L 358.308594 101.601563 L 358.308594 92 L 350.980469 92 Z M 350.980469 101.601563 "/>
<path style=" stroke:none;fill-rule:evenodd;fill:rgb(87.889099%,87.889099%,87.889099%);fill-opacity:1;" d="M 358.921875 111.761719 L 365.640625 111.761719 L 365.640625 102.160156 L 358.921875 102.160156 Z M 358.921875 111.761719 "/>
<path style=" stroke:none;fill-rule:evenodd;fill:rgb(87.889099%,87.889099%,87.889099%);fill-opacity:1;" d="M 366.871094 101.601563 L 374.199219 101.601563 L 374.199219 92 L 366.871094 92 Z M 366.871094 101.601563 "/>
<path style=" stroke:none;fill-rule:evenodd;fill:rgb(87.889099%,87.889099%,87.889099%);fill-opacity:1;" d="M 374.808594 111.761719 L 381.53125 111.761719 L 381.53125 102.160156 L 374.808594 102.160156 Z M 374.808594 111.761719 "/>
<path style=" stroke:none;fill-rule:evenodd;fill:rgb(87.889099%,87.889099%,87.889099%);fill-opacity:1;" d="M 381.539063 101.601563 L 388.261719 101.601563 L 388.261719 92 L 381.539063 92 Z M 381.539063 101.601563 "/>
<path style="fill:none;stroke-width:5.8827;stroke-linecap:butt;stroke-linejoin:miter;stroke:rgb(75.389099%,75.389099%,75.389099%);stroke-opacity:1;stroke-miterlimit:10;" d="M 1810.703125 3981.09375 L 3913.085938 3981.09375 L 3913.085938 4206.914063 L 1810.703125 4206.914063 Z M 1810.703125 3981.09375 " transform="matrix(0.1,0,0,-0.1,0,511)"/>
<path style="fill:none;stroke-width:5.8827;stroke-linecap:butt;stroke-linejoin:miter;stroke:rgb(75.389099%,75.389099%,75.389099%);stroke-opacity:1;stroke-miterlimit:10;" d="M 1847.382813 3992.5 L 3882.617188 3992.5 L 3882.617188 4201.289063 L 1847.382813 4201.289063 Z M 1847.382813 3992.5 " transform="matrix(0.1,0,0,-0.1,0,511)"/>
<path style="fill:none;stroke-width:17.648;stroke-linecap:round;stroke-linejoin:round;stroke:rgb(0%,0%,0%);stroke-opacity:1;stroke-miterlimit:10;" d="M 1774.101563 4331.09375 L 2831.40625 4331.09375 " transform="matrix(0.1,0,0,-0.1,0,511)"/>
<path style="fill:none;stroke-width:5.8827;stroke-linecap:round;stroke-linejoin:round;stroke:rgb(0%,0%,0%);stroke-opacity:1;stroke-dasharray:70.5918,35.2959;stroke-miterlimit:10;" d="M 2134.6875 4793.90625 L 2134.6875 4336.71875 M 2495.195313 4782.617188 L 2495.195313 4336.71875 M 3191.992188 4793.90625 L 3191.992188 4212.5 M 3558.710938 4793.90625 L 3558.710938 4212.5 " transform="matrix(0.1,0,0,-0.1,0,511)"/>
</g>
</svg>
