<?xml version="1.0" encoding="UTF-8"?>
<svg xmlns="http://www.w3.org/2000/svg" xmlns:xlink="http://www.w3.org/1999/xlink" width="573pt" height="508pt" viewBox="0 0 573 508" version="1.1">
<g id="surface1">
<path style="fill:none;stroke-width:5.8827;stroke-linecap:round;stroke-linejoin:round;stroke:rgb(0%,0%,0%);stroke-opacity:1;stroke-miterlimit:10;" d="M 1.71875 2257.8125 L 1639.609375 2257.8125 L 1731.289063 2206.992188 L 1768.007813 2184.414063 L 1780.195313 2150.585938 L 1792.382813 2094.101563 L 1798.515625 2037.695313 L 1804.609375 1964.296875 L 1804.609375 -310.390625 " transform="matrix(0.1,0,0,-0.1,0,508)"/>
<path style="fill:none;stroke-width:5.8827;stroke-linecap:round;stroke-linejoin:round;stroke:rgb(0%,0%,0%);stroke-opacity:1;stroke-miterlimit:10;" d="M 5722.1875 2280.390625 L 4102.617188 2280.390625 L 4016.992188 2229.609375 L 3986.484375 2206.992188 L 3968.203125 2173.203125 L 3955.898438 2111.09375 L 3949.804688 2054.609375 L 3943.710938 1986.914063 L 3943.710938 -304.6875 " transform="matrix(0.1,0,0,-0.1,0,508)"/>
<path style="fill:none;stroke-width:5.8827;stroke-linecap:round;stroke-linejoin:round;stroke:rgb(0%,0%,0%);stroke-opacity:1;stroke-miterlimit:10;" d="M 1.71875 3860.78125 L 1621.289063 3860.78125 L 1713.007813 3877.8125 L 1749.609375 3888.984375 L 1761.796875 3900.3125 L 1774.101563 3917.304688 L 1780.195313 3939.804688 L 1786.289063 3962.382813 L 1786.289063 4752.617188 " transform="matrix(0.1,0,0,-0.1,0,508)"/>
<path style="fill:none;stroke-width:5.8827;stroke-linecap:round;stroke-linejoin:round;stroke:rgb(0%,0%,0%);stroke-opacity:1;stroke-miterlimit:10;" d="M 5728.28125 3866.484375 L 4108.710938 3866.484375 L 4016.992188 3883.398438 L 3980.390625 3894.6875 L 3968.203125 3906.015625 L 3955.898438 3922.890625 L 3949.804688 3945.507813 L 3943.710938 3968.085938 L 3943.710938 4775.195313 " transform="matrix(0.1,0,0,-0.1,0,508)"/>
</g>
</svg>
