<?xml version="1.0" encoding="UTF-8"?>
<svg xmlns="http://www.w3.org/2000/svg" xmlns:xlink="http://www.w3.org/1999/xlink" width="564pt" height="541pt" viewBox="0 0 564 541" version="1.1">
<defs>
<clipPath id="clip1">
  <path d="M 248 450 L 277 450 L 277 541 L 248 541 Z M 248 450 "/>
</clipPath>
<clipPath id="clip2">
  <path d="M 248.859375 450.980469 L 248.859375 553.710938 L 270.859375 553.710938 L 276.96875 530 Z M 248.859375 450.980469 "/>
</clipPath>
<clipPath id="clip3">
  <rect width="32" height="32"/>
</clipPath>
<g id="surface6" clip-path="url(#clip3)">
<path style="fill:none;stroke-width:5;stroke-linecap:butt;stroke-linejoin:miter;stroke:rgb(0%,0%,0%);stroke-opacity:1;stroke-miterlimit:10;" d="M -325 -5 L 5 325 M -285 -5 L 45 325 M -245 -5 L 85 325 M -205 -5 L 125 325 M -165 -5 L 165 325 M -125 -5 L 205 325 M -85 -5 L 245 325 M -45 -5 L 285 325 M -5 -5 L 325 325 M 35 -5 L 365 325 M 75 -5 L 405 325 M 115 -5 L 445 325 M 155 -5 L 485 325 M 195 -5 L 525 325 M 235 -5 L 565 325 M 275 -5 L 605 325 M 315 -5 L 645 325 " transform="matrix(0.1,0,0,0.1,0,0)"/>
</g>
<pattern id="pattern0" patternUnits="userSpaceOnUse" width="32" height="32" patternTransform="matrix(1,0,0,-1,-17,555)">
<use xlink:href="#surface6"/>
</pattern>
</defs>
<g id="surface1">
<path style="fill:none;stroke-width:5.8827;stroke-linecap:round;stroke-linejoin:round;stroke:rgb(0%,0%,0%);stroke-opacity:1;stroke-miterlimit:10;" d="M 7.1875 3806.992188 L 1272.382813 3806.992188 " transform="matrix(0.1,0,0,-0.1,0,541)"/>
<path style="fill:none;stroke-width:5.8827;stroke-linecap:round;stroke-linejoin:round;stroke:rgb(0%,0%,0%);stroke-opacity:1;stroke-miterlimit:10;" d="M 1.09375 3829.609375 L 1290.703125 3829.609375 M 4462.617188 3806.992188 L 5587.1875 3806.992188 M 4456.484375 3829.609375 L 5587.1875 3829.609375 " transform="matrix(0.1,0,0,-0.1,0,541)"/>
<path style="fill:none;stroke-width:5.8827;stroke-linecap:round;stroke-linejoin:round;stroke:rgb(0%,0%,0%);stroke-opacity:1;stroke-dasharray:70.5918,35.2959;stroke-miterlimit:10;" d="M 4450.390625 4427.890625 L 5599.414063 4427.890625 M 4462.617188 4111.796875 L 5593.28125 4111.796875 M 4468.789063 3507.890625 L 5617.695313 3507.890625 M 4444.296875 3197.382813 L 5593.28125 3197.382813 M -5 4439.21875 L 1284.609375 4439.21875 M 7.1875 4134.414063 L 1278.515625 4134.414063 M 25.585938 3203.085938 L 1266.210938 3203.085938 M 43.90625 2892.617188 L 1284.609375 2892.617188 M 1596.289063 5257.617188 L 1596.289063 4992.304688 M 2335.78125 5257.617188 L 2335.78125 5003.59375 M 3949.296875 5274.492188 L 3949.296875 5014.882813 M 3154.6875 5263.203125 L 3154.6875 5014.882813 " transform="matrix(0.1,0,0,-0.1,0,541)"/>
<path style="fill:none;stroke-width:5.8827;stroke-linecap:round;stroke-linejoin:round;stroke:rgb(0%,0%,0%);stroke-opacity:1;stroke-miterlimit:10;" d="M 2733.007813 5263.203125 L 2733.007813 5003.59375 M 2757.5 5268.90625 L 2757.5 5003.59375 " transform="matrix(0.1,0,0,-0.1,0,541)"/>
<path style="fill:none;stroke-width:5.8827;stroke-linecap:round;stroke-linejoin:round;stroke:rgb(0%,0%,0%);stroke-opacity:1;stroke-dasharray:70.5918,35.2959;stroke-miterlimit:10;" d="M 3588.710938 2486.210938 L 3588.710938 -65 M 2867.5 2480.585938 L 2867.5 211.484375 M 2073.007813 2458.007813 L 2073.007813 -132.8125 M 1694.101563 2446.71875 L 1694.101563 -132.8125 M 3955.390625 2474.882813 L 3955.390625 -70.703125 " transform="matrix(0.1,0,0,-0.1,0,541)"/>
<path style="fill:none;stroke-width:5.8827;stroke-linecap:round;stroke-linejoin:round;stroke:rgb(0%,0%,0%);stroke-opacity:1;stroke-miterlimit:10;" d="M 25.585938 2525.703125 L 25.585938 2536.992188 " transform="matrix(0.1,0,0,-0.1,0,541)"/>
<path style="fill:none;stroke-width:5.8827;stroke-linecap:round;stroke-linejoin:round;stroke:rgb(0%,0%,0%);stroke-opacity:1;stroke-miterlimit:10;" d="M 25.585938 2548.28125 L 1192.890625 2548.28125 M 1308.984375 2384.609375 L 1308.984375 -65 " transform="matrix(0.1,0,0,-0.1,0,541)"/>
<path style="fill:none;stroke-width:5.8827;stroke-linecap:round;stroke-linejoin:round;stroke:rgb(0%,0%,0%);stroke-opacity:1;stroke-miterlimit:10;" d="M 1292.382813 2387.304688 C 1310.585938 2450.507813 1271.210938 2515.664063 1204.453125 2532.851563 C 1194.6875 2535.351563 1184.648438 2536.757813 1174.570313 2536.992188 " transform="matrix(0.1,0,0,-0.1,0,541)"/>
<path style="fill:none;stroke-width:5.8827;stroke-linecap:round;stroke-linejoin:round;stroke:rgb(0%,0%,0%);stroke-opacity:1;stroke-miterlimit:10;" d="M 5611.601563 2531.40625 L 5611.601563 2542.695313 M 5599.414063 2553.984375 L 4450.390625 2553.984375 M 4340.390625 2395.898438 L 4340.390625 -65 " transform="matrix(0.1,0,0,-0.1,0,541)"/>
<path style="fill:none;stroke-width:5.8827;stroke-linecap:round;stroke-linejoin:round;stroke:rgb(0%,0%,0%);stroke-opacity:1;stroke-miterlimit:10;" d="M 4474.882813 2542.5 C 4407.421875 2545.585938 4350.039063 2498.828125 4346.679688 2438.085938 C 4345.898438 2423.867188 4348.164063 2409.609375 4353.398438 2396.171875 " transform="matrix(0.1,0,0,-0.1,0,541)"/>
<path style="fill:none;stroke-width:5.8827;stroke-linecap:round;stroke-linejoin:round;stroke:rgb(0%,0%,0%);stroke-opacity:1;stroke-miterlimit:10;" d="M 25.585938 4975.390625 L 25.585938 4964.101563 M 1.09375 4975.390625 L 1131.796875 4975.390625 M 1266.210938 5110.78125 L 1266.210938 5274.492188 " transform="matrix(0.1,0,0,-0.1,0,541)"/>
<path style="fill:none;stroke-width:5.8827;stroke-linecap:round;stroke-linejoin:round;stroke:rgb(0%,0%,0%);stroke-opacity:1;stroke-miterlimit:10;" d="M 1155.703125 4992.382813 C 1217.578125 4995.3125 1266.25 5044.960938 1266.25 5105.195313 " transform="matrix(0.1,0,0,-0.1,0,541)"/>
<path style="fill:none;stroke-width:5.8827;stroke-linecap:round;stroke-linejoin:round;stroke:rgb(0%,0%,0%);stroke-opacity:1;stroke-miterlimit:10;" d="M 5617.695313 5026.210938 L 5617.695313 5014.882813 M 5568.90625 5026.210938 L 4456.484375 5026.210938 M 4322.109375 5133.398438 L 4322.109375 5274.492188 " transform="matrix(0.1,0,0,-0.1,0,541)"/>
<path style="fill:none;stroke-width:5.8827;stroke-linecap:round;stroke-linejoin:round;stroke:rgb(0%,0%,0%);stroke-opacity:1;stroke-miterlimit:10;" d="M 4329.6875 5139.609375 C 4319.296875 5088.867188 4363.554688 5041.09375 4428.554688 5033.007813 C 4435.625 5032.109375 4442.773438 5031.71875 4449.960938 5031.835938 " transform="matrix(0.1,0,0,-0.1,0,541)"/>
<path style="fill:none;stroke-width:5.8827;stroke-linecap:round;stroke-linejoin:round;stroke:rgb(0%,0%,0%);stroke-opacity:1;stroke-dasharray:70.5918,35.2959;stroke-miterlimit:10;" d="M 4450.390625 2892.617188 L 5599.414063 2892.617188 M 4456.484375 4738.28125 L 5642.1875 4738.28125 M 25.585938 3507.890625 L 1266.210938 3507.890625 M 7.1875 4732.695313 L 1296.796875 4732.695313 M 1993.515625 5268.90625 L 1993.515625 5003.59375 M 3545.898438 5274.492188 L 3545.898438 5014.882813 " transform="matrix(0.1,0,0,-0.1,0,541)"/>
<path style="fill:none;stroke-width:5.8827;stroke-linecap:round;stroke-linejoin:round;stroke:rgb(0%,0%,0%);stroke-opacity:1;stroke-dasharray:70.5918,35.2959;stroke-miterlimit:10;" d="M 2439.6875 1656.484375 L 2439.6875 -138.398438 L 2775.78125 -138.398438 L 2867.5 121.210938 L 2476.40625 939.6875 L 2476.40625 1667.8125 Z M 2439.6875 1656.484375 " transform="matrix(0.1,0,0,-0.1,0,541)"/>
<g clip-path="url(#clip1)" clip-rule="nonzero">
<g clip-path="url(#clip2)" clip-rule="evenodd">
<path style=" stroke:none;fill-rule:evenodd;fill:url(#pattern0);" d="M 248.859375 541 L 276.96875 541 L 276.96875 450.980469 L 248.859375 450.980469 Z M 248.859375 541 "/>
</g>
</g>
<path style="fill:none;stroke-width:5.8827;stroke-linecap:round;stroke-linejoin:round;stroke:rgb(0%,0%,0%);stroke-opacity:1;stroke-dasharray:70.5918,35.2959;stroke-miterlimit:10;" d="M 2488.59375 900.195313 L 2488.59375 -127.109375 L 2708.59375 -127.109375 L 2769.6875 110 Z M 2488.59375 900.195313 " transform="matrix(0.1,0,0,-0.1,0,541)"/>
<path style="fill:none;stroke-width:5.8827;stroke-linecap:round;stroke-linejoin:round;stroke:rgb(0%,0%,0%);stroke-opacity:1;stroke-dasharray:70.5918,35.2959;stroke-miterlimit:10;" d="M 2433.59375 2441.09375 L 2433.59375 1690.390625 M 2464.101563 2441.09375 L 2464.101563 1696.015625 " transform="matrix(0.1,0,0,-0.1,0,541)"/>
<path style=" stroke:none;fill-rule:evenodd;fill:rgb(75.389099%,75.389099%,75.389099%);fill-opacity:1;" d="M 276.359375 356.160156 L 280.640625 356.160156 L 280.640625 312.699219 L 280.03125 311.570313 L 280.03125 311 L 279.421875 309.878906 L 278.800781 308.75 L 277.578125 307.621094 L 276.359375 307.050781 L 275.75 305.921875 L 273.921875 304.800781 L 272.078125 303.671875 L 269.640625 302.539063 L 269.640625 293.511719 L 256.191406 307.050781 L 269.640625 321.160156 L 269.640625 311 L 272.078125 311 L 272.691406 311.570313 L 273.300781 311.570313 L 273.921875 312.128906 L 274.53125 312.699219 L 275.140625 313.261719 L 275.75 313.828125 L 276.359375 314.390625 L 276.359375 356.160156 "/>
<path style=" stroke:none;fill-rule:evenodd;fill:rgb(75.389099%,75.389099%,75.389099%);fill-opacity:1;" d="M 276.359375 319.46875 L 276.359375 326.238281 L 273.300781 326.238281 L 272.691406 326.808594 L 271.46875 327.371094 L 270.859375 327.941406 L 270.25 328.5 L 269.640625 329.070313 L 269.640625 336.398438 L 272.691406 336.398438 L 267.800781 351.078125 L 262.300781 336.398438 L 265.96875 336.398438 L 265.96875 323.988281 L 266.578125 323.421875 L 267.191406 322.859375 L 267.191406 322.289063 L 267.800781 321.730469 L 269.03125 321.160156 L 269.640625 320.601563 L 270.25 320.601563 L 271.46875 320.03125 L 272.691406 319.46875 L 276.359375 319.46875 "/>
<path style="fill:none;stroke-width:5.8827;stroke-linecap:round;stroke-linejoin:round;stroke:rgb(0%,0%,0%);stroke-opacity:1;stroke-dasharray:70.5918,35.2959;stroke-miterlimit:10;" d="M 3215.898438 2508.789063 L 3215.898438 -42.382813 " transform="matrix(0.1,0,0,-0.1,0,541)"/>
</g>
</svg>
