<?xml version="1.0" encoding="UTF-8"?>
<svg xmlns="http://www.w3.org/2000/svg" xmlns:xlink="http://www.w3.org/1999/xlink" width="471pt" height="477pt" viewBox="0 0 471 477" version="1.1">
<g id="surface1">
<path style="fill:none;stroke-width:5.8827;stroke-linecap:round;stroke-linejoin:round;stroke:rgb(0%,0%,0%);stroke-opacity:1;stroke-miterlimit:10;" d="M 2332.5 4267.695313 L 2332.5 3714.492188 " transform="matrix(0.1,0,0,-0.1,0,477)"/>
<path style="fill:none;stroke-width:5.8827;stroke-linecap:round;stroke-linejoin:round;stroke:rgb(0%,0%,0%);stroke-opacity:1;stroke-miterlimit:10;" d="M 2356.914063 4256.40625 L 2356.914063 3708.90625 " transform="matrix(0.1,0,0,-0.1,0,477)"/>
<path style=" stroke:none;fill-rule:evenodd;fill:rgb(87.889099%,87.889099%,87.889099%);fill-opacity:1;" d="M 335.929688 143.371094 L 345.101563 143.371094 L 345.101563 138.851563 L 335.929688 138.851563 Z M 335.929688 143.371094 "/>
<path style=" stroke:none;fill-rule:evenodd;fill:rgb(87.889099%,87.889099%,87.889099%);fill-opacity:1;" d="M 346.320313 149.019531 L 356.101563 149.019531 L 356.101563 144.5 L 346.320313 144.5 Z M 346.320313 149.019531 "/>
<path style=" stroke:none;fill-rule:evenodd;fill:rgb(87.889099%,87.889099%,87.889099%);fill-opacity:1;" d="M 335.929688 153.53125 L 345.101563 153.53125 L 345.101563 149.011719 L 335.929688 149.011719 Z M 335.929688 153.53125 "/>
<path style=" stroke:none;fill-rule:evenodd;fill:rgb(87.889099%,87.889099%,87.889099%);fill-opacity:1;" d="M 346.320313 159.738281 L 356.101563 159.738281 L 356.101563 155.21875 L 346.320313 155.21875 Z M 346.320313 159.738281 "/>
<path style=" stroke:none;fill-rule:evenodd;fill:rgb(87.889099%,87.889099%,87.889099%);fill-opacity:1;" d="M 335.929688 164.820313 L 345.101563 164.820313 L 345.101563 160.300781 L 335.929688 160.300781 Z M 335.929688 164.820313 "/>
<path style=" stroke:none;fill-rule:evenodd;fill:rgb(87.889099%,87.889099%,87.889099%);fill-opacity:1;" d="M 346.320313 169.898438 L 356.101563 169.898438 L 356.101563 165.378906 L 346.320313 165.378906 Z M 346.320313 169.898438 "/>
<path style=" stroke:none;fill-rule:evenodd;fill:rgb(87.889099%,87.889099%,87.889099%);fill-opacity:1;" d="M 335.929688 176.109375 L 345.101563 176.109375 L 345.101563 171.589844 L 335.929688 171.589844 Z M 335.929688 176.109375 "/>
<path style=" stroke:none;fill-rule:evenodd;fill:rgb(87.889099%,87.889099%,87.889099%);fill-opacity:1;" d="M 346.320313 180.621094 L 356.101563 180.621094 L 356.101563 176.101563 L 346.320313 176.101563 Z M 346.320313 180.621094 "/>
<path style=" stroke:none;fill-rule:evenodd;fill:rgb(87.889099%,87.889099%,87.889099%);fill-opacity:1;" d="M 335.929688 186.828125 L 345.101563 186.828125 L 345.101563 182.308594 L 335.929688 182.308594 Z M 335.929688 186.828125 "/>
<path style=" stroke:none;fill-rule:evenodd;fill:rgb(87.889099%,87.889099%,87.889099%);fill-opacity:1;" d="M 346.320313 193.039063 L 356.101563 193.039063 L 356.101563 188.519531 L 346.320313 188.519531 Z M 346.320313 193.039063 "/>
<path style=" stroke:none;fill-rule:evenodd;fill:rgb(87.889099%,87.889099%,87.889099%);fill-opacity:1;" d="M 335.929688 197.558594 L 345.101563 197.558594 L 345.101563 193.039063 L 335.929688 193.039063 Z M 335.929688 197.558594 "/>
<path style=" stroke:none;fill-rule:evenodd;fill:rgb(87.889099%,87.889099%,87.889099%);fill-opacity:1;" d="M 346.320313 203.199219 L 356.101563 203.199219 L 356.101563 198.679688 L 346.320313 198.679688 Z M 346.320313 203.199219 "/>
<path style=" stroke:none;fill-rule:evenodd;fill:rgb(87.889099%,87.889099%,87.889099%);fill-opacity:1;" d="M 335.929688 207.710938 L 345.101563 207.710938 L 345.101563 202.628906 L 335.929688 202.628906 Z M 335.929688 207.710938 "/>
<path style=" stroke:none;fill-rule:evenodd;fill:rgb(87.889099%,87.889099%,87.889099%);fill-opacity:1;" d="M 346.320313 213.929688 L 356.101563 213.929688 L 356.101563 209.410156 L 346.320313 209.410156 Z M 346.320313 213.929688 "/>
<path style=" stroke:none;fill-rule:evenodd;fill:rgb(87.889099%,87.889099%,87.889099%);fill-opacity:1;" d="M 335.929688 219.570313 L 345.101563 219.570313 L 345.101563 215.050781 L 335.929688 215.050781 Z M 335.929688 219.570313 "/>
<path style=" stroke:none;fill-rule:evenodd;fill:rgb(87.889099%,87.889099%,87.889099%);fill-opacity:1;" d="M 346.320313 224.648438 L 356.101563 224.648438 L 356.101563 220.128906 L 346.320313 220.128906 Z M 346.320313 224.648438 "/>
<path style=" stroke:none;fill-rule:evenodd;fill:rgb(87.889099%,87.889099%,87.889099%);fill-opacity:1;" d="M 335.929688 230.289063 L 345.101563 230.289063 L 345.101563 225.769531 L 335.929688 225.769531 Z M 335.929688 230.289063 "/>
<path style=" stroke:none;fill-rule:evenodd;fill:rgb(87.889099%,87.889099%,87.889099%);fill-opacity:1;" d="M 346.320313 236.5 L 356.101563 236.5 L 356.101563 231.980469 L 346.320313 231.980469 Z M 346.320313 236.5 "/>
<path style=" stroke:none;fill-rule:evenodd;fill:rgb(87.889099%,87.889099%,87.889099%);fill-opacity:1;" d="M 335.929688 242.148438 L 345.101563 242.148438 L 345.101563 237.628906 L 335.929688 237.628906 Z M 335.929688 242.148438 "/>
<path style=" stroke:none;fill-rule:evenodd;fill:rgb(87.889099%,87.889099%,87.889099%);fill-opacity:1;" d="M 346.320313 246.660156 L 356.101563 246.660156 L 356.101563 242.140625 L 346.320313 242.140625 Z M 346.320313 246.660156 "/>
<path style=" stroke:none;fill-rule:evenodd;fill:rgb(87.889099%,87.889099%,87.889099%);fill-opacity:1;" d="M 335.929688 252.308594 L 345.101563 252.308594 L 345.101563 247.789063 L 335.929688 247.789063 Z M 335.929688 252.308594 "/>
<path style=" stroke:none;fill-rule:evenodd;fill:rgb(87.889099%,87.889099%,87.889099%);fill-opacity:1;" d="M 346.320313 257.390625 L 356.101563 257.390625 L 356.101563 252.871094 L 346.320313 252.871094 Z M 346.320313 257.390625 "/>
<path style=" stroke:none;fill-rule:evenodd;fill:rgb(87.889099%,87.889099%,87.889099%);fill-opacity:1;" d="M 335.929688 262.46875 L 345.101563 262.46875 L 345.101563 257.949219 L 335.929688 257.949219 Z M 335.929688 262.46875 "/>
<path style=" stroke:none;fill-rule:evenodd;fill:rgb(87.889099%,87.889099%,87.889099%);fill-opacity:1;" d="M 346.320313 267.550781 L 356.101563 267.550781 L 356.101563 263.03125 L 346.320313 263.03125 Z M 346.320313 267.550781 "/>
<path style=" stroke:none;fill-rule:evenodd;fill:rgb(87.889099%,87.889099%,87.889099%);fill-opacity:1;" d="M 335.929688 273.191406 L 345.101563 273.191406 L 345.101563 268.671875 L 335.929688 268.671875 Z M 335.929688 273.191406 "/>
<path style=" stroke:none;fill-rule:evenodd;fill:rgb(87.889099%,87.889099%,87.889099%);fill-opacity:1;" d="M 346.320313 278.839844 L 356.101563 278.839844 L 356.101563 274.320313 L 346.320313 274.320313 Z M 346.320313 278.839844 "/>
<path style="fill:none;stroke-width:5.8827;stroke-linecap:butt;stroke-linejoin:miter;stroke:rgb(75.389099%,75.389099%,75.389099%);stroke-opacity:1;stroke-miterlimit:10;" d="M 3359.296875 1953.515625 L 3579.296875 1953.515625 L 3579.296875 3409.6875 L 3359.296875 3409.6875 Z M 3359.296875 1953.515625 " transform="matrix(0.1,0,0,-0.1,0,477)"/>
<path style="fill:none;stroke-width:5.8827;stroke-linecap:butt;stroke-linejoin:miter;stroke:rgb(75.389099%,75.389099%,75.389099%);stroke-opacity:1;stroke-miterlimit:10;" d="M 3365.390625 1981.71875 L 3567.109375 1981.71875 L 3567.109375 3387.109375 L 3365.390625 3387.109375 Z M 3365.390625 1981.71875 " transform="matrix(0.1,0,0,-0.1,0,477)"/>
<path style=" stroke:none;fill-rule:evenodd;fill:rgb(87.889099%,87.889099%,87.889099%);fill-opacity:1;" d="M 153.800781 318.339844 L 159.300781 318.339844 L 159.300781 309.308594 L 153.800781 309.308594 Z M 153.800781 318.339844 "/>
<path style=" stroke:none;fill-rule:evenodd;fill:rgb(87.889099%,87.889099%,87.889099%);fill-opacity:1;" d="M 159.910156 308.75 L 166.019531 308.75 L 166.019531 299.71875 L 159.910156 299.71875 Z M 159.910156 308.75 "/>
<path style=" stroke:none;fill-rule:evenodd;fill:rgb(87.889099%,87.889099%,87.889099%);fill-opacity:1;" d="M 166.019531 318.339844 L 172.128906 318.339844 L 172.128906 309.308594 L 166.019531 309.308594 Z M 166.019531 318.339844 "/>
<path style=" stroke:none;fill-rule:evenodd;fill:rgb(87.889099%,87.889099%,87.889099%);fill-opacity:1;" d="M 171.519531 308.75 L 177.019531 308.75 L 177.019531 299.71875 L 171.519531 299.71875 Z M 171.519531 308.75 "/>
<path style=" stroke:none;fill-rule:evenodd;fill:rgb(87.889099%,87.889099%,87.889099%);fill-opacity:1;" d="M 179.46875 318.339844 L 185.582031 318.339844 L 185.582031 309.308594 L 179.46875 309.308594 Z M 179.46875 318.339844 "/>
<path style=" stroke:none;fill-rule:evenodd;fill:rgb(87.889099%,87.889099%,87.889099%);fill-opacity:1;" d="M 185.578125 308.75 L 191.078125 308.75 L 191.078125 299.71875 L 185.578125 299.71875 Z M 185.578125 308.75 "/>
<path style=" stroke:none;fill-rule:evenodd;fill:rgb(87.889099%,87.889099%,87.889099%);fill-opacity:1;" d="M 191.078125 318.339844 L 196.578125 318.339844 L 196.578125 309.308594 L 191.078125 309.308594 Z M 191.078125 318.339844 "/>
<path style=" stroke:none;fill-rule:evenodd;fill:rgb(87.889099%,87.889099%,87.889099%);fill-opacity:1;" d="M 197.191406 308.75 L 203.300781 308.75 L 203.300781 299.71875 L 197.191406 299.71875 Z M 197.191406 308.75 "/>
<path style=" stroke:none;fill-rule:evenodd;fill:rgb(87.889099%,87.889099%,87.889099%);fill-opacity:1;" d="M 203.300781 318.339844 L 208.800781 318.339844 L 208.800781 309.308594 L 203.300781 309.308594 Z M 203.300781 318.339844 "/>
<path style=" stroke:none;fill-rule:evenodd;fill:rgb(87.889099%,87.889099%,87.889099%);fill-opacity:1;" d="M 210.03125 308.75 L 216.140625 308.75 L 216.140625 299.71875 L 210.03125 299.71875 Z M 210.03125 308.75 "/>
<path style=" stroke:none;fill-rule:evenodd;fill:rgb(87.889099%,87.889099%,87.889099%);fill-opacity:1;" d="M 216.75 318.339844 L 222.859375 318.339844 L 222.859375 309.308594 L 216.75 309.308594 Z M 216.75 318.339844 "/>
<path style=" stroke:none;fill-rule:evenodd;fill:rgb(87.889099%,87.889099%,87.889099%);fill-opacity:1;" d="M 223.46875 308.75 L 229.582031 308.75 L 229.582031 299.71875 L 223.46875 299.71875 Z M 223.46875 308.75 "/>
<path style=" stroke:none;fill-rule:evenodd;fill:rgb(87.889099%,87.889099%,87.889099%);fill-opacity:1;" d="M 228.96875 318.339844 L 236.300781 318.339844 L 236.300781 309.308594 L 228.96875 309.308594 Z M 228.96875 318.339844 "/>
<path style=" stroke:none;fill-rule:evenodd;fill:rgb(87.889099%,87.889099%,87.889099%);fill-opacity:1;" d="M 237.53125 308.75 L 243.640625 308.75 L 243.640625 299.71875 L 237.53125 299.71875 Z M 237.53125 308.75 "/>
<path style=" stroke:none;fill-rule:evenodd;fill:rgb(87.889099%,87.889099%,87.889099%);fill-opacity:1;" d="M 244.25 318.339844 L 250.359375 318.339844 L 250.359375 309.308594 L 244.25 309.308594 Z M 244.25 318.339844 "/>
<path style=" stroke:none;fill-rule:evenodd;fill:rgb(87.889099%,87.889099%,87.889099%);fill-opacity:1;" d="M 250.96875 308.75 L 257.082031 308.75 L 257.082031 299.71875 L 250.96875 299.71875 Z M 250.96875 308.75 "/>
<path style=" stroke:none;fill-rule:evenodd;fill:rgb(87.889099%,87.889099%,87.889099%);fill-opacity:1;" d="M 257.089844 318.339844 L 262.589844 318.339844 L 262.589844 309.308594 L 257.089844 309.308594 Z M 257.089844 318.339844 "/>
<path style=" stroke:none;fill-rule:evenodd;fill:rgb(87.889099%,87.889099%,87.889099%);fill-opacity:1;" d="M 264.421875 308.75 L 269.921875 308.75 L 269.921875 299.71875 L 264.421875 299.71875 Z M 264.421875 308.75 "/>
<path style=" stroke:none;fill-rule:evenodd;fill:rgb(87.889099%,87.889099%,87.889099%);fill-opacity:1;" d="M 270.53125 318.339844 L 276.640625 318.339844 L 276.640625 309.308594 L 270.53125 309.308594 Z M 270.53125 318.339844 "/>
<path style=" stroke:none;fill-rule:evenodd;fill:rgb(87.889099%,87.889099%,87.889099%);fill-opacity:1;" d="M 276.640625 308.75 L 282.140625 308.75 L 282.140625 299.71875 L 276.640625 299.71875 Z M 276.640625 308.75 "/>
<path style=" stroke:none;fill-rule:evenodd;fill:rgb(87.889099%,87.889099%,87.889099%);fill-opacity:1;" d="M 282.140625 318.339844 L 288.25 318.339844 L 288.25 309.308594 L 282.140625 309.308594 Z M 282.140625 318.339844 "/>
<path style=" stroke:none;fill-rule:evenodd;fill:rgb(87.889099%,87.889099%,87.889099%);fill-opacity:1;" d="M 288.871094 308.75 L 294.980469 308.75 L 294.980469 299.71875 L 288.871094 299.71875 Z M 288.871094 308.75 "/>
<path style=" stroke:none;fill-rule:evenodd;fill:rgb(87.889099%,87.889099%,87.889099%);fill-opacity:1;" d="M 295.589844 318.339844 L 301.089844 318.339844 L 301.089844 309.308594 L 295.589844 309.308594 Z M 295.589844 318.339844 "/>
<path style=" stroke:none;fill-rule:evenodd;fill:rgb(87.889099%,87.889099%,87.889099%);fill-opacity:1;" d="M 301.699219 308.75 L 307.808594 308.75 L 307.808594 299.71875 L 301.699219 299.71875 Z M 301.699219 308.75 "/>
<path style=" stroke:none;fill-rule:evenodd;fill:rgb(87.889099%,87.889099%,87.889099%);fill-opacity:1;" d="M 308.421875 318.339844 L 313.921875 318.339844 L 313.921875 309.308594 L 308.421875 309.308594 Z M 308.421875 318.339844 "/>
<path style=" stroke:none;fill-rule:evenodd;fill:rgb(87.889099%,87.889099%,87.889099%);fill-opacity:1;" d="M 313.921875 308.75 L 319.421875 308.75 L 319.421875 299.71875 L 313.921875 299.71875 Z M 313.921875 308.75 "/>
<path style="fill:none;stroke-width:5.8827;stroke-linecap:butt;stroke-linejoin:miter;stroke:rgb(75.389099%,75.389099%,75.389099%);stroke-opacity:1;stroke-miterlimit:10;" d="M 1489.101563 1581.015625 L 3212.617188 1581.015625 L 3212.617188 1789.804688 L 1489.101563 1789.804688 Z M 1489.101563 1581.015625 " transform="matrix(0.1,0,0,-0.1,0,477)"/>
<path style="fill:none;stroke-width:5.8827;stroke-linecap:butt;stroke-linejoin:miter;stroke:rgb(75.389099%,75.389099%,75.389099%);stroke-opacity:1;stroke-miterlimit:10;" d="M 1525.78125 1586.601563 L 3194.296875 1586.601563 L 3194.296875 1778.515625 L 1525.78125 1778.515625 Z M 1525.78125 1586.601563 " transform="matrix(0.1,0,0,-0.1,0,477)"/>
<path style="fill:none;stroke-width:5.8827;stroke-linecap:round;stroke-linejoin:round;stroke:rgb(0%,0%,0%);stroke-opacity:1;stroke-miterlimit:10;" d="M 3.984375 1919.609375 L 1348.515625 1919.609375 L 1421.914063 1874.414063 L 1452.382813 1851.914063 L 1464.609375 1818.007813 L 1470.78125 1767.1875 L 1476.914063 1716.40625 L 1483.007813 1648.710938 L 1483.007813 -468.007813 " transform="matrix(0.1,0,0,-0.1,0,477)"/>
<path style="fill:none;stroke-width:5.8827;stroke-linecap:round;stroke-linejoin:round;stroke:rgb(0%,0%,0%);stroke-opacity:1;stroke-miterlimit:10;" d="M 4697.695313 1942.1875 L 3365.390625 1942.1875 L 3298.085938 1896.992188 L 3273.710938 1874.414063 L 3255.390625 1840.585938 L 3249.296875 1784.101563 L 3243.085938 1733.28125 L 3236.992188 1671.210938 L 3236.992188 -462.304688 " transform="matrix(0.1,0,0,-0.1,0,477)"/>
<path style="fill:none;stroke-width:5.8827;stroke-linecap:round;stroke-linejoin:round;stroke:rgb(0%,0%,0%);stroke-opacity:1;stroke-miterlimit:10;" d="M 10.117188 2658.984375 L 1079.609375 2658.984375 " transform="matrix(0.1,0,0,-0.1,0,477)"/>
<path style="fill:none;stroke-width:5.8827;stroke-linecap:round;stroke-linejoin:round;stroke:rgb(0%,0%,0%);stroke-opacity:1;stroke-miterlimit:10;" d="M 3.984375 2681.601563 L 1140.703125 2681.601563 " transform="matrix(0.1,0,0,-0.1,0,477)"/>
<path style="fill:none;stroke-width:17.648;stroke-linecap:round;stroke-linejoin:round;stroke:rgb(0%,0%,0%);stroke-opacity:1;stroke-miterlimit:10;" d="M 993.984375 2642.109375 L 993.984375 1936.484375 " transform="matrix(0.1,0,0,-0.1,0,477)"/>
<path style="fill:none;stroke-width:5.8827;stroke-linecap:round;stroke-linejoin:round;stroke:rgb(0%,0%,0%);stroke-opacity:1;stroke-miterlimit:10;" d="M 4685.507813 2675.898438 L 3597.617188 2675.898438 " transform="matrix(0.1,0,0,-0.1,0,477)"/>
<path style="fill:none;stroke-width:11.7653;stroke-linecap:round;stroke-linejoin:round;stroke:rgb(0%,0%,0%);stroke-opacity:1;stroke-miterlimit:10;" d="M 2369.21875 1428.515625 L 3230.898438 1428.515625 " transform="matrix(0.1,0,0,-0.1,0,477)"/>
<path style="fill:none;stroke-width:5.8827;stroke-linecap:round;stroke-linejoin:round;stroke:rgb(0%,0%,0%);stroke-opacity:1;stroke-miterlimit:10;" d="M 2363.085938 119.101563 L 2363.085938 -468.007813 " transform="matrix(0.1,0,0,-0.1,0,477)"/>
<path style="fill:none;stroke-width:5.8827;stroke-linecap:round;stroke-linejoin:round;stroke:rgb(0%,0%,0%);stroke-opacity:1;stroke-miterlimit:10;" d="M 3585.390625 2653.398438 L 4685.507813 2653.398438 " transform="matrix(0.1,0,0,-0.1,0,477)"/>
<path style="fill:none;stroke-width:11.7653;stroke-linecap:round;stroke-linejoin:round;stroke:rgb(0%,0%,0%);stroke-opacity:1;stroke-miterlimit:10;" d="M 3695.390625 3409.6875 L 3695.390625 2681.601563 " transform="matrix(0.1,0,0,-0.1,0,477)"/>
<path style="fill:none;stroke-width:5.8827;stroke-linecap:round;stroke-linejoin:round;stroke:rgb(0%,0%,0%);stroke-opacity:1;stroke-dasharray:70.5918,35.2959;stroke-miterlimit:10;" d="M 3597.617188 2303.398438 L 4685.507813 2303.398438 M 1690.78125 1569.6875 L 1690.78125 -496.210938 M 2796.992188 1428.515625 L 2796.992188 -468.007813 M 3732.109375 2862.1875 L 4685.507813 2862.1875 M 3597.617188 2117.1875 L 4685.507813 2117.1875 M 2106.40625 344.804688 L 2106.40625 -468.007813 M 2558.59375 1417.304688 L 2558.59375 -468.007813 M 1910.78125 1569.6875 L 1910.78125 -484.882813 M 3016.992188 1422.890625 L 3016.992188 -468.007813 M 3597.617188 2478.398438 L 4685.507813 2478.398438 M 3732.109375 3042.8125 L 4685.507813 3042.8125 M 3732.109375 3240.390625 L 4685.507813 3240.390625 " transform="matrix(0.1,0,0,-0.1,0,477)"/>
<path style=" stroke:none;fill-rule:evenodd;fill:rgb(87.889099%,87.889099%,87.889099%);fill-opacity:1;" d="M 109.789063 145.058594 L 118.960938 145.058594 L 118.960938 140.539063 L 109.789063 140.539063 Z M 109.789063 145.058594 "/>
<path style=" stroke:none;fill-rule:evenodd;fill:rgb(87.889099%,87.889099%,87.889099%);fill-opacity:1;" d="M 119.570313 150.710938 L 129.351563 150.710938 L 129.351563 146.191406 L 119.570313 146.191406 Z M 119.570313 150.710938 "/>
<path style=" stroke:none;fill-rule:evenodd;fill:rgb(87.889099%,87.889099%,87.889099%);fill-opacity:1;" d="M 109.789063 154.660156 L 118.960938 154.660156 L 118.960938 150.140625 L 109.789063 150.140625 Z M 109.789063 154.660156 "/>
<path style=" stroke:none;fill-rule:evenodd;fill:rgb(87.889099%,87.889099%,87.889099%);fill-opacity:1;" d="M 119.570313 161.429688 L 129.351563 161.429688 L 129.351563 156.910156 L 119.570313 156.910156 Z M 119.570313 161.429688 "/>
<path style=" stroke:none;fill-rule:evenodd;fill:rgb(87.889099%,87.889099%,87.889099%);fill-opacity:1;" d="M 109.789063 166.511719 L 118.960938 166.511719 L 118.960938 161.988281 L 109.789063 161.988281 Z M 109.789063 166.511719 "/>
<path style=" stroke:none;fill-rule:evenodd;fill:rgb(87.889099%,87.889099%,87.889099%);fill-opacity:1;" d="M 119.570313 171.589844 L 129.351563 171.589844 L 129.351563 167.070313 L 119.570313 167.070313 Z M 119.570313 171.589844 "/>
<path style=" stroke:none;fill-rule:evenodd;fill:rgb(87.889099%,87.889099%,87.889099%);fill-opacity:1;" d="M 109.789063 177.238281 L 118.960938 177.238281 L 118.960938 172.71875 L 109.789063 172.71875 Z M 109.789063 177.238281 "/>
<path style=" stroke:none;fill-rule:evenodd;fill:rgb(87.889099%,87.889099%,87.889099%);fill-opacity:1;" d="M 119.570313 182.320313 L 129.351563 182.320313 L 129.351563 177.800781 L 119.570313 177.800781 Z M 119.570313 182.320313 "/>
<path style=" stroke:none;fill-rule:evenodd;fill:rgb(87.889099%,87.889099%,87.889099%);fill-opacity:1;" d="M 109.789063 188.53125 L 118.960938 188.53125 L 118.960938 184.011719 L 109.789063 184.011719 Z M 109.789063 188.53125 "/>
<path style=" stroke:none;fill-rule:evenodd;fill:rgb(87.889099%,87.889099%,87.889099%);fill-opacity:1;" d="M 119.570313 194.730469 L 129.351563 194.730469 L 129.351563 190.210938 L 119.570313 190.210938 Z M 119.570313 194.730469 "/>
<path style=" stroke:none;fill-rule:evenodd;fill:rgb(87.889099%,87.889099%,87.889099%);fill-opacity:1;" d="M 109.789063 199.25 L 118.960938 199.25 L 118.960938 194.730469 L 109.789063 194.730469 Z M 109.789063 199.25 "/>
<path style=" stroke:none;fill-rule:evenodd;fill:rgb(87.889099%,87.889099%,87.889099%);fill-opacity:1;" d="M 119.570313 204.890625 L 129.351563 204.890625 L 129.351563 200.371094 L 119.570313 200.371094 Z M 119.570313 204.890625 "/>
<path style=" stroke:none;fill-rule:evenodd;fill:rgb(87.889099%,87.889099%,87.889099%);fill-opacity:1;" d="M 109.789063 209.410156 L 118.960938 209.410156 L 118.960938 204.328125 L 109.789063 204.328125 Z M 109.789063 209.410156 "/>
<path style=" stroke:none;fill-rule:evenodd;fill:rgb(87.889099%,87.889099%,87.889099%);fill-opacity:1;" d="M 119.570313 215.050781 L 129.351563 215.050781 L 129.351563 210.53125 L 119.570313 210.53125 Z M 119.570313 215.050781 "/>
<path style=" stroke:none;fill-rule:evenodd;fill:rgb(87.889099%,87.889099%,87.889099%);fill-opacity:1;" d="M 109.789063 221.261719 L 118.960938 221.261719 L 118.960938 216.738281 L 109.789063 216.738281 Z M 109.789063 221.261719 "/>
<path style=" stroke:none;fill-rule:evenodd;fill:rgb(87.889099%,87.889099%,87.889099%);fill-opacity:1;" d="M 119.570313 226.339844 L 129.351563 226.339844 L 129.351563 221.820313 L 119.570313 221.820313 Z M 119.570313 226.339844 "/>
<path style=" stroke:none;fill-rule:evenodd;fill:rgb(87.889099%,87.889099%,87.889099%);fill-opacity:1;" d="M 109.789063 231.988281 L 118.960938 231.988281 L 118.960938 227.46875 L 109.789063 227.46875 Z M 109.789063 231.988281 "/>
<path style=" stroke:none;fill-rule:evenodd;fill:rgb(87.889099%,87.889099%,87.889099%);fill-opacity:1;" d="M 119.570313 237.628906 L 129.351563 237.628906 L 129.351563 233.109375 L 119.570313 233.109375 Z M 119.570313 237.628906 "/>
<path style=" stroke:none;fill-rule:evenodd;fill:rgb(87.889099%,87.889099%,87.889099%);fill-opacity:1;" d="M 109.789063 243.839844 L 118.960938 243.839844 L 118.960938 239.320313 L 109.789063 239.320313 Z M 109.789063 243.839844 "/>
<path style=" stroke:none;fill-rule:evenodd;fill:rgb(87.889099%,87.889099%,87.889099%);fill-opacity:1;" d="M 119.570313 248.359375 L 129.351563 248.359375 L 129.351563 243.839844 L 119.570313 243.839844 Z M 119.570313 248.359375 "/>
<path style=" stroke:none;fill-rule:evenodd;fill:rgb(87.889099%,87.889099%,87.889099%);fill-opacity:1;" d="M 109.789063 253.441406 L 118.960938 253.441406 L 118.960938 248.921875 L 109.789063 248.921875 Z M 109.789063 253.441406 "/>
<path style=" stroke:none;fill-rule:evenodd;fill:rgb(87.889099%,87.889099%,87.889099%);fill-opacity:1;" d="M 119.570313 259.078125 L 129.351563 259.078125 L 129.351563 254.558594 L 119.570313 254.558594 Z M 119.570313 259.078125 "/>
<path style=" stroke:none;fill-rule:evenodd;fill:rgb(87.889099%,87.889099%,87.889099%);fill-opacity:1;" d="M 109.789063 264.160156 L 118.960938 264.160156 L 118.960938 259.640625 L 109.789063 259.640625 Z M 109.789063 264.160156 "/>
<path style=" stroke:none;fill-rule:evenodd;fill:rgb(87.889099%,87.889099%,87.889099%);fill-opacity:1;" d="M 119.570313 269.238281 L 129.351563 269.238281 L 129.351563 264.71875 L 119.570313 264.71875 Z M 119.570313 269.238281 "/>
<path style=" stroke:none;fill-rule:evenodd;fill:rgb(87.889099%,87.889099%,87.889099%);fill-opacity:1;" d="M 109.789063 274.878906 L 118.960938 274.878906 L 118.960938 270.359375 L 109.789063 270.359375 Z M 109.789063 274.878906 "/>
<path style=" stroke:none;fill-rule:evenodd;fill:rgb(87.889099%,87.889099%,87.889099%);fill-opacity:1;" d="M 119.570313 280.53125 L 129.351563 280.53125 L 129.351563 276.011719 L 119.570313 276.011719 Z M 119.570313 280.53125 "/>
<path style="fill:none;stroke-width:5.8827;stroke-linecap:butt;stroke-linejoin:miter;stroke:rgb(75.389099%,75.389099%,75.389099%);stroke-opacity:1;stroke-miterlimit:10;" d="M 1091.796875 1936.601563 L 1305.703125 1936.601563 L 1305.703125 3392.8125 L 1091.796875 3392.8125 Z M 1091.796875 1936.601563 " transform="matrix(0.1,0,0,-0.1,0,477)"/>
<path style="fill:none;stroke-width:5.8827;stroke-linecap:butt;stroke-linejoin:miter;stroke:rgb(75.389099%,75.389099%,75.389099%);stroke-opacity:1;stroke-miterlimit:10;" d="M 1097.890625 1964.804688 L 1299.609375 1964.804688 L 1299.609375 3370.195313 L 1097.890625 3370.195313 Z M 1097.890625 1964.804688 " transform="matrix(0.1,0,0,-0.1,0,477)"/>
<path style="fill:none;stroke-width:5.8827;stroke-linecap:round;stroke-linejoin:round;stroke:rgb(0%,0%,0%);stroke-opacity:1;stroke-dasharray:70.5918,35.2959;stroke-miterlimit:10;" d="M 10.117188 3229.101563 L 1073.515625 3229.101563 M 10.117188 3037.1875 L 1073.515625 3037.1875 " transform="matrix(0.1,0,0,-0.1,0,477)"/>
<path style="fill:none;stroke-width:5.8827;stroke-linecap:round;stroke-linejoin:round;stroke:rgb(0%,0%,0%);stroke-opacity:1;stroke-dasharray:70.5918,35.2959;stroke-miterlimit:10;" d="M 10.117188 2867.890625 L 1073.515625 2867.890625 M 3.984375 2483.984375 L 987.890625 2483.984375 M 3.984375 2303.398438 L 987.890625 2303.398438 M 3.984375 2117.1875 L 987.890625 2117.1875 " transform="matrix(0.1,0,0,-0.1,0,477)"/>
<path style="fill:none;stroke-width:5.8827;stroke-linecap:round;stroke-linejoin:round;stroke:rgb(0%,0%,0%);stroke-opacity:1;stroke-miterlimit:10;" d="M 3.984375 3415.390625 L 1336.289063 3415.390625 L 1409.609375 3432.304688 L 1440.195313 3443.59375 L 1452.382813 3454.882813 L 1458.515625 3466.210938 L 1464.609375 3488.710938 L 1470.78125 3511.289063 L 1470.78125 4245.117188 " transform="matrix(0.1,0,0,-0.1,0,477)"/>
<path style="fill:none;stroke-width:5.8827;stroke-linecap:round;stroke-linejoin:round;stroke:rgb(0%,0%,0%);stroke-opacity:1;stroke-miterlimit:10;" d="M 4709.882813 3426.601563 L 3377.617188 3426.601563 L 3304.296875 3443.59375 L 3273.710938 3454.882813 L 3261.484375 3466.210938 L 3255.390625 3477.382813 L 3249.296875 3500 L 3243.085938 3522.617188 L 3243.085938 4273.28125 " transform="matrix(0.1,0,0,-0.1,0,477)"/>
<path style=" stroke:none;fill-rule:evenodd;fill:rgb(87.889099%,87.889099%,87.889099%);fill-opacity:1;" d="M 153.191406 126.429688 L 158.691406 126.429688 L 158.691406 117.398438 L 153.191406 117.398438 Z M 153.191406 126.429688 "/>
<path style=" stroke:none;fill-rule:evenodd;fill:rgb(87.889099%,87.889099%,87.889099%);fill-opacity:1;" d="M 159.300781 116.839844 L 165.410156 116.839844 L 165.410156 107.808594 L 159.300781 107.808594 Z M 159.300781 116.839844 "/>
<path style=" stroke:none;fill-rule:evenodd;fill:rgb(87.889099%,87.889099%,87.889099%);fill-opacity:1;" d="M 165.410156 126.429688 L 171.519531 126.429688 L 171.519531 117.398438 L 165.410156 117.398438 Z M 165.410156 126.429688 "/>
<path style=" stroke:none;fill-rule:evenodd;fill:rgb(87.889099%,87.889099%,87.889099%);fill-opacity:1;" d="M 171.519531 116.839844 L 177.019531 116.839844 L 177.019531 107.808594 L 171.519531 107.808594 Z M 171.519531 116.839844 "/>
<path style=" stroke:none;fill-rule:evenodd;fill:rgb(87.889099%,87.889099%,87.889099%);fill-opacity:1;" d="M 178.859375 126.429688 L 184.96875 126.429688 L 184.96875 117.398438 L 178.859375 117.398438 Z M 178.859375 126.429688 "/>
<path style=" stroke:none;fill-rule:evenodd;fill:rgb(87.889099%,87.889099%,87.889099%);fill-opacity:1;" d="M 184.96875 116.839844 L 190.46875 116.839844 L 190.46875 107.808594 L 184.96875 107.808594 Z M 184.96875 116.839844 "/>
<path style=" stroke:none;fill-rule:evenodd;fill:rgb(87.889099%,87.889099%,87.889099%);fill-opacity:1;" d="M 190.46875 126.429688 L 195.96875 126.429688 L 195.96875 117.398438 L 190.46875 117.398438 Z M 190.46875 126.429688 "/>
<path style=" stroke:none;fill-rule:evenodd;fill:rgb(87.889099%,87.889099%,87.889099%);fill-opacity:1;" d="M 196.578125 116.839844 L 202.691406 116.839844 L 202.691406 107.808594 L 196.578125 107.808594 Z M 196.578125 116.839844 "/>
<path style=" stroke:none;fill-rule:evenodd;fill:rgb(87.889099%,87.889099%,87.889099%);fill-opacity:1;" d="M 202.691406 126.429688 L 208.191406 126.429688 L 208.191406 117.398438 L 202.691406 117.398438 Z M 202.691406 126.429688 "/>
<path style=" stroke:none;fill-rule:evenodd;fill:rgb(87.889099%,87.889099%,87.889099%);fill-opacity:1;" d="M 210.03125 116.839844 L 216.140625 116.839844 L 216.140625 107.808594 L 210.03125 107.808594 Z M 210.03125 116.839844 "/>
<path style=" stroke:none;fill-rule:evenodd;fill:rgb(87.889099%,87.889099%,87.889099%);fill-opacity:1;" d="M 216.140625 126.429688 L 222.25 126.429688 L 222.25 117.398438 L 216.140625 117.398438 Z M 216.140625 126.429688 "/>
<path style=" stroke:none;fill-rule:evenodd;fill:rgb(87.889099%,87.889099%,87.889099%);fill-opacity:1;" d="M 222.859375 116.839844 L 228.359375 116.839844 L 228.359375 107.808594 L 222.859375 107.808594 Z M 222.859375 116.839844 "/>
<path style=" stroke:none;fill-rule:evenodd;fill:rgb(87.889099%,87.889099%,87.889099%);fill-opacity:1;" d="M 228.96875 126.429688 L 236.300781 126.429688 L 236.300781 117.398438 L 228.96875 117.398438 Z M 228.96875 126.429688 "/>
<path style=" stroke:none;fill-rule:evenodd;fill:rgb(87.889099%,87.889099%,87.889099%);fill-opacity:1;" d="M 236.921875 116.839844 L 243.03125 116.839844 L 243.03125 107.808594 L 236.921875 107.808594 Z M 236.921875 116.839844 "/>
<path style=" stroke:none;fill-rule:evenodd;fill:rgb(87.889099%,87.889099%,87.889099%);fill-opacity:1;" d="M 243.640625 126.429688 L 249.75 126.429688 L 249.75 117.398438 L 243.640625 117.398438 Z M 243.640625 126.429688 "/>
<path style=" stroke:none;fill-rule:evenodd;fill:rgb(87.889099%,87.889099%,87.889099%);fill-opacity:1;" d="M 250.359375 116.839844 L 256.46875 116.839844 L 256.46875 107.808594 L 250.359375 107.808594 Z M 250.359375 116.839844 "/>
<path style=" stroke:none;fill-rule:evenodd;fill:rgb(87.889099%,87.889099%,87.889099%);fill-opacity:1;" d="M 257.089844 126.429688 L 262.589844 126.429688 L 262.589844 117.398438 L 257.089844 117.398438 Z M 257.089844 126.429688 "/>
<path style=" stroke:none;fill-rule:evenodd;fill:rgb(87.889099%,87.889099%,87.889099%);fill-opacity:1;" d="M 263.808594 116.839844 L 269.308594 116.839844 L 269.308594 107.808594 L 263.808594 107.808594 Z M 263.808594 116.839844 "/>
<path style=" stroke:none;fill-rule:evenodd;fill:rgb(87.889099%,87.889099%,87.889099%);fill-opacity:1;" d="M 269.921875 126.429688 L 276.03125 126.429688 L 276.03125 117.398438 L 269.921875 117.398438 Z M 269.921875 126.429688 "/>
<path style=" stroke:none;fill-rule:evenodd;fill:rgb(87.889099%,87.889099%,87.889099%);fill-opacity:1;" d="M 276.03125 116.839844 L 281.53125 116.839844 L 281.53125 107.808594 L 276.03125 107.808594 Z M 276.03125 116.839844 "/>
<path style=" stroke:none;fill-rule:evenodd;fill:rgb(87.889099%,87.889099%,87.889099%);fill-opacity:1;" d="M 282.140625 126.429688 L 288.25 126.429688 L 288.25 117.398438 L 282.140625 117.398438 Z M 282.140625 126.429688 "/>
<path style=" stroke:none;fill-rule:evenodd;fill:rgb(87.889099%,87.889099%,87.889099%);fill-opacity:1;" d="M 288.261719 116.839844 L 294.371094 116.839844 L 294.371094 107.808594 L 288.261719 107.808594 Z M 288.261719 116.839844 "/>
<path style=" stroke:none;fill-rule:evenodd;fill:rgb(87.889099%,87.889099%,87.889099%);fill-opacity:1;" d="M 294.980469 126.429688 L 300.480469 126.429688 L 300.480469 117.398438 L 294.980469 117.398438 Z M 294.980469 126.429688 "/>
<path style=" stroke:none;fill-rule:evenodd;fill:rgb(87.889099%,87.889099%,87.889099%);fill-opacity:1;" d="M 301.089844 116.839844 L 307.199219 116.839844 L 307.199219 107.808594 L 301.089844 107.808594 Z M 301.089844 116.839844 "/>
<path style=" stroke:none;fill-rule:evenodd;fill:rgb(87.889099%,87.889099%,87.889099%);fill-opacity:1;" d="M 307.808594 126.429688 L 313.308594 126.429688 L 313.308594 117.398438 L 307.808594 117.398438 Z M 307.808594 126.429688 "/>
<path style=" stroke:none;fill-rule:evenodd;fill:rgb(87.889099%,87.889099%,87.889099%);fill-opacity:1;" d="M 313.308594 116.839844 L 318.808594 116.839844 L 318.808594 107.808594 L 313.308594 107.808594 Z M 313.308594 116.839844 "/>
<path style="fill:none;stroke-width:5.8827;stroke-linecap:butt;stroke-linejoin:miter;stroke:rgb(75.389099%,75.389099%,75.389099%);stroke-opacity:1;stroke-miterlimit:10;" d="M 1489.101563 3505.703125 L 3212.617188 3505.703125 L 3212.617188 3714.492188 L 1489.101563 3714.492188 Z M 1489.101563 3505.703125 " transform="matrix(0.1,0,0,-0.1,0,477)"/>
<path style="fill:none;stroke-width:5.8827;stroke-linecap:butt;stroke-linejoin:miter;stroke:rgb(75.389099%,75.389099%,75.389099%);stroke-opacity:1;stroke-miterlimit:10;" d="M 1519.6875 3511.289063 L 3188.203125 3511.289063 L 3188.203125 3703.203125 L 1519.6875 3703.203125 Z M 1519.6875 3511.289063 " transform="matrix(0.1,0,0,-0.1,0,477)"/>
<path style="fill:none;stroke-width:11.7653;stroke-linecap:round;stroke-linejoin:round;stroke:rgb(0%,0%,0%);stroke-opacity:1;stroke-miterlimit:10;" d="M 1458.515625 3827.382813 L 2332.5 3827.382813 " transform="matrix(0.1,0,0,-0.1,0,477)"/>
<path style="fill:none;stroke-width:5.8827;stroke-linecap:round;stroke-linejoin:round;stroke:rgb(0%,0%,0%);stroke-opacity:1;stroke-dasharray:70.5918,35.2959;stroke-miterlimit:10;" d="M 1666.289063 4256.40625 L 1666.289063 3833.007813 " transform="matrix(0.1,0,0,-0.1,0,477)"/>
<path style="fill:none;stroke-width:5.8827;stroke-linecap:round;stroke-linejoin:round;stroke:rgb(0%,0%,0%);stroke-opacity:1;stroke-dasharray:70.5918,35.2959;stroke-miterlimit:10;" d="M 1874.101563 4250.703125 L 1874.101563 3833.007813 M 2094.101563 4250.703125 L 2094.101563 3833.007813 M 2570.898438 4261.992188 L 2570.898438 3720.117188 M 2778.710938 4261.992188 L 2778.710938 3720.117188 M 2992.617188 4261.992188 L 2992.617188 3720.117188 " transform="matrix(0.1,0,0,-0.1,0,477)"/>
<path style="fill:none;stroke-width:5.8827;stroke-linecap:round;stroke-linejoin:round;stroke:rgb(0%,0%,0%);stroke-opacity:1;stroke-miterlimit:10;" d="M 2344.6875 -451.015625 L 2344.6875 124.6875 L 2112.5 429.492188 L 2112.5 892.304688 " transform="matrix(0.1,0,0,-0.1,0,477)"/>
<path style="fill:none;stroke-width:5.8827;stroke-linecap:round;stroke-linejoin:round;stroke:rgb(0%,0%,0%);stroke-opacity:1;stroke-dasharray:5.8827,17.648;stroke-miterlimit:10;" d="M 2112.5 1547.109375 L 2112.5 914.882813 " transform="matrix(0.1,0,0,-0.1,0,477)"/>
<path style="fill:none;stroke-width:5.8827;stroke-linecap:round;stroke-linejoin:round;stroke:rgb(0%,0%,0%);stroke-opacity:1;stroke-dasharray:70.5918,35.2959;stroke-miterlimit:10;" d="M 2369.21875 1270.507813 L 2369.21875 192.382813 " transform="matrix(0.1,0,0,-0.1,0,477)"/>
<path style="fill:none;stroke-width:5.8827;stroke-linecap:round;stroke-linejoin:round;stroke:rgb(0%,0%,0%);stroke-opacity:1;stroke-miterlimit:10;" d="M 2369.21875 1569.6875 L 2369.21875 1281.796875 " transform="matrix(0.1,0,0,-0.1,0,477)"/>
</g>
</svg>
