<?xml version="1.0" encoding="UTF-8"?>
<svg xmlns="http://www.w3.org/2000/svg" xmlns:xlink="http://www.w3.org/1999/xlink" width="573pt" height="553pt" viewBox="0 0 573 553" version="1.1">
<g id="surface1">
<path style="fill:none;stroke-width:29.4133;stroke-linecap:round;stroke-linejoin:round;stroke:rgb(0%,0%,0%);stroke-opacity:1;stroke-miterlimit:10;" d="M 87.1875 4784.882813 L 1340.117188 4784.882813 L 1340.117188 5400.195313 " transform="matrix(0.1,0,0,-0.1,0,553)"/>
<path style="fill:none;stroke-width:29.4133;stroke-linecap:round;stroke-linejoin:round;stroke:rgb(0%,0%,0%);stroke-opacity:1;stroke-miterlimit:10;" d="M 4151.484375 5360.703125 L 4151.484375 4745.390625 L 5703.90625 4745.390625 " transform="matrix(0.1,0,0,-0.1,0,553)"/>
<path style="fill:none;stroke-width:29.4133;stroke-linecap:round;stroke-linejoin:round;stroke:rgb(0%,0%,0%);stroke-opacity:1;stroke-miterlimit:10;" d="M 32.1875 2188.515625 L 1364.609375 2188.515625 L 1364.609375 -63.59375 " transform="matrix(0.1,0,0,-0.1,0,553)"/>
<path style="fill:none;stroke-width:29.4133;stroke-linecap:round;stroke-linejoin:round;stroke:rgb(0%,0%,0%);stroke-opacity:1;stroke-miterlimit:10;" d="M 38.398438 3515 L 1315.703125 3515 M 50.585938 3560.117188 L 1303.515625 3560.117188 M 4133.203125 3593.984375 L 5673.28125 3593.984375 M 4120.898438 3548.789063 L 5685.507813 3548.789063 " transform="matrix(0.1,0,0,-0.1,0,553)"/>
<path style="fill:none;stroke-width:5.8827;stroke-linecap:round;stroke-linejoin:round;stroke:rgb(0%,0%,0%);stroke-opacity:1;stroke-dasharray:70.5918,35.2959;stroke-miterlimit:10;" d="M 4194.296875 4344.6875 L 5630.507813 4344.6875 M 4194.296875 3966.484375 L 5685.507813 3966.484375 M 4096.484375 3131.09375 L 5648.90625 3131.09375 M 4096.484375 2668.28125 L 5648.90625 2668.28125 M 75 4435 L 1370.703125 4435 M 56.679688 4039.882813 L 1333.984375 4039.882813 M 56.679688 3131.09375 L 1303.515625 3131.09375 M 56.679688 2690.898438 L 1303.515625 2690.898438 M 1749.609375 5264.6875 L 1749.609375 4722.890625 M 2195.78125 5264.6875 L 2195.78125 4717.1875 M 3686.992188 5270.390625 L 3686.992188 4722.890625 M 3222.5 5270.390625 L 3222.5 4722.890625 " transform="matrix(0.1,0,0,-0.1,0,553)"/>
<path style="fill:none;stroke-width:29.4133;stroke-linecap:round;stroke-linejoin:round;stroke:rgb(0%,0%,0%);stroke-opacity:1;stroke-miterlimit:10;" d="M 2641.914063 5400.195313 L 2641.914063 4784.882813 M 2684.6875 5411.484375 L 2684.6875 4796.210938 " transform="matrix(0.1,0,0,-0.1,0,553)"/>
<path style="fill:none;stroke-width:5.8827;stroke-linecap:round;stroke-linejoin:round;stroke:rgb(0%,0%,0%);stroke-opacity:1;stroke-dasharray:70.5918,35.2959;stroke-miterlimit:10;" d="M 3638.085938 2239.296875 L 3638.085938 -35.3125 " transform="matrix(0.1,0,0,-0.1,0,553)"/>
<path style="fill:none;stroke-width:29.4133;stroke-linecap:round;stroke-linejoin:round;stroke:rgb(0%,0%,0%);stroke-opacity:1;stroke-miterlimit:10;" d="M 5648.90625 2222.382813 L 4096.484375 2222.382813 L 4096.484375 -29.6875 " transform="matrix(0.1,0,0,-0.1,0,553)"/>
<path style="fill:none;stroke-width:5.8827;stroke-linecap:round;stroke-linejoin:round;stroke:rgb(0%,0%,0%);stroke-opacity:1;stroke-miterlimit:10;" d="M 2201.914063 901.601563 L 2214.101563 896.015625 L 2648.007813 591.210938 L 2648.007813 -46.601563 " transform="matrix(0.1,0,0,-0.1,0,553)"/>
<path style="fill:none;stroke-width:29.4133;stroke-linecap:round;stroke-linejoin:round;stroke:rgb(0%,0%,0%);stroke-opacity:1;stroke-miterlimit:10;" d="M 2654.101563 2182.890625 L 2654.101563 749.179688 " transform="matrix(0.1,0,0,-0.1,0,553)"/>
<path style="fill:none;stroke-width:5.8827;stroke-linecap:round;stroke-linejoin:round;stroke:rgb(0%,0%,0%);stroke-opacity:1;stroke-dasharray:70.5918,35.2959;stroke-miterlimit:10;" d="M 2208.007813 2182.890625 L 2208.007813 -46.601563 " transform="matrix(0.1,0,0,-0.1,0,553)"/>
<path style="fill:none;stroke-width:29.4133;stroke-linecap:round;stroke-linejoin:round;stroke:rgb(0%,0%,0%);stroke-opacity:1;stroke-miterlimit:10;" d="M 2709.21875 2194.21875 L 2709.21875 737.890625 " transform="matrix(0.1,0,0,-0.1,0,553)"/>
<path style="fill:none;stroke-width:17.648;stroke-linecap:round;stroke-linejoin:round;stroke:rgb(0%,0%,0%);stroke-opacity:1;stroke-miterlimit:10;" d="M 2703.007813 636.289063 L 2703.007813 -41.015625 " transform="matrix(0.1,0,0,-0.1,0,553)"/>
<path style="fill:none;stroke-width:5.8827;stroke-linecap:round;stroke-linejoin:round;stroke:rgb(0%,0%,0%);stroke-opacity:1;stroke-dasharray:70.5918,35.2959;stroke-miterlimit:10;" d="M 1774.101563 2182.890625 L 1768.007813 -63.59375 M 3167.5 2211.09375 L 3167.5 -46.601563 " transform="matrix(0.1,0,0,-0.1,0,553)"/>
</g>
</svg>
