<?xml version="1.0" encoding="UTF-8"?>
<svg xmlns="http://www.w3.org/2000/svg" xmlns:xlink="http://www.w3.org/1999/xlink" width="537pt" height="504pt" viewBox="0 0 537 504" version="1.1">
<g id="surface1">
<path style="fill:none;stroke-width:5.8827;stroke-linecap:round;stroke-linejoin:round;stroke:rgb(0%,0%,0%);stroke-opacity:1;stroke-miterlimit:10;" d="M 2911.40625 4735.195313 L 2911.40625 3589.414063 L 2917.5 3583.789063 L 2923.59375 3578.085938 L 2929.804688 3566.796875 L 2929.804688 3561.210938 L 2935.898438 3561.210938 L 2935.898438 3549.882813 L 2941.992188 3544.21875 L 2948.085938 3544.21875 L 2948.085938 3538.59375 L 2954.21875 3527.304688 L 2960.3125 3521.71875 L 2966.40625 3521.71875 L 2966.40625 3516.015625 L 2972.5 3504.6875 L 2978.59375 3504.6875 L 2978.59375 3499.101563 L 2984.804688 3499.101563 L 2984.804688 3493.398438 L 2990.898438 3482.1875 L 2996.992188 3482.1875 L 2996.992188 3476.484375 L 3003.085938 3476.484375 L 3009.21875 3465.195313 L 3015.3125 3459.609375 L 3021.40625 3459.609375 L 3021.40625 3453.90625 L 3027.5 3453.90625 L 3033.59375 3442.617188 L 3039.804688 3442.617188 L 3039.804688 3436.992188 L 3045.898438 3436.992188 L 3051.992188 3431.40625 L 3058.085938 3420.117188 L 3064.21875 3420.117188 L 3070.3125 3414.414063 L 3076.40625 3414.414063 L 3082.5 3408.789063 L 3088.710938 3408.789063 L 3094.804688 3397.5 L 3100.898438 3397.5 L 3106.992188 3391.796875 L 3113.085938 3391.796875 L 3119.21875 3386.210938 L 3131.40625 3386.210938 L 3137.5 3374.882813 L 3143.710938 3374.882813 L 3149.804688 3369.296875 L 3155.898438 3369.296875 L 3161.992188 3358.007813 L 3180.3125 3358.007813 L 3186.40625 3352.304688 L 3198.710938 3352.304688 L 3204.804688 3346.71875 L 3235.3125 3346.71875 L 3241.40625 3335.390625 L 3271.992188 3335.390625 L 3278.085938 3329.804688 L 5337.695313 3329.804688 " transform="matrix(0.1,0,0,-0.1,0,504)"/>
<path style="fill:none;stroke-width:5.8827;stroke-linecap:round;stroke-linejoin:round;stroke:rgb(0%,0%,0%);stroke-opacity:1;stroke-miterlimit:10;" d="M 4249.882813 -243.085938 L 3253.710938 614.804688 L 3241.40625 626.09375 L 3229.21875 626.09375 L 3223.085938 631.796875 L 3106.992188 631.796875 L 3100.898438 626.09375 L 3082.5 626.09375 L 3076.40625 614.804688 L 3064.21875 614.804688 L 3058.085938 609.179688 L 3045.898438 609.179688 L 3045.898438 603.515625 L 3033.59375 603.515625 L 3033.59375 592.1875 L 3021.40625 592.1875 L 3015.3125 586.601563 L 3009.21875 575.3125 L 3003.085938 575.3125 L 2996.992188 569.6875 L 2990.898438 563.984375 L 2984.804688 563.984375 L 2984.804688 552.695313 L 2978.59375 552.695313 L 2972.5 547.109375 L 2966.40625 541.40625 L 2960.3125 530.195313 L 2954.21875 524.492188 L 2948.085938 524.492188 L 2948.085938 518.90625 L 2941.992188 507.617188 L 2935.898438 501.914063 L 2929.804688 496.289063 L 2929.804688 485 L 2923.59375 485 L 2923.59375 479.414063 L 2917.5 468.085938 L 2917.5 462.382813 L 2911.40625 456.796875 L 2905.3125 445.507813 L 2905.3125 439.882813 L 2899.21875 434.179688 L 2899.21875 422.890625 L 2893.085938 417.304688 L 2893.085938 400.3125 L 2886.992188 394.6875 L 2886.992188 377.8125 L 2880.898438 372.109375 L 2880.898438 349.492188 L 2874.6875 338.320313 L 2874.6875 287.5 L 2868.59375 276.210938 L 2868.59375 270.507813 L 2874.6875 253.59375 L 2874.6875 -265.703125 " transform="matrix(0.1,0,0,-0.1,0,504)"/>
<path style="fill:none;stroke-width:5.8827;stroke-linecap:round;stroke-linejoin:round;stroke:rgb(0%,0%,0%);stroke-opacity:1;stroke-miterlimit:10;" d="M 5337.695313 1619.492188 L 4952.695313 1619.492188 L 4952.695313 1613.90625 L 4946.601563 1613.90625 L 4940.507813 1602.617188 L 4934.414063 1602.617188 L 4934.414063 1596.914063 L 4928.28125 1596.914063 L 4928.28125 1591.289063 L 4922.1875 1591.289063 L 4922.1875 1574.414063 L 4916.015625 1574.414063 L 4916.015625 1557.382813 L 4909.882813 1557.382813 L 4909.882813 1534.882813 L 4903.789063 1534.882813 L 4903.789063 1506.601563 L 4909.882813 1495.3125 L 4909.882813 1472.8125 L 4916.015625 1472.8125 L 4916.015625 1467.109375 L 5331.601563 1151.015625 " transform="matrix(0.1,0,0,-0.1,0,504)"/>
<path style="fill:none;stroke-width:11.7653;stroke-linecap:round;stroke-linejoin:round;stroke:rgb(0%,0%,0%);stroke-opacity:1;stroke-miterlimit:10;" d="M -3.789063 3273.28125 L 766.210938 3273.28125 L 766.210938 3278.984375 L 808.984375 3278.984375 L 815.117188 3290.195313 L 839.609375 3290.195313 L 851.796875 3295.898438 L 876.210938 3295.898438 L 882.304688 3301.484375 L 906.796875 3301.484375 L 906.796875 3312.8125 L 925.117188 3312.8125 L 925.117188 3318.515625 L 949.609375 3318.515625 L 949.609375 3329.804688 L 961.796875 3329.804688 L 961.796875 3335.390625 L 980.117188 3335.390625 L 986.210938 3341.015625 L 998.515625 3341.015625 L 1004.609375 3352.304688 L 1010.703125 3352.304688 L 1022.890625 3358.007813 L 1028.984375 3358.007813 L 1035.117188 3363.59375 L 1047.382813 3363.59375 L 1047.382813 3374.882813 L 1053.515625 3374.882813 L 1059.609375 3380.585938 L 1071.796875 3380.585938 L 1077.890625 3386.210938 L 1083.984375 3386.210938 L 1083.984375 3397.5 L 1096.289063 3397.5 L 1096.289063 3403.085938 L 1102.382813 3403.085938 L 1108.515625 3414.414063 L 1120.703125 3414.414063 L 1120.703125 3420.117188 L 1126.796875 3420.117188 L 1132.890625 3425.703125 L 1145.117188 3436.992188 L 1151.289063 3436.992188 L 1151.289063 3442.617188 L 1157.382813 3442.617188 L 1157.382813 3448.28125 L 1169.609375 3448.28125 L 1169.609375 3459.609375 L 1175.703125 3459.609375 L 1175.703125 3465.195313 L 1181.796875 3465.195313 L 1193.984375 3470.898438 L 1200.117188 3482.1875 L 1200.117188 4735.195313 " transform="matrix(0.1,0,0,-0.1,0,504)"/>
<path style="fill:none;stroke-width:17.648;stroke-linecap:round;stroke-linejoin:round;stroke:rgb(0%,0%,0%);stroke-opacity:1;stroke-miterlimit:10;" d="M 20.585938 1568.710938 L 973.984375 1568.710938 L 973.984375 1580 L 980.117188 1568.710938 L 998.515625 1568.710938 L 998.515625 1557.382813 L 1010.703125 1557.382813 L 1022.890625 1546.09375 L 1035.117188 1546.09375 L 1035.117188 1534.882813 L 1053.515625 1534.882813 L 1053.515625 1523.59375 L 1065.703125 1523.59375 L 1065.703125 1512.304688 L 1077.890625 1512.304688 L 1077.890625 1501.015625 L 1090.117188 1501.015625 L 1090.117188 1489.6875 L 1102.382813 1489.6875 L 1102.382813 1478.398438 L 1108.515625 1478.398438 L 1108.515625 1467.109375 L 1120.703125 1467.109375 L 1120.703125 1455.78125 L 1132.890625 1455.78125 L 1132.890625 1444.492188 L 1138.984375 1444.492188 L 1138.984375 1433.28125 L 1145.117188 1433.28125 L 1145.117188 1421.992188 L 1157.382813 1421.992188 L 1157.382813 1410.703125 L 1163.515625 1399.414063 L 1169.609375 1388.085938 L 1169.609375 1376.796875 L 1175.703125 1376.796875 L 1175.703125 1365.507813 L 1187.890625 1365.507813 L 1187.890625 1354.21875 L 1193.984375 1342.890625 " transform="matrix(0.1,0,0,-0.1,0,504)"/>
<path style="fill:none;stroke-width:17.648;stroke-linecap:round;stroke-linejoin:round;stroke:rgb(0%,0%,0%);stroke-opacity:1;stroke-miterlimit:10;" d="M 1200.117188 1342.890625 L 1200.117188 -271.289063 " transform="matrix(0.1,0,0,-0.1,0,504)"/>
<path style="fill:none;stroke-width:5.8827;stroke-linecap:round;stroke-linejoin:round;stroke:rgb(0%,0%,0%);stroke-opacity:1;stroke-miterlimit:10;" d="M 2031.289063 4735.195313 L 2031.289063 3544.21875 M 2061.914063 4735.195313 L 2061.914063 3544.21875 M 961.796875 2432.304688 L 2.304688 2432.304688 M 955.703125 2454.882813 L -3.789063 2454.882813 M 5368.28125 2421.015625 L 4408.789063 2421.015625 M 5368.28125 2438.007813 L 4408.789063 2438.007813 M 2043.59375 880.117188 L 2043.59375 -310.820313 M 2074.101563 885.820313 L 2074.101563 -305.195313 M 4818.28125 490.585938 L 4103.203125 1100.195313 M 4799.882813 468.085938 L 4084.882813 1077.695313 " transform="matrix(0.1,0,0,-0.1,0,504)"/>
</g>
</svg>
