<?xml version="1.0" encoding="UTF-8"?>
<svg xmlns="http://www.w3.org/2000/svg" xmlns:xlink="http://www.w3.org/1999/xlink" width="282pt" height="429pt" viewBox="0 0 282 429" version="1.1">
<g id="surface1">
<path style=" stroke:none;fill-rule:evenodd;fill:rgb(75.389099%,75.389099%,75.389099%);fill-opacity:1;" d="M 24.019531 80.148438 L 140.140625 80.148438 L 140.140625 59.832031 L 24.019531 59.832031 Z M 24.019531 80.148438 "/>
<path style=" stroke:none;fill-rule:evenodd;fill:rgb(75.389099%,75.389099%,75.389099%);fill-opacity:1;" d="M 137.691406 97.648438 L 254.429688 97.648438 L 254.429688 77.332031 L 137.691406 77.332031 Z M 137.691406 97.648438 "/>
<path style=" stroke:none;fill-rule:evenodd;fill:rgb(75.389099%,75.389099%,75.389099%);fill-opacity:1;" d="M 24.019531 115.140625 L 140.140625 115.140625 L 140.140625 94.832031 L 24.019531 94.832031 Z M 24.019531 115.140625 "/>
<path style=" stroke:none;fill-rule:evenodd;fill:rgb(75.389099%,75.389099%,75.389099%);fill-opacity:1;" d="M 137.691406 132.640625 L 254.429688 132.640625 L 254.429688 112.320313 L 137.691406 112.320313 Z M 137.691406 132.640625 "/>
<path style=" stroke:none;fill-rule:evenodd;fill:rgb(75.389099%,75.389099%,75.389099%);fill-opacity:1;" d="M 24.019531 149.011719 L 140.140625 149.011719 L 140.140625 128.691406 L 24.019531 128.691406 Z M 24.019531 149.011719 "/>
<path style=" stroke:none;fill-rule:evenodd;fill:rgb(75.389099%,75.389099%,75.389099%);fill-opacity:1;" d="M 137.691406 168.199219 L 254.429688 168.199219 L 254.429688 147.878906 L 137.691406 147.878906 Z M 137.691406 168.199219 "/>
<path style=" stroke:none;fill-rule:evenodd;fill:rgb(75.389099%,75.389099%,75.389099%);fill-opacity:1;" d="M 24.019531 185.699219 L 140.140625 185.699219 L 140.140625 165.378906 L 24.019531 165.378906 Z M 24.019531 185.699219 "/>
<path style=" stroke:none;fill-rule:evenodd;fill:rgb(75.389099%,75.389099%,75.389099%);fill-opacity:1;" d="M 137.691406 201.5 L 254.429688 201.5 L 254.429688 181.179688 L 137.691406 181.179688 Z M 137.691406 201.5 "/>
<path style=" stroke:none;fill-rule:evenodd;fill:rgb(75.389099%,75.389099%,75.389099%);fill-opacity:1;" d="M 24.019531 217.871094 L 140.140625 217.871094 L 140.140625 197.550781 L 24.019531 197.550781 Z M 24.019531 217.871094 "/>
<path style=" stroke:none;fill-rule:evenodd;fill:rgb(75.389099%,75.389099%,75.389099%);fill-opacity:1;" d="M 137.691406 233.679688 L 254.429688 233.679688 L 254.429688 213.359375 L 137.691406 213.359375 Z M 137.691406 233.679688 "/>
<path style=" stroke:none;fill-rule:evenodd;fill:rgb(75.389099%,75.389099%,75.389099%);fill-opacity:1;" d="M 24.019531 252.871094 L 140.140625 252.871094 L 140.140625 232.550781 L 24.019531 232.550781 Z M 24.019531 252.871094 "/>
<path style=" stroke:none;fill-rule:evenodd;fill:rgb(75.389099%,75.389099%,75.389099%);fill-opacity:1;" d="M 137.691406 270.359375 L 254.429688 270.359375 L 254.429688 250.039063 L 137.691406 250.039063 Z M 137.691406 270.359375 "/>
<path style=" stroke:none;fill-rule:evenodd;fill:rgb(75.389099%,75.389099%,75.389099%);fill-opacity:1;" d="M 24.019531 287.300781 L 140.140625 287.300781 L 140.140625 266.410156 L 24.019531 266.410156 Z M 24.019531 287.300781 "/>
<path style=" stroke:none;fill-rule:evenodd;fill:rgb(75.389099%,75.389099%,75.389099%);fill-opacity:1;" d="M 137.691406 305.921875 L 254.429688 305.921875 L 254.429688 285.601563 L 137.691406 285.601563 Z M 137.691406 305.921875 "/>
<path style=" stroke:none;fill-rule:evenodd;fill:rgb(75.389099%,75.389099%,75.389099%);fill-opacity:1;" d="M 24.019531 323.988281 L 140.140625 323.988281 L 140.140625 303.671875 L 24.019531 303.671875 Z M 24.019531 323.988281 "/>
<path style=" stroke:none;fill-rule:evenodd;fill:rgb(75.389099%,75.389099%,75.389099%);fill-opacity:1;" d="M 137.691406 339.789063 L 254.429688 339.789063 L 254.429688 319.46875 L 137.691406 319.46875 Z M 137.691406 339.789063 "/>
<path style=" stroke:none;fill-rule:evenodd;fill:rgb(75.389099%,75.389099%,75.389099%);fill-opacity:1;" d="M 24.019531 357.289063 L 140.140625 357.289063 L 140.140625 336.96875 L 24.019531 336.96875 Z M 24.019531 357.289063 "/>
<path style=" stroke:none;fill-rule:evenodd;fill:rgb(75.389099%,75.389099%,75.389099%);fill-opacity:1;" d="M 137.691406 373.660156 L 254.429688 373.660156 L 254.429688 353.339844 L 137.691406 353.339844 Z M 137.691406 373.660156 "/>
<path style=" stroke:none;fill-rule:evenodd;fill:rgb(75.389099%,75.389099%,75.389099%);fill-opacity:1;" d="M 24.019531 392.28125 L 140.140625 392.28125 L 140.140625 371.960938 L 24.019531 371.960938 Z M 24.019531 392.28125 "/>
<path style=" stroke:none;fill-rule:evenodd;fill:rgb(75.389099%,75.389099%,75.389099%);fill-opacity:1;" d="M 137.691406 410.339844 L 254.429688 410.339844 L 254.429688 390.019531 L 137.691406 390.019531 Z M 137.691406 410.339844 "/>
<path style=" stroke:none;fill-rule:evenodd;fill:rgb(75.389099%,75.389099%,75.389099%);fill-opacity:1;" d="M 24.019531 426.148438 L 140.140625 426.148438 L 140.140625 405.832031 L 24.019531 405.832031 Z M 24.019531 426.148438 "/>
<path style=" stroke:none;fill-rule:evenodd;fill:rgb(75.389099%,75.389099%,75.389099%);fill-opacity:1;" d="M 137.691406 445.339844 L 254.429688 445.339844 L 254.429688 425.019531 L 137.691406 425.019531 Z M 137.691406 445.339844 "/>
<path style="fill-rule:evenodd;fill:rgb(100%,100%,100%);fill-opacity:1;stroke-width:5.8827;stroke-linecap:round;stroke-linejoin:round;stroke:rgb(50.193787%,50.193787%,50.193787%);stroke-opacity:1;stroke-miterlimit:10;" d="M 2562.617188 -552.890625 L 2819.296875 -552.890625 L 2819.296875 3742.5 L 2562.617188 3742.5 Z M 2562.617188 -552.890625 " transform="matrix(0.1,0,0,-0.1,0,429)"/>
<path style="fill-rule:evenodd;fill:rgb(100%,100%,100%);fill-opacity:1;stroke-width:5.8827;stroke-linecap:round;stroke-linejoin:round;stroke:rgb(50.193787%,50.193787%,50.193787%);stroke-opacity:1;stroke-miterlimit:10;" d="M -4.296875 -552.890625 L 252.382813 -552.890625 L 252.382813 3742.5 L -4.296875 3742.5 Z M -4.296875 -552.890625 " transform="matrix(0.1,0,0,-0.1,0,429)"/>
</g>
</svg>
