<?xml version="1.0" encoding="UTF-8"?>
<svg xmlns="http://www.w3.org/2000/svg" xmlns:xlink="http://www.w3.org/1999/xlink" width="250pt" height="513pt" viewBox="0 0 250 513" version="1.1">
<g id="surface1">
<path style="fill:none;stroke-width:5.8827;stroke-linecap:round;stroke-linejoin:round;stroke:rgb(0%,0%,0%);stroke-opacity:1;stroke-miterlimit:10;" d="M 2501.484375 4932.382813 L 2501.484375 -203.90625 " transform="matrix(0.1,0,0,-0.1,0,513)"/>
<path style="fill:none;stroke-width:5.8827;stroke-linecap:round;stroke-linejoin:round;stroke:rgb(0%,0%,0%);stroke-opacity:1;stroke-miterlimit:10;" d="M 1254.6875 4932.382813 L 1254.6875 -203.90625 M 1230.3125 4932.382813 L 1230.3125 -203.90625 " transform="matrix(0.1,0,0,-0.1,0,513)"/>
<path style="fill:none;stroke-width:5.8827;stroke-linecap:round;stroke-linejoin:round;stroke:rgb(0%,0%,0%);stroke-opacity:1;stroke-dasharray:70.5918,35.2959;stroke-miterlimit:10;" d="M 1499.21875 4932.382813 L 1499.21875 -203.90625 " transform="matrix(0.1,0,0,-0.1,0,513)"/>
<path style="fill:none;stroke-width:5.8827;stroke-linecap:round;stroke-linejoin:round;stroke:rgb(0%,0%,0%);stroke-opacity:1;stroke-dasharray:70.5918,35.2959;stroke-miterlimit:10;" d="M 484.609375 4932.382813 L 484.609375 -203.90625 M 1994.21875 4932.382813 L 1994.21875 -203.90625 M 979.6875 4932.382813 L 979.6875 -203.90625 M 741.289063 4932.382813 L 741.289063 -203.90625 M 1743.59375 4932.382813 L 1743.59375 -203.90625 M 2250.898438 4932.382813 L 2250.898438 -203.90625 M 240.195313 4932.382813 L 240.195313 -203.90625 " transform="matrix(0.1,0,0,-0.1,0,513)"/>
</g>
</svg>
