<?xml version="1.0" encoding="UTF-8"?>
<svg xmlns="http://www.w3.org/2000/svg" xmlns:xlink="http://www.w3.org/1999/xlink" width="510pt" height="498pt" viewBox="0 0 510 498" version="1.1">
<g id="surface1">
<path style="fill:none;stroke-width:5.8827;stroke-linecap:round;stroke-linejoin:round;stroke:rgb(0%,0%,0%);stroke-opacity:1;stroke-miterlimit:10;" d="M 0 4568.007813 L 0 -365.195313 M 2139.101563 4551.015625 L 2139.101563 3281.015625 L 2188.007813 3207.695313 L 2267.5 3151.210938 L 2371.40625 3139.882813 L 2463.085938 3139.882813 L 4907.695313 4613.085938 " transform="matrix(0.1,0,0,-0.1,0,498)"/>
<path style="fill:none;stroke-width:5.8827;stroke-linecap:round;stroke-linejoin:round;stroke:rgb(0%,0%,0%);stroke-opacity:1;stroke-miterlimit:10;" d="M 5097.1875 3427.8125 L 2505.78125 1757.109375 L 2395.78125 1661.09375 L 2291.914063 1559.492188 L 2243.007813 1503.085938 L 2194.101563 1395.78125 L 2157.5 1260.390625 L 2145.195313 1068.515625 L 2139.101563 814.492188 L 2139.101563 -365.195313 " transform="matrix(0.1,0,0,-0.1,0,498)"/>
<path style="fill:none;stroke-width:5.8827;stroke-linecap:round;stroke-linejoin:round;stroke:rgb(0%,0%,0%);stroke-opacity:1;stroke-miterlimit:10;" d="M 1069.609375 4568.007813 L 1069.609375 -365.195313 M 1038.984375 4568.007813 L 1038.984375 -365.195313 M 2566.914063 2519.101563 L 5017.695313 4014.804688 M 2542.5 2462.617188 L 5017.695313 3986.601563 " transform="matrix(0.1,0,0,-0.1,0,498)"/>
<path style="fill:none;stroke-width:5.8827;stroke-linecap:round;stroke-linejoin:round;stroke:rgb(0%,0%,0%);stroke-opacity:1;stroke-dasharray:70.5918,35.2959;stroke-miterlimit:10;" d="M 543.984375 4562.304688 L 543.984375 -353.90625 M 1851.914063 4562.304688 L 1851.914063 -353.90625 M 268.984375 4562.304688 L 268.984375 -353.90625 M 1338.515625 4562.304688 L 1338.515625 -353.90625 M 806.796875 4562.304688 L 806.796875 -353.90625 M 1595.195313 4562.304688 L 1595.195313 -353.90625 " transform="matrix(0.1,0,0,-0.1,0,498)"/>
</g>
</svg>
