<?xml version="1.0" encoding="UTF-8"?>
<svg xmlns="http://www.w3.org/2000/svg" xmlns:xlink="http://www.w3.org/1999/xlink" width="465pt" height="498pt" viewBox="0 0 465 498" version="1.1">
<g id="surface1">
<path style="fill:none;stroke-width:5.8827;stroke-linecap:round;stroke-linejoin:round;stroke:rgb(0%,0%,0%);stroke-opacity:1;stroke-miterlimit:10;" d="M -3.789063 4568.007813 L -3.789063 -365.195313 M 1689.101563 4551.015625 L 1689.101563 3281.015625 L 1738.007813 3207.695313 L 1817.5 3151.210938 L 1921.40625 3139.882813 L 2013.085938 3139.882813 L 4457.695313 4613.085938 " transform="matrix(0.1,0,0,-0.1,0,498)"/>
<path style="fill:none;stroke-width:5.8827;stroke-linecap:round;stroke-linejoin:round;stroke:rgb(0%,0%,0%);stroke-opacity:1;stroke-miterlimit:10;" d="M 4647.1875 3427.8125 L 2055.78125 1757.109375 L 1945.78125 1661.09375 L 1841.914063 1559.492188 L 1793.007813 1503.085938 L 1744.101563 1395.78125 L 1707.5 1260.390625 L 1695.195313 1068.515625 L 1689.101563 814.492188 L 1689.101563 -365.195313 " transform="matrix(0.1,0,0,-0.1,0,498)"/>
<path style="fill:none;stroke-width:5.8827;stroke-linecap:round;stroke-linejoin:round;stroke:rgb(0%,0%,0%);stroke-opacity:1;stroke-miterlimit:10;" d="M 827.382813 4568.007813 L 827.382813 -365.195313 M 857.890625 4568.007813 L 857.890625 -365.195313 M 2116.914063 2519.101563 L 4567.695313 4014.804688 M 2092.5 2462.617188 L 4567.695313 3986.601563 " transform="matrix(0.1,0,0,-0.1,0,498)"/>
<path style="fill:none;stroke-width:5.8827;stroke-linecap:round;stroke-linejoin:round;stroke:rgb(0%,0%,0%);stroke-opacity:1;stroke-dasharray:70.5918,35.2959;stroke-miterlimit:10;" d="M 423.984375 4562.304688 L 423.984375 -353.90625 M 1285.78125 4562.304688 L 1285.78125 -353.90625 " transform="matrix(0.1,0,0,-0.1,0,498)"/>
</g>
</svg>
