<?xml version="1.0" encoding="UTF-8"?>
<svg xmlns="http://www.w3.org/2000/svg" xmlns:xlink="http://www.w3.org/1999/xlink" width="497pt" height="498pt" viewBox="0 0 497 498" version="1.1">
<g id="surface1">
<path style="fill:none;stroke-width:5.8827;stroke-linecap:round;stroke-linejoin:round;stroke:rgb(0%,0%,0%);stroke-opacity:1;stroke-miterlimit:10;" d="M -1.601563 4568.007813 L -1.601563 -365.195313 M 2009.101563 4551.015625 L 2009.101563 3281.015625 L 2058.007813 3207.695313 L 2137.5 3151.210938 L 2241.40625 3139.882813 L 2333.085938 3139.882813 L 4777.695313 4613.085938 " transform="matrix(0.1,0,0,-0.1,0,498)"/>
<path style="fill:none;stroke-width:5.8827;stroke-linecap:round;stroke-linejoin:round;stroke:rgb(0%,0%,0%);stroke-opacity:1;stroke-miterlimit:10;" d="M 4967.1875 3427.8125 L 2375.78125 1757.109375 L 2265.78125 1661.09375 L 2161.914063 1559.492188 L 2113.007813 1503.085938 L 2064.101563 1395.78125 L 2027.5 1260.390625 L 2015.195313 1068.515625 L 2009.101563 814.492188 L 2009.101563 -365.195313 " transform="matrix(0.1,0,0,-0.1,0,498)"/>
<path style="fill:none;stroke-width:5.8827;stroke-linecap:round;stroke-linejoin:round;stroke:rgb(0%,0%,0%);stroke-opacity:1;stroke-miterlimit:10;" d="M 994.609375 4568.007813 L 994.609375 -365.195313 M 957.890625 4568.007813 L 957.890625 -365.195313 M 2436.914063 2519.101563 L 4887.695313 4014.804688 M 2412.5 2462.617188 L 4887.695313 3986.601563 " transform="matrix(0.1,0,0,-0.1,0,498)"/>
<path style="fill:none;stroke-width:5.8827;stroke-linecap:round;stroke-linejoin:round;stroke:rgb(0%,0%,0%);stroke-opacity:1;stroke-dasharray:70.5918,35.2959;stroke-miterlimit:10;" d="M 646.210938 4562.304688 L 646.210938 -353.90625 M 1648.515625 4562.304688 L 1648.515625 -353.90625 M 328.398438 4562.304688 L 328.398438 -353.90625 M 1324.609375 4562.304688 L 1324.609375 -353.90625 " transform="matrix(0.1,0,0,-0.1,0,498)"/>
</g>
</svg>
