<?xml version="1.0" encoding="UTF-8"?>
<svg xmlns="http://www.w3.org/2000/svg" xmlns:xlink="http://www.w3.org/1999/xlink" width="561pt" height="524pt" viewBox="0 0 561 524" version="1.1">
<g id="surface1">
<path style="fill:none;stroke-width:5.8792;stroke-linecap:round;stroke-linejoin:round;stroke:rgb(0%,0%,0%);stroke-opacity:1;stroke-miterlimit:10;" d="M 2.8125 3272.695313 L 1438.984375 2404.609375 L 1573.515625 2342.5 L 1683.515625 2229.804688 L 1732.382813 2145.3125 L 1732.382813 -199.804688 " transform="matrix(0.1,0,0,-0.1,0,524)"/>
<path style="fill:none;stroke-width:5.8792;stroke-linecap:round;stroke-linejoin:round;stroke:rgb(0%,0%,0%);stroke-opacity:1;stroke-miterlimit:10;" d="M 424.492188 4963.789063 L 2300.78125 3819.492188 L 2447.5 3746.210938 L 2612.5 3746.210938 L 2783.59375 3785.585938 L 4879.882813 5037.109375 " transform="matrix(0.1,0,0,-0.1,0,524)"/>
<path style="fill:none;stroke-width:5.8792;stroke-linecap:round;stroke-linejoin:round;stroke:rgb(0%,0%,0%);stroke-opacity:1;stroke-miterlimit:10;" d="M 5613.28125 3734.882813 L 3834.804688 2494.6875 L 3700.390625 2432.695313 L 3584.21875 2320 L 3529.21875 2235.390625 L 3529.21875 -120.820313 " transform="matrix(0.1,0,0,-0.1,0,524)"/>
<path style="fill:none;stroke-width:5.8792;stroke-linecap:round;stroke-linejoin:round;stroke:rgb(0%,0%,0%);stroke-opacity:1;stroke-miterlimit:10;" d="M 2581.914063 1683.007813 L 2581.914063 -143.398438 M 2606.40625 1683.007813 L 2606.40625 -143.398438 M 235 4135.117188 L 1585.703125 3317.8125 M 235 4163.28125 L 1604.101563 3340.3125 M 3529.21875 3340.3125 L 5240.507813 4388.789063 M 3547.617188 3317.8125 L 5258.789063 4371.914063 " transform="matrix(0.1,0,0,-0.1,0,524)"/>
<path style=" stroke:none;fill-rule:evenodd;fill:rgb(75.389099%,75.389099%,75.389099%);fill-opacity:1;" d="M 341.921875 348.929688 L 350.480469 348.929688 L 350.480469 335.410156 L 341.921875 335.410156 Z M 341.921875 348.929688 "/>
<path style=" stroke:none;fill-rule:evenodd;fill:rgb(75.389099%,75.389099%,75.389099%);fill-opacity:1;" d="M 334.589844 335.96875 L 343.140625 335.96875 L 343.140625 322.441406 L 334.589844 322.441406 Z M 334.589844 335.96875 "/>
<path style=" stroke:none;fill-rule:evenodd;fill:rgb(75.389099%,75.389099%,75.389099%);fill-opacity:1;" d="M 327.25 348.929688 L 335.808594 348.929688 L 335.808594 335.410156 L 327.25 335.410156 Z M 327.25 348.929688 "/>
<path style=" stroke:none;fill-rule:evenodd;fill:rgb(75.389099%,75.389099%,75.389099%);fill-opacity:1;" d="M 319.921875 335.96875 L 328.480469 335.96875 L 328.480469 322.441406 L 319.921875 322.441406 Z M 319.921875 335.96875 "/>
<path style=" stroke:none;fill-rule:evenodd;fill:rgb(75.389099%,75.389099%,75.389099%);fill-opacity:1;" d="M 313.199219 348.929688 L 321.75 348.929688 L 321.75 335.410156 L 313.199219 335.410156 Z M 313.199219 348.929688 "/>
<path style=" stroke:none;fill-rule:evenodd;fill:rgb(75.389099%,75.389099%,75.389099%);fill-opacity:1;" d="M 305.859375 335.96875 L 314.417969 335.96875 L 314.417969 322.441406 L 305.859375 322.441406 Z M 305.859375 335.96875 "/>
<path style=" stroke:none;fill-rule:evenodd;fill:rgb(75.389099%,75.389099%,75.389099%);fill-opacity:1;" d="M 298.53125 348.929688 L 307.089844 348.929688 L 307.089844 335.410156 L 298.53125 335.410156 Z M 298.53125 348.929688 "/>
<path style=" stroke:none;fill-rule:evenodd;fill:rgb(75.389099%,75.389099%,75.389099%);fill-opacity:1;" d="M 291.808594 335.96875 L 300.359375 335.96875 L 300.359375 322.441406 L 291.808594 322.441406 Z M 291.808594 335.96875 "/>
<path style=" stroke:none;fill-rule:evenodd;fill:rgb(75.389099%,75.389099%,75.389099%);fill-opacity:1;" d="M 285.078125 348.929688 L 293.640625 348.929688 L 293.640625 335.410156 L 285.078125 335.410156 Z M 285.078125 348.929688 "/>
<path style=" stroke:none;fill-rule:evenodd;fill:rgb(75.389099%,75.389099%,75.389099%);fill-opacity:1;" d="M 277.75 335.96875 L 286.917969 335.96875 L 286.917969 322.441406 L 277.75 322.441406 Z M 277.75 335.96875 "/>
<path style=" stroke:none;fill-rule:evenodd;fill:rgb(75.389099%,75.389099%,75.389099%);fill-opacity:1;" d="M 269.800781 348.929688 L 278.359375 348.929688 L 278.359375 335.410156 L 269.800781 335.410156 Z M 269.800781 348.929688 "/>
<path style=" stroke:none;fill-rule:evenodd;fill:rgb(75.389099%,75.389099%,75.389099%);fill-opacity:1;" d="M 262.46875 335.96875 L 271.03125 335.96875 L 271.03125 322.441406 L 262.46875 322.441406 Z M 262.46875 335.96875 "/>
<path style=" stroke:none;fill-rule:evenodd;fill:rgb(75.389099%,75.389099%,75.389099%);fill-opacity:1;" d="M 255.75 348.929688 L 264.300781 348.929688 L 264.300781 335.410156 L 255.75 335.410156 Z M 255.75 348.929688 "/>
<path style=" stroke:none;fill-rule:evenodd;fill:rgb(75.389099%,75.389099%,75.389099%);fill-opacity:1;" d="M 247.800781 335.96875 L 256.359375 335.96875 L 256.359375 322.441406 L 247.800781 322.441406 Z M 247.800781 335.96875 "/>
<path style=" stroke:none;fill-rule:evenodd;fill:rgb(75.389099%,75.389099%,75.389099%);fill-opacity:1;" d="M 240.46875 348.929688 L 249.019531 348.929688 L 249.019531 335.410156 L 240.46875 335.410156 Z M 240.46875 348.929688 "/>
<path style=" stroke:none;fill-rule:evenodd;fill:rgb(75.389099%,75.389099%,75.389099%);fill-opacity:1;" d="M 234.359375 335.96875 L 242.910156 335.96875 L 242.910156 322.441406 L 234.359375 322.441406 Z M 234.359375 335.96875 "/>
<path style=" stroke:none;fill-rule:evenodd;fill:rgb(75.389099%,75.389099%,75.389099%);fill-opacity:1;" d="M 227.019531 348.929688 L 235.582031 348.929688 L 235.582031 335.410156 L 227.019531 335.410156 Z M 227.019531 348.929688 "/>
<path style=" stroke:none;fill-rule:evenodd;fill:rgb(75.389099%,75.389099%,75.389099%);fill-opacity:1;" d="M 220.300781 335.96875 L 228.859375 335.96875 L 228.859375 322.441406 L 220.300781 322.441406 Z M 220.300781 335.96875 "/>
<path style=" stroke:none;fill-rule:evenodd;fill:rgb(75.389099%,75.389099%,75.389099%);fill-opacity:1;" d="M 212.351563 348.929688 L 220.910156 348.929688 L 220.910156 335.410156 L 212.351563 335.410156 Z M 212.351563 348.929688 "/>
<path style=" stroke:none;fill-rule:evenodd;fill:rgb(75.389099%,75.389099%,75.389099%);fill-opacity:1;" d="M 205.019531 335.96875 L 213.582031 335.96875 L 213.582031 322.441406 L 205.019531 322.441406 Z M 205.019531 335.96875 "/>
<path style=" stroke:none;fill-rule:evenodd;fill:rgb(75.389099%,75.389099%,75.389099%);fill-opacity:1;" d="M 198.300781 348.929688 L 206.851563 348.929688 L 206.851563 335.410156 L 198.300781 335.410156 Z M 198.300781 348.929688 "/>
<path style=" stroke:none;fill-rule:evenodd;fill:rgb(75.389099%,75.389099%,75.389099%);fill-opacity:1;" d="M 190.351563 335.96875 L 198.910156 335.96875 L 198.910156 322.441406 L 190.351563 322.441406 Z M 190.351563 335.96875 "/>
<path style=" stroke:none;fill-rule:evenodd;fill:rgb(75.389099%,75.389099%,75.389099%);fill-opacity:1;" d="M 183.628906 348.929688 L 192.191406 348.929688 L 192.191406 335.410156 L 183.628906 335.410156 Z M 183.628906 348.929688 "/>
<path style=" stroke:none;fill-rule:evenodd;fill:rgb(75.389099%,75.389099%,75.389099%);fill-opacity:1;" d="M 176.910156 335.96875 L 185.460938 335.96875 L 185.460938 322.441406 L 176.910156 322.441406 Z M 176.910156 335.96875 "/>
<path style="fill-rule:evenodd;fill:rgb(100%,100%,100%);fill-opacity:1;stroke-width:5.8792;stroke-linecap:round;stroke-linejoin:round;stroke:rgb(50.193787%,50.193787%,50.193787%);stroke-opacity:1;stroke-miterlimit:10;" d="M 1744.609375 2015.585938 L 3523.085938 2015.585938 L 3523.085938 2043.789063 L 1744.609375 2043.789063 Z M 1744.609375 2015.585938 " transform="matrix(0.1,0,0,-0.1,0,524)"/>
<path style="fill-rule:evenodd;fill:rgb(100%,100%,100%);fill-opacity:1;stroke-width:5.8792;stroke-linecap:round;stroke-linejoin:round;stroke:rgb(50.193787%,50.193787%,50.193787%);stroke-opacity:1;stroke-miterlimit:10;" d="M 1744.609375 1722.5 L 3523.085938 1722.5 L 3523.085938 1750.703125 L 1744.609375 1750.703125 Z M 1744.609375 1722.5 " transform="matrix(0.1,0,0,-0.1,0,524)"/>
<path style=" stroke:none;fill-rule:evenodd;fill:rgb(75.389099%,75.389099%,75.389099%);fill-opacity:1;" d="M 231.300781 148.820313 L 226.410156 155.019531 L 214.800781 147.128906 L 219.078125 140.929688 "/>
<path style=" stroke:none;fill-rule:evenodd;fill:rgb(75.389099%,75.389099%,75.389099%);fill-opacity:1;" d="M 215.410156 146.558594 L 210.519531 152.761719 L 198.910156 144.871094 L 203.191406 138.671875 "/>
<path style=" stroke:none;fill-rule:evenodd;fill:rgb(75.389099%,75.389099%,75.389099%);fill-opacity:1;" d="M 223.359375 159.53125 L 218.46875 165.730469 L 206.851563 157.839844 L 211.128906 151.640625 "/>
<path style=" stroke:none;fill-rule:evenodd;fill:rgb(75.389099%,75.389099%,75.389099%);fill-opacity:1;" d="M 207.46875 157.269531 L 202.578125 163.46875 L 190.960938 155.578125 L 195.238281 149.378906 "/>
<path style=" stroke:none;fill-rule:evenodd;fill:rgb(75.389099%,75.389099%,75.389099%);fill-opacity:1;" d="M 215.410156 169.679688 L 210.519531 175.878906 L 198.910156 167.980469 L 203.191406 161.78125 "/>
<path style=" stroke:none;fill-rule:evenodd;fill:rgb(75.389099%,75.389099%,75.389099%);fill-opacity:1;" d="M 199.519531 167.421875 L 194.628906 173.621094 L 183.019531 165.730469 L 187.300781 159.53125 "/>
<path style=" stroke:none;fill-rule:evenodd;fill:rgb(75.389099%,75.389099%,75.389099%);fill-opacity:1;" d="M 206.851563 180.390625 L 201.96875 186.589844 L 190.351563 178.691406 L 194.628906 172.488281 "/>
<path style=" stroke:none;fill-rule:evenodd;fill:rgb(75.389099%,75.389099%,75.389099%);fill-opacity:1;" d="M 191.578125 177.570313 L 186.691406 183.769531 L 175.070313 175.878906 L 179.351563 169.679688 "/>
<path style=" stroke:none;fill-rule:evenodd;fill:rgb(75.389099%,75.389099%,75.389099%);fill-opacity:1;" d="M 199.519531 189.410156 L 194.628906 195.609375 L 183.019531 187.710938 L 187.300781 181.511719 "/>
<path style=" stroke:none;fill-rule:evenodd;fill:rgb(75.389099%,75.389099%,75.389099%);fill-opacity:1;" d="M 184.238281 187.148438 L 179.351563 193.351563 L 167.738281 185.460938 L 172.019531 179.261719 "/>
<path style=" stroke:none;fill-rule:evenodd;fill:rgb(75.389099%,75.389099%,75.389099%);fill-opacity:1;" d="M 191.578125 200.121094 L 186.691406 206.320313 L 175.070313 198.421875 L 179.351563 192.21875 "/>
<path style=" stroke:none;fill-rule:evenodd;fill:rgb(75.389099%,75.389099%,75.389099%);fill-opacity:1;" d="M 175.679688 198.421875 L 170.800781 204.628906 L 159.179688 196.730469 L 163.460938 190.53125 "/>
<path style=" stroke:none;fill-rule:evenodd;fill:rgb(75.389099%,75.389099%,75.389099%);fill-opacity:1;" d="M 183.628906 210.261719 L 178.738281 216.460938 L 167.128906 208.570313 L 171.410156 202.371094 "/>
<path style=" stroke:none;fill-rule:evenodd;fill:rgb(75.389099%,75.389099%,75.389099%);fill-opacity:1;" d="M 168.351563 208.570313 L 163.460938 214.769531 L 151.851563 206.878906 L 156.128906 200.679688 "/>
<path style=" stroke:none;fill-rule:evenodd;fill:rgb(75.389099%,75.389099%,75.389099%);fill-opacity:1;" d="M 175.679688 221.539063 L 170.800781 227.738281 L 159.179688 219.851563 L 163.460938 213.640625 "/>
<path style=" stroke:none;fill-rule:evenodd;fill:rgb(75.389099%,75.389099%,75.389099%);fill-opacity:1;" d="M 160.410156 218.71875 L 155.519531 224.921875 L 143.898438 217.03125 L 148.179688 210.828125 "/>
<path style=" stroke:none;fill-rule:evenodd;fill:rgb(75.389099%,75.389099%,75.389099%);fill-opacity:1;" d="M 167.738281 231.121094 L 162.851563 237.320313 L 151.238281 229.429688 L 155.519531 223.230469 "/>
<path style=" stroke:none;fill-rule:evenodd;fill:rgb(75.389099%,75.389099%,75.389099%);fill-opacity:1;" d="M 152.460938 228.859375 L 147.570313 235.070313 L 135.960938 227.171875 L 140.238281 220.96875 "/>
<path style=" stroke:none;fill-rule:evenodd;fill:rgb(75.389099%,75.389099%,75.389099%);fill-opacity:1;" d="M 159.789063 241.828125 L 154.910156 248.03125 L 143.289063 240.140625 L 147.570313 233.941406 "/>
<path style=" stroke:none;fill-rule:evenodd;fill:rgb(75.389099%,75.389099%,75.389099%);fill-opacity:1;" d="M 143.898438 239.578125 L 139.011719 245.78125 L 127.398438 237.878906 L 131.679688 231.679688 "/>
<path style=" stroke:none;fill-rule:evenodd;fill:rgb(75.389099%,75.389099%,75.389099%);fill-opacity:1;" d="M 151.851563 251.980469 L 146.960938 258.179688 L 135.351563 250.289063 L 139.628906 244.078125 "/>
<path style=" stroke:none;fill-rule:evenodd;fill:rgb(75.389099%,75.389099%,75.389099%);fill-opacity:1;" d="M 136.570313 249.71875 L 131.679688 255.921875 L 120.070313 248.03125 L 124.351563 241.828125 "/>
<path style=" stroke:none;fill-rule:evenodd;fill:rgb(75.389099%,75.389099%,75.389099%);fill-opacity:1;" d="M 143.898438 262.121094 L 139.011719 268.320313 L 127.398438 260.429688 L 131.679688 254.230469 "/>
<path style=" stroke:none;fill-rule:evenodd;fill:rgb(75.389099%,75.389099%,75.389099%);fill-opacity:1;" d="M 128.628906 259.871094 L 123.738281 266.070313 L 112.121094 258.179688 L 116.398438 251.980469 "/>
<path style="fill-rule:evenodd;fill:rgb(100%,100%,100%);fill-opacity:1;stroke-width:5.8792;stroke-linecap:round;stroke-linejoin:round;stroke:rgb(50.193787%,50.193787%,50.193787%);stroke-opacity:1;stroke-miterlimit:10;" d="M 2086.914063 3915.3125 L 1102.890625 2635.703125 L 1078.515625 2652.617188 L 2062.382813 3932.1875 Z M 2086.914063 3915.3125 " transform="matrix(0.1,0,0,-0.1,0,524)"/>
<path style="fill-rule:evenodd;fill:rgb(100%,100%,100%);fill-opacity:1;stroke-width:5.8792;stroke-linecap:round;stroke-linejoin:round;stroke:rgb(50.193787%,50.193787%,50.193787%);stroke-opacity:1;stroke-miterlimit:10;" d="M 2343.59375 3746.210938 L 1365.703125 2472.1875 L 1341.289063 2489.101563 L 2319.101563 3763.085938 Z M 2343.59375 3746.210938 " transform="matrix(0.1,0,0,-0.1,0,524)"/>
<path style=" stroke:none;fill-rule:evenodd;fill:rgb(75.389099%,75.389099%,75.389099%);fill-opacity:1;" d="M 285.078125 147.128906 L 289.359375 153.328125 L 301.589844 145.441406 L 296.699219 139.238281 "/>
<path style=" stroke:none;fill-rule:evenodd;fill:rgb(75.389099%,75.389099%,75.389099%);fill-opacity:1;" d="M 300.96875 144.871094 L 305.25 151.070313 L 317.480469 143.179688 L 312.589844 136.980469 "/>
<path style=" stroke:none;fill-rule:evenodd;fill:rgb(75.389099%,75.389099%,75.389099%);fill-opacity:1;" d="M 293.03125 157.839844 L 297.308594 164.039063 L 309.53125 156.148438 L 304.640625 149.949219 "/>
<path style=" stroke:none;fill-rule:evenodd;fill:rgb(75.389099%,75.389099%,75.389099%);fill-opacity:1;" d="M 308.921875 155.019531 L 313.199219 161.21875 L 325.421875 153.328125 L 320.53125 147.128906 "/>
<path style=" stroke:none;fill-rule:evenodd;fill:rgb(75.389099%,75.389099%,75.389099%);fill-opacity:1;" d="M 300.96875 167.980469 L 305.25 174.191406 L 317.480469 166.289063 L 312.589844 160.089844 "/>
<path style=" stroke:none;fill-rule:evenodd;fill:rgb(75.389099%,75.389099%,75.389099%);fill-opacity:1;" d="M 316.859375 166.289063 L 321.140625 172.488281 L 333.371094 164.601563 L 328.480469 158.398438 "/>
<path style=" stroke:none;fill-rule:evenodd;fill:rgb(75.389099%,75.389099%,75.389099%);fill-opacity:1;" d="M 309.53125 178.691406 L 313.808594 184.898438 L 326.03125 177 L 321.140625 170.800781 "/>
<path style=" stroke:none;fill-rule:evenodd;fill:rgb(75.389099%,75.389099%,75.389099%);fill-opacity:1;" d="M 324.808594 175.878906 L 329.089844 182.078125 L 341.308594 174.191406 L 336.421875 167.980469 "/>
<path style=" stroke:none;fill-rule:evenodd;fill:rgb(75.389099%,75.389099%,75.389099%);fill-opacity:1;" d="M 316.859375 188.28125 L 321.140625 194.480469 L 333.371094 186.589844 L 328.480469 180.390625 "/>
<path style=" stroke:none;fill-rule:evenodd;fill:rgb(75.389099%,75.389099%,75.389099%);fill-opacity:1;" d="M 332.140625 185.460938 L 336.421875 191.660156 L 348.648438 183.769531 L 343.761719 177.570313 "/>
<path style=" stroke:none;fill-rule:evenodd;fill:rgb(75.389099%,75.389099%,75.389099%);fill-opacity:1;" d="M 324.808594 198.988281 L 329.089844 205.191406 L 341.308594 197.300781 L 336.421875 191.101563 "/>
<path style=" stroke:none;fill-rule:evenodd;fill:rgb(75.389099%,75.389099%,75.389099%);fill-opacity:1;" d="M 340.699219 196.730469 L 344.980469 202.929688 L 357.199219 195.039063 L 352.308594 188.839844 "/>
<path style=" stroke:none;fill-rule:evenodd;fill:rgb(75.389099%,75.389099%,75.389099%);fill-opacity:1;" d="M 332.75 209.140625 L 337.03125 215.339844 L 349.261719 207.441406 L 344.371094 201.238281 "/>
<path style=" stroke:none;fill-rule:evenodd;fill:rgb(75.389099%,75.389099%,75.389099%);fill-opacity:1;" d="M 348.648438 207.441406 L 352.921875 213.640625 L 365.148438 205.75 L 360.261719 199.550781 "/>
<path style=" stroke:none;fill-rule:evenodd;fill:rgb(75.389099%,75.389099%,75.389099%);fill-opacity:1;" d="M 341.921875 220.410156 L 346.199219 226.609375 L 358.421875 218.71875 L 353.53125 212.519531 "/>
<path style=" stroke:none;fill-rule:evenodd;fill:rgb(75.389099%,75.389099%,75.389099%);fill-opacity:1;" d="M 356.589844 217.589844 L 360.871094 223.789063 L 373.089844 215.898438 L 368.199219 209.699219 "/>
<path style=" stroke:none;fill-rule:evenodd;fill:rgb(75.389099%,75.389099%,75.389099%);fill-opacity:1;" d="M 349.261719 230.558594 L 353.53125 236.761719 L 365.761719 228.859375 L 360.871094 222.660156 "/>
<path style=" stroke:none;fill-rule:evenodd;fill:rgb(75.389099%,75.389099%,75.389099%);fill-opacity:1;" d="M 364.539063 227.738281 L 368.808594 233.941406 L 381.039063 226.050781 L 376.148438 219.851563 "/>
<path style=" stroke:none;fill-rule:evenodd;fill:rgb(75.389099%,75.389099%,75.389099%);fill-opacity:1;" d="M 357.199219 240.699219 L 361.480469 246.898438 L 373.699219 239.011719 L 368.808594 232.808594 "/>
<path style=" stroke:none;fill-rule:evenodd;fill:rgb(75.389099%,75.389099%,75.389099%);fill-opacity:1;" d="M 373.089844 239.011719 L 377.371094 245.210938 L 389.589844 237.320313 L 384.699219 231.121094 "/>
<path style=" stroke:none;fill-rule:evenodd;fill:rgb(75.389099%,75.389099%,75.389099%);fill-opacity:1;" d="M 365.148438 250.851563 L 369.421875 257.050781 L 381.648438 249.160156 L 376.761719 242.960938 "/>
<path style=" stroke:none;fill-rule:evenodd;fill:rgb(75.389099%,75.389099%,75.389099%);fill-opacity:1;" d="M 381.039063 249.71875 L 385.320313 255.921875 L 397.539063 248.03125 L 392.648438 241.828125 "/>
<path style=" stroke:none;fill-rule:evenodd;fill:rgb(75.389099%,75.389099%,75.389099%);fill-opacity:1;" d="M 373.089844 261.558594 L 377.371094 267.761719 L 389.589844 259.871094 L 384.699219 253.671875 "/>
<path style=" stroke:none;fill-rule:evenodd;fill:rgb(75.389099%,75.389099%,75.389099%);fill-opacity:1;" d="M 388.371094 259.308594 L 392.648438 265.511719 L 404.871094 257.609375 L 399.980469 251.410156 "/>
<path style="fill-rule:evenodd;fill:rgb(100%,100%,100%);fill-opacity:1;stroke-width:5.8792;stroke-linecap:round;stroke-linejoin:round;stroke:rgb(50.193787%,50.193787%,50.193787%);stroke-opacity:1;stroke-miterlimit:10;" d="M 3064.6875 3943.515625 L 4060.898438 2646.914063 L 4085.390625 2663.90625 L 3089.21875 3960.390625 Z M 3064.6875 3943.515625 " transform="matrix(0.1,0,0,-0.1,0,524)"/>
<path style="fill-rule:evenodd;fill:rgb(100%,100%,100%);fill-opacity:1;stroke-width:5.8792;stroke-linecap:round;stroke-linejoin:round;stroke:rgb(50.193787%,50.193787%,50.193787%);stroke-opacity:1;stroke-miterlimit:10;" d="M 2808.085938 3774.414063 L 3804.296875 2477.8125 L 3828.710938 2494.6875 L 2832.5 3791.289063 Z M 2808.085938 3774.414063 " transform="matrix(0.1,0,0,-0.1,0,524)"/>
</g>
</svg>
