<?xml version="1.0" encoding="UTF-8"?>
<svg xmlns="http://www.w3.org/2000/svg" xmlns:xlink="http://www.w3.org/1999/xlink" width="189pt" height="287pt" viewBox="0 0 189 287" version="1.1">
<g id="surface1">
<path style=" stroke:none;fill-rule:evenodd;fill:rgb(87.889099%,87.889099%,87.889099%);fill-opacity:1;" d="M -0.210938 20.351563 L 94.710938 20.351563 L 94.710938 4.808594 L -0.210938 4.808594 Z M -0.210938 20.351563 "/>
<path style=" stroke:none;fill-rule:evenodd;fill:rgb(87.889099%,87.889099%,87.889099%);fill-opacity:1;" d="M 95.5 36.691406 L 190.417969 36.691406 L 190.417969 21.148438 L 95.5 21.148438 Z M 95.5 36.691406 "/>
<path style=" stroke:none;fill-rule:evenodd;fill:rgb(87.889099%,87.889099%,87.889099%);fill-opacity:1;" d="M -0.210938 53.039063 L 94.710938 53.039063 L 94.710938 37.5 L -0.210938 37.5 Z M -0.210938 53.039063 "/>
<path style=" stroke:none;fill-rule:evenodd;fill:rgb(87.889099%,87.889099%,87.889099%);fill-opacity:1;" d="M 95.5 68.421875 L 190.417969 68.421875 L 190.417969 52.878906 L 95.5 52.878906 Z M 95.5 68.421875 "/>
<path style=" stroke:none;fill-rule:evenodd;fill:rgb(87.889099%,87.889099%,87.889099%);fill-opacity:1;" d="M -0.210938 84.761719 L 94.710938 84.761719 L 94.710938 69.21875 L -0.210938 69.21875 Z M -0.210938 84.761719 "/>
<path style=" stroke:none;fill-rule:evenodd;fill:rgb(87.889099%,87.889099%,87.889099%);fill-opacity:1;" d="M 95.5 101.109375 L 190.417969 101.109375 L 190.417969 85.570313 L 95.5 85.570313 Z M 95.5 101.109375 "/>
<path style=" stroke:none;fill-rule:evenodd;fill:rgb(87.889099%,87.889099%,87.889099%);fill-opacity:1;" d="M -0.210938 116.488281 L 94.710938 116.488281 L 94.710938 100.949219 L -0.210938 100.949219 Z M -0.210938 116.488281 "/>
<path style=" stroke:none;fill-rule:evenodd;fill:rgb(87.889099%,87.889099%,87.889099%);fill-opacity:1;" d="M 95.5 132.828125 L 190.417969 132.828125 L 190.417969 117.289063 L 95.5 117.289063 Z M 95.5 132.828125 "/>
<path style=" stroke:none;fill-rule:evenodd;fill:rgb(87.889099%,87.889099%,87.889099%);fill-opacity:1;" d="M -0.210938 149.179688 L 94.710938 149.179688 L 94.710938 133.640625 L -0.210938 133.640625 Z M -0.210938 149.179688 "/>
<path style=" stroke:none;fill-rule:evenodd;fill:rgb(87.889099%,87.889099%,87.889099%);fill-opacity:1;" d="M 95.5 164.558594 L 190.417969 164.558594 L 190.417969 149.019531 L 95.5 149.019531 Z M 95.5 164.558594 "/>
<path style=" stroke:none;fill-rule:evenodd;fill:rgb(87.889099%,87.889099%,87.889099%);fill-opacity:1;" d="M -0.210938 180.898438 L 94.710938 180.898438 L 94.710938 165.359375 L -0.210938 165.359375 Z M -0.210938 180.898438 "/>
<path style=" stroke:none;fill-rule:evenodd;fill:rgb(87.889099%,87.889099%,87.889099%);fill-opacity:1;" d="M 95.5 197.25 L 190.417969 197.25 L 190.417969 181.710938 L 95.5 181.710938 Z M 95.5 197.25 "/>
<path style=" stroke:none;fill-rule:evenodd;fill:rgb(87.889099%,87.889099%,87.889099%);fill-opacity:1;" d="M -0.210938 212.628906 L 94.710938 212.628906 L 94.710938 197.089844 L -0.210938 197.089844 Z M -0.210938 212.628906 "/>
<path style=" stroke:none;fill-rule:evenodd;fill:rgb(87.889099%,87.889099%,87.889099%);fill-opacity:1;" d="M 95.5 228.96875 L 190.417969 228.96875 L 190.417969 213.429688 L 95.5 213.429688 Z M 95.5 228.96875 "/>
<path style=" stroke:none;fill-rule:evenodd;fill:rgb(87.889099%,87.889099%,87.889099%);fill-opacity:1;" d="M -0.210938 245.320313 L 94.710938 245.320313 L 94.710938 229.78125 L -0.210938 229.78125 Z M -0.210938 245.320313 "/>
<path style=" stroke:none;fill-rule:evenodd;fill:rgb(87.889099%,87.889099%,87.889099%);fill-opacity:1;" d="M 95.5 260.699219 L 190.417969 260.699219 L 190.417969 245.160156 L 95.5 245.160156 Z M 95.5 260.699219 "/>
<path style=" stroke:none;fill-rule:evenodd;fill:rgb(87.889099%,87.889099%,87.889099%);fill-opacity:1;" d="M -0.210938 277.039063 L 94.710938 277.039063 L 94.710938 261.5 L -0.210938 261.5 Z M -0.210938 277.039063 "/>
<path style=" stroke:none;fill-rule:evenodd;fill:rgb(87.889099%,87.889099%,87.889099%);fill-opacity:1;" d="M 95.5 293.390625 L 190.417969 293.390625 L 190.417969 277.851563 L 95.5 277.851563 Z M 95.5 293.390625 "/>
</g>
</svg>
