<?xml version="1.0" encoding="UTF-8"?>
<svg xmlns="http://www.w3.org/2000/svg" xmlns:xlink="http://www.w3.org/1999/xlink" width="189pt" height="271pt" viewBox="0 0 189 271" version="1.1">
<g id="surface1">
<path style=" stroke:none;fill-rule:evenodd;fill:rgb(87.889099%,87.889099%,87.889099%);fill-opacity:1;" d="M -0.210938 84.871094 L 190.417969 84.871094 L 190.417969 69.308594 L -0.210938 69.308594 Z M -0.210938 84.871094 "/>
<path style=" stroke:none;fill-rule:evenodd;fill:rgb(87.889099%,87.889099%,87.889099%);fill-opacity:1;" d="M -0.210938 116.628906 L 190.417969 116.628906 L 190.417969 101.070313 L -0.210938 101.070313 Z M -0.210938 116.628906 "/>
<path style=" stroke:none;fill-rule:evenodd;fill:rgb(87.889099%,87.889099%,87.889099%);fill-opacity:1;" d="M -0.210938 148.238281 L 190.417969 148.238281 L 190.417969 133.800781 L -0.210938 133.800781 Z M -0.210938 148.238281 "/>
<path style=" stroke:none;fill-rule:evenodd;fill:rgb(87.889099%,87.889099%,87.889099%);fill-opacity:1;" d="M -0.210938 181.121094 L 190.417969 181.121094 L 190.417969 165.558594 L -0.210938 165.558594 Z M -0.210938 181.121094 "/>
<path style=" stroke:none;fill-rule:evenodd;fill:rgb(87.889099%,87.889099%,87.889099%);fill-opacity:1;" d="M -0.210938 212.890625 L 190.417969 212.890625 L 190.417969 197.328125 L -0.210938 197.328125 Z M -0.210938 212.890625 "/>
<path style=" stroke:none;fill-rule:evenodd;fill:rgb(87.889099%,87.889099%,87.889099%);fill-opacity:1;" d="M -0.210938 244.5 L 190.417969 244.5 L 190.417969 230.058594 L -0.210938 230.058594 Z M -0.210938 244.5 "/>
<path style=" stroke:none;fill-rule:evenodd;fill:rgb(87.889099%,87.889099%,87.889099%);fill-opacity:1;" d="M -0.210938 277.378906 L 190.417969 277.378906 L 190.417969 261.820313 L -0.210938 261.820313 Z M -0.210938 277.378906 "/>
<path style=" stroke:none;fill-rule:evenodd;fill:rgb(87.889099%,87.889099%,87.889099%);fill-opacity:1;" d="M -0.210938 52.140625 L 190.417969 52.140625 L 190.417969 36.582031 L -0.210938 36.582031 Z M -0.210938 52.140625 "/>
<path style=" stroke:none;fill-rule:evenodd;fill:rgb(87.889099%,87.889099%,87.889099%);fill-opacity:1;" d="M -0.210938 20.371094 L 190.417969 20.371094 L 190.417969 4.808594 L -0.210938 4.808594 Z M -0.210938 20.371094 "/>
</g>
</svg>
